<svg width="600" height="600" viewBox="0 0 600 600" fill="none" xmlns="http://www.w3.org/2000/svg">
<g clip-path="url(#clip0_992_87965)">
<circle cx="300" cy="300.293" r="256" fill="black"/>
<path d="M366.781 339.284L416.672 289.393C445.961 260.103 445.961 212.616 416.672 183.327C387.382 154.037 339.895 154.037 310.606 183.327L260.716 233.217C270.233 256.351 284.388 278.026 303.182 296.819C321.974 315.611 343.648 329.766 366.781 339.284Z" fill="white"/>
<path d="M344.054 362.012C321.604 351.287 300.563 336.627 281.968 318.032C263.373 299.437 248.713 278.396 237.988 255.946L183.327 310.607C154.037 339.896 154.037 387.384 183.327 416.673C212.616 445.962 260.103 445.962 289.393 416.673L344.054 362.012Z" fill="#FF6600"/>
<path fill-rule="evenodd" clip-rule="evenodd" d="M331.574 1.69153C496.515 19.1202 615.737 166.885 598.308 331.574C580.88 496.515 433.115 615.737 268.426 598.308C103.485 580.88 -15.7372 433.115 1.69153 268.426C19.1202 103.485 166.885 -15.7372 331.574 1.69153ZM325.006 64.3338C195.428 50.4413 77.9736 145.415 64.3338 274.994C50.4413 404.572 145.415 522.026 274.994 535.666C404.572 549.559 522.026 454.585 535.666 325.006C549.559 195.428 454.585 77.9736 325.006 64.3338Z" fill="#FF6600"/>
</g>
<defs>
<clipPath id="clip0_992_87965">
<rect width="600" height="600" fill="white"/>
</clipPath>
</defs>
</svg>
