<svg width="100%" height="100%" xmlns="http://www.w3.org/2000/svg" xmlns:xlink="http://www.w3.org/1999/xlink">
  <style>
    @media all and (max-width: 143px) {
      .small { visibility: visible; }
      .large { visibility: hidden; }
    }
    @media all and (min-width: 144px) {
      .small { visibility: hidden; }
      .large { visibility: visible; }
    }
  </style>

  <symbol id="small" viewBox="0 0 98 46">
    <path d="M0 4.54a4 4 0 014-4h89.28a4 4 0 014 4V41.46a4 4 0 01-4 4H4a4 4 0 01-4-4V4.54z" fill="#0D3BED"/>
    <path d="M0 4.54a4 4 0 014-4h89.28a4 4 0 014 4V41.46a4 4 0 01-4 4H4a4 4 0 01-4-4V4.54z" fill="url(#paint0_linear)" fill-opacity=".5"/>
    <path fill-rule="evenodd" clip-rule="evenodd" d="M22.461 11.54C16.131 11.54 11 16.67 11 23c0 6.33 5.131 11.461 11.461 11.461s11.461-5.13 11.461-11.46c0-6.33-5.131-11.462-11.46-11.462zm1.113 5.262c.188-.5.373-.99.559-1.472h-.407l-6.914 7.58v.541h5.694v.542l-2.847 6.09c0 .136 0 .272.135.407l8.135-9.07c-.135-.135-.135-.27-.135-.27h-5.56c-.27 0-.27-.27-.27-.27.59-1.377 1.11-2.754 1.61-4.078z" fill="#fff"/>
    <path d="M43.603 31.246h9.371v-2.668H46.46v-12.46h-2.857v15.128zm11.157 0h4.896c.12 0 .364-.003.736-.01.37-.007.728-.032 1.071-.074 1.219-.147 2.252-.57 3.1-1.271.847-.7 1.491-1.59 1.933-2.669.44-1.078.661-2.259.661-3.54 0-1.282-.22-2.462-.661-3.54-.442-1.08-1.086-1.969-1.933-2.67-.848-.7-1.881-1.123-3.1-1.27-.343-.042-.7-.067-1.071-.074-.372-.007-.617-.01-.736-.01h-4.895v15.128zm2.9-2.69v-9.749h1.996c.19 0 .445.004.767.01.322.008.613.04.872.095a2.8 2.8 0 011.587.893c.42.47.731 1.044.935 1.723.21.68.315 1.397.315 2.154 0 .721-.102 1.422-.305 2.101a4.531 4.531 0 01-.924 1.744c-.414.483-.95.791-1.608.924-.259.05-.55.081-.872.095-.322.007-.578.01-.767.01H57.66zm12.018 2.69h2.858v-6.892l6.03 6.892h3.614l-6.724-7.67 6.325-7.458h-3.488l-5.757 6.976v-6.976h-2.858v15.128z" fill="#fff"/>
    <defs><linearGradient id="paint0_linear" x1="32.789" y1="56.891" x2="-14.122" y2="4.157" gradientUnits="userSpaceOnUse"><stop stop-color="#76F3CD" stop-opacity="0"/><stop offset="1" stop-color="#76F3CD"/></linearGradient></defs>
  </symbol>

  <symbol id="large" viewBox="0 0 144 52">
    <path d="M0 3.151A2.23 2.23 0 012.23.921h139.057a2.23 2.23 0 012.229 2.23V48.85a2.23 2.23 0 01-2.229 2.23H2.229A2.23 2.23 0 010 48.849V3.151z" fill="#0F31F7"/>
    <path d="M0 3.151A2.23 2.23 0 012.23.921h139.057a2.23 2.23 0 012.229 2.23V48.85a2.23 2.23 0 01-2.229 2.23H2.229A2.23 2.23 0 010 48.849V3.151z" fill="url(#paint0_linear)" fill-opacity=".5"/>
    <path fill-rule="evenodd" clip-rule="evenodd" d="M25.078 12.068c-7.695 0-13.932 6.238-13.932 13.933 0 7.695 6.237 13.932 13.932 13.932S39.01 33.696 39.01 26.001s-6.237-13.933-13.932-13.933zm1.475 6.449c.23-.612.458-1.214.685-1.804h-.498L18.267 26v.663h6.978v.664l-3.489 7.464c0 .166 0 .331.166.497l9.968-11.112c-.166-.166-.166-.332-.166-.332h-6.811c-.333 0-.333-.332-.333-.332.724-1.687 1.36-3.373 1.973-4.996z" fill="#fff"/>
    <path d="M48.618 25h6.96v-1.982h-4.837v-9.253h-2.123V25zm8.443 0h2.122V13.765H57.06V25zm9.142.234c1.082 0 2.021-.234 2.817-.702a4.861 4.861 0 001.849-1.959c.437-.832.655-1.786.655-2.863 0-.026-.002-.125-.008-.296a3.44 3.44 0 00-.023-.36h-4.041v1.64h1.778c-.171.889-.514 1.539-1.03 1.95-.51.41-1.128.608-1.856.593-1.067-.016-1.868-.37-2.403-1.061-.531-.692-.796-1.623-.796-2.794 0-1.17.265-2.109.796-2.816.535-.707 1.336-1.053 2.403-1.038.717.005 1.305.206 1.763.6.463.391.796.914.999 1.57l2.169-.313c-.281-1.228-.835-2.177-1.662-2.848-.827-.67-1.964-1.006-3.41-1.006-.978 0-1.87.229-2.676.686-.801.458-1.44 1.124-1.92 1.998-.473.868-.71 1.924-.71 3.167 0 .952.141 1.792.422 2.52.286.729.674 1.34 1.163 1.834a5 5 0 001.7 1.124 5.51 5.51 0 002.021.374zM73.088 25h2.122v-4.634h5.025V25h2.122V13.765h-2.122v4.619H75.21v-4.62h-2.122V25zm14.065 0h2.122v-9.253h3.543v-1.982H83.61v1.982h3.542V25zm6.919 0h2.153v-7.49l4.884 7.49h2.154V13.765h-2.154v7.49l-4.884-7.49h-2.153V25zm11.524 0h2.122V13.765h-2.122V25zm4.461 0h2.153v-7.49l4.884 7.49h2.154V13.765h-2.154v7.49l-4.884-7.49h-2.153V25zm16.049.234c1.082 0 2.021-.234 2.817-.702a4.86 4.86 0 001.849-1.959c.437-.832.655-1.786.655-2.863 0-.026-.002-.125-.008-.296a3.531 3.531 0 00-.023-.36h-4.042v1.64h1.779c-.171.889-.515 1.539-1.03 1.95-.509.41-1.128.608-1.856.593-1.067-.016-1.868-.37-2.403-1.061-.531-.692-.796-1.623-.796-2.794 0-1.17.265-2.109.796-2.816.535-.707 1.336-1.053 2.403-1.038.717.005 1.305.206 1.763.6.463.391.796.914.999 1.57l2.169-.313c-.281-1.228-.835-2.177-1.662-2.848-.827-.67-1.964-1.006-3.41-1.006-.978 0-1.87.229-2.676.686-.801.458-1.441 1.124-1.919 1.998-.474.868-.71 1.924-.71 3.167 0 .952.14 1.792.421 2.52.286.729.674 1.34 1.163 1.834a5.003 5.003 0 001.7 1.124c.64.25 1.314.374 2.021.374zM48.462 39h3.636c.089 0 .27-.003.546-.008s.541-.023.796-.054c.905-.11 1.672-.424 2.302-.945a4.954 4.954 0 001.435-1.981c.328-.801.492-1.678.492-2.63 0-.951-.164-1.828-.492-2.629a4.954 4.954 0 00-1.435-1.982c-.63-.52-1.397-.835-2.302-.944a7.754 7.754 0 00-.796-.054 36.768 36.768 0 00-.546-.008h-3.636V39zm2.154-1.997v-7.24h1.482c.14 0 .33.002.57.007.24.005.455.029.647.07.474.094.866.315 1.178.663.313.349.544.776.695 1.28.156.505.234 1.038.234 1.6a5.42 5.42 0 01-.226 1.56 3.366 3.366 0 01-.687 1.295 2.058 2.058 0 01-1.194.687c-.192.036-.408.06-.647.07-.24.005-.43.008-.57.008h-1.482zM59.54 39h7.334v-1.982h-5.212v-2.887h4.276V32.15h-4.276v-2.403h5.212v-1.982H59.54V39zm11.623 0h3.167l3.433-11.235H75.58l-2.856 9.238-2.809-9.238h-2.184L71.164 39zm10.9 0h2.122v-5.118L88.664 39h2.684l-4.993-5.696 4.697-5.54h-2.59l-4.276 5.182v-5.181h-2.123V39zm10.533 0h2.122V27.765h-2.122V39zm7.067 0h2.122v-9.253h3.543v-1.982h-9.207v1.982h3.542V39z" fill="#fff"/>
    <defs><linearGradient id="paint0_linear" x1="143.516" y1="51.079" x2="114.717" y2="-35.21" gradientUnits="userSpaceOnUse"><stop offset=".474" stop-color="#76F3CD" stop-opacity="0"/><stop offset="1" stop-color="#76F3CD"/></linearGradient></defs>
  </symbol>

  <use class="small" xlink:href="#small" />
  <use class="large" xlink:href="#large" />
</svg>
