<svg xmlns="http://www.w3.org/2000/svg">
  <symbol id="large">
    <path fill-rule="evenodd" clip-rule="evenodd" d="M12.1616 11.6664L22.9833 22.4881V0.844727L12.1616 11.6664Z" fill="currentColor"/>
    <path fill-rule="evenodd" clip-rule="evenodd" d="M22.8383 23.3334L12.0166 12.5117V34.1551L22.8383 23.3334Z" fill="currentColor"/>
    <path fill-rule="evenodd" clip-rule="evenodd" d="M23.6831 14.9336V22.4886L31.2381 14.9336H23.6831Z" fill="currentColor"/>
    <path fill-rule="evenodd" clip-rule="evenodd" d="M3.76172 20.0384L11.3167 12.4834V20.0384H3.76172Z" fill="currentColor"/>
    <path d="M41.2483 16.5H48.2079V14.5183H43.3705V5.26488H41.2483V16.5ZM49.6905 16.5H51.8127V5.26488H49.6905V16.5ZM58.8331 16.7341C59.915 16.7341 60.8538 16.5 61.6497 16.0319C62.4455 15.5585 63.0619 14.9058 63.4988 14.0735C63.9357 13.2413 64.1542 12.2868 64.1542 11.2101C64.1542 11.1841 64.1516 11.0853 64.1464 10.9137C64.1412 10.742 64.1334 10.6224 64.1229 10.5548H60.0814V12.1932H61.8603C61.6887 13.0827 61.3454 13.7328 60.8304 14.1437C60.3207 14.5547 59.7017 14.7523 58.9735 14.7367C57.9072 14.7211 57.1062 14.3674 56.5705 13.6756C56.0399 12.9838 55.7746 12.0528 55.7746 10.8824C55.7746 9.71212 56.0399 8.77326 56.5705 8.06586C57.1062 7.35846 57.9072 7.01257 58.9735 7.02817C59.6913 7.03337 60.2791 7.23363 60.7368 7.62894C61.1997 8.01905 61.5326 8.54179 61.7355 9.19717L63.9045 8.88509C63.6236 7.65755 63.0697 6.70828 62.2426 6.0373C61.4156 5.36631 60.2791 5.03082 58.8331 5.03082C57.8552 5.03082 56.9632 5.25968 56.1569 5.71741C55.3559 6.17514 54.7161 6.84092 54.2376 7.71476C53.7643 8.5834 53.5276 9.6393 53.5276 10.8824C53.5276 11.8343 53.668 12.6743 53.9489 13.4025C54.235 14.1307 54.6225 14.7419 55.1114 15.236C55.6056 15.7302 56.1725 16.1047 56.8123 16.3596C57.4521 16.6092 58.1257 16.7341 58.8331 16.7341ZM65.7179 16.5H67.8401V11.8655H72.8647V16.5H74.9869V5.26488H72.8647V9.88376H67.8401V5.26488H65.7179V16.5ZM79.7832 16.5H81.9054V7.24663H85.4476V5.26488H76.241V7.24663H79.7832V16.5ZM86.7014 16.5H88.8548V9.00992L93.739 16.5H95.8924V5.26488H93.739V12.755L88.8548 5.26488H86.7014V16.5ZM98.2255 16.5H100.348V5.26488H98.2255V16.5ZM102.687 16.5H104.84V9.00992L109.724 16.5H111.878V5.26488H109.724V12.755L104.84 5.26488H102.687V16.5ZM118.736 16.7341C119.818 16.7341 120.757 16.5 121.553 16.0319C122.348 15.5585 122.965 14.9058 123.402 14.0735C123.839 13.2413 124.057 12.2868 124.057 11.2101C124.057 11.1841 124.054 11.0853 124.049 10.9137C124.044 10.742 124.036 10.6224 124.026 10.5548H119.984V12.1932H121.763C121.592 13.0827 121.248 13.7328 120.733 14.1437C120.224 14.5547 119.605 14.7523 118.876 14.7367C117.81 14.7211 117.009 14.3674 116.473 13.6756C115.943 12.9838 115.678 12.0528 115.678 10.8824C115.678 9.71212 115.943 8.77326 116.473 8.06586C117.009 7.35846 117.81 7.01257 118.876 7.02817C119.594 7.03337 120.182 7.23363 120.64 7.62894C121.103 8.01905 121.436 8.54179 121.638 9.19717L123.807 8.88509C123.527 7.65755 122.973 6.70828 122.146 6.0373C121.319 5.36631 120.182 5.03082 118.736 5.03082C117.758 5.03082 116.866 5.25968 116.06 5.71741C115.259 6.17514 114.619 6.84092 114.141 7.71476C113.667 8.5834 113.431 9.6393 113.431 10.8824C113.431 11.8343 113.571 12.6743 113.852 13.4025C114.138 14.1307 114.525 14.7419 115.014 15.236C115.509 15.7302 116.075 16.1047 116.715 16.3596C117.355 16.6092 118.029 16.7341 118.736 16.7341ZM41.0923 30.5H44.4394C44.5591 30.5 44.7671 30.4974 45.0636 30.4922C45.3653 30.4818 45.6488 30.4584 45.914 30.422C46.7567 30.3023 47.4563 29.9877 48.0128 29.4779C48.5694 28.963 48.9855 28.3076 49.2612 27.5118C49.5368 26.716 49.6747 25.8395 49.6747 24.8824C49.6747 23.9254 49.5368 23.0489 49.2612 22.2531C48.9855 21.4573 48.5694 20.8019 48.0128 20.287C47.4563 19.772 46.7567 19.4573 45.914 19.3429C45.6436 19.3013 45.3601 19.2779 45.0636 19.2727C44.7723 19.2675 44.5643 19.2649 44.4394 19.2649H41.0923V30.5ZM42.0364 29.6184V20.1465H44.4394C44.6579 20.1465 44.8946 20.1543 45.1494 20.1699C45.4095 20.1803 45.628 20.2011 45.8048 20.2324C46.5018 20.352 47.0636 20.6277 47.4901 21.0594C47.9166 21.4859 48.2261 22.0295 48.4185 22.69C48.6162 23.3454 48.715 24.0762 48.715 24.8824C48.715 25.6835 48.6162 26.4143 48.4185 27.0749C48.2261 27.7302 47.9166 28.2738 47.4901 28.7055C47.0636 29.132 46.5018 29.4077 45.8048 29.5325C45.628 29.5637 45.4147 29.5871 45.165 29.6028C44.9154 29.6132 44.6735 29.6184 44.4394 29.6184H42.0364ZM51.4088 30.5H58.3528V29.6262H52.3061V25.2804H57.4165V24.4065H52.3061V20.1387H58.3528V19.2649H51.4088V30.5ZM63.1968 30.5H64.3125L68.2916 19.2649H67.3398L63.743 29.3765L60.1696 19.2649H59.2177L63.1968 30.5ZM72.5905 30.5H73.4877V24.7576L79.2847 30.5H80.4863L74.6425 24.664L80.0182 19.2649H78.8322L73.4877 24.6016V19.2649H72.5905V30.5ZM81.7373 30.5H82.6346V19.2649H81.7373V30.5ZM88.0691 30.5H88.9664V20.1387H92.9923V19.2649H84.0432V20.1387H88.0691V30.5Z" fill="currentColor"/>
  </symbol>
  <symbol id="small">
    <path fill-rule="evenodd" clip-rule="evenodd" d="M12.1616 11.6664L22.9833 22.4881V0.844727L12.1616 11.6664Z" fill="currentColor"/>
    <path fill-rule="evenodd" clip-rule="evenodd" d="M22.8383 23.3334L12.0166 12.5117V34.1551L22.8383 23.3334Z" fill="currentColor"/>
    <path fill-rule="evenodd" clip-rule="evenodd" d="M23.6831 14.9336V22.4886L31.2381 14.9336H23.6831Z" fill="currentColor"/>
    <path fill-rule="evenodd" clip-rule="evenodd" d="M3.76172 20.0384L11.3167 12.4834V20.0384H3.76172Z" fill="currentColor"/>
    <path d="M41.92 27H52.624V23.952H45.184V9.72H41.92V27ZM54.6644 27H60.2564C60.3924 27 60.6724 26.996 61.0964 26.988C61.5204 26.98 61.9284 26.952 62.3204 26.904C63.7124 26.736 64.8924 26.252 65.8604 25.452C66.8284 24.652 67.5644 23.636 68.0684 22.404C68.5724 21.172 68.8244 19.824 68.8244 18.36C68.8244 16.896 68.5724 15.548 68.0684 14.316C67.5644 13.084 66.8284 12.068 65.8604 11.268C64.8924 10.468 63.7124 9.984 62.3204 9.816C61.9284 9.768 61.5204 9.74 61.0964 9.732C60.6724 9.724 60.3924 9.72 60.2564 9.72H54.6644V27ZM57.9764 23.928V12.792H60.2564C60.4724 12.792 60.7644 12.796 61.1324 12.804C61.5004 12.812 61.8324 12.848 62.1284 12.912C62.8564 13.056 63.4604 13.396 63.9404 13.932C64.4204 14.468 64.7764 15.124 65.0084 15.9C65.2484 16.676 65.3684 17.496 65.3684 18.36C65.3684 19.184 65.2524 19.984 65.0204 20.76C64.7964 21.536 64.4444 22.2 63.9644 22.752C63.4924 23.304 62.8804 23.656 62.1284 23.808C61.8324 23.864 61.5004 23.9 61.1324 23.916C60.7644 23.924 60.4724 23.928 60.2564 23.928H57.9764ZM71.7034 27H74.9674V19.128L81.8554 27H85.9834L78.3034 18.24L85.5274 9.72H81.5434L74.9674 17.688V9.72H71.7034V27Z" fill="currentColor"/>
  </symbol>
</svg>
