<svg width="100%" height="100%" xmlns="http://www.w3.org/2000/svg" xmlns:xlink="http://www.w3.org/1999/xlink">
  <style>
    @media all and (max-width: 139px) {
      .small { visibility: visible; }
      .large { visibility: hidden; }
    }
    @media all and (min-width: 140px) {
      .small { visibility: hidden; }
      .large { visibility: visible; }
    }
  </style>

  <symbol id="large" viewBox="0 0 140 50">
    <rect width="140" height="50" fill="#0F31F7"/>
    <path fill-rule="evenodd" clip-rule="evenodd" d="M17.1616 19.1664L27.9833 29.9881V8.34473L17.1616 19.1664Z" fill="white"/>
    <path fill-rule="evenodd" clip-rule="evenodd" d="M27.8383 30.8334L17.0166 20.0117V41.6551L27.8383 30.8334Z" fill="white"/>
    <path fill-rule="evenodd" clip-rule="evenodd" d="M28.6831 22.4336V29.9886L36.2381 22.4336H28.6831Z" fill="white"/>
    <path fill-rule="evenodd" clip-rule="evenodd" d="M8.76172 27.5384L16.3167 19.9834V27.5384H8.76172Z" fill="white"/>
    <path d="M46.2483 24H53.2079V22.0183H48.3705V12.7649H46.2483V24ZM54.6905 24H56.8127V12.7649H54.6905V24ZM63.8331 24.2341C64.915 24.2341 65.8538 24 66.6497 23.5319C67.4455 23.0585 68.0619 22.4058 68.4988 21.5735C68.9357 20.7413 69.1542 19.7868 69.1542 18.7101C69.1542 18.6841 69.1516 18.5853 69.1464 18.4137C69.1412 18.242 69.1334 18.1224 69.1229 18.0548H65.0814V19.6932H66.8603C66.6887 20.5827 66.3454 21.2328 65.8304 21.6437C65.3207 22.0547 64.7017 22.2523 63.9735 22.2367C62.9072 22.2211 62.1062 21.8674 61.5705 21.1756C61.0399 20.4838 60.7746 19.5528 60.7746 18.3824C60.7746 17.2121 61.0399 16.2733 61.5705 15.5659C62.1062 14.8585 62.9072 14.5126 63.9735 14.5282C64.6913 14.5334 65.2791 14.7336 65.7368 15.1289C66.1997 15.519 66.5326 16.0418 66.7355 16.6972L68.9045 16.3851C68.6236 15.1575 68.0697 14.2083 67.2426 13.5373C66.4156 12.8663 65.2791 12.5308 63.8331 12.5308C62.8552 12.5308 61.9632 12.7597 61.1569 13.2174C60.3559 13.6751 59.7161 14.3409 59.2376 15.2148C58.7643 16.0834 58.5276 17.1393 58.5276 18.3824C58.5276 19.3343 58.668 20.1743 58.9489 20.9025C59.235 21.6307 59.6225 22.2419 60.1114 22.736C60.6056 23.2302 61.1725 23.6047 61.8123 23.8596C62.4521 24.1092 63.1257 24.2341 63.8331 24.2341ZM70.7179 24H72.8401V19.3655H77.8647V24H79.9869V12.7649H77.8647V17.3838H72.8401V12.7649H70.7179V24ZM84.7832 24H86.9054V14.7466H90.4476V12.7649H81.241V14.7466H84.7832V24ZM91.7014 24H93.8548V16.5099L98.739 24H100.892V12.7649H98.739V20.255L93.8548 12.7649H91.7014V24ZM103.225 24H105.348V12.7649H103.225V24ZM107.687 24H109.84V16.5099L114.724 24H116.878V12.7649H114.724V20.255L109.84 12.7649H107.687V24ZM123.736 24.2341C124.818 24.2341 125.757 24 126.553 23.5319C127.348 23.0585 127.965 22.4058 128.402 21.5735C128.839 20.7413 129.057 19.7868 129.057 18.7101C129.057 18.6841 129.054 18.5853 129.049 18.4137C129.044 18.242 129.036 18.1224 129.026 18.0548H124.984V19.6932H126.763C126.592 20.5827 126.248 21.2328 125.733 21.6437C125.224 22.0547 124.605 22.2523 123.876 22.2367C122.81 22.2211 122.009 21.8674 121.473 21.1756C120.943 20.4838 120.678 19.5528 120.678 18.3824C120.678 17.2121 120.943 16.2733 121.473 15.5659C122.009 14.8585 122.81 14.5126 123.876 14.5282C124.594 14.5334 125.182 14.7336 125.64 15.1289C126.103 15.519 126.436 16.0418 126.638 16.6972L128.807 16.3851C128.527 15.1575 127.973 14.2083 127.146 13.5373C126.319 12.8663 125.182 12.5308 123.736 12.5308C122.758 12.5308 121.866 12.7597 121.06 13.2174C120.259 13.6751 119.619 14.3409 119.141 15.2148C118.667 16.0834 118.431 17.1393 118.431 18.3824C118.431 19.3343 118.571 20.1743 118.852 20.9025C119.138 21.6307 119.525 22.2419 120.014 22.736C120.509 23.2302 121.075 23.6047 121.715 23.8596C122.355 24.1092 123.029 24.2341 123.736 24.2341ZM46.0923 38H49.4394C49.5591 38 49.7671 37.9974 50.0636 37.9922C50.3653 37.9818 50.6488 37.9584 50.914 37.922C51.7567 37.8023 52.4563 37.4877 53.0128 36.9779C53.5694 36.463 53.9855 35.8076 54.2612 35.0118C54.5368 34.216 54.6747 33.3395 54.6747 32.3824C54.6747 31.4254 54.5368 30.5489 54.2612 29.7531C53.9855 28.9573 53.5694 28.3019 53.0128 27.787C52.4563 27.272 51.7567 26.9573 50.914 26.8429C50.6436 26.8013 50.3601 26.7779 50.0636 26.7727C49.7723 26.7675 49.5643 26.7649 49.4394 26.7649H46.0923V38ZM47.0364 37.1184V27.6465H49.4394C49.6579 27.6465 49.8946 27.6543 50.1494 27.6699C50.4095 27.6803 50.628 27.7011 50.8048 27.7324C51.5018 27.852 52.0636 28.1277 52.4901 28.5594C52.9166 28.9859 53.2261 29.5295 53.4185 30.19C53.6162 30.8454 53.715 31.5762 53.715 32.3824C53.715 33.1835 53.6162 33.9143 53.4185 34.5749C53.2261 35.2302 52.9166 35.7738 52.4901 36.2055C52.0636 36.632 51.5018 36.9077 50.8048 37.0325C50.628 37.0637 50.4147 37.0871 50.165 37.1028C49.9154 37.1132 49.6735 37.1184 49.4394 37.1184H47.0364ZM56.4088 38H63.3528V37.1262H57.3061V32.7804H62.4165V31.9065H57.3061V27.6387H63.3528V26.7649H56.4088V38ZM68.1968 38H69.3125L73.2916 26.7649H72.3398L68.743 36.8765L65.1696 26.7649H64.2177L68.1968 38ZM77.5905 38H78.4877V32.2576L84.2847 38H85.4863L79.6425 32.164L85.0182 26.7649H83.8322L78.4877 32.1016V26.7649H77.5905V38ZM86.7373 38H87.6346V26.7649H86.7373V38ZM93.0691 38H93.9664V27.6387H97.9923V26.7649H89.0432V27.6387H93.0691V38Z" fill="white"/>
  </symbol>

  <!--
  <symbol id="small" viewBox="0 0 101 50">
    <rect width="101" height="50" fill="#0F31F7"/>
    <path fill-rule="evenodd" clip-rule="evenodd" d="M17.1616 19.1664L27.9833 29.9881V8.34473L17.1616 19.1664Z" fill="white"/>
    <path fill-rule="evenodd" clip-rule="evenodd" d="M27.8383 30.8334L17.0166 20.0117V41.6551L27.8383 30.8334Z" fill="white"/>
    <path fill-rule="evenodd" clip-rule="evenodd" d="M28.6831 22.4336V29.9886L36.2381 22.4336H28.6831Z" fill="white"/>
    <path fill-rule="evenodd" clip-rule="evenodd" d="M8.76172 27.5384L16.3167 19.9834V27.5384H8.76172Z" fill="white"/>
    <path d="M46.92 34.5H57.624V31.452H50.184V17.22H46.92V34.5ZM59.6644 34.5H65.2564C65.3924 34.5 65.6724 34.496 66.0964 34.488C66.5204 34.48 66.9284 34.452 67.3204 34.404C68.7124 34.236 69.8924 33.752 70.8604 32.952C71.8284 32.152 72.5644 31.136 73.0684 29.904C73.5724 28.672 73.8244 27.324 73.8244 25.86C73.8244 24.396 73.5724 23.048 73.0684 21.816C72.5644 20.584 71.8284 19.568 70.8604 18.768C69.8924 17.968 68.7124 17.484 67.3204 17.316C66.9284 17.268 66.5204 17.24 66.0964 17.232C65.6724 17.224 65.3924 17.22 65.2564 17.22H59.6644V34.5ZM62.9764 31.428V20.292H65.2564C65.4724 20.292 65.7644 20.296 66.1324 20.304C66.5004 20.312 66.8324 20.348 67.1284 20.412C67.8564 20.556 68.4604 20.896 68.9404 21.432C69.4204 21.968 69.7764 22.624 70.0084 23.4C70.2484 24.176 70.3684 24.996 70.3684 25.86C70.3684 26.684 70.2524 27.484 70.0204 28.26C69.7964 29.036 69.4444 29.7 68.9644 30.252C68.4924 30.804 67.8804 31.156 67.1284 31.308C66.8324 31.364 66.5004 31.4 66.1324 31.416C65.7644 31.424 65.4724 31.428 65.2564 31.428H62.9764ZM76.7034 34.5H79.9674V26.628L86.8554 34.5H90.9834L83.3034 25.74L90.5274 17.22H86.5434L79.9674 25.188V17.22H76.7034V34.5Z" fill="white"/>
  </symbol>
  -->

  <symbol id="small" viewBox="0 0 86 35">
    <path fill-rule="evenodd" clip-rule="evenodd" d="M12.1616 11.6664L22.9833 22.4881V0.844727L12.1616 11.6664Z" fill="#0F31F7"/>
    <path fill-rule="evenodd" clip-rule="evenodd" d="M22.8383 23.3334L12.0166 12.5117V34.1551L22.8383 23.3334Z" fill="#0F31F7"/>
    <path fill-rule="evenodd" clip-rule="evenodd" d="M23.6831 14.9336V22.4886L31.2381 14.9336H23.6831Z" fill="#0F31F7"/>
    <path fill-rule="evenodd" clip-rule="evenodd" d="M3.76172 20.0384L11.3167 12.4834V20.0384H3.76172Z" fill="#0F31F7"/>
    <path d="M41.92 27H52.624V23.952H45.184V9.72H41.92V27ZM54.6644 27H60.2564C60.3924 27 60.6724 26.996 61.0964 26.988C61.5204 26.98 61.9284 26.952 62.3204 26.904C63.7124 26.736 64.8924 26.252 65.8604 25.452C66.8284 24.652 67.5644 23.636 68.0684 22.404C68.5724 21.172 68.8244 19.824 68.8244 18.36C68.8244 16.896 68.5724 15.548 68.0684 14.316C67.5644 13.084 66.8284 12.068 65.8604 11.268C64.8924 10.468 63.7124 9.984 62.3204 9.816C61.9284 9.768 61.5204 9.74 61.0964 9.732C60.6724 9.724 60.3924 9.72 60.2564 9.72H54.6644V27ZM57.9764 23.928V12.792H60.2564C60.4724 12.792 60.7644 12.796 61.1324 12.804C61.5004 12.812 61.8324 12.848 62.1284 12.912C62.8564 13.056 63.4604 13.396 63.9404 13.932C64.4204 14.468 64.7764 15.124 65.0084 15.9C65.2484 16.676 65.3684 17.496 65.3684 18.36C65.3684 19.184 65.2524 19.984 65.0204 20.76C64.7964 21.536 64.4444 22.2 63.9644 22.752C63.4924 23.304 62.8804 23.656 62.1284 23.808C61.8324 23.864 61.5004 23.9 61.1324 23.916C60.7644 23.924 60.4724 23.928 60.2564 23.928H57.9764ZM71.7034 27H74.9674V19.128L81.8554 27H85.9834L78.3034 18.24L85.5274 9.72H81.5434L74.9674 17.688V9.72H71.7034V27Z" fill="#0F31F7"/>
  </symbol>

  <use class="small" xlink:href="#small" />
  <use class="large" xlink:href="#large" />
</svg>
