<svg width="548" height="548" viewBox="0 0 548 548" fill="none" xmlns="http://www.w3.org/2000/svg">
<path d="M411.888 0H135.075C60.8245 0 0.632812 60.1916 0.632812 134.442V411.255C0.632812 485.506 60.8245 545.697 135.075 545.697H411.888C486.138 545.697 546.33 485.506 546.33 411.255V134.442C546.33 60.1916 486.138 0 411.888 0Z" fill="url(#paint0_linear_4515_47198)"/>
<path d="M505.724 38.3927C529.213 62.6283 543.723 95.612 543.723 131.823V408.635C543.723 482.578 483.224 543.077 409.282 543.077H132.47C96.8847 543.077 64.415 529.063 40.3018 506.284C64.7804 531.54 99.0123 547.297 136.746 547.297H413.558C487.501 547.297 548 486.798 548 412.855V136.043C548 97.6854 531.718 62.9465 505.726 38.3927H505.724Z" fill="#1A1718"/>
<path d="M4.86001 415.212V138.4C4.86001 64.457 65.359 3.958 139.302 3.958H416.114C450.456 3.958 481.896 17.0085 505.722 38.3945C481.45 14.6728 448.298 0.00177002 411.887 0.00177002H135.075C61.1318 0.00177002 0.632812 60.5008 0.632812 134.444V411.255C0.632812 450.858 17.9874 486.6 45.466 511.263C20.4472 486.812 4.86001 452.744 4.86001 415.212Z" fill="#58595B"/>
<path d="M363.111 253.35C361.701 247.061 359.605 241.038 356.937 235.32C353.965 228.916 350.268 222.894 345.924 217.367C341.428 211.649 336.283 206.503 330.567 202.005C325.041 197.66 319.02 193.962 312.618 190.989C306.902 188.321 300.881 186.262 294.593 184.814C288.077 183.289 281.256 182.527 274.282 182.527C267.309 182.527 260.487 183.289 253.971 184.814C253.018 189.502 252.104 194.42 251.303 199.566C249.817 208.714 248.598 218.586 247.645 229.221C247.188 234.558 246.807 240.123 246.502 245.879C246.045 254.684 245.778 263.947 245.778 273.705C245.778 283.463 246.045 292.688 246.502 301.531C255.305 301.989 264.565 302.255 274.32 302.255C284.076 302.255 293.298 301.989 302.139 301.531C307.855 301.226 313.419 300.845 318.754 300.388C329.424 299.435 339.294 298.215 348.439 296.728C353.584 295.89 358.5 295.013 363.187 294.06C364.673 287.542 365.473 280.719 365.473 273.743C365.473 266.768 364.711 259.944 363.187 253.426L363.111 253.35ZM336.702 246.451C334.378 246.794 332.129 247.366 329.919 248.128C325.956 249.5 322.298 251.52 318.982 254.074C310.713 260.364 304.768 269.817 303.053 279.995C303.053 280.185 302.863 280.261 302.748 280.223C302.634 280.223 302.52 280.109 302.52 279.995C299.814 262.651 285.791 249.119 268.871 246.413C268.566 246.374 268.566 245.917 268.871 245.879C270.052 245.688 271.196 245.46 272.339 245.155C281.866 242.753 290.135 236.845 295.66 228.993C297.452 226.477 298.938 223.77 300.119 220.874C301.262 218.091 302.101 215.156 302.558 212.144C302.596 211.84 303.053 211.84 303.091 212.144C304.12 218.701 306.788 224.685 310.56 229.793C312.733 232.728 315.248 235.32 318.106 237.569C323.441 241.8 329.805 244.735 336.702 245.917C337.007 245.955 337.007 246.413 336.702 246.451Z" fill="#F1F2F2"/>
<path d="M464.934 267.202L464.782 280.2C464.782 299.641 443.861 317.327 405.906 329.982C392.53 334.442 377.478 338.14 361.282 341.037C360.101 341.265 358.919 341.456 357.738 341.685C353.318 342.409 348.859 343.095 344.248 343.705C339.751 344.315 335.178 344.849 330.567 345.344C325.156 345.916 319.707 346.411 314.143 346.831C308.579 347.212 302.978 347.555 297.262 347.784C289.678 348.089 282.019 348.241 274.283 348.241C266.547 348.241 258.849 348.089 251.304 347.784C245.588 347.517 239.986 347.212 234.422 346.831C228.859 346.411 223.409 345.954 218.036 345.344C213.387 344.849 208.852 344.315 204.356 343.705C199.783 343.095 195.286 342.409 190.904 341.685C189.684 341.494 188.503 341.265 187.322 341.037C171.126 338.178 156.073 334.48 142.698 329.982C104.743 317.327 83.8218 299.641 83.8218 280.2V267.126C83.8218 247.686 104.743 229.999 142.698 217.344C156.073 212.884 171.126 209.187 187.322 206.29C187.131 207.891 186.941 209.453 186.75 211.092C185.759 219.44 184.997 227.941 184.464 236.631C180.272 237.47 176.232 238.309 172.307 239.262C135.343 247.953 110.916 260.836 104.59 273.682C110.916 286.528 135.343 299.412 172.307 308.065C176.232 308.979 180.272 309.856 184.464 310.695C186.826 311.152 189.227 311.61 191.704 312.029C194.829 312.563 197.992 313.096 201.231 313.554C210.643 314.964 220.589 316.146 231.031 316.984C236.48 317.442 242.044 317.823 247.722 318.09C256.334 318.509 265.251 318.738 274.397 318.738C283.543 318.738 292.422 318.509 301.072 318.09C306.75 317.823 312.314 317.442 317.725 316.984C328.167 316.108 338.113 314.964 347.525 313.554C350.764 313.058 353.965 312.563 357.052 312.029C359.491 311.61 361.892 311.152 364.293 310.695C368.484 309.894 372.524 309.018 376.449 308.103C413.413 299.412 437.84 286.528 444.166 273.682C437.84 260.836 413.413 247.953 376.449 239.3C373.019 229.122 368.141 219.669 362.006 211.131C360.672 209.263 359.301 207.471 357.852 205.718C359.034 205.908 360.253 206.137 361.434 206.366C377.63 209.225 392.683 212.922 406.058 217.42C444.013 230.075 464.934 247.762 464.934 267.202Z" fill="#F1F2F2"/>
<path d="M342.191 190.172C340.438 188.724 338.647 187.351 336.779 186.017C328.243 179.88 318.755 175.001 308.618 171.571C299.968 134.596 287.087 110.162 274.245 103.835C261.403 110.162 248.523 134.596 239.872 171.571C238.92 175.497 238.081 179.537 237.243 183.73C236.786 186.093 236.328 188.533 235.909 190.973C235.376 194.098 234.842 197.262 234.385 200.502C232.975 209.917 231.793 219.866 230.955 230.31C230.498 235.723 230.117 241.288 229.85 246.968C229.431 255.583 229.202 264.502 229.202 273.651C229.202 282.799 229.431 291.68 229.85 300.333C219.18 299.38 209.31 298.16 200.202 296.674C199.898 289.088 199.745 281.427 199.745 273.689C199.745 265.951 199.898 258.251 200.202 250.704C200.469 244.986 200.774 239.382 201.193 233.817C201.574 228.252 202.07 222.763 202.641 217.426C203.137 212.776 203.67 208.202 204.28 203.704C204.89 199.13 205.576 194.632 206.3 190.248C206.49 189.067 206.719 187.847 206.947 186.665C209.805 170.465 213.502 155.408 217.999 142.029C230.65 104.064 248.332 83.1367 267.767 83.1367H280.838C300.273 83.1367 317.954 104.064 330.606 142.029C335.065 155.408 338.761 170.465 341.657 186.665C341.886 187.847 342.076 189.067 342.305 190.248L342.191 190.172Z" fill="#F1F2F2"/>
<path d="M341.581 360.721C338.723 376.921 335.026 391.978 330.53 405.357C317.878 443.323 300.196 464.249 280.761 464.249H267.691C248.256 464.249 230.574 443.323 217.922 405.357C213.464 391.978 209.767 376.921 206.871 360.721C208.472 360.911 210.034 361.102 211.673 361.293C220.018 362.284 228.516 363.046 237.205 363.58C238.043 367.773 238.881 371.813 239.834 375.739C248.484 412.714 261.365 437.147 274.207 443.475C287.049 437.147 299.929 412.714 308.618 375.739C309.533 371.813 310.409 367.773 311.209 363.58C319.898 363.008 328.434 362.246 336.741 361.293C338.342 361.14 339.942 360.911 341.543 360.721H341.581Z" fill="#F1F2F2"/>
<defs>
<linearGradient id="paint0_linear_4515_47198" x1="435.185" y1="552.926" x2="111.78" y2="-7.22892" gradientUnits="userSpaceOnUse">
<stop stop-color="#4F4849"/>
<stop offset="0.34" stop-color="#393435"/>
<stop offset="0.72" stop-color="#282425"/>
<stop offset="1" stop-color="#231F20"/>
</linearGradient>
</defs>
</svg>
