<svg width="130" height="130" viewBox="0 0 1200 360" fill="none" xmlns="http://www.w3.org/2000/svg">
<path d="M366.062 208.5H332.965V148.153H324.43V216.864H374.547V186.083H366.062V208.5Z" fill="white"/>
<path d="M401.145 156.469H419.157V208.5H401.145V216.864H445.456V208.5H427.692V156.469H445.456V148.153H401.145V156.469Z" fill="white"/>
<path d="M517.158 208.501H498.848C489.718 208.501 486.492 207.042 485.351 206.215C483.614 204.902 482.771 202.325 482.771 198.581V166.681C482.771 162.839 483.565 160.067 485.153 158.706C486.096 157.879 488.874 156.469 496.566 156.469H520.334V148.105H496.566C487.981 148.105 482.424 149.515 479.149 152.482C475.923 155.448 474.286 160.213 474.286 166.632V198.532C474.286 201.547 474.633 204.173 475.328 206.361C476.122 208.938 477.61 211.078 479.794 212.731C481.778 214.239 484.458 215.357 487.733 215.989C490.661 216.573 494.432 216.865 498.898 216.865H525.693V186.764H517.158V208.501Z" fill="white"/>
<path d="M603.5 178.303H566.234V148.153H557.699V216.864H566.234V186.667H603.5V216.864H612.034V148.153H603.5V178.303Z" fill="white"/>
<path d="M639.077 156.469H662.895V216.864H671.43V156.469H695.248V148.153H639.077V156.469Z" fill="white"/>
<path d="M756.233 180.442L731.621 175.531C730.579 175.336 729.834 175.044 729.289 174.461C729.289 174.461 728.743 173.829 728.743 171.446V162.109C728.743 160.456 729.289 159.24 730.479 158.171C731.72 157.052 733.407 156.517 735.789 156.517H765.264V148.153H735.789C731.273 148.153 727.552 149.466 724.723 151.995C721.746 154.621 720.257 158.025 720.257 162.109V171.446C720.257 175.628 721.25 178.594 723.334 180.491C725.12 182.144 727.403 183.214 730.082 183.749L754.546 188.66C755.985 188.952 757.076 189.487 757.821 190.265C757.92 190.362 758.714 191.335 758.714 195.128V201.741C758.714 203.784 758.069 205.291 756.679 206.555C755.24 207.868 753.256 208.5 750.626 208.5H718.025V216.864H750.626C755.538 216.864 759.557 215.454 762.584 212.634C765.661 209.765 767.199 206.118 767.199 201.741V195.128C767.199 190.168 766.107 186.667 763.874 184.43C761.84 182.387 759.26 181.074 756.233 180.442Z" fill="white"/>
<path d="M843.913 153.794C842.276 151.995 839.993 150.536 837.115 149.563C834.435 148.64 831.012 148.153 826.992 148.153H798.212V216.864H806.747V194.447H826.992C831.012 194.447 834.436 194.009 837.065 193.134C839.943 192.161 842.226 190.8 843.913 189.001C845.551 187.25 846.692 185.11 847.337 182.63C847.883 180.491 848.131 178.157 848.131 175.677V167.264C848.131 164.784 847.883 162.45 847.337 160.262C846.742 157.782 845.6 155.642 843.963 153.794H843.913ZM806.697 156.469H826.943C829.92 156.469 832.302 156.76 834.039 157.344C835.577 157.879 836.718 158.511 837.413 159.338C838.157 160.164 838.703 161.186 839.001 162.353C839.348 163.811 839.546 165.465 839.546 167.215V175.628C839.546 177.379 839.348 178.983 839.001 180.394C838.703 181.561 838.207 182.436 837.462 183.263C836.718 184.041 835.626 184.673 834.088 185.159C832.351 185.743 829.92 185.986 826.943 185.986H806.697V156.42V156.469Z" fill="white"/>
<path d="M926.682 176.649L918.643 158.025C917.601 155.593 916.46 153.502 915.269 151.849C914.028 150.147 911.597 148.153 906.883 148.153H895.47C890.657 148.153 888.176 150.147 886.935 151.8C885.645 153.502 884.554 155.545 883.561 157.976L876.118 176.746C875.423 178.594 874.877 180.491 874.53 182.485C874.133 184.478 873.935 186.715 873.935 189.049V216.913H882.469V197.316H920.43V216.913H928.964V189.049C928.964 186.715 928.766 184.527 928.369 182.485C927.972 180.491 927.426 178.546 926.731 176.698L926.682 176.649ZM893.634 156.906C893.634 156.906 894.329 156.469 895.47 156.469H906.883C907.379 156.469 908.223 156.517 908.521 156.906C909.315 158.025 910.108 159.484 910.853 161.234L918.792 179.567C919.288 180.928 919.685 182.436 919.983 183.992C920.281 185.499 920.43 187.153 920.43 188.903H882.469C882.469 187.104 882.618 185.451 882.916 183.992C883.214 182.436 883.611 180.977 884.057 179.713L891.501 161.04C892.146 159.386 892.89 158.025 893.684 156.906H893.634Z" fill="white"/>
<path d="M1005.88 183.166C1005.88 183.166 1006.08 182.728 1006.17 182.534C1007.27 179.859 1007.86 176.504 1007.86 172.565V164.687C1007.86 160.116 1006.47 156.177 1003.69 153.065C1000.82 149.758 996.498 148.105 990.891 148.105H960.721V216.816H969.256V190.411H998.483C1001.91 190.411 1004.39 191.043 1005.78 192.259C1007.07 193.426 1007.71 195.274 1007.71 197.949V216.816H1016.25V197.949C1016.25 192.989 1014.66 189.05 1011.58 186.229C1010.04 184.868 1008.16 183.846 1005.93 183.166H1005.88ZM990.891 156.469C993.868 156.469 996.002 157.15 997.242 158.56C998.632 160.116 999.277 162.061 999.277 164.736V172.711C999.277 176.115 998.681 178.692 997.491 180.345C996.647 181.561 994.265 182.242 990.841 182.242H969.157V156.518H990.841L990.891 156.469Z" fill="white"/>
<path d="M1096.09 181.804C1093.26 179.664 1089.24 178.546 1084.08 178.448L1097.43 148.153H1088.15L1074.8 178.448H1055.65V148.153H1047.11V216.864H1055.65V186.812H1083.24C1086.66 186.812 1089.24 187.347 1090.73 188.417C1091.18 188.709 1092.47 189.633 1092.47 193.231V216.864H1101V193.231C1101 188.125 1099.36 184.284 1096.09 181.804Z" fill="white"/>
<path d="M183.852 186.662H122.471L209.159 112.31L192.188 148.343H201.914L234.565 79L99 195.318H179.783L183.852 186.662Z" fill="white"/>
<path d="M184.497 164.682L180.428 173.338H241.81L155.122 247.69L172.092 211.657H162.366L129.716 281L265.28 164.682H184.497Z" fill="white"/>
</svg>