<svg width="179" height="76" viewBox="0 0 179 76" fill="none" xmlns="http://www.w3.org/2000/svg">
<rect width="178.5" height="75" transform="translate(0.25 0.0507812)" fill="#F7931A"/>
<path fill-rule="evenodd" clip-rule="evenodd" d="M33.4746 29.8057V18.4746H22.1436L33.4746 29.8057Z" fill="white"/>
<path fill-rule="evenodd" clip-rule="evenodd" d="M21.3994 30.5518V19.2207L32.7305 30.5518H21.3994Z" fill="white"/>
<path fill-rule="evenodd" clip-rule="evenodd" d="M46.6001 56.0571V31.5996H22.1426L46.6001 56.0571Z" fill="white"/>
<path fill-rule="evenodd" clip-rule="evenodd" d="M21.3994 32.3438V56.8013H45.857L21.3994 32.3438Z" fill="white"/>
<path d="M69.3885 36.5508V19.6981H76.1295C77.3311 19.6981 78.3024 19.94 79.0436 20.4237C79.7848 20.8996 80.3271 21.5004 80.6704 22.226C81.0137 22.9516 81.1853 23.685 81.1853 24.4262C81.1853 25.3703 80.9708 26.1544 80.5416 26.7786C80.1203 27.4027 79.5391 27.8202 78.7979 28.0308V27.4457C79.8512 27.6641 80.6392 28.1518 81.1619 28.9086C81.6925 29.6654 81.9577 30.5119 81.9577 31.4482C81.9577 32.4546 81.7705 33.3402 81.396 34.1048C81.0293 34.8694 80.4675 35.4702 79.7107 35.9071C78.9539 36.3362 78.002 36.5508 76.8551 36.5508H69.3885ZM72.6186 33.5548H76.5274C76.9566 33.5548 77.3389 33.465 77.6744 33.2856C78.0098 33.0983 78.2712 32.8409 78.4585 32.5132C78.6535 32.1777 78.7511 31.7837 78.7511 31.3311C78.7511 30.9332 78.6691 30.5782 78.5053 30.2661C78.3414 29.9541 78.0918 29.7083 77.7563 29.5288C77.4286 29.3416 77.019 29.248 76.5274 29.248H72.6186V33.5548ZM72.6186 26.2753H76.0827C76.4416 26.2753 76.7615 26.2129 77.0424 26.0881C77.3233 25.9632 77.5456 25.7721 77.7095 25.5146C77.8733 25.2493 77.9552 24.91 77.9552 24.4964C77.9552 23.9815 77.7953 23.5485 77.4754 23.1974C77.1555 22.8463 76.6913 22.6707 76.0827 22.6707H72.6186V26.2753ZM84.5259 36.5508V19.6981H87.7092V36.5508H84.5259ZM95.1266 36.5508V22.6707H89.8134V19.6981H103.623V22.6707H98.3099V36.5508H95.1266ZM112.737 36.9019C111.051 36.9019 109.596 36.5352 108.371 35.8018C107.154 35.0684 106.214 34.0424 105.551 32.7238C104.895 31.4053 104.568 29.8721 104.568 28.1244C104.568 26.3768 104.895 24.8436 105.551 23.5251C106.214 22.2065 107.154 21.1805 108.371 20.4471C109.596 19.7137 111.051 19.347 112.737 19.347C114.671 19.347 116.294 19.8268 117.605 20.7865C118.924 21.7462 119.852 23.0452 120.39 24.6837L117.184 25.5731C116.872 24.5511 116.345 23.7591 115.604 23.1974C114.863 22.6278 113.907 22.343 112.737 22.343C111.668 22.343 110.774 22.581 110.056 23.0569C109.347 23.5329 108.812 24.2039 108.453 25.0699C108.094 25.9359 107.915 26.9541 107.915 28.1244C107.915 29.2948 108.094 30.313 108.453 31.179C108.812 32.045 109.347 32.716 110.056 33.1919C110.774 33.6679 111.668 33.9058 112.737 33.9058C113.907 33.9058 114.863 33.6211 115.604 33.0515C116.345 32.482 116.872 31.69 117.184 30.6758L120.39 31.5652C119.852 33.2037 118.924 34.5027 117.605 35.4624C116.294 36.422 114.671 36.9019 112.737 36.9019ZM130.2 36.9019C128.515 36.9019 127.06 36.5352 125.835 35.8018C124.618 35.0684 123.677 34.0424 123.014 32.7238C122.359 31.4053 122.031 29.8721 122.031 28.1244C122.031 26.3768 122.359 24.8436 123.014 23.5251C123.677 22.2065 124.618 21.1805 125.835 20.4471C127.06 19.7137 128.515 19.347 130.2 19.347C131.885 19.347 133.336 19.7137 134.554 20.4471C135.779 21.1805 136.719 22.2065 137.374 23.5251C138.037 24.8436 138.369 26.3768 138.369 28.1244C138.369 29.8721 138.037 31.4053 137.374 32.7238C136.719 34.0424 135.779 35.0684 134.554 35.8018C133.336 36.5352 131.885 36.9019 130.2 36.9019ZM130.2 33.9058C131.269 33.9215 132.158 33.6913 132.868 33.2154C133.578 32.7394 134.109 32.0645 134.46 31.1907C134.819 30.3169 134.998 29.2948 134.998 28.1244C134.998 26.9541 134.819 25.9398 134.46 25.0816C134.109 24.2234 133.578 23.5563 132.868 23.0803C132.158 22.6044 131.269 22.3586 130.2 22.343C129.131 22.3274 128.242 22.5576 127.532 23.0335C126.822 23.5095 126.287 24.1844 125.928 25.0582C125.577 25.932 125.402 26.9541 125.402 28.1244C125.402 29.2948 125.577 30.3091 125.928 31.1673C126.287 32.0255 126.822 32.6926 127.532 33.1685C128.242 33.6445 129.131 33.8902 130.2 33.9058ZM140.939 36.5508V19.6981H144.122V36.5508H140.939ZM147.631 36.5508V19.6981H150.861L158.187 30.9332V19.6981H161.417V36.5508H158.187L150.861 25.3157V36.5508H147.631ZM69.3885 56.5508V39.6981H74.4091C74.6042 39.6981 74.9202 39.702 75.3571 39.7098C75.8018 39.7176 76.2231 39.7527 76.6211 39.8151C77.885 39.9868 78.9344 40.4627 79.7692 41.2429C80.6041 42.0153 81.2282 42.9984 81.6418 44.1922C82.0553 45.3781 82.262 46.6888 82.262 48.1244C82.262 49.5678 82.0553 50.8864 81.6418 52.0801C81.2282 53.2661 80.6041 54.2452 79.7692 55.0177C78.9344 55.7901 77.885 56.2621 76.6211 56.4337C76.2231 56.4884 75.7979 56.5235 75.3454 56.5391C74.9007 56.5469 74.5886 56.5508 74.4091 56.5508H69.3885ZM70.8045 55.2283H74.4091C74.7602 55.2283 75.123 55.2205 75.4975 55.2049C75.8721 55.1815 76.1919 55.1464 76.4572 55.0996C77.5027 54.9123 78.3453 54.4988 78.9851 53.859C79.6249 53.2115 80.0891 52.3961 80.3778 51.4131C80.6743 50.4222 80.8225 49.326 80.8225 48.1244C80.8225 46.9151 80.6743 45.8189 80.3778 44.8358C80.0813 43.845 79.6132 43.0296 78.9734 42.3899C78.3336 41.7423 77.4949 41.3288 76.4572 41.1493C76.1919 41.1025 75.8643 41.0713 75.4741 41.0557C75.0918 41.0323 74.7368 41.0206 74.4091 41.0206H70.8045V55.2283ZM84.8633 56.5508V39.6981H95.2791V41.0089H86.2091V47.4105H93.8748V48.7213H86.2091V55.24H95.2791V56.5508H84.8633ZM102.545 56.5508L96.5766 39.6981H98.0044L103.364 54.8655L108.76 39.6981H110.187L104.219 56.5508H102.545ZM116.636 56.5508V39.6981H117.982V47.7031L125.998 39.6981H127.777L119.714 47.7968L128.479 56.5508H126.677L117.982 47.9372V56.5508H116.636ZM130.356 56.5508V39.6981H131.702V56.5508H130.356ZM139.854 56.5508V41.0089H133.815V39.6981H147.238V41.0089H141.2V56.5508H139.854Z" fill="white"/>
</svg>
