<svg width="210" height="193" viewBox="0 0 210 193" fill="none" xmlns="http://www.w3.org/2000/svg">
<path fill-rule="evenodd" clip-rule="evenodd" d="M149.04 117.766C149.04 158.881 115.71 192.211 74.5952 192.211C33.4803 192.211 0.150146 158.881 0.150146 117.766C0.150146 76.6508 33.4803 43.3207 74.5952 43.3207C115.71 43.3207 149.04 76.6508 149.04 117.766ZM74.5952 174.151C105.736 174.151 130.98 148.906 130.98 117.766C130.98 86.6251 105.736 61.3807 74.5952 61.3807C43.4546 61.3807 18.2101 86.6251 18.2101 117.766C18.2101 148.906 43.4546 174.151 74.5952 174.151Z" fill="black"/>
<path fill-rule="evenodd" clip-rule="evenodd" d="M66.78 75.6727L87.1926 0H158.884C185.6 0 209.79 20.3654 209.79 48.0144C209.79 58.2639 207.899 69.2306 201.95 78.7115C201.281 79.7765 200.574 80.8042 199.827 81.7938C200.645 82.9486 201.413 84.1547 202.128 85.4126C207.867 95.5134 209.064 107.004 207.975 118.076C206.763 130.409 201.774 142.384 192.247 151.332C182.602 160.39 169.673 165.06 155.078 165.06H114.406L121.22 142.36C122.52 138.031 123.219 133.453 123.219 128.697C123.219 106.115 107.131 86.2542 83.9832 80.184L66.78 75.6727ZM186.341 93.4316C185.747 92.4566 185.089 91.5262 184.366 90.6415C180.987 86.5066 176.195 83.3718 169.865 81.3704L169.861 81.3694C169.804 81.3514 169.747 81.3335 169.69 81.3156C169.676 81.3112 169.661 81.3067 169.647 81.3023C169.638 81.2995 169.629 81.2967 169.62 81.2938C169.545 81.2869 169.487 81.2243 169.487 81.1494C169.487 81.1105 169.502 81.075 169.528 81.0488C169.551 81.0245 169.583 81.0082 169.62 81.0049C169.629 81.0028 169.638 81.0008 169.647 80.9987C169.67 80.9935 169.693 80.9883 169.716 80.983C176.31 79.4832 181.247 76.4775 184.783 72.3236C185.487 71.4971 186.135 70.6251 186.729 69.7106C190.481 63.9399 192.104 56.4718 192.104 48.0144C192.104 31.4469 177.231 17.6407 158.884 17.6407H100.749L88.4802 63.1231C88.7528 63.1946 89.0247 63.2675 89.296 63.342C119.702 70.3288 140.904 95.2949 140.904 128.697C140.904 129.058 140.902 129.419 140.896 129.779C140.796 135.888 139.849 141.802 138.163 147.419H155.078C155.541 147.419 156.001 147.413 156.456 147.401C177.051 146.835 188.681 133.578 190.374 116.355C191.272 107.215 190.025 99.47 186.341 93.4316Z" fill="black"/>
<path d="M184.366 90.6422C185.089 91.5268 185.747 92.4573 186.342 93.4322C190.025 99.4707 191.272 107.215 190.374 116.356C188.681 133.578 177.051 146.836 156.456 147.401C156.001 147.414 155.541 147.42 155.078 147.42H138.163C139.849 141.803 140.796 135.889 140.896 129.779C140.902 129.419 140.905 129.059 140.905 128.697C140.905 95.2955 119.702 70.3294 89.296 63.3427C89.0248 63.2682 88.7528 63.1952 88.4802 63.1237L100.749 17.6413H158.884C177.231 17.6413 192.104 31.4476 192.104 48.0151C192.104 56.4725 190.481 63.9405 186.729 69.7112C186.135 70.6258 185.487 71.4978 184.783 72.3242C181.247 76.4781 176.31 79.4839 169.717 80.9837L169.675 80.993L169.647 80.9994L169.62 81.0055C169.583 81.0089 169.551 81.0251 169.528 81.0495C169.502 81.0757 169.487 81.1112 169.487 81.15C169.487 81.2249 169.545 81.2875 169.62 81.2945L169.647 81.303L169.69 81.3163C169.747 81.3341 169.804 81.3521 169.861 81.3701L169.865 81.3711C176.195 83.3724 180.987 86.5072 184.366 90.6422Z" fill="white"/>
<path d="M130.98 117.766C130.98 148.906 105.736 174.151 74.595 174.151C43.4544 174.151 18.21 148.906 18.21 117.766C18.21 86.6251 43.4544 61.3807 74.595 61.3807C105.736 61.3807 130.98 86.6251 130.98 117.766Z" fill="#FF4400"/>
</svg>
