<svg version="1.1" viewBox="0.0 0.0 591.0 376.0" fill="none" stroke="none" stroke-linecap="square" stroke-miterlimit="10" xmlns:xlink="http://www.w3.org/1999/xlink" xmlns="http://www.w3.org/2000/svg"><rect width="100%" height="100%" fill="white"/><clipPath id="p.0"><path d="m0 0l591.0 0l0 376.0l-591.0 0l0 -376.0z" clip-rule="nonzero"/></clipPath><g clip-path="url(#p.0)"><path fill="#000000" fill-opacity="0.0" d="m0 0l591.0 0l0 376.0l-591.0 0z" fill-rule="evenodd"/><path fill="#d0e0e3" d="m215.64206 234.447l0 0c-8.601898 0 -15.575119 -6.9732056 -15.575119 -15.575104l0 -62.2986l0 0c0 -4.130768 1.6409454 -8.092361 4.561844 -11.01326c2.9208984 -2.9208984 6.882492 -4.561844 11.013275 -4.561844l195.90488 0c8.601898 0 15.575134 6.9732056 15.575134 15.575104l0 62.2986c0 8.601898 -6.973236 15.575104 -15.575134 15.575104z" fill-rule="evenodd"/><path stroke="#000000" stroke-width="1.0" stroke-linejoin="round" stroke-linecap="butt" d="m215.64206 234.447l0 0c-8.601898 0 -15.575119 -6.9732056 -15.575119 -15.575104l0 -62.2986l0 0c0 -4.130768 1.6409454 -8.092361 4.561844 -11.01326c2.9208984 -2.9208984 6.882492 -4.561844 11.013275 -4.561844l195.90488 0c8.601898 0 15.575134 6.9732056 15.575134 15.575104l0 62.2986c0 8.601898 -6.973236 15.575104 -15.575134 15.575104z" fill-rule="evenodd"/><path fill="#fff2cc" d="m298.91733 217.85252l0 0c-16.603333 0 -30.062988 -13.459656 -30.062988 -30.062988l0 0c0 -7.9732056 3.167328 -15.619843 8.805237 -21.257751c5.637909 -5.6378937 13.284546 -8.805237 21.257751 -8.805237l0 0c16.603333 0 30.062988 13.459656 30.062988 30.062988l0 0c0 16.603333 -13.459656 30.062988 -30.062988 30.062988z" fill-rule="evenodd"/><path stroke="#000000" stroke-width="1.0" stroke-linejoin="round" stroke-linecap="butt" d="m298.91733 217.85252l0 0c-16.603333 0 -30.062988 -13.459656 -30.062988 -30.062988l0 0c0 -7.9732056 3.167328 -15.619843 8.805237 -21.257751c5.637909 -5.6378937 13.284546 -8.805237 21.257751 -8.805237l0 0c16.603333 0 30.062988 13.459656 30.062988 30.062988l0 0c0 16.603333 -13.459656 30.062988 -30.062988 30.062988z" fill-rule="evenodd"/><path fill="#000000" fill-opacity="0.0" d="m328.98032 187.78954l26.299194 0" fill-rule="evenodd"/><path stroke="#000000" stroke-width="1.0" stroke-linejoin="round" stroke-linecap="butt" d="m328.98032 187.78954l26.299194 0" fill-rule="evenodd"/><path fill="#000000" fill-opacity="0.0" d="m242.5665 187.78954l26.299225 0" fill-rule="evenodd"/><path stroke="#000000" stroke-width="1.0" stroke-linejoin="round" stroke-linecap="butt" d="m242.5665 187.78954l26.299225 0" fill-rule="evenodd"/><path fill="#fff2cc" d="m212.50351 217.85252l0 0c-16.603333 0 -30.062988 -13.459656 -30.062988 -30.062988l0 0c0 -7.9732056 3.1673431 -15.619843 8.805252 -21.257751c5.6378937 -5.6378937 13.284531 -8.805237 21.257736 -8.805237l0 0c16.603333 0 30.062988 13.459656 30.062988 30.062988l0 0c0 16.603333 -13.459656 30.062988 -30.062988 30.062988z" fill-rule="evenodd"/><path stroke="#000000" stroke-width="1.0" stroke-linejoin="round" stroke-linecap="butt" d="m212.50351 217.85252l0 0c-16.603333 0 -30.062988 -13.459656 -30.062988 -30.062988l0 0c0 -7.9732056 3.1673431 -15.619843 8.805252 -21.257751c5.6378937 -5.6378937 13.284531 -8.805237 21.257736 -8.805237l0 0c16.603333 0 30.062988 13.459656 30.062988 30.062988l0 0c0 16.603333 -13.459656 30.062988 -30.062988 30.062988z" fill-rule="evenodd"/><path fill="#fff2cc" d="m385.33112 217.85252l0 0c-16.603333 0 -30.062988 -13.459656 -30.062988 -30.062988l0 0c0 -7.9732056 3.1673584 -15.619843 8.805237 -21.257751c5.637909 -5.6378937 13.284546 -8.805237 21.257751 -8.805237l0 0c16.603333 0 30.062988 13.459656 30.062988 30.062988l0 0c0 16.603333 -13.459656 30.062988 -30.062988 30.062988z" fill-rule="evenodd"/><path stroke="#000000" stroke-width="1.0" stroke-linejoin="round" stroke-linecap="butt" d="m385.33112 217.85252l0 0c-16.603333 0 -30.062988 -13.459656 -30.062988 -30.062988l0 0c0 -7.9732056 3.1673584 -15.619843 8.805237 -21.257751c5.637909 -5.6378937 13.284546 -8.805237 21.257751 -8.805237l0 0c16.603333 0 30.062988 13.459656 30.062988 30.062988l0 0c0 16.603333 -13.459656 30.062988 -30.062988 30.062988z" fill-rule="evenodd"/><path fill="#000000" fill-opacity="0.0" d="m427.3596 244.99213l0 0c0 24.857147 -1.6791687 45.007874 -3.7505188 45.007874l-220.02655 0l0 0c-0.99468994 0 -1.9486389 -4.7418823 -2.652008 -13.182495c-0.7033539 -8.440613 -1.0984955 -19.88855 -1.0984955 -31.825378z" fill-rule="evenodd"/><path fill="#000000" fill-opacity="0.0" d="m427.3596 244.99213l0 0c0 24.857147 -1.6791687 45.007874 -3.7505188 45.007874l-220.02655 0l0 0c-0.99468994 0 -1.9486389 -4.7418823 -2.652008 -13.182495c-0.7033539 -8.440613 -1.0984955 -19.88855 -1.0984955 -31.825378" fill-rule="evenodd"/><path stroke="#000000" stroke-width="2.0" stroke-linejoin="round" stroke-linecap="butt" d="m427.3596 244.99213l0 0c0 24.857147 -1.6791687 45.007874 -3.7505188 45.007874l-220.02655 0l0 0c-0.99468994 0 -1.9486389 -4.7418823 -2.652008 -13.182495c-0.7033539 -8.440613 -1.0984955 -19.88855 -1.0984955 -31.825378" fill-rule="evenodd"/><path fill="#000000" fill-opacity="0.0" d="m313.5958 290.0l0 32.0" fill-rule="evenodd"/><path stroke="#000000" stroke-width="2.0" stroke-linejoin="round" stroke-linecap="butt" d="m313.5958 290.0l0 32.0" fill-rule="evenodd"/><path fill="#000000" fill-opacity="0.0" d="m212.03674 322.0l203.1181 0l0 41.007874l-203.1181 0z" fill-rule="evenodd"/><path fill="#000000" d="m263.39618 348.91998l0 -13.265625l4.328125 0q2.15625 0 3.25 0.890625q1.09375 0.890625 1.09375 2.640625q0 0.9375 -0.53125 1.65625q-0.53125 0.703125 -1.4375 1.09375q1.0625 0.3125 1.6875 1.15625q0.625 0.84375 0.625 2.0q0 1.78125 -1.15625 2.8125q-1.15625 1.015625 -3.265625 1.015625l-4.59375 0zm1.734375 -6.203125l0 4.765625l2.890625 0q1.21875 0 1.921875 -0.625q0.71875 -0.640625 0.71875 -1.75q0 -2.390625 -2.609375 -2.390625l-2.921875 0zm0 -1.40625l2.65625 0q1.140625 0 1.828125 -0.5625q0.6875 -0.578125 0.6875 -1.5625q0 -1.09375 -0.640625 -1.59375q-0.640625 -0.5 -1.9375 -0.5l-2.59375 0l0 4.21875zm11.4427185 7.609375l-1.6875 0l0 -14.0l1.6875 0l0 14.0zm4.5274353 0l-1.6875 0l0 -9.859375l1.6875 0l0 9.859375zm-1.828125 -12.46875q0 -0.40625 0.25 -0.6875q0.25 -0.296875 0.734375 -0.296875q0.5 0 0.75 0.296875q0.265625 0.28125 0.265625 0.6875q0 0.40625 -0.265625 0.6875q-0.25 0.265625 -0.75 0.265625q-0.484375 0 -0.734375 -0.265625q-0.25 -0.28125 -0.25 -0.6875zm6.121155 2.609375l0.046875 1.234375q1.125 -1.40625 2.953125 -1.40625q3.125 0 3.15625 3.515625l0 6.515625l-1.6875 0l0 -6.515625q-0.015625 -1.078125 -0.5 -1.578125q-0.46875 -0.515625 -1.484375 -0.515625q-0.8125 0 -1.4375 0.4375q-0.609375 0.4375 -0.96875 1.15625l0 7.015625l-1.671875 0l0 -9.859375l1.59375 0zm8.278107 4.84375q0 -2.265625 1.078125 -3.640625q1.078125 -1.375 2.8125 -1.375q1.734375 0 2.75 1.171875l0 -5.140625l1.6875 0l0 14.0l-1.546875 0l-0.09375 -1.0625q-1.0 1.25 -2.8125 1.25q-1.703125 0 -2.796875 -1.40625q-1.078125 -1.40625 -1.078125 -3.65625l0 -0.140625zm1.6875 0.203125q0 1.671875 0.6875 2.625q0.703125 0.9375 1.921875 0.9375q1.609375 0 2.34375 -1.4375l0 -4.53125q-0.765625 -1.390625 -2.328125 -1.390625q-1.234375 0 -1.9375 0.953125q-0.6875 0.953125 -0.6875 2.84375zm13.333984 5.0q-2.0 0 -3.265625 -1.3125q-1.25 -1.328125 -1.25 -3.53125l0 -0.3125q0 -1.46875 0.5625 -2.609375q0.5625 -1.15625 1.5625 -1.796875q1.015625 -0.65625 2.1875 -0.65625q1.921875 0 2.984375 1.265625q1.0625 1.265625 1.0625 3.625l0 0.6875l-6.671875 0q0.03125 1.46875 0.84375 2.375q0.828125 0.890625 2.078125 0.890625q0.890625 0 1.515625 -0.359375q0.625 -0.375 1.078125 -0.96875l1.03125 0.796875q-1.234375 1.90625 -3.71875 1.90625zm-0.203125 -8.84375q-1.015625 0 -1.71875 0.75q-0.6875 0.734375 -0.84375 2.078125l4.9375 0l0 -0.125q-0.078125 -1.28125 -0.703125 -1.984375q-0.609375 -0.71875 -1.671875 -0.71875zm5.586914 3.640625q0 -2.265625 1.078125 -3.640625q1.078125 -1.375 2.8125 -1.375q1.734375 0 2.75 1.171875l0 -5.140625l1.6875 0l0 14.0l-1.546875 0l-0.09375 -1.0625q-1.0 1.25 -2.8125 1.25q-1.703125 0 -2.796875 -1.40625q-1.078125 -1.40625 -1.078125 -3.65625l0 -0.140625zm1.6875 0.203125q0 1.671875 0.6875 2.625q0.703125 0.9375 1.921875 0.9375q1.609375 0 2.34375 -1.4375l0 -4.53125q-0.765625 -1.390625 -2.328125 -1.390625q-1.234375 0 -1.9375 0.953125q-0.6875 0.953125 -0.6875 2.84375zm22.18686 0q0 2.25 -1.03125 3.625q-1.015625 1.375 -2.78125 1.375q-1.796875 0 -2.828125 -1.140625l0 4.75l-1.671875 0l0 -13.65625l1.53125 0l0.078125 1.09375q1.03125 -1.265625 2.859375 -1.265625q1.78125 0 2.8125 1.34375q1.03125 1.328125 1.03125 3.71875l0 0.15625zm-1.671875 -0.203125q0 -1.65625 -0.71875 -2.625q-0.703125 -0.96875 -1.953125 -0.96875q-1.53125 0 -2.296875 1.359375l0 4.703125q0.765625 1.359375 2.328125 1.359375q1.203125 0 1.921875 -0.953125q0.71875 -0.96875 0.71875 -2.875zm9.904327 5.015625q-0.140625 -0.296875 -0.234375 -1.03125q-1.171875 1.21875 -2.8125 1.21875q-1.453125 0 -2.390625 -0.828125q-0.921875 -0.828125 -0.921875 -2.09375q0 -1.53125 1.15625 -2.375q1.171875 -0.859375 3.296875 -0.859375l1.640625 0l0 -0.78125q0 -0.890625 -0.53125 -1.40625q-0.515625 -0.53125 -1.546875 -0.53125q-0.90625 0 -1.515625 0.46875q-0.609375 0.453125 -0.609375 1.09375l-1.703125 0q0 -0.734375 0.515625 -1.421875q0.53125 -0.6875 1.421875 -1.078125q0.90625 -0.40625 1.984375 -0.40625q1.703125 0 2.671875 0.859375q0.96875 0.84375 1.0 2.328125l0 4.53125q0 1.359375 0.34375 2.171875l0 0.140625l-1.765625 0zm-2.796875 -1.28125q0.796875 0 1.5 -0.40625q0.71875 -0.421875 1.03125 -1.078125l0 -2.015625l-1.3125 0q-3.109375 0 -3.109375 1.8125q0 0.796875 0.53125 1.25q0.53125 0.4375 1.359375 0.4375zm9.14798 -10.96875l0 2.390625l1.84375 0l0 1.3125l-1.84375 0l0 6.109375q0 0.59375 0.234375 0.890625q0.25 0.296875 0.84375 0.296875q0.296875 0 0.8125 -0.109375l0 1.359375q-0.671875 0.1875 -1.296875 0.1875q-1.125 0 -1.703125 -0.6875q-0.578125 -0.6875 -0.578125 -1.9375l0 -6.109375l-1.796875 0l0 -1.3125l1.796875 0l0 -2.390625l1.6875 0zm5.4848633 3.59375q1.125 -1.375 2.921875 -1.375q3.125 0 3.15625 3.515625l0 6.515625l-1.6875 0l0 -6.515625q-0.015625 -1.078125 -0.5 -1.578125q-0.46875 -0.515625 -1.484375 -0.515625q-0.8125 0 -1.4375 0.4375q-0.609375 0.4375 -0.96875 1.15625l0 7.015625l-1.671875 0l0 -14.0l1.671875 0l0 5.34375z" fill-rule="nonzero"/><path fill="#000000" fill-opacity="0.0" d="m7.0 248.99213l167.65355 0l0 41.007874l-167.65355 0z" fill-rule="evenodd"/><path fill="#000000" d="m21.090332 275.9121l-1.75 0l0 -13.265625l1.75 0l0 13.265625zm4.527115 -9.859375l0.046875 1.234375q1.125 -1.40625 2.953125 -1.40625q3.125 0 3.15625 3.515625l0 6.515625l-1.6875 0l0 -6.515625q-0.015625 -1.078125 -0.5 -1.578125q-0.46875 -0.515625 -1.484375 -0.515625q-0.8125 0 -1.4375 0.4375q-0.609375 0.4375 -0.96875 1.15625l0 7.015625l-1.671875 0l0 -9.859375l1.59375 0zm10.981232 -2.390625l0 2.390625l1.84375 0l0 1.3125l-1.84375 0l0 6.109375q0 0.59375 0.234375 0.890625q0.25 0.296875 0.84375 0.296875q0.296875 0 0.8125 -0.109375l0 1.359375q-0.671875 0.1875 -1.296875 0.1875q-1.125 0 -1.703125 -0.6875q-0.578125 -0.6875 -0.578125 -1.9375l0 -6.109375l-1.796875 0l0 -1.3125l1.796875 0l0 -2.390625l1.6875 0zm8.578629 3.90625q-0.390625 -0.0625 -0.84375 -0.0625q-1.65625 0 -2.25 1.40625l0 7.0l-1.671875 0l0 -9.859375l1.640625 0l0.015625 1.140625q0.828125 -1.3125 2.359375 -1.3125q0.484375 0 0.75 0.125l0 1.5625zm0.9118347 3.328125q0 -1.453125 0.5625 -2.609375q0.578125 -1.15625 1.59375 -1.78125q1.015625 -0.625 2.3125 -0.625q2.015625 0 3.25 1.390625q1.25 1.390625 1.25 3.703125l0 0.125q0 1.4375 -0.546875 2.578125q-0.546875 1.140625 -1.578125 1.78125q-1.015625 0.640625 -2.359375 0.640625q-2.0 0 -3.25 -1.390625q-1.234375 -1.40625 -1.234375 -3.703125l0 -0.109375zm1.6875 0.203125q0 1.640625 0.765625 2.640625q0.765625 0.984375 2.03125 0.984375q1.296875 0 2.046875 -1.0q0.75 -1.015625 0.75 -2.828125q0 -1.625 -0.765625 -2.625q-0.765625 -1.015625 -2.046875 -1.015625q-1.25 0 -2.015625 1.0q-0.765625 0.984375 -0.765625 2.84375zm8.983643 -0.203125q0 -2.265625 1.078125 -3.640625q1.078125 -1.375 2.8125 -1.375q1.734375 0 2.75 1.171875l0 -5.140625l1.6875 0l0 14.0l-1.546875 0l-0.09375 -1.0625q-1.0 1.25 -2.8125 1.25q-1.703125 0 -2.796875 -1.40625q-1.078125 -1.40625 -1.078125 -3.65625l0 -0.140625zm1.6875 0.203125q0 1.671875 0.6875 2.625q0.703125 0.9375 1.921875 0.9375q1.609375 0 2.34375 -1.4375l0 -4.53125q-0.765625 -1.390625 -2.328125 -1.390625q-1.234375 0 -1.9375 0.953125q-0.6875 0.953125 -0.6875 2.84375zm15.333969 3.84375q-0.984375 1.15625 -2.890625 1.15625q-1.578125 0 -2.40625 -0.921875q-0.8125 -0.921875 -0.828125 -2.703125l0 -6.421875l1.6875 0l0 6.375q0 2.234375 1.828125 2.234375q1.921875 0 2.5625 -1.4375l0 -7.171875l1.6875 0l0 9.859375l-1.609375 0l-0.03125 -0.96875zm8.159622 -0.21875q0.890625 0 1.5625 -0.546875q0.6875 -0.546875 0.75 -1.375l1.59375 0q-0.046875 0.84375 -0.578125 1.609375q-0.53125 0.765625 -1.4375 1.234375q-0.890625 0.453125 -1.890625 0.453125q-2.015625 0 -3.203125 -1.34375q-1.1875 -1.34375 -1.1875 -3.6875l0 -0.28125q0 -1.4375 0.515625 -2.546875q0.53125 -1.125 1.515625 -1.734375q1.0 -0.625 2.34375 -0.625q1.65625 0 2.75 1.0q1.109375 0.984375 1.171875 2.5625l-1.59375 0q-0.0625 -0.953125 -0.71875 -1.5625q-0.65625 -0.625 -1.609375 -0.625q-1.28125 0 -2.0 0.921875q-0.703125 0.921875 -0.703125 2.671875l0 0.328125q0 1.703125 0.703125 2.625q0.703125 0.921875 2.015625 0.921875zm8.093506 -11.0625l0 2.390625l1.84375 0l0 1.3125l-1.84375 0l0 6.109375q0 0.59375 0.234375 0.890625q0.25 0.296875 0.84375 0.296875q0.296875 0 0.8125 -0.109375l0 1.359375q-0.671875 0.1875 -1.296875 0.1875q-1.125 0 -1.703125 -0.6875q-0.578125 -0.6875 -0.578125 -1.9375l0 -6.109375l-1.796875 0l0 -1.3125l1.796875 0l0 -2.390625l1.6875 0zm5.6411285 12.25l-1.6875 0l0 -9.859375l1.6875 0l0 9.859375zm-1.828125 -12.46875q0 -0.40625 0.25 -0.6875q0.25 -0.296875 0.734375 -0.296875q0.5 0 0.75 0.296875q0.265625 0.28125 0.265625 0.6875q0 0.40625 -0.265625 0.6875q-0.25 0.265625 -0.75 0.265625q-0.484375 0 -0.734375 -0.265625q-0.25 -0.28125 -0.25 -0.6875zm4.074295 7.453125q0 -1.453125 0.5625 -2.609375q0.578125 -1.15625 1.59375 -1.78125q1.015625 -0.625 2.3125 -0.625q2.015625 0 3.25 1.390625q1.25 1.390625 1.25 3.703125l0 0.125q0 1.4375 -0.546875 2.578125q-0.546875 1.140625 -1.578125 1.78125q-1.015625 0.640625 -2.359375 0.640625q-2.0 0 -3.25 -1.390625q-1.234375 -1.40625 -1.234375 -3.703125l0 -0.109375zm1.6875 0.203125q0 1.640625 0.765625 2.640625q0.765625 0.984375 2.03125 0.984375q1.296875 0 2.046875 -1.0q0.75 -1.015625 0.75 -2.828125q0 -1.625 -0.765625 -2.625q-0.765625 -1.015625 -2.046875 -1.015625q-1.25 0 -2.015625 1.0q-0.765625 0.984375 -0.765625 2.84375zm10.999268 -5.046875l0.046875 1.234375q1.125 -1.40625 2.953125 -1.40625q3.125 0 3.15625 3.515625l0 6.515625l-1.6875 0l0 -6.515625q-0.015625 -1.078125 -0.5 -1.578125q-0.46875 -0.515625 -1.484375 -0.515625q-0.8125 0 -1.4375 0.4375q-0.609375 0.4375 -0.96875 1.15625l0 7.015625l-1.671875 0l0 -9.859375l1.59375 0zm14.912247 0l0.046875 1.234375q1.125 -1.40625 2.953125 -1.40625q3.125 0 3.15625 3.515625l0 6.515625l-1.6875 0l0 -6.515625q-0.015625 -1.078125 -0.5 -1.578125q-0.46875 -0.515625 -1.484375 -0.515625q-0.8125 0 -1.4375 0.4375q-0.609375 0.4375 -0.96875 1.15625l0 7.015625l-1.671875 0l0 -9.859375l1.59375 0zm8.246857 4.84375q0 -1.453125 0.5625 -2.609375q0.578125 -1.15625 1.59375 -1.78125q1.015625 -0.625 2.3125 -0.625q2.015625 0 3.25 1.390625q1.25 1.390625 1.25 3.703125l0 0.125q0 1.4375 -0.546875 2.578125q-0.546875 1.140625 -1.578125 1.78125q-1.015625 0.640625 -2.359375 0.640625q-2.0 0 -3.25 -1.390625q-1.234375 -1.40625 -1.234375 -3.703125l0 -0.109375zm1.6875 0.203125q0 1.640625 0.765625 2.640625q0.765625 0.984375 2.03125 0.984375q1.296875 0 2.046875 -1.0q0.75 -1.015625 0.75 -2.828125q0 -1.625 -0.765625 -2.625q-0.765625 -1.015625 -2.046875 -1.015625q-1.25 0 -2.015625 1.0q-0.765625 0.984375 -0.765625 2.84375zm8.983643 -0.203125q0 -2.265625 1.078125 -3.640625q1.078125 -1.375 2.8125 -1.375q1.734375 0 2.75 1.171875l0 -5.140625l1.6875 0l0 14.0l-1.546875 0l-0.09375 -1.0625q-1.0 1.25 -2.8125 1.25q-1.703125 0 -2.796875 -1.40625q-1.078125 -1.40625 -1.078125 -3.65625l0 -0.140625zm1.6875 0.203125q0 1.671875 0.6875 2.625q0.703125 0.9375 1.921875 0.9375q1.609375 0 2.34375 -1.4375l0 -4.53125q-0.765625 -1.390625 -2.328125 -1.390625q-1.234375 0 -1.9375 0.953125q-0.6875 0.953125 -0.6875 2.84375zm13.333969 5.0q-2.0 0 -3.265625 -1.3125q-1.25 -1.328125 -1.25 -3.53125l0 -0.3125q0 -1.46875 0.5625 -2.609375q0.5625 -1.15625 1.5625 -1.796875q1.015625 -0.65625 2.1875 -0.65625q1.921875 0 2.984375 1.265625q1.0625 1.265625 1.0625 3.625l0 0.6875l-6.671875 0q0.03125 1.46875 0.84375 2.375q0.828125 0.890625 2.078125 0.890625q0.890625 0 1.515625 -0.359375q0.625 -0.375 1.078125 -0.96875l1.03125 0.796875q-1.234375 1.90625 -3.71875 1.90625zm-0.203125 -8.84375q-1.015625 0 -1.71875 0.75q-0.6875 0.734375 -0.84375 2.078125l4.9375 0l0 -0.125q-0.078125 -1.28125 -0.703125 -1.984375q-0.609375 -0.71875 -1.671875 -0.71875z" fill-rule="nonzero"/><path fill="#000000" fill-opacity="0.0" d="m90.826775 248.99213l0 -61.196854l91.62205 0" fill-rule="evenodd"/><path stroke="#000000" stroke-width="2.0" stroke-linejoin="round" stroke-linecap="butt" d="m90.826775 248.99213l0 -61.196854l79.62205 0" fill-rule="evenodd"/><path fill="#000000" stroke="#000000" stroke-width="2.0" stroke-linecap="butt" d="m170.44882 191.09874l9.076187 -3.3034668l-9.076187 -3.3034668z" fill-rule="evenodd"/><path fill="#000000" fill-opacity="0.0" d="m270.1286 130.58792l0 0c0 -24.857155 1.6791687 -45.007866 3.7505188 -45.007866l136.499 0l0 0c0.99468994 0 1.9486389 4.7418823 2.652008 13.182495c0.7033386 8.44062 1.0984802 19.888542 1.0984802 31.82537z" fill-rule="evenodd"/><path fill="#000000" fill-opacity="0.0" d="m270.1286 130.58792l0 0c0 -24.857155 1.6791687 -45.007866 3.7505188 -45.007866l136.499 0l0 0c0.99468994 0 1.9486389 4.7418823 2.652008 13.182495c0.7033386 8.44062 1.0984802 19.888542 1.0984802 31.82537" fill-rule="evenodd"/><path stroke="#000000" stroke-width="2.0" stroke-linejoin="round" stroke-linecap="butt" d="m270.1286 130.58792l0 0c0 -24.857155 1.6791687 -45.007866 3.7505188 -45.007866l136.499 0l0 0c0.99468994 0 1.9486389 4.7418823 2.652008 13.182495c0.7033386 8.44062 1.0984802 19.888542 1.0984802 31.82537" fill-rule="evenodd"/><path fill="#000000" fill-opacity="0.0" d="m342.1286 85.580055l0 -32.125988" fill-rule="evenodd"/><path stroke="#000000" stroke-width="2.0" stroke-linejoin="round" stroke-linecap="butt" d="m342.1286 85.580055l0 -32.125988" fill-rule="evenodd"/><path fill="#000000" fill-opacity="0.0" d="m240.56955 12.435696l203.1181 0l0 41.007874l-203.1181 0z" fill-rule="evenodd"/><path fill="#000000" d="m284.942 39.355694l0 -13.265625l4.328125 0q2.15625 0 3.25 0.890625q1.09375 0.890625 1.09375 2.640625q0 0.9375 -0.53125 1.65625q-0.53125 0.703125 -1.4375 1.09375q1.0625 0.3125 1.6875 1.15625q0.625 0.84375 0.625 2.0q0 1.78125 -1.15625 2.8125q-1.15625 1.015625 -3.265625 1.015625l-4.59375 0zm1.734375 -6.203125l0 4.765625l2.890625 0q1.21875 0 1.921875 -0.625q0.71875 -0.640625 0.71875 -1.75q0 -2.390625 -2.609375 -2.390625l-2.921875 0zm0 -1.40625l2.65625 0q1.140625 0 1.828125 -0.5625q0.6875 -0.578125 0.6875 -1.5625q0 -1.09375 -0.640625 -1.59375q-0.640625 -0.5 -1.9375 -0.5l-2.59375 0l0 4.21875zm11.442749 7.609375l-1.6875 0l0 -14.0l1.6875 0l0 14.0zm4.527405 0l-1.6875 0l0 -9.859375l1.6875 0l0 9.859375zm-1.828125 -12.46875q0 -0.40625 0.25 -0.6875q0.25 -0.296875 0.734375 -0.296875q0.5 0 0.75 0.296875q0.265625 0.28125 0.265625 0.6875q0 0.40625 -0.265625 0.6875q-0.25 0.265625 -0.75 0.265625q-0.484375 0 -0.734375 -0.265625q-0.25 -0.28125 -0.25 -0.6875zm6.1211853 2.609375l0.046875 1.234375q1.125 -1.40625 2.953125 -1.40625q3.125 0 3.15625 3.515625l0 6.515625l-1.6875 0l0 -6.515625q-0.015625 -1.078125 -0.5 -1.578125q-0.46875 -0.515625 -1.484375 -0.515625q-0.8125 0 -1.4375 0.4375q-0.609375 0.4375 -0.96875 1.15625l0 7.015625l-1.671875 0l0 -9.859375l1.59375 0zm8.278107 4.84375q0 -2.265625 1.078125 -3.640625q1.078125 -1.375 2.8125 -1.375q1.734375 0 2.75 1.171875l0 -5.140625l1.6875 0l0 14.0l-1.546875 0l-0.09375 -1.0625q-1.0 1.25 -2.8125 1.25q-1.703125 0 -2.796875 -1.40625q-1.078125 -1.40625 -1.078125 -3.65625l0 -0.140625zm1.6875 0.203125q0 1.671875 0.6875 2.625q0.703125 0.9375 1.921875 0.9375q1.609375 0 2.34375 -1.4375l0 -4.53125q-0.765625 -1.390625 -2.328125 -1.390625q-1.234375 0 -1.9375 0.953125q-0.6875 0.953125 -0.6875 2.84375zm13.333954 5.0q-2.0 0 -3.265625 -1.3125q-1.25 -1.328125 -1.25 -3.53125l0 -0.3125q0 -1.46875 0.5625 -2.609375q0.5625 -1.15625 1.5625 -1.796875q1.015625 -0.65625 2.1875 -0.65625q1.921875 0 2.984375 1.265625q1.0625 1.265625 1.0625 3.625l0 0.6875l-6.671875 0q0.03125 1.46875 0.84375 2.375q0.828125 0.890625 2.078125 0.890625q0.890625 0 1.515625 -0.359375q0.625 -0.375 1.078125 -0.96875l1.03125 0.796875q-1.234375 1.90625 -3.71875 1.90625zm-0.203125 -8.84375q-1.015625 0 -1.71875 0.75q-0.6875 0.734375 -0.84375 2.078125l4.9375 0l0 -0.125q-0.078125 -1.28125 -0.703125 -1.984375q-0.609375 -0.71875 -1.671875 -0.71875zm5.5869446 3.640625q0 -2.265625 1.078125 -3.640625q1.078125 -1.375 2.8125 -1.375q1.734375 0 2.75 1.171875l0 -5.140625l1.6875 0l0 14.0l-1.546875 0l-0.09375 -1.0625q-1.0 1.25 -2.8125 1.25q-1.703125 0 -2.796875 -1.40625q-1.078125 -1.40625 -1.078125 -3.65625l0 -0.140625zm1.6875 0.203125q0 1.671875 0.6875 2.625q0.703125 0.9375 1.921875 0.9375q1.609375 0 2.34375 -1.4375l0 -4.53125q-0.765625 -1.390625 -2.328125 -1.390625q-1.234375 0 -1.9375 0.953125q-0.6875 0.953125 -0.6875 2.84375zm15.468109 -5.046875l0.046875 1.234375q1.125 -1.40625 2.953125 -1.40625q3.125 0 3.15625 3.515625l0 6.515625l-1.6875 0l0 -6.515625q-0.015625 -1.078125 -0.5 -1.578125q-0.46875 -0.515625 -1.484375 -0.515625q-0.8125 0 -1.4375 0.4375q-0.609375 0.4375 -0.96875 1.15625l0 7.015625l-1.671875 0l0 -9.859375l1.59375 0zm8.246857 4.84375q0 -1.453125 0.5625 -2.609375q0.578125 -1.15625 1.59375 -1.78125q1.015625 -0.625 2.3125 -0.625q2.015625 0 3.25 1.390625q1.25 1.390625 1.25 3.703125l0 0.125q0 1.4375 -0.546875 2.578125q-0.546875 1.140625 -1.578125 1.78125q-1.015625 0.640625 -2.359375 0.640625q-2.0 0 -3.25 -1.390625q-1.234375 -1.40625 -1.234375 -3.703125l0 -0.109375zm1.6875 0.203125q0 1.640625 0.765625 2.640625q0.765625 0.984375 2.03125 0.984375q1.296875 0 2.046875 -1.0q0.75 -1.015625 0.75 -2.828125q0 -1.625 -0.765625 -2.625q-0.765625 -1.015625 -2.046875 -1.015625q-1.25 0 -2.015625 1.0q-0.765625 0.984375 -0.765625 2.84375zm8.983643 -0.203125q0 -2.265625 1.078125 -3.640625q1.078125 -1.375 2.8125 -1.375q1.734375 0 2.75 1.171875l0 -5.140625l1.6875 0l0 14.0l-1.546875 0l-0.09375 -1.0625q-1.0 1.25 -2.8125 1.25q-1.703125 0 -2.796875 -1.40625q-1.078125 -1.40625 -1.078125 -3.65625l0 -0.140625zm1.6875 0.203125q0 1.671875 0.6875 2.625q0.703125 0.9375 1.921875 0.9375q1.609375 0 2.34375 -1.4375l0 -4.53125q-0.765625 -1.390625 -2.328125 -1.390625q-1.234375 0 -1.9375 0.953125q-0.6875 0.953125 -0.6875 2.84375zm13.333954 5.0q-2.0 0 -3.265625 -1.3125q-1.25 -1.328125 -1.25 -3.53125l0 -0.3125q0 -1.46875 0.5625 -2.609375q0.5625 -1.15625 1.5625 -1.796875q1.015625 -0.65625 2.1875 -0.65625q1.921875 0 2.984375 1.265625q1.0625 1.265625 1.0625 3.625l0 0.6875l-6.671875 0q0.03125 1.46875 0.84375 2.375q0.828125 0.890625 2.078125 0.890625q0.890625 0 1.515625 -0.359375q0.625 -0.375 1.078125 -0.96875l1.03125 0.796875q-1.234375 1.90625 -3.71875 1.90625zm-0.203125 -8.84375q-1.015625 0 -1.71875 0.75q-0.6875 0.734375 -0.84375 2.078125l4.9375 0l0 -0.125q-0.078125 -1.28125 -0.703125 -1.984375q-0.609375 -0.71875 -1.671875 -0.71875zm11.743195 6.046875q0 -0.6875 -0.515625 -1.0625q-0.515625 -0.375 -1.796875 -0.640625q-1.28125 -0.28125 -2.03125 -0.65625q-0.75 -0.390625 -1.109375 -0.921875q-0.359375 -0.53125 -0.359375 -1.265625q0 -1.203125 1.015625 -2.03125q1.03125 -0.84375 2.625 -0.84375q1.671875 0 2.71875 0.859375q1.046875 0.859375 1.046875 2.21875l-1.6875 0q0 -0.703125 -0.59375 -1.203125q-0.59375 -0.5 -1.484375 -0.5q-0.921875 0 -1.4375 0.40625q-0.515625 0.390625 -0.515625 1.046875q0 0.609375 0.484375 0.921875q0.484375 0.3125 1.734375 0.59375q1.265625 0.28125 2.046875 0.671875q0.78125 0.390625 1.15625 0.9375q0.390625 0.546875 0.390625 1.34375q0 1.328125 -1.0625 2.125q-1.046875 0.796875 -2.734375 0.796875q-1.1875 0 -2.109375 -0.421875q-0.90625 -0.421875 -1.421875 -1.171875q-0.515625 -0.75 -0.515625 -1.625l1.6875 0q0.046875 0.84375 0.671875 1.34375q0.640625 0.5 1.6875 0.5q0.953125 0 1.53125 -0.390625q0.578125 -0.390625 0.578125 -1.03125z" fill-rule="nonzero"/><path fill="#000000" fill-opacity="0.0" d="m415.3941 187.78954l95.77954 0l0 61.196854" fill-rule="evenodd"/><path stroke="#000000" stroke-width="2.0" stroke-linejoin="round" stroke-linecap="butt" d="m427.3941 187.78954l83.77954 0l0 61.196854" fill-rule="evenodd"/><path fill="#000000" stroke="#000000" stroke-width="2.0" stroke-linecap="butt" d="m427.3941 184.48607l-9.076202 3.3034668l9.076202 3.3034668z" fill-rule="evenodd"/><path fill="#000000" fill-opacity="0.0" d="m427.3596 248.99213l167.65353 0l0 41.007874l-167.65353 0z" fill-rule="evenodd"/><path fill="#000000" d="m456.14905 270.55273l-3.125 0l0 5.359375l-1.75 0l0 -13.265625l4.390625 0q2.234375 0 3.4375 1.03125q1.21875 1.015625 1.21875 2.953125q0 1.25 -0.671875 2.171875q-0.671875 0.921875 -1.859375 1.375l3.109375 5.625l0 0.109375l-1.875 0l-2.875 -5.359375zm-3.125 -1.4375l2.6875 0q1.3125 0 2.078125 -0.671875q0.765625 -0.671875 0.765625 -1.8125q0 -1.21875 -0.734375 -1.875q-0.734375 -0.65625 -2.109375 -0.671875l-2.6875 0l0 5.03125zm13.565186 6.984375q-2.0 0 -3.265625 -1.3125q-1.25 -1.328125 -1.25 -3.53125l0 -0.3125q0 -1.46875 0.5625 -2.609375q0.5625 -1.15625 1.5625 -1.796875q1.015625 -0.65625 2.1875 -0.65625q1.921875 0 2.984375 1.265625q1.0625 1.265625 1.0625 3.625l0 0.6875l-6.671875 0q0.03125 1.46875 0.84375 2.375q0.828125 0.890625 2.078125 0.890625q0.890625 0 1.515625 -0.359375q0.625 -0.375 1.078125 -0.96875l1.03125 0.796875q-1.234375 1.90625 -3.71875 1.90625zm-0.203125 -8.84375q-1.015625 0 -1.71875 0.75q-0.6875 0.734375 -0.84375 2.078125l4.9375 0l0 -0.125q-0.078125 -1.28125 -0.703125 -1.984375q-0.609375 -0.71875 -1.671875 -0.71875zm9.961945 7.46875q0.890625 0 1.5625 -0.546875q0.6875 -0.546875 0.75 -1.375l1.59375 0q-0.046875 0.84375 -0.578125 1.609375q-0.53125 0.765625 -1.4375 1.234375q-0.890625 0.453125 -1.890625 0.453125q-2.015625 0 -3.203125 -1.34375q-1.1875 -1.34375 -1.1875 -3.6875l0 -0.28125q0 -1.4375 0.515625 -2.546875q0.53125 -1.125 1.515625 -1.734375q1.0 -0.625 2.34375 -0.625q1.65625 0 2.75 1.0q1.109375 0.984375 1.171875 2.5625l-1.59375 0q-0.0625 -0.953125 -0.71875 -1.5625q-0.65625 -0.625 -1.609375 -0.625q-1.28125 0 -2.0 0.921875q-0.703125 0.921875 -0.703125 2.671875l0 0.328125q0 1.703125 0.703125 2.625q0.703125 0.921875 2.015625 0.921875zm7.640381 1.1875l-1.6875 0l0 -9.859375l1.6875 0l0 9.859375zm-1.828125 -12.46875q0 -0.40625 0.25 -0.6875q0.25 -0.296875 0.734375 -0.296875q0.5 0 0.75 0.296875q0.265625 0.28125 0.265625 0.6875q0 0.40625 -0.265625 0.6875q-0.25 0.265625 -0.75 0.265625q-0.484375 0 -0.734375 -0.265625q-0.25 -0.28125 -0.25 -0.6875zm12.839905 7.65625q0 2.25 -1.03125 3.625q-1.015625 1.375 -2.78125 1.375q-1.796875 0 -2.828125 -1.140625l0 4.75l-1.671875 0l0 -13.65625l1.53125 0l0.078125 1.09375q1.03125 -1.265625 2.859375 -1.265625q1.78125 0 2.8125 1.34375q1.03125 1.328125 1.03125 3.71875l0 0.15625zm-1.671875 -0.203125q0 -1.65625 -0.71875 -2.625q-0.703125 -0.96875 -1.953125 -0.96875q-1.53125 0 -2.296875 1.359375l0 4.703125q0.765625 1.359375 2.328125 1.359375q1.203125 0 1.921875 -0.953125q0.71875 -0.96875 0.71875 -2.875zm5.6543274 5.015625l-1.6875 0l0 -9.859375l1.6875 0l0 9.859375zm-1.828125 -12.46875q0 -0.40625 0.25 -0.6875q0.25 -0.296875 0.734375 -0.296875q0.5 0 0.75 0.296875q0.265625 0.28125 0.265625 0.6875q0 0.40625 -0.265625 0.6875q-0.25 0.265625 -0.75 0.265625q-0.484375 0 -0.734375 -0.265625q-0.25 -0.28125 -0.25 -0.6875zm8.60553 12.65625q-2.0 0 -3.265625 -1.3125q-1.25 -1.328125 -1.25 -3.53125l0 -0.3125q0 -1.46875 0.5625 -2.609375q0.5625 -1.15625 1.5625 -1.796875q1.015625 -0.65625 2.1875 -0.65625q1.921875 0 2.984375 1.265625q1.0625 1.265625 1.0625 3.625l0 0.6875l-6.671875 0q0.03125 1.46875 0.84375 2.375q0.828125 0.890625 2.078125 0.890625q0.890625 0 1.515625 -0.359375q0.625 -0.375 1.078125 -0.96875l1.03125 0.796875q-1.234375 1.90625 -3.71875 1.90625zm-0.203125 -8.84375q-1.015625 0 -1.71875 0.75q-0.6875 0.734375 -0.84375 2.078125l4.9375 0l0 -0.125q-0.078125 -1.28125 -0.703125 -1.984375q-0.609375 -0.71875 -1.671875 -0.71875zm7.602539 -1.203125l0.046875 1.234375q1.125 -1.40625 2.953125 -1.40625q3.125 0 3.15625 3.515625l0 6.515625l-1.6875 0l0 -6.515625q-0.015625 -1.078125 -0.5 -1.578125q-0.46875 -0.515625 -1.484375 -0.515625q-0.8125 0 -1.4375 0.4375q-0.609375 0.4375 -0.96875 1.15625l0 7.015625l-1.6718445 0l0 -9.859375l1.5937195 0zm10.981262 -2.390625l0 2.390625l1.84375 0l0 1.3125l-1.84375 0l0 6.109375q0 0.59375 0.234375 0.890625q0.25 0.296875 0.84375 0.296875q0.296875 0 0.8125 -0.109375l0 1.359375q-0.671875 0.1875 -1.296875 0.1875q-1.125 0 -1.703125 -0.6875q-0.578125 -0.6875 -0.578125 -1.9375l0 -6.109375l-1.796875 0l0 -1.3125l1.796875 0l0 -2.390625l1.6875 0zm10.025269 2.390625l0.046875 1.234375q1.125 -1.40625 2.953125 -1.40625q3.125 0 3.15625 3.515625l0 6.515625l-1.6875 0l0 -6.515625q-0.015625 -1.078125 -0.5 -1.578125q-0.46875 -0.515625 -1.484375 -0.515625q-0.8125 0 -1.4375 0.4375q-0.609375 0.4375 -0.96875 1.15625l0 7.015625l-1.671875 0l0 -9.859375l1.59375 0zm8.246826 4.84375q0 -1.453125 0.5625 -2.609375q0.578125 -1.15625 1.59375 -1.78125q1.015625 -0.625 2.3125 -0.625q2.015625 0 3.25 1.390625q1.25 1.390625 1.25 3.703125l0 0.125q0 1.4375 -0.546875 2.578125q-0.546875 1.140625 -1.578125 1.78125q-1.015625 0.640625 -2.359375 0.640625q-2.0 0 -3.25 -1.390625q-1.234375 -1.40625 -1.234375 -3.703125l0 -0.109375zm1.6875 0.203125q0 1.640625 0.765625 2.640625q0.765625 0.984375 2.03125 0.984375q1.296875 0 2.046875 -1.0q0.75 -1.015625 0.75 -2.828125q0 -1.625 -0.765625 -2.625q-0.765625 -1.015625 -2.046875 -1.015625q-1.25 0 -2.015625 1.0q-0.765625 0.984375 -0.765625 2.84375zm8.983643 -0.203125q0 -2.265625 1.078125 -3.640625q1.078125 -1.375 2.8125 -1.375q1.734375 0 2.75 1.171875l0 -5.140625l1.6875 0l0 14.0l-1.546875 0l-0.09375 -1.0625q-1.0 1.25 -2.8125 1.25q-1.703125 0 -2.796875 -1.40625q-1.078125 -1.40625 -1.078125 -3.65625l0 -0.140625zm1.6875 0.203125q0 1.671875 0.6875 2.625q0.703125 0.9375 1.921875 0.9375q1.609375 0 2.34375 -1.4375l0 -4.53125q-0.765625 -1.390625 -2.328125 -1.390625q-1.234375 0 -1.9375 0.953125q-0.6875 0.953125 -0.6875 2.84375zm13.333984 5.0q-2.0 0 -3.265625 -1.3125q-1.25 -1.328125 -1.25 -3.53125l0 -0.3125q0 -1.46875 0.5625 -2.609375q0.5625 -1.15625 1.5625 -1.796875q1.015625 -0.65625 2.1875 -0.65625q1.921875 0 2.984375 1.265625q1.0625 1.265625 1.0625 3.625l0 0.6875l-6.671875 0q0.03125 1.46875 0.84375 2.375q0.828125 0.890625 2.078125 0.890625q0.890625 0 1.515625 -0.359375q0.625 -0.375 1.078125 -0.96875l1.03125 0.796875q-1.234375 1.90625 -3.71875 1.90625zm-0.203125 -8.84375q-1.015625 0 -1.71875 0.75q-0.6875 0.734375 -0.84375 2.078125l4.9375 0l0 -0.125q-0.078125 -1.28125 -0.703125 -1.984375q-0.609375 -0.71875 -1.671875 -0.71875z" fill-rule="nonzero"/></g></svg>
