<svg width="1920" height="1080" viewBox="0 0 1920 1080" fill="none" xmlns="http://www.w3.org/2000/svg">
<rect width="1920" height="1080" fill="white"/>
<rect x="664" y="328" width="1034" height="533" fill="#D1D1D1"/>
<rect width="107.3" height="53" transform="translate(684 798)" fill="#D1D1D1"/>
<path fill-rule="evenodd" clip-rule="evenodd" d="M702.191 818.316L713.662 829.787V806.845L702.191 818.316Z" fill="#7E7E7E"/>
<path fill-rule="evenodd" clip-rule="evenodd" d="M713.509 830.683L702.038 819.212V842.154L713.509 830.683Z" fill="#7E7E7E"/>
<path fill-rule="evenodd" clip-rule="evenodd" d="M714.404 821.779V829.788L722.413 821.779H714.404Z" fill="#7E7E7E"/>
<path fill-rule="evenodd" clip-rule="evenodd" d="M693.288 827.19L701.296 819.182V827.19H693.288Z" fill="#7E7E7E"/>
<path d="M733.735 834.5V816.183H737.195V831.269H745.081V834.5H733.735ZM747.244 834.5V816.183H753.172C753.316 816.183 753.613 816.187 754.062 816.196C754.512 816.204 754.944 816.234 755.36 816.285C756.835 816.463 758.086 816.976 759.112 817.824C760.138 818.672 760.918 819.749 761.452 821.055C761.987 822.361 762.254 823.79 762.254 825.342C762.254 826.893 761.987 828.322 761.452 829.628C760.918 830.934 760.138 832.011 759.112 832.859C758.086 833.707 756.835 834.22 755.36 834.398C754.944 834.449 754.512 834.479 754.062 834.487C753.613 834.496 753.316 834.5 753.172 834.5H747.244ZM750.755 831.244H753.172C753.401 831.244 753.71 831.239 754.1 831.231C754.49 831.214 754.842 831.176 755.156 831.116C755.953 830.955 756.602 830.582 757.102 829.997C757.611 829.412 757.984 828.708 758.222 827.886C758.467 827.063 758.59 826.215 758.59 825.342C758.59 824.426 758.463 823.557 758.209 822.734C757.963 821.911 757.586 821.216 757.077 820.648C756.568 820.08 755.928 819.719 755.156 819.567C754.842 819.499 754.49 819.461 754.1 819.452C753.71 819.444 753.401 819.44 753.172 819.44H750.755V831.244ZM765.306 834.5V816.183H768.765V824.629L775.736 816.183H779.959L772.302 825.214L780.442 834.5H776.067L768.765 826.156V834.5H765.306Z" fill="#7E7E7E"/>
<path d="M1165 572H1081" stroke="#7E7E7E" stroke-width="5" stroke-linecap="round" stroke-linejoin="round" stroke-dasharray="10 10"/>
<path d="M1281 754H1165V441H1281" stroke="#7E7E7E" stroke-width="5" stroke-linejoin="round" stroke-dasharray="10 10"/>
<path d="M714 572L614 572" stroke="#7E7E7E" stroke-width="5" stroke-linejoin="round" stroke-dasharray="10 10"/>
<path d="M419 504L419 354" stroke="#7E7E7E" stroke-width="5" stroke-linejoin="round" stroke-dasharray="10 10"/>
<rect width="339" height="79" transform="translate(223 249)" fill="#0F31F7"/>
<rect width="339" height="79" transform="translate(237 235)" fill="#0F96F7"/>
<rect width="339" height="79" transform="translate(249 220)" fill="#0F31F7"/>
<path d="M366.724 273V263.424H373.762C374.248 263.424 375.004 263.388 375.67 263.28C379.846 262.632 382.078 259.374 382.078 255.252C382.078 251.13 379.864 247.872 375.67 247.224C375.004 247.116 374.266 247.08 373.762 247.08H363.52V273H366.724ZM366.724 250.122H373.654C374.104 250.122 374.734 250.158 375.274 250.284C377.758 250.842 378.802 253.092 378.802 255.252C378.802 257.412 377.758 259.662 375.274 260.22C374.734 260.346 374.104 260.382 373.654 260.382H366.724V250.122ZM402.755 264.18C403.043 257.268 399.623 253.02 393.773 253.02C388.121 253.02 384.413 257.034 384.413 263.406C384.413 269.49 388.175 273.54 393.917 273.54C397.679 273.54 400.901 271.578 402.431 268.14L399.353 267.078C398.273 269.292 396.329 270.498 393.773 270.498C390.191 270.498 388.103 268.212 387.851 264.18H402.755ZM393.881 255.9C397.175 255.9 399.029 257.79 399.425 261.606H387.905C388.355 257.916 390.389 255.9 393.881 255.9ZM424.024 264.18C424.312 257.268 420.892 253.02 415.042 253.02C409.39 253.02 405.682 257.034 405.682 263.406C405.682 269.49 409.444 273.54 415.186 273.54C418.948 273.54 422.17 271.578 423.7 268.14L420.622 267.078C419.542 269.292 417.598 270.498 415.042 270.498C411.46 270.498 409.372 268.212 409.12 264.18H424.024ZM415.15 255.9C418.444 255.9 420.298 257.79 420.694 261.606H409.174C409.624 257.916 411.658 255.9 415.15 255.9ZM432.55 254.748C431.902 255.216 431.326 255.882 430.894 256.638V253.56H428.032V273H431.254V263.244C431.254 260.94 431.722 258.654 433.612 257.304C434.962 256.314 436.708 256.224 438.058 256.566V253.56C436.33 253.182 434.044 253.542 432.55 254.748ZM458.298 280.776V277.86H454.104V243.84H458.298V240.924H451.188V280.776H458.298ZM470.794 240.924H463.684V243.84H467.878V277.86H463.684V280.776H470.794V240.924Z" fill="white"/>
<rect width="339" height="79" transform="translate(1305 401)" fill="#0F31F7"/>
<path d="M1342.18 454.54C1348.17 454.54 1352.11 451.246 1353.59 446.098L1350.33 445.234C1349.27 449.086 1346.55 451.48 1342.18 451.48C1336.38 451.48 1333.43 447.25 1333.46 441.04C1333.5 434.83 1336.38 430.6 1342.18 430.6C1346.55 430.6 1349.27 432.994 1350.33 436.846L1353.59 435.982C1352.11 430.834 1348.17 427.54 1342.18 427.54C1334.42 427.54 1330.08 433.048 1330.08 441.04C1330.08 449.032 1334.42 454.54 1342.18 454.54ZM1366.88 434.056C1364.07 434.056 1361.84 435.136 1360.4 437.062V428.08H1357.52V454H1360.76V443.758C1360.76 439.258 1362.88 437.098 1366.1 437.098C1370.21 437.098 1371.38 440.608 1371.38 444.262V454H1374.62V443.254C1374.62 439.564 1373.14 434.056 1366.88 434.056ZM1394.24 437.818C1393.12 435.28 1390.48 434.02 1386.97 434.02C1382.57 434.02 1379.86 436.09 1378.94 439.492L1381.98 440.41C1382.68 438.034 1384.57 437.008 1386.93 437.008C1390.3 437.008 1391.63 438.484 1391.72 441.58C1388.84 441.976 1385.42 442.39 1382.99 443.038C1380.04 443.902 1378.22 445.684 1378.22 448.744C1378.22 451.876 1380.47 454.54 1384.82 454.54C1388.06 454.54 1390.48 453.352 1392.02 450.976V454H1394.87V441.976C1394.87 440.446 1394.78 439.024 1394.24 437.818ZM1385.31 451.858C1382.54 451.858 1381.4 450.328 1381.4 448.726C1381.4 446.908 1382.83 446.026 1384.43 445.522C1386.32 444.982 1388.95 444.676 1391.68 444.316C1391.66 445.198 1391.63 446.44 1391.36 447.376C1390.89 449.788 1388.77 451.858 1385.31 451.858ZM1408.89 434.056C1406.08 434.056 1403.85 435.136 1402.41 437.062V434.56H1399.53V454H1402.77V443.758C1402.77 439.258 1404.89 437.098 1408.12 437.098C1412.22 437.098 1413.39 440.608 1413.39 444.262V454H1416.63V443.254C1416.63 439.564 1415.15 434.056 1408.89 434.056ZM1430.65 434.056C1427.84 434.056 1425.61 435.136 1424.17 437.062V434.56H1421.29V454H1424.53V443.758C1424.53 439.258 1426.66 437.098 1429.88 437.098C1433.98 437.098 1435.15 440.608 1435.15 444.262V454H1438.39V443.254C1438.39 439.564 1436.92 434.056 1430.65 434.056ZM1460.16 445.18C1460.45 438.268 1457.03 434.02 1451.18 434.02C1445.52 434.02 1441.82 438.034 1441.82 444.406C1441.82 450.49 1445.58 454.54 1451.32 454.54C1455.08 454.54 1458.3 452.578 1459.83 449.14L1456.76 448.078C1455.68 450.292 1453.73 451.498 1451.18 451.498C1447.59 451.498 1445.51 449.212 1445.25 445.18H1460.16ZM1451.28 436.9C1454.58 436.9 1456.43 438.79 1456.83 442.606H1445.31C1445.76 438.916 1447.79 436.9 1451.28 436.9ZM1467.73 454V427.54H1464.52V454H1467.73ZM1476.17 454V435.118L1484.97 454H1486.68L1495.49 435.118V453.982H1498.53V428.08H1495.58L1485.84 448.726L1476.05 428.08H1473.13V454H1476.17ZM1518.51 437.818C1517.4 435.28 1514.75 434.02 1511.24 434.02C1506.85 434.02 1504.13 436.09 1503.21 439.492L1506.26 440.41C1506.96 438.034 1508.85 437.008 1511.21 437.008C1514.57 437.008 1515.9 438.484 1515.99 441.58C1513.11 441.976 1509.69 442.39 1507.26 443.038C1504.31 443.902 1502.49 445.684 1502.49 448.744C1502.49 451.876 1504.74 454.54 1509.1 454.54C1512.34 454.54 1514.75 453.352 1516.3 450.976V454H1519.14V441.976C1519.14 440.446 1519.05 439.024 1518.51 437.818ZM1509.59 451.858C1506.81 451.858 1505.68 450.328 1505.68 448.726C1505.68 446.908 1507.1 446.026 1508.7 445.522C1510.59 444.982 1513.22 444.676 1515.96 444.316C1515.94 445.198 1515.9 446.44 1515.63 447.376C1515.17 449.788 1513.04 451.858 1509.59 451.858ZM1533.17 434.056C1530.36 434.056 1528.13 435.136 1526.69 437.062V434.56H1523.81V454H1527.05V443.758C1527.05 439.258 1529.17 437.098 1532.39 437.098C1536.5 437.098 1537.67 440.608 1537.67 444.262V454H1540.91V443.254C1540.91 439.564 1539.43 434.056 1533.17 434.056ZM1560.53 437.818C1559.41 435.28 1556.76 434.02 1553.25 434.02C1548.86 434.02 1546.14 436.09 1545.23 439.492L1548.27 440.41C1548.97 438.034 1550.86 437.008 1553.22 437.008C1556.58 437.008 1557.92 438.484 1558.01 441.58C1555.13 441.976 1551.71 442.39 1549.28 443.038C1546.32 443.902 1544.51 445.684 1544.51 448.744C1544.51 451.876 1546.76 454.54 1551.11 454.54C1554.35 454.54 1556.76 453.352 1558.31 450.976V454H1561.16V441.976C1561.16 440.446 1561.07 439.024 1560.53 437.818ZM1551.6 451.858C1548.83 451.858 1547.69 450.328 1547.69 448.726C1547.69 446.908 1549.11 446.026 1550.72 445.522C1552.61 444.982 1555.23 444.676 1557.97 444.316C1557.95 445.198 1557.92 446.44 1557.65 447.376C1557.18 449.788 1555.05 451.858 1551.6 451.858ZM1579.55 436.738C1578.13 435.028 1576.1 434.02 1573.45 434.02C1568.05 434.02 1564.76 438.43 1564.76 444.262C1564.76 450.094 1568.03 454.54 1573.47 454.54C1575.86 454.54 1577.79 453.676 1579.17 452.218V454.09C1579.21 458.05 1577.43 460.084 1573.72 460.084C1571.83 460.084 1569.9 459.274 1568.95 457.366L1566.02 458.914C1567.64 461.812 1570.64 463.18 1573.7 463.18C1578.35 463.18 1581.41 461.254 1582.16 457.114C1582.34 456.16 1582.4 455.206 1582.4 454.126V434.56H1579.55V436.738ZM1573.86 451.606C1570.03 451.606 1568.16 448.402 1568.16 444.262C1568.16 440.158 1569.99 436.954 1573.95 436.954C1577.75 436.954 1579.55 439.96 1579.55 444.262C1579.55 448.528 1577.79 451.606 1573.86 451.606ZM1604.68 445.18C1604.97 438.268 1601.55 434.02 1595.7 434.02C1590.05 434.02 1586.34 438.034 1586.34 444.406C1586.34 450.49 1590.1 454.54 1595.85 454.54C1599.61 454.54 1602.83 452.578 1604.36 449.14L1601.28 448.078C1600.2 450.292 1598.26 451.498 1595.7 451.498C1592.12 451.498 1590.03 449.212 1589.78 445.18H1604.68ZM1595.81 436.9C1599.1 436.9 1600.96 438.79 1601.35 442.606H1589.83C1590.28 438.916 1592.32 436.9 1595.81 436.9ZM1613.21 435.748C1612.56 436.216 1611.99 436.882 1611.55 437.638V434.56H1608.69V454H1611.91V444.244C1611.91 441.94 1612.38 439.654 1614.27 438.304C1615.62 437.314 1617.37 437.224 1618.72 437.566V434.56C1616.99 434.182 1614.7 434.542 1613.21 435.748Z" fill="white"/>
<rect width="339" height="79" transform="translate(742 532)" fill="#0F31F7"/>
<path d="M803.724 585V575.424H810.762C811.248 575.424 812.004 575.388 812.67 575.28C816.846 574.632 819.078 571.374 819.078 567.252C819.078 563.13 816.864 559.872 812.67 559.224C812.004 559.116 811.266 559.08 810.762 559.08H800.52V585H803.724ZM803.724 562.122H810.654C811.104 562.122 811.734 562.158 812.274 562.284C814.758 562.842 815.802 565.092 815.802 567.252C815.802 569.412 814.758 571.662 812.274 572.22C811.734 572.346 811.104 572.382 810.654 572.382H803.724V562.122ZM839.755 576.18C840.043 569.268 836.623 565.02 830.773 565.02C825.121 565.02 821.413 569.034 821.413 575.406C821.413 581.49 825.175 585.54 830.917 585.54C834.679 585.54 837.901 583.578 839.431 580.14L836.353 579.078C835.273 581.292 833.329 582.498 830.773 582.498C827.191 582.498 825.103 580.212 824.851 576.18H839.755ZM830.881 567.9C834.175 567.9 836.029 569.79 836.425 573.606H824.905C825.355 569.916 827.389 567.9 830.881 567.9ZM861.024 576.18C861.312 569.268 857.892 565.02 852.042 565.02C846.39 565.02 842.682 569.034 842.682 575.406C842.682 581.49 846.444 585.54 852.186 585.54C855.948 585.54 859.17 583.578 860.7 580.14L857.622 579.078C856.542 581.292 854.598 582.498 852.042 582.498C848.46 582.498 846.372 580.212 846.12 576.18H861.024ZM852.15 567.9C855.444 567.9 857.298 569.79 857.694 573.606H846.174C846.624 569.916 848.658 567.9 852.15 567.9ZM869.55 566.748C868.902 567.216 868.326 567.882 867.894 568.638V565.56H865.032V585H868.254V575.244C868.254 572.94 868.722 570.654 870.612 569.304C871.962 568.314 873.708 568.224 875.058 568.566V565.56C873.33 565.182 871.044 565.542 869.55 566.748ZM881.503 585V566.118L890.305 585H892.015L900.817 566.118V584.982H903.859V559.08H900.907L891.169 579.726L881.377 559.08H878.461V585H881.503ZM923.847 568.818C922.731 566.28 920.085 565.02 916.575 565.02C912.183 565.02 909.465 567.09 908.547 570.492L911.589 571.41C912.291 569.034 914.181 568.008 916.539 568.008C919.905 568.008 921.237 569.484 921.327 572.58C918.447 572.976 915.027 573.39 912.597 574.038C909.645 574.902 907.827 576.684 907.827 579.744C907.827 582.876 910.077 585.54 914.433 585.54C917.673 585.54 920.085 584.352 921.633 581.976V585H924.477V572.976C924.477 571.446 924.387 570.024 923.847 568.818ZM914.919 582.858C912.147 582.858 911.013 581.328 911.013 579.726C911.013 577.908 912.435 577.026 914.037 576.522C915.927 575.982 918.555 575.676 921.291 575.316C921.273 576.198 921.237 577.44 920.967 578.376C920.499 580.788 918.375 582.858 914.919 582.858ZM938.499 565.056C935.691 565.056 933.459 566.136 932.019 568.062V565.56H929.139V585H932.379V574.758C932.379 570.258 934.503 568.098 937.725 568.098C941.829 568.098 942.999 571.608 942.999 575.262V585H946.239V574.254C946.239 570.564 944.763 565.056 938.499 565.056ZM965.858 568.818C964.742 566.28 962.096 565.02 958.586 565.02C954.194 565.02 951.476 567.09 950.558 570.492L953.6 571.41C954.302 569.034 956.192 568.008 958.55 568.008C961.916 568.008 963.248 569.484 963.338 572.58C960.458 572.976 957.038 573.39 954.608 574.038C951.656 574.902 949.838 576.684 949.838 579.744C949.838 582.876 952.088 585.54 956.444 585.54C959.684 585.54 962.096 584.352 963.644 581.976V585H966.488V572.976C966.488 571.446 966.398 570.024 965.858 568.818ZM956.93 582.858C954.158 582.858 953.024 581.328 953.024 579.726C953.024 577.908 954.446 577.026 956.048 576.522C957.938 575.982 960.566 575.676 963.302 575.316C963.284 576.198 963.248 577.44 962.978 578.376C962.51 580.788 960.386 582.858 956.93 582.858ZM984.884 567.738C983.462 566.028 981.428 565.02 978.782 565.02C973.382 565.02 970.088 569.43 970.088 575.262C970.088 581.094 973.364 585.54 978.8 585.54C981.194 585.54 983.12 584.676 984.506 583.218V585.09C984.542 589.05 982.76 591.084 979.052 591.084C977.162 591.084 975.236 590.274 974.282 588.366L971.348 589.914C972.968 592.812 975.974 594.18 979.034 594.18C983.678 594.18 986.738 592.254 987.494 588.114C987.674 587.16 987.728 586.206 987.728 585.126V565.56H984.884V567.738ZM979.196 582.606C975.362 582.606 973.49 579.402 973.49 575.262C973.49 571.158 975.326 567.954 979.286 567.954C983.084 567.954 984.884 570.96 984.884 575.262C984.884 579.528 983.12 582.606 979.196 582.606ZM1010.02 576.18C1010.3 569.268 1006.88 565.02 1001.03 565.02C995.382 565.02 991.674 569.034 991.674 575.406C991.674 581.49 995.436 585.54 1001.18 585.54C1004.94 585.54 1008.16 583.578 1009.69 580.14L1006.61 579.078C1005.53 581.292 1003.59 582.498 1001.03 582.498C997.452 582.498 995.364 580.212 995.112 576.18H1010.02ZM1001.14 567.9C1004.44 567.9 1006.29 569.79 1006.69 573.606H995.166C995.616 569.916 997.65 567.9 1001.14 567.9ZM1018.54 566.748C1017.89 567.216 1017.32 567.882 1016.89 568.638V565.56H1014.02V585H1017.25V575.244C1017.25 572.94 1017.71 570.654 1019.6 569.304C1020.95 568.314 1022.7 568.224 1024.05 568.566V565.56C1022.32 565.182 1020.04 565.542 1018.54 566.748Z" fill="white"/>
<rect width="339" height="79" transform="translate(1305 714)" fill="#0F31F7"/>
<path d="M1347.72 767V757.424H1354.76C1355.25 757.424 1356 757.388 1356.67 757.28C1360.85 756.632 1363.08 753.374 1363.08 749.252C1363.08 745.13 1360.86 741.872 1356.67 741.224C1356 741.116 1355.27 741.08 1354.76 741.08H1344.52V767H1347.72ZM1347.72 744.122H1354.65C1355.1 744.122 1355.73 744.158 1356.27 744.284C1358.76 744.842 1359.8 747.092 1359.8 749.252C1359.8 751.412 1358.76 753.662 1356.27 754.22C1355.73 754.346 1355.1 754.382 1354.65 754.382H1347.72V744.122ZM1379.23 756.416C1381.9 754.058 1383.17 752.348 1383.17 748.946C1383.17 744.176 1379.54 740.54 1374.73 740.54C1369.75 740.54 1366.07 744.014 1366.07 748.892H1369.35C1369.31 746.066 1371.58 743.6 1374.68 743.6C1377.67 743.6 1379.9 745.922 1379.9 748.91C1379.9 750.548 1379.38 752.042 1377.47 753.752L1365.97 764.102L1365.95 766.982H1383.17V763.922H1370.88L1379.23 756.416ZM1390.68 767V757.424H1397.72C1398.21 757.424 1398.96 757.388 1399.63 757.28C1403.81 756.632 1406.04 753.374 1406.04 749.252C1406.04 745.13 1403.82 741.872 1399.63 741.224C1398.96 741.116 1398.23 741.08 1397.72 741.08H1387.48V767H1390.68ZM1390.68 744.122H1397.61C1398.06 744.122 1398.69 744.158 1399.23 744.284C1401.72 744.842 1402.76 747.092 1402.76 749.252C1402.76 751.412 1401.72 753.662 1399.23 754.22C1398.69 754.346 1398.06 754.382 1397.61 754.382H1390.68V744.122ZM1420.12 767.54C1427.7 767.54 1431.73 762.302 1431.73 755.192C1431.73 754.976 1431.72 754.166 1431.66 753.662H1422.77V756.308H1428.28C1427.88 761.474 1425.29 764.516 1420.29 764.48C1414.49 764.444 1411.56 760.25 1411.59 754.04C1411.63 747.83 1414.49 743.582 1420.29 743.618C1423.98 743.636 1426.48 745.652 1427.58 748.784L1430.82 748.118C1429.47 743.456 1425.92 740.558 1420.12 740.558C1412.87 740.558 1408.19 745.778 1408.19 754.04C1408.19 762.392 1412.98 767.54 1420.12 767.54ZM1443.61 767.54C1449.39 767.54 1452.99 763.364 1452.99 757.262C1452.99 751.25 1449.44 747.02 1443.61 747.02C1437.9 747.02 1434.25 751.16 1434.25 757.262C1434.25 763.292 1437.79 767.54 1443.61 767.54ZM1443.61 764.498C1439.68 764.498 1437.65 761.654 1437.65 757.262C1437.65 753.014 1439.54 750.062 1443.61 750.062C1447.59 750.062 1449.58 752.888 1449.58 757.262C1449.58 761.546 1447.62 764.498 1443.61 764.498ZM1464.01 767.522C1468.85 767.522 1471.79 765.254 1471.79 761.492C1471.79 758.486 1470.11 757.046 1464.98 755.732C1460.41 754.58 1459.42 753.968 1459.42 752.546C1459.42 750.89 1461.15 749.81 1463.67 749.882C1466.32 749.954 1468.12 751.232 1468.44 753.302L1471.72 752.708C1471.3 749.288 1468.1 747.02 1463.67 747.02C1459.19 747.02 1456.2 749.288 1456.2 752.708C1456.2 755.498 1457.84 756.83 1462.99 758.198C1467.74 759.476 1468.48 759.944 1468.48 761.582C1468.48 763.49 1466.86 764.66 1464.21 764.66C1461.4 764.66 1459.39 763.346 1458.86 761.222L1455.59 761.744C1456.25 765.398 1459.37 767.522 1464.01 767.522ZM1483.1 767.522C1487.94 767.522 1490.88 765.254 1490.88 761.492C1490.88 758.486 1489.2 757.046 1484.07 755.732C1479.5 754.58 1478.51 753.968 1478.51 752.546C1478.51 750.89 1480.24 749.81 1482.76 749.882C1485.41 749.954 1487.21 751.232 1487.53 753.302L1490.81 752.708C1490.39 749.288 1487.19 747.02 1482.76 747.02C1478.28 747.02 1475.29 749.288 1475.29 752.708C1475.29 755.498 1476.93 756.83 1482.08 758.198C1486.83 759.476 1487.57 759.944 1487.57 761.582C1487.57 763.49 1485.95 764.66 1483.3 764.66C1480.49 764.66 1478.48 763.346 1477.95 761.222L1474.68 761.744C1475.34 765.398 1478.46 767.522 1483.1 767.522ZM1498.41 744.122V740.81H1495.21V744.122H1498.41ZM1498.41 767V747.56H1495.21V767H1498.41ZM1512.76 747.02C1510.11 747.02 1508.08 748.028 1506.66 749.738V747.56H1503.79V775.64H1507.02V765.2C1508.4 766.676 1510.33 767.54 1512.74 767.54C1518.18 767.54 1521.45 763.094 1521.45 757.262C1521.45 751.43 1518.16 747.02 1512.76 747.02ZM1512.34 764.606C1508.42 764.606 1506.66 761.528 1506.66 757.262C1506.66 752.96 1508.46 749.954 1512.25 749.954C1516.21 749.954 1518.05 753.158 1518.05 757.262C1518.05 761.402 1516.18 764.606 1512.34 764.606ZM1534.6 767.54C1539.98 767.54 1544.3 764.786 1544.3 759.764C1544.3 754.778 1540.03 753.5 1537.78 752.87L1532.85 751.448C1530.92 750.908 1528.53 750.08 1528.53 747.686C1528.53 745.292 1531 743.564 1534.18 743.6C1537.48 743.636 1540.19 745.58 1540.73 748.73L1544.14 748.136C1543.18 743.42 1539.44 740.594 1534.22 740.558C1529.05 740.54 1525.15 743.24 1525.15 747.83C1525.15 751.664 1527.88 753.338 1530.76 754.184L1537.37 756.146C1539.22 756.704 1540.99 757.676 1540.99 759.944C1540.99 762.77 1538.23 764.498 1534.76 764.498C1531.14 764.498 1528.28 762.572 1527.45 759.296L1524.14 759.818C1525 764.588 1529.09 767.54 1534.6 767.54ZM1549.11 747.56H1545.74L1553.63 766.928L1550.42 775.64H1553.54L1564.12 747.56H1560.86L1555.18 762.86L1549.11 747.56ZM1576.44 747.056C1573.63 747.056 1571.4 748.136 1569.96 750.062V747.56H1567.08V767H1570.32V756.758C1570.32 752.258 1572.44 750.098 1575.66 750.098C1579.77 750.098 1580.94 753.608 1580.94 757.262V767H1584.18V756.254C1584.18 752.564 1582.7 747.056 1576.44 747.056ZM1596.87 767.54C1600.88 767.54 1603.82 765.578 1605.19 761.942L1601.95 761.096C1601.06 763.31 1599.39 764.498 1596.87 764.498C1593 764.498 1591.04 761.618 1591 757.28C1591.04 753.068 1592.87 750.062 1596.87 750.062C1599.23 750.062 1601.19 751.376 1602.02 753.626L1605.19 752.672C1604.16 749.18 1600.99 747.02 1596.91 747.02C1591.06 747.02 1587.65 751.214 1587.6 757.28C1587.65 763.238 1590.95 767.54 1596.87 767.54Z" fill="white"/>
<path d="M298.948 655V636.814H305.99V634.84H289.848V636.814H296.89V655H298.948ZM316.397 655.42C321.073 655.42 324.083 652.83 325.189 648.798L323.089 648.252C322.235 651.43 320.009 653.446 316.397 653.446C311.665 653.446 309.257 649.96 309.285 644.92C309.327 639.88 311.665 636.394 316.397 636.394C320.009 636.394 322.235 638.41 323.089 641.588L325.189 641.042C324.083 637.01 321.073 634.42 316.397 634.42C310.377 634.42 307.115 638.718 307.115 644.92C307.115 651.122 310.377 655.42 316.397 655.42ZM330.336 655V647.342H336.062C336.44 647.342 336.972 647.314 337.476 647.23C340.612 646.754 342.39 644.234 342.39 641.098C342.39 637.948 340.626 635.442 337.476 634.952C336.972 634.868 336.454 634.84 336.062 634.84H328.278V655H330.336ZM330.336 636.814H336.006C336.342 636.814 336.832 636.842 337.252 636.926C339.324 637.374 340.276 639.222 340.276 641.098C340.276 642.974 339.324 644.822 337.252 645.256C336.832 645.354 336.342 645.382 336.006 645.382H330.336V636.814ZM362.248 642.484C361.45 640.524 359.434 639.46 356.676 639.46C353.344 639.46 351.216 641.028 350.516 643.73L352.518 644.318C353.092 642.302 354.576 641.406 356.648 641.406C359.518 641.406 360.652 642.722 360.68 645.452C358.664 645.732 355.836 646.054 353.792 646.544C351.538 647.146 349.942 648.462 349.942 650.94C349.942 653.348 351.678 655.42 355.108 655.42C357.684 655.42 359.686 654.412 360.862 652.494V655H362.696V645.606C362.696 644.486 362.612 643.366 362.248 642.484ZM355.346 653.642C352.91 653.642 352 652.256 352 650.94C352 649.302 353.33 648.574 354.618 648.196C356.284 647.734 358.664 647.496 360.652 647.258C360.652 647.944 360.624 648.924 360.456 649.666C360.064 651.948 358.23 653.642 355.346 653.642ZM373.271 639.502C371.101 639.502 369.309 640.342 368.189 641.98V639.88H366.327V655H368.399V646.936C368.399 643.52 369.967 641.462 372.879 641.462C376.043 641.462 377.261 643.954 377.261 647.286V655H379.333V646.684C379.333 643.282 377.807 639.502 373.271 639.502ZM393.454 641.658C392.348 640.286 390.738 639.46 388.638 639.46C384.494 639.46 382.016 642.918 382.016 647.426C382.016 651.962 384.48 655.42 388.722 655.42C390.92 655.42 392.586 654.454 393.678 652.886V655H395.526V634.84H393.454V641.658ZM388.932 653.502C385.782 653.502 384.2 650.87 384.2 647.426C384.2 644.01 385.726 641.378 388.974 641.378C392.124 641.378 393.678 643.87 393.678 647.426C393.678 650.926 392.152 653.502 388.932 653.502ZM411.99 639.502C409.82 639.502 408.028 640.342 406.908 641.98V639.88H405.046V655H407.118V646.936C407.118 643.52 408.686 641.462 411.598 641.462C414.762 641.462 415.98 643.954 415.98 647.286V655H418.052V646.684C418.052 643.282 416.526 639.502 411.99 639.502ZM434.847 648.014C435.001 642.68 432.369 639.46 427.889 639.46C423.521 639.46 420.735 642.554 420.735 647.51C420.735 652.298 423.563 655.42 427.973 655.42C430.899 655.42 433.349 653.922 434.553 651.276L432.635 650.534C431.697 652.424 430.045 653.446 427.889 653.446C424.879 653.446 423.101 651.472 422.933 648.014H434.847ZM427.945 641.35C430.759 641.35 432.369 643.03 432.691 646.292H422.975C423.297 643.114 425.033 641.35 427.945 641.35ZM446.186 641.644V639.88H441.552V635.68H439.508V639.88H436.274V641.644H439.508V649.526C439.508 651.01 439.438 652.088 439.984 653.194C440.978 655.21 443.624 655.532 446.186 655V653.194C444.016 653.544 442.532 653.418 441.86 652.158C441.496 651.514 441.552 650.716 441.552 649.442V641.644H446.186ZM454.177 655L457.943 642.96L461.723 655H463.515L468.135 639.88H466.091L462.479 651.626L458.881 639.88H457.005L453.407 651.626L449.823 639.88L447.765 639.866L452.385 655H454.177ZM476.424 655.42C480.904 655.42 483.592 652.186 483.592 647.426C483.592 642.75 480.96 639.46 476.424 639.46C472 639.46 469.27 642.666 469.27 647.426C469.27 652.116 471.916 655.42 476.424 655.42ZM476.424 653.446C473.148 653.446 471.454 651.066 471.454 647.426C471.454 643.898 473.036 641.434 476.424 641.434C479.756 641.434 481.408 643.786 481.408 647.426C481.408 650.996 479.784 653.446 476.424 653.446ZM489.705 640.874C489.271 641.21 488.851 641.7 488.529 642.274V639.88H486.681V655H488.739V647.454C488.739 645.648 488.991 643.688 490.503 642.498C491.595 641.602 492.995 641.546 494.115 641.812V639.88C492.785 639.544 490.895 639.838 489.705 640.874ZM498.843 655V647.72L506.263 655H509.259L501.251 647.44L508.335 639.88H505.591L498.843 647.16V634.84H496.771L496.757 655H498.843ZM512.999 637.01V634.7H510.941V637.01H512.999ZM512.999 655V639.88H510.941V655H512.999ZM524.126 639.502C521.956 639.502 520.164 640.342 519.044 641.98V639.88H517.182V655H519.254V646.936C519.254 643.52 520.822 641.462 523.734 641.462C526.898 641.462 528.116 643.954 528.116 647.286V655H530.188V646.684C530.188 643.282 528.662 639.502 524.126 639.502ZM544.643 641.966C543.537 640.398 541.843 639.46 539.603 639.46C535.459 639.46 532.981 642.918 532.981 647.426C532.981 651.962 535.445 655.42 539.687 655.42C541.731 655.42 543.313 654.58 544.405 653.208V654.762C544.419 658.318 543.103 660.138 539.827 660.138C538.231 660.138 536.551 659.452 535.725 657.772L533.863 658.808C535.151 661.16 537.503 662.14 539.827 662.14C543.523 662.14 545.763 660.572 546.309 657.198C546.435 656.428 546.477 655.658 546.477 654.79V639.88H544.643V641.966ZM539.897 653.502C536.747 653.502 535.165 650.87 535.165 647.426C535.165 644.01 536.691 641.378 539.939 641.378C543.089 641.378 544.643 643.87 544.643 647.426C544.643 650.926 543.117 653.502 539.897 653.502Z" fill="black"/>
<rect x="250.5" y="534.5" width="336" height="76" fill="#0F31F7"/>
<path d="M364.76 565.732L378.278 586H381.518V560.08H378.278V580.33L364.76 560.08H361.52V586H364.76V565.732ZM403.813 577.18C404.101 570.268 400.681 566.02 394.831 566.02C389.179 566.02 385.471 570.034 385.471 576.406C385.471 582.49 389.233 586.54 394.975 586.54C398.737 586.54 401.959 584.578 403.489 581.14L400.411 580.078C399.331 582.292 397.387 583.498 394.831 583.498C391.249 583.498 389.161 581.212 388.909 577.18H403.813ZM394.939 568.9C398.233 568.9 400.087 570.79 400.483 574.606H388.963C389.413 570.916 391.447 568.9 394.939 568.9ZM418.675 569.206V566.56H412.807V561.16H409.603V566.56H405.661V569.206H409.603V578.656C409.603 580.672 409.495 582.148 410.269 583.66C411.619 586.306 415.201 586.702 418.675 586V583.246C416.011 583.66 414.067 583.552 413.203 582.004C412.735 581.194 412.807 580.114 412.807 578.512V569.206H418.675ZM433.393 586V560.08H430.189V586H433.393ZM438.433 586H441.691L448.603 560.08H445.345L438.433 586ZM463.934 586.54C471.692 586.54 476.03 581.032 476.03 573.04C476.03 565.048 471.692 559.54 463.934 559.54C456.176 559.54 451.838 565.048 451.838 573.04C451.838 581.032 456.176 586.54 463.934 586.54ZM463.934 583.48C458.138 583.444 455.204 579.25 455.24 573.04C455.276 566.83 458.138 562.564 463.934 562.6C469.73 562.636 472.628 566.83 472.628 573.04C472.628 579.25 469.73 583.516 463.934 583.48Z" fill="white"/>
<rect x="250.5" y="534.5" width="336" height="76" stroke="white" stroke-width="3" stroke-dasharray="8 8"/>
<rect x="246" y="530" width="345" height="85" stroke="#0F31F7" stroke-width="6"/>
</svg>
