<svg version="1.1" viewBox="0.0 0.0 791.0 831.0" fill="none" stroke="none" stroke-linecap="square" stroke-miterlimit="10" xmlns:xlink="http://www.w3.org/1999/xlink" xmlns="http://www.w3.org/2000/svg"><rect width="100%" height="100%" fill="white"/><clipPath id="p.0"><path d="m0 0l791.0 0l0 831.0l-791.0 0l0 -831.0z" clip-rule="nonzero"/></clipPath><g clip-path="url(#p.0)"><path fill="#000000" fill-opacity="0.0" d="m0 0l791.0 0l0 831.0l-791.0 0z" fill-rule="evenodd"/><path fill="#000000" fill-opacity="0.0" d="m109.0105 92.71654l0 719.2756" fill-rule="evenodd"/><path stroke="#999999" stroke-width="2.0" stroke-linejoin="round" stroke-linecap="butt" stroke-dasharray="16.0,6.0" d="m109.0105 92.71654l0 719.2756" fill-rule="evenodd"/><path fill="#000000" fill-opacity="0.0" d="m679.10266 94.69551l0 717.2914" fill-rule="evenodd"/><path stroke="#999999" stroke-width="2.0" stroke-linejoin="round" stroke-linecap="butt" stroke-dasharray="16.0,6.0" d="m679.10266 94.69551l0 717.2914" fill-rule="evenodd"/><path fill="#d0e0e3" d="m613.93097 426.14816l0 0c-3.3601685 0 -6.0841064 -2.723938 -6.0841064 -6.0841064l0 -24.335724l0 0c0 -1.6135864 0.6409912 -3.1611023 1.7820435 -4.3020935c1.1409912 -1.1410217 2.6884766 -1.7820129 4.302063 -1.7820129l76.55621 0c3.3601685 0 6.0841064 2.723938 6.0841064 6.0841064l0 24.335724c0 3.3601685 -2.723938 6.0841064 -6.0841064 6.0841064z" fill-rule="evenodd"/><path stroke="#000000" stroke-width="1.0" stroke-linejoin="round" stroke-linecap="butt" d="m613.93097 426.14816l0 0c-3.3601685 0 -6.0841064 -2.723938 -6.0841064 -6.0841064l0 -24.335724l0 0c0 -1.6135864 0.6409912 -3.1611023 1.7820435 -4.3020935c1.1409912 -1.1410217 2.6884766 -1.7820129 4.302063 -1.7820129l76.55621 0c3.3601685 0 6.0841064 2.723938 6.0841064 6.0841064l0 24.335724c0 3.3601685 -2.723938 6.0841064 -6.0841064 6.0841064z" fill-rule="evenodd"/><path fill="#fff2cc" d="m680.23413 419.66446l0 0c-6.4882812 0 -11.748047 -5.2597656 -11.748047 -11.748016l0 0c0 -3.1157837 1.2377319 -6.103943 3.440918 -8.307129c2.203186 -2.203186 5.191345 -3.440918 8.307129 -3.440918l0 0c6.4882812 0 11.748047 5.259796 11.748047 11.748047l0 0c0 6.4882507 -5.2597656 11.748016 -11.748047 11.748016z" fill-rule="evenodd"/><path stroke="#000000" stroke-width="1.0" stroke-linejoin="round" stroke-linecap="butt" d="m680.23413 419.66446l0 0c-6.4882812 0 -11.748047 -5.2597656 -11.748047 -11.748016l0 0c0 -3.1157837 1.2377319 -6.103943 3.440918 -8.307129c2.203186 -2.203186 5.191345 -3.440918 8.307129 -3.440918l0 0c6.4882812 0 11.748047 5.259796 11.748047 11.748047l0 0c0 6.4882507 -5.2597656 11.748016 -11.748047 11.748016z" fill-rule="evenodd"/><path fill="#d9d2e9" d="m17.341208 26.286354l0 0c0 -7.3378506 5.9485035 -13.286354 13.286354 -13.286354l156.76587 0c3.523758 0 6.9031982 1.3998079 9.394867 3.8914833c2.491684 2.4916744 3.8914948 5.871111 3.8914948 9.394871l0 53.14383c0 7.337845 -5.9485016 13.286354 -13.286362 13.286354l-156.76587 0c-7.3378506 0 -13.286354 -5.948509 -13.286354 -13.286354z" fill-rule="evenodd"/><path stroke="#999999" stroke-width="1.0" stroke-linejoin="round" stroke-linecap="butt" d="m17.341208 26.286354l0 0c0 -7.3378506 5.9485035 -13.286354 13.286354 -13.286354l156.76587 0c3.523758 0 6.9031982 1.3998079 9.394867 3.8914833c2.491684 2.4916744 3.8914948 5.871111 3.8914948 9.394871l0 53.14383c0 7.337845 -5.9485016 13.286354 -13.286362 13.286354l-156.76587 0c-7.3378506 0 -13.286354 -5.948509 -13.286354 -13.286354z" fill-rule="evenodd"/><path fill="#000000" d="m97.43272 56.309517l-5.546875 0l-1.25 3.46875l-1.8125 0l5.0625 -13.265625l1.53125 0l5.078125 13.265625l-1.796875 0l-1.265625 -3.46875zm-5.03125 -1.4375l4.515625 0l-2.265625 -6.203125l-2.25 6.203125zm11.451538 4.90625l-1.6875 0l0 -14.0l1.6875 0l0 14.0zm4.52742 0l-1.6875 0l0 -9.859375l1.6875 0l0 9.859375zm-1.828125 -12.46875q0 -0.40625 0.25 -0.6875q0.25 -0.296875 0.734375 -0.296875q0.5 0 0.75 0.296875q0.265625 0.28125 0.265625 0.6875q0 0.40625 -0.265625 0.6875q-0.25 0.265625 -0.75 0.265625q-0.484375 0 -0.734375 -0.265625q-0.25 -0.28125 -0.25 -0.6875zm8.480545 11.28125q0.890625 0 1.5625 -0.546875q0.6875 -0.546875 0.75 -1.375l1.59375 0q-0.046875 0.84375 -0.578125 1.609375q-0.53125 0.765625 -1.4375 1.234375q-0.890625 0.453125 -1.890625 0.453125q-2.015625 0 -3.203125 -1.34375q-1.1875 -1.34375 -1.1875 -3.6875l0 -0.28125q0 -1.4375 0.515625 -2.546875q0.53125 -1.125 1.515625 -1.734375q1.0 -0.625 2.34375 -0.625q1.65625 0 2.75 1.0q1.109375 0.984375 1.171875 2.5625l-1.59375 0q-0.0625 -0.953125 -0.71875 -1.5625q-0.65625 -0.625 -1.609375 -0.625q-1.28125 0 -2.0 0.921875q-0.703125 0.921875 -0.703125 2.671875l0 0.328125q0 1.703125 0.703125 2.625q0.703125 0.921875 2.015625 0.921875zm9.890381 1.375q-2.0 0 -3.265625 -1.3125q-1.25 -1.328125 -1.25 -3.53125l0 -0.3125q0 -1.46875 0.5625 -2.609375q0.5625 -1.15625 1.5625 -1.796875q1.015625 -0.65625 2.1875 -0.65625q1.921875 0 2.984375 1.265625q1.0624924 1.265625 1.0624924 3.625l0 0.6875l-6.6718674 0q0.03125 1.46875 0.84375 2.375q0.828125 0.890625 2.078125 0.890625q0.890625 0 1.515625 -0.359375q0.625 -0.375 1.078125 -0.96875l1.0312424 0.796875q-1.2343674 1.90625 -3.7187424 1.90625zm-0.203125 -8.84375q-1.015625 0 -1.71875 0.75q-0.6875 0.734375 -0.84375 2.078125l4.9375 0l0 -0.125q-0.078125 -1.28125 -0.703125 -1.984375q-0.609375 -0.71875 -1.671875 -0.71875z" fill-rule="nonzero"/><g filter="url(#shadowFilter-p.1)"><use xlink:href="#p.1" transform="matrix(1.0 0.0 0.0 1.0 0.0 2.0)"/></g><defs><filter id="shadowFilter-p.1" filterUnits="userSpaceOnUse"><feGaussianBlur in="SourceAlpha" stdDeviation="2.0" result="blur"/><feComponentTransfer in="blur" color-interpolation-filters="sRGB"><feFuncR type="linear" slope="0" intercept="0.0"/><feFuncG type="linear" slope="0" intercept="0.0"/><feFuncB type="linear" slope="0" intercept="0.0"/><feFuncA type="linear" slope="0.5" intercept="0"/></feComponentTransfer></filter></defs><g id="p.1"><path fill="#000000" fill-opacity="0.0" d="m111.30542 407.53235l567.2126 0" fill-rule="evenodd"/><path stroke="#000000" stroke-width="2.0" stroke-linejoin="round" stroke-linecap="butt" d="m111.30543 407.53235l555.2126 0" fill-rule="evenodd"/><path fill="#000000" stroke="#000000" stroke-width="2.0" stroke-linecap="butt" d="m666.518 410.83582l9.076172 -3.3034668l-9.076172 -3.3034668z" fill-rule="evenodd"/></g><path fill="#d9d2e9" d="m587.4334 28.26533l0 0c0 -7.3378506 5.9484863 -13.286355 13.286316 -13.286355l156.76587 0c3.5238037 0 6.9031982 1.3998079 9.394897 3.8914824c2.4916992 2.4916763 3.8914795 5.871113 3.8914795 9.394873l0 53.14383c0 7.3378525 -5.9484863 13.286354 -13.286377 13.286354l-156.76587 0c-7.3378296 0 -13.286316 -5.9485016 -13.286316 -13.286354z" fill-rule="evenodd"/><path stroke="#999999" stroke-width="1.0" stroke-linejoin="round" stroke-linecap="butt" d="m587.4334 28.26533l0 0c0 -7.3378506 5.9484863 -13.286355 13.286316 -13.286355l156.76587 0c3.5238037 0 6.9031982 1.3998079 9.394897 3.8914824c2.4916992 2.4916763 3.8914795 5.871113 3.8914795 9.394873l0 53.14383c0 7.3378525 -5.9484863 13.286354 -13.286377 13.286354l-156.76587 0c-7.3378296 0 -13.286316 -5.9485016 -13.286316 -13.286354z" fill-rule="evenodd"/><path fill="#000000" d="m664.2889 61.75724l0 -13.265625l4.328125 0q2.15625 0 3.25 0.890625q1.09375 0.890625 1.09375 2.640625q0 0.9375 -0.53125 1.65625q-0.53125 0.703125 -1.4375 1.09375q1.0625 0.3125 1.6875 1.15625q0.625 0.84375 0.625 2.0q0 1.78125 -1.15625 2.8125q-1.15625 1.015625 -3.265625 1.015625l-4.59375 0zm1.734375 -6.203125l0 4.765625l2.890625 0q1.21875 0 1.921875 -0.625q0.71875 -0.640625 0.71875 -1.75q0 -2.390625 -2.609375 -2.390625l-2.921875 0zm0 -1.40625l2.65625 0q1.140625 0 1.828125 -0.5625q0.6875 -0.578125 0.6875 -1.5625q0 -1.09375 -0.640625 -1.59375q-0.640625 -0.5 -1.9375 -0.5l-2.59375 0l0 4.21875zm9.161499 2.59375q0 -1.453125 0.5625 -2.609375q0.578125 -1.15625 1.59375 -1.78125q1.015625 -0.625 2.3125 -0.625q2.015625 0 3.25 1.390625q1.25 1.390625 1.25 3.703125l0 0.125q0 1.4375 -0.546875 2.578125q-0.546875 1.140625 -1.578125 1.78125q-1.015625 0.640625 -2.359375 0.640625q-2.0 0 -3.25 -1.390625q-1.234375 -1.40625 -1.234375 -3.703125l0 -0.109375zm1.6875 0.203125q0 1.640625 0.765625 2.640625q0.765625 0.984375 2.03125 0.984375q1.296875 0 2.046875 -1.0q0.75 -1.015625 0.75 -2.828125q0 -1.625 -0.765625 -2.625q-0.765625 -1.015625 -2.046875 -1.015625q-1.25 0 -2.015625 1.0q-0.765625 0.984375 -0.765625 2.84375zm17.749268 0q0 2.25 -1.046875 3.625q-1.03125 1.375 -2.78125 1.375q-1.875 0 -2.890625 -1.328125l-0.078125 1.140625l-1.546875 0l0 -14.0l1.671875 0l0 5.234375q1.03125 -1.265625 2.8125 -1.265625q1.796875 0 2.828125 1.359375q1.03125 1.34375 1.03125 3.703125l0 0.15625zm-1.6875 -0.203125q0 -1.71875 -0.671875 -2.65625q-0.65625 -0.9375 -1.90625 -0.9375q-1.671875 0 -2.40625 1.546875l0 4.265625q0.78125 1.546875 2.421875 1.546875q1.21875 0 1.890625 -0.9375q0.671875 -0.9375 0.671875 -2.828125z" fill-rule="nonzero"/><path fill="#fff2cc" d="m646.47107 419.66446l0 0c-6.48822 0 -11.748047 -5.2597656 -11.748047 -11.748016l0 0c0 -3.1157837 1.237793 -6.103943 3.440979 -8.307129c2.203125 -2.203186 5.191284 -3.440918 8.307068 -3.440918l0 0c6.4882812 0 11.748047 5.259796 11.748047 11.748047l0 0c0 6.4882507 -5.2597656 11.748016 -11.748047 11.748016z" fill-rule="evenodd"/><path stroke="#000000" stroke-width="1.0" stroke-linejoin="round" stroke-linecap="butt" d="m646.47107 419.66446l0 0c-6.48822 0 -11.748047 -5.2597656 -11.748047 -11.748016l0 0c0 -3.1157837 1.237793 -6.103943 3.440979 -8.307129c2.203125 -2.203186 5.191284 -3.440918 8.307068 -3.440918l0 0c6.4882812 0 11.748047 5.259796 11.748047 11.748047l0 0c0 6.4882507 -5.2597656 11.748016 -11.748047 11.748016z" fill-rule="evenodd"/><path fill="#fff2cc" d="m612.708 419.66446l0 0c-6.48822 0 -11.747986 -5.2597656 -11.747986 -11.748016l0 0c0 -3.1157837 1.2377319 -6.103943 3.440918 -8.307129c2.203186 -2.203186 5.191345 -3.440918 8.307068 -3.440918l0 0c6.4882812 0 11.748047 5.259796 11.748047 11.748047l0 0c0 6.4882507 -5.2597656 11.748016 -11.748047 11.748016z" fill-rule="evenodd"/><path stroke="#000000" stroke-width="1.0" stroke-linejoin="round" stroke-linecap="butt" d="m612.708 419.66446l0 0c-6.48822 0 -11.747986 -5.2597656 -11.747986 -11.748016l0 0c0 -3.1157837 1.2377319 -6.103943 3.440918 -8.307129c2.203186 -2.203186 5.191345 -3.440918 8.307068 -3.440918l0 0c6.4882812 0 11.748047 5.259796 11.748047 11.748047l0 0c0 6.4882507 -5.2597656 11.748016 -11.748047 11.748016z" fill-rule="evenodd"/><g filter="url(#shadowFilter-p.2)"><use xlink:href="#p.2" transform="matrix(1.0 0.0 0.0 1.0 0.0 2.0)"/></g><defs><filter id="shadowFilter-p.2" filterUnits="userSpaceOnUse"><feGaussianBlur in="SourceAlpha" stdDeviation="2.0" result="blur"/><feComponentTransfer in="blur" color-interpolation-filters="sRGB"><feFuncR type="linear" slope="0" intercept="0.0"/><feFuncG type="linear" slope="0" intercept="0.0"/><feFuncB type="linear" slope="0" intercept="0.0"/><feFuncA type="linear" slope="0.5" intercept="0"/></feComponentTransfer></filter></defs><g id="p.2"><path fill="#000000" fill-opacity="0.0" d="m678.2743 245.83026l-567.37006 -0.7873993" fill-rule="evenodd"/><path stroke="#000000" stroke-width="2.0" stroke-linejoin="round" stroke-linecap="butt" d="m678.2743 245.83026l-555.37006 -0.77075195" fill-rule="evenodd"/><path fill="#000000" stroke="#000000" stroke-width="2.0" stroke-linecap="butt" d="m122.90881 241.75604l-9.080772 3.2908783l9.071602 3.3160553z" fill-rule="evenodd"/></g><path fill="#f3f3f3" d="m557.0184 137.77353l108.54993 0l0 99.73563c-54.274963 0 -54.274963 38.0011 -108.54993 16.409561z" fill-rule="evenodd"/><path stroke="#000000" stroke-width="1.0" stroke-linejoin="round" stroke-linecap="butt" d="m557.0184 137.77353l108.54993 0l0 99.73563c-54.274963 0 -54.274963 38.0011 -108.54993 16.409561z" fill-rule="evenodd"/><path fill="#000000" d="m602.1488 177.35822q0 1.953125 -0.65625 3.40625q-0.640625 1.453125 -1.84375 2.21875q-1.203125 0.765625 -2.8125 0.765625q-1.5625 0 -2.78125 -0.765625q-1.203125 -0.78125 -1.875 -2.203125q-0.671875 -1.421875 -0.6875 -3.296875l0 -0.96875q0 -1.90625 0.65625 -3.375q0.671875 -1.46875 1.890625 -2.25q1.21875 -0.78125 2.78125 -0.78125q1.59375 0 2.8125 0.78125q1.21875 0.765625 1.859375 2.234375q0.65625 1.453125 0.65625 3.390625l0 0.84375zm-1.734375 -0.859375q0 -2.359375 -0.953125 -3.609375q-0.9375 -1.265625 -2.640625 -1.265625q-1.65625 0 -2.609375 1.265625q-0.953125 1.25 -0.984375 3.5l0 0.96875q0 2.28125 0.953125 3.59375q0.96875 1.3125 2.65625 1.3125q1.6875 0 2.609375 -1.234375q0.9375 -1.234375 0.96875 -3.546875l0 -0.984375zm4.935547 7.0625l0 -8.546875l-1.5625 0l0 -1.3125l1.5625 0l0 -1.015625q0 -1.578125 0.84375 -2.4375q0.84375 -0.875 2.390625 -0.875q0.59375 0 1.15625 0.15625l-0.09375 1.375q-0.421875 -0.09375 -0.90625 -0.09375q-0.8125 0 -1.265625 0.484375q-0.4375 0.484375 -0.4375 1.375l0 1.03125l2.09375 0l0 1.3125l-2.09375 0l0 8.546875l-1.6875 0zm6.4768066 0l0 -8.546875l-1.5625 0l0 -1.3125l1.5625 0l0 -1.015625q0 -1.578125 0.84375 -2.4375q0.84375 -0.875 2.390625 -0.875q0.59375 0 1.15625 0.15625l-0.09375 1.375q-0.421875 -0.09375 -0.90625 -0.09375q-0.8125 0 -1.265625 0.484375q-0.4375 0.484375 -0.4375 1.375l0 1.03125l2.09375 0l0 1.3125l-2.09375 0l0 8.546875l-1.6875 0zm9.508118 0.1875q-2.0 0 -3.265625 -1.3125q-1.25 -1.328125 -1.25 -3.53125l0 -0.3125q0 -1.46875 0.5625 -2.609375q0.5625 -1.15625 1.5625 -1.796875q1.015625 -0.65625 2.1875 -0.65625q1.921875 0 2.984375 1.265625q1.0625 1.265625 1.0625 3.625l0 0.6875l-6.671875 0q0.03125 1.46875 0.84375 2.375q0.828125 0.890625 2.078125 0.890625q0.890625 0 1.515625 -0.359375q0.625 -0.375 1.078125 -0.96875l1.03125 0.796875q-1.234375 1.90625 -3.71875 1.90625zm-0.203125 -8.84375q-1.015625 0 -1.71875 0.75q-0.6875 0.734375 -0.84375 2.078125l4.9375 0l0 -0.125q-0.078125 -1.28125 -0.703125 -1.984375q-0.609375 -0.71875 -1.671875 -0.71875zm10.774414 0.3125q-0.390625 -0.0625 -0.84375 -0.0625q-1.65625 0 -2.25 1.40625l0 7.0l-1.671875 0l0 -9.859375l1.640625 0l0.015625 1.140625q0.828125 -1.3125 2.359375 -1.3125q0.484375 0 0.75 0.125l0 1.5625z" fill-rule="nonzero"/><path fill="#d0e0e3" d="m550.46027 239.60371l0 0c-3.3608398 0 -6.085388 -2.7245178 -6.085388 -6.085373l0 -24.340714l0 0c0 -1.6139374 0.6411743 -3.1617737 1.7824097 -4.303009c1.1411743 -1.1412201 2.6890259 -1.7823486 4.3029785 -1.7823486l76.54474 0c3.3609009 0 6.085388 2.7245026 6.085388 6.0853577l0 24.340714c0 3.360855 -2.7244873 6.085373 -6.085388 6.085373z" fill-rule="evenodd"/><path stroke="#000000" stroke-width="1.0" stroke-linejoin="round" stroke-linecap="butt" d="m550.46027 239.60371l0 0c-3.3608398 0 -6.085388 -2.7245178 -6.085388 -6.085373l0 -24.340714l0 0c0 -1.6139374 0.6411743 -3.1617737 1.7824097 -4.303009c1.1411743 -1.1412201 2.6890259 -1.7823486 4.3029785 -1.7823486l76.54474 0c3.3609009 0 6.085388 2.7245026 6.085388 6.0853577l0 24.340714c0 3.360855 -2.7244873 6.085373 -6.085388 6.085373z" fill-rule="evenodd"/><path fill="#fff2cc" d="m549.2312 233.11989l0 0c-6.4856567 0 -11.743286 -5.2576447 -11.743286 -11.743286l0 0c0 -3.1145172 1.2371826 -6.101471 3.4395142 -8.303772c2.2022705 -2.2022858 5.189209 -3.4395294 8.303772 -3.4395294l0 0c6.4855957 0 11.743286 5.25766 11.743286 11.743301l0 0c0 6.4856415 -5.2576904 11.743286 -11.743286 11.743286z" fill-rule="evenodd"/><path stroke="#000000" stroke-width="1.0" stroke-linejoin="round" stroke-linecap="butt" d="m549.2312 233.11989l0 0c-6.4856567 0 -11.743286 -5.2576447 -11.743286 -11.743286l0 0c0 -3.1145172 1.2371826 -6.101471 3.4395142 -8.303772c2.2022705 -2.2022858 5.189209 -3.4395294 8.303772 -3.4395294l0 0c6.4855957 0 11.743286 5.25766 11.743286 11.743301l0 0c0 6.4856415 -5.2576904 11.743286 -11.743286 11.743286z" fill-rule="evenodd"/><path fill="#fff2cc" d="m582.9949 233.11989l0 0c-6.4855957 0 -11.743286 -5.2576447 -11.743286 -11.743286l0 0c0 -3.1145172 1.2372437 -6.101471 3.4395752 -8.303772c2.2022705 -2.2022858 5.189209 -3.4395294 8.303711 -3.4395294l0 0c6.4856567 0 11.743286 5.25766 11.743286 11.743301l0 0c0 6.4856415 -5.2576294 11.743286 -11.743286 11.743286z" fill-rule="evenodd"/><path stroke="#000000" stroke-width="1.0" stroke-linejoin="round" stroke-linecap="butt" d="m582.9949 233.11989l0 0c-6.4855957 0 -11.743286 -5.2576447 -11.743286 -11.743286l0 0c0 -3.1145172 1.2372437 -6.101471 3.4395752 -8.303772c2.2022705 -2.2022858 5.189209 -3.4395294 8.303711 -3.4395294l0 0c6.4856567 0 11.743286 5.25766 11.743286 11.743301l0 0c0 6.4856415 -5.2576294 11.743286 -11.743286 11.743286z" fill-rule="evenodd"/><path fill="#fff2cc" d="m616.7586 233.11989l0 0c-6.4856567 0 -11.743286 -5.2576447 -11.743286 -11.743286l0 0c0 -3.1145172 1.2372437 -6.101471 3.4395142 -8.303772c2.2023315 -2.2022858 5.18927 -3.4395294 8.303772 -3.4395294l0 0c6.4856567 0 11.743286 5.25766 11.743286 11.743301l0 0c0 6.4856415 -5.2576294 11.743286 -11.743286 11.743286z" fill-rule="evenodd"/><path stroke="#000000" stroke-width="1.0" stroke-linejoin="round" stroke-linecap="butt" d="m616.7586 233.11989l0 0c-6.4856567 0 -11.743286 -5.2576447 -11.743286 -11.743286l0 0c0 -3.1145172 1.2372437 -6.101471 3.4395142 -8.303772c2.2023315 -2.2022858 5.18927 -3.4395294 8.303772 -3.4395294l0 0c6.4856567 0 11.743286 5.25766 11.743286 11.743301l0 0c0 6.4856415 -5.2576294 11.743286 -11.743286 11.743286z" fill-rule="evenodd"/><path fill="#000000" fill-opacity="0.0" d="m594.73816 221.3766l10.252502 0" fill-rule="evenodd"/><path stroke="#000000" stroke-width="1.0" stroke-linejoin="round" stroke-linecap="butt" d="m594.73816 221.3766l10.252502 0" fill-rule="evenodd"/><path fill="#000000" fill-opacity="0.0" d="m560.9745 221.3766l10.252502 0" fill-rule="evenodd"/><path stroke="#000000" stroke-width="1.0" stroke-linejoin="round" stroke-linecap="butt" d="m560.9745 221.3766l10.252502 0" fill-rule="evenodd"/><path fill="#f3f3f3" d="m233.04301 297.6l-105.8968 0l0 99.737915c52.948402 0 52.948402 38.001984 105.8968 16.409943z" fill-rule="evenodd"/><path stroke="#000000" stroke-width="1.0" stroke-linejoin="round" stroke-linecap="butt" d="m233.04301 297.6l-105.8968 0l0 99.737915c52.948402 0 52.948402 38.001984 105.8968 16.409943z" fill-rule="evenodd"/><path fill="#000000" d="m153.97443 332.38898l-1.75 0l0 -13.265625l1.75 0l0 13.265625zm4.527115 -9.859375l0.046875 1.234375q1.125 -1.40625 2.953125 -1.40625q3.125 0 3.15625 3.515625l0 6.515625l-1.6875 0l0 -6.515625q-0.015625 -1.078125 -0.5 -1.578125q-0.46875 -0.515625 -1.484375 -0.515625q-0.8125 0 -1.4375 0.4375q-0.609375 0.4375 -0.96875 1.15625l0 7.015625l-1.671875 0l0 -9.859375l1.59375 0zm11.949982 7.578125l2.4375 -7.578125l1.71875 0l-3.53125 9.859375l-1.28125 0l-3.578125 -9.859375l1.71875 0l2.515625 7.578125zm5.1967773 -2.734375q0 -1.453125 0.5625 -2.609375q0.578125 -1.15625 1.59375 -1.78125q1.015625 -0.625 2.3125 -0.625q2.015625 0 3.25 1.390625q1.25 1.390625 1.25 3.703125l0 0.125q0 1.4375 -0.546875 2.578125q-0.546875 1.140625 -1.578125 1.78125q-1.015625 0.640625 -2.359375 0.640625q-2.0 0 -3.25 -1.390625q-1.234375 -1.40625 -1.234375 -3.703125l0 -0.109375zm1.6875 0.203125q0 1.640625 0.765625 2.640625q0.765625 0.984375 2.03125 0.984375q1.296875 0 2.046875 -1.0q0.75 -1.015625 0.75 -2.828125q0 -1.625 -0.765625 -2.625q-0.765625 -1.015625 -2.046875 -1.015625q-1.25 0 -2.015625 1.0q-0.765625 0.984375 -0.765625 2.84375zm11.233643 4.8125l-1.6875 0l0 -9.859375l1.6875 0l0 9.859375zm-1.828125 -12.46875q0 -0.40625 0.25 -0.6875q0.25 -0.296875 0.734375 -0.296875q0.5 0 0.75 0.296875q0.265625 0.28125 0.265625 0.6875q0 0.40625 -0.265625 0.6875q-0.25 0.265625 -0.75 0.265625q-0.484375 0 -0.734375 -0.265625q-0.25 -0.28125 -0.25 -0.6875zm8.480545 11.28125q0.890625 0 1.5625 -0.546875q0.6875 -0.546875 0.75 -1.375l1.59375 0q-0.046875 0.84375 -0.578125 1.609375q-0.53125 0.765625 -1.4375 1.234375q-0.890625 0.453125 -1.890625 0.453125q-2.015625 0 -3.203125 -1.34375q-1.1875 -1.34375 -1.1875 -3.6875l0 -0.28125q0 -1.4375 0.515625 -2.546875q0.53125 -1.125 1.515625 -1.734375q1.0 -0.625 2.34375 -0.625q1.65625 0 2.75 1.0q1.109375 0.984375 1.171875 2.5625l-1.59375 0q-0.0625 -0.953125 -0.71875 -1.5625q-0.65625 -0.625 -1.609375 -0.625q-1.28125 0 -2.0 0.921875q-0.703125 0.921875 -0.703125 2.671875l0 0.328125q0 1.703125 0.703125 2.625q0.703125 0.921875 2.015625 0.921875zm9.890381 1.375q-2.0 0 -3.265625 -1.3125q-1.25 -1.328125 -1.25 -3.53125l0 -0.3125q0 -1.46875 0.5625 -2.609375q0.5625 -1.15625 1.5625 -1.796875q1.015625 -0.65625 2.1875 -0.65625q1.921875 0 2.984375 1.265625q1.0625 1.265625 1.0625 3.625l0 0.6875l-6.671875 0q0.03125 1.46875 0.84375 2.375q0.828125 0.890625 2.078125 0.890625q0.890625 0 1.515625 -0.359375q0.625 -0.375 1.078125 -0.96875l1.03125 0.796875q-1.234375 1.90625 -3.71875 1.90625zm-0.203125 -8.84375q-1.015625 0 -1.71875 0.75q-0.6875 0.734375 -0.84375 2.078125l4.9375 0l0 -0.125q-0.078125 -1.28125 -0.703125 -1.984375q-0.609375 -0.71875 -1.671875 -0.71875z" fill-rule="nonzero"/><path fill="#000000" d="m152.57254 349.0296l-3.125 0l0 5.359375l-1.75 0l0 -13.265625l4.390625 0q2.234375 0 3.4375 1.03125q1.21875 1.015625 1.21875 2.953125q0 1.25 -0.671875 2.171875q-0.671875 0.921875 -1.859375 1.375l3.109375 5.625l0 0.109375l-1.875 0l-2.875 -5.359375zm-3.125 -1.4375l2.6875 0q1.3125 0 2.078125 -0.671875q0.765625 -0.671875 0.765625 -1.8125q0 -1.21875 -0.734375 -1.875q-0.734375 -0.65625 -2.109375 -0.671875l-2.6875 0l0 5.03125zm13.565201 6.984375q-2.0 0 -3.265625 -1.3125q-1.25 -1.328125 -1.25 -3.53125l0 -0.3125q0 -1.46875 0.5625 -2.609375q0.5625 -1.15625 1.5625 -1.796875q1.015625 -0.65625 2.1875 -0.65625q1.921875 0 2.984375 1.265625q1.0625 1.265625 1.0625 3.625l0 0.6875l-6.671875 0q0.03125 1.46875 0.84375 2.375q0.828125 0.890625 2.078125 0.890625q0.890625 0 1.515625 -0.359375q0.625 -0.375 1.078125 -0.96875l1.03125 0.796875q-1.234375 1.90625 -3.71875 1.90625zm-0.203125 -8.84375q-1.015625 0 -1.71875 0.75q-0.6875 0.734375 -0.84375 2.078125l4.9375 0l0 -0.125q-0.078125 -1.28125 -0.703125 -1.984375q-0.609375 -0.71875 -1.671875 -0.71875zm5.5869293 3.640625q0 -2.3125 1.0625 -3.65625q1.078125 -1.359375 2.875 -1.359375q1.75 0 2.75 1.171875l0.078125 -1.0l1.546875 0l0 13.65625l-1.6875 0l0 -4.703125q-1.015625 1.09375 -2.71875 1.09375q-1.78125 0 -2.84375 -1.390625q-1.0625 -1.390625 -1.0625 -3.6875l0 -0.125zm1.6875 0.203125q0 1.6875 0.71875 2.65625q0.71875 0.96875 1.921875 0.96875q1.515625 0 2.296875 -1.328125l0 -4.828125q-0.796875 -1.3125 -2.28125 -1.3125q-1.21875 0 -1.9375 0.96875q-0.71875 0.96875 -0.71875 2.875zm15.415955 3.84375q-0.984375 1.15625 -2.890625 1.15625q-1.578125 0 -2.40625 -0.921875q-0.8125 -0.921875 -0.828125 -2.703125l0 -6.421875l1.6875 0l0 6.375q0 2.234375 1.828125 2.234375q1.921875 0 2.5625 -1.4375l0 -7.171875l1.6875 0l0 9.859375l-1.609375 0l-0.03125 -0.96875zm8.284622 1.15625q-2.0 0 -3.265625 -1.3125q-1.25 -1.328125 -1.25 -3.53125l0 -0.3125q0 -1.46875 0.5625 -2.609375q0.5625 -1.15625 1.5625 -1.796875q1.015625 -0.65625 2.1875 -0.65625q1.921875 0 2.984375 1.265625q1.0625 1.265625 1.0625 3.625l0 0.6875l-6.671875 0q0.03125 1.46875 0.84375 2.375q0.828125 0.890625 2.078125 0.890625q0.890625 0 1.515625 -0.359375q0.625 -0.375 1.078125 -0.96875l1.03125 0.796875q-1.234375 1.90625 -3.71875 1.90625zm-0.203125 -8.84375q-1.015625 0 -1.71875 0.75q-0.6875 0.734375 -0.84375 2.078125l4.9375 0l0 -0.125q-0.078125 -1.28125 -0.703125 -1.984375q-0.609375 -0.71875 -1.671875 -0.71875zm11.743179 6.046875q0 -0.6875 -0.515625 -1.0625q-0.515625 -0.375 -1.796875 -0.640625q-1.28125 -0.28125 -2.03125 -0.65625q-0.75 -0.390625 -1.109375 -0.921875q-0.359375 -0.53125 -0.359375 -1.265625q0 -1.203125 1.015625 -2.03125q1.03125 -0.84375 2.625 -0.84375q1.671875 0 2.71875 0.859375q1.046875 0.859375 1.046875 2.21875l-1.6875 0q0 -0.703125 -0.59375 -1.203125q-0.59375 -0.5 -1.484375 -0.5q-0.921875 0 -1.4375 0.40625q-0.515625 0.390625 -0.515625 1.046875q0 0.609375 0.484375 0.921875q0.484375 0.3125 1.734375 0.59375q1.265625 0.28125 2.046875 0.671875q0.78125 0.390625 1.15625 0.9375q0.390625 0.546875 0.390625 1.34375q0 1.328125 -1.0625 2.125q-1.046875 0.796875 -2.734375 0.796875q-1.1875 0 -2.109375 -0.421875q-0.90625 -0.421875 -1.421875 -1.171875q-0.515625 -0.75 -0.515625 -1.625l1.6875 0q0.046875 0.84375 0.671875 1.34375q0.640625 0.5 1.6875 0.5q0.953125 0 1.53125 -0.390625q0.578125 -0.390625 0.578125 -1.03125zm6.166504 -9.640625l0 2.390625l1.84375 0l0 1.3125l-1.84375 0l0 6.109375q0 0.59375 0.234375 0.890625q0.25 0.296875 0.84375 0.296875q0.296875 0 0.8125 -0.109375l0 1.359375q-0.671875 0.1875 -1.296875 0.1875q-1.125 0 -1.703125 -0.6875q-0.578125 -0.6875 -0.578125 -1.9375l0 -6.109375l-1.796875 0l0 -1.3125l1.796875 0l0 -2.390625l1.6875 0z" fill-rule="nonzero"/><path fill="#cfe2f3" d="m241.51303 399.5372l0 0c3.3801117 0 6.1202393 -2.7401123 6.1202393 -6.1202393l0 -24.480194l0 0c0 -1.6231995 -0.6448059 -3.1799011 -1.792572 -4.327667c-1.1477661 -1.1477661 -2.704483 -1.792572 -4.327667 -1.792572l-81.02586 0c-3.3801117 0 -6.1202393 2.7401123 -6.1202393 6.1202393l0 24.480194c0 3.380127 2.7401276 6.1202393 6.1202393 6.1202393z" fill-rule="evenodd"/><path stroke="#000000" stroke-width="1.0" stroke-linejoin="round" stroke-linecap="butt" d="m241.51303 399.5372l0 0c3.3801117 0 6.1202393 -2.7401123 6.1202393 -6.1202393l0 -24.480194l0 0c0 -1.6231995 -0.6448059 -3.1799011 -1.792572 -4.327667c-1.1477661 -1.1477661 -2.704483 -1.792572 -4.327667 -1.792572l-81.02586 0c-3.3801117 0 -6.1202393 2.7401123 -6.1202393 6.1202393l0 24.480194c0 3.380127 2.7401276 6.1202393 6.1202393 6.1202393z" fill-rule="evenodd"/><path fill="#fff2cc" d="m242.35558 393.85294l0 0c6.817871 0 12.344833 -5.6674805 12.344833 -12.658691l0 0c0 -3.3572998 -1.3006134 -6.5770874 -3.6157227 -8.95105c-2.315094 -2.3739624 -5.455063 -3.7076416 -8.729111 -3.7076416l0 0c-6.817871 0 -12.344849 5.6674805 -12.344849 12.658691l0 0c0 6.991211 5.5269775 12.658691 12.344849 12.658691z" fill-rule="evenodd"/><path stroke="#000000" stroke-width="1.0" stroke-linejoin="round" stroke-linecap="butt" d="m242.35558 393.85294l0 0c6.817871 0 12.344833 -5.6674805 12.344833 -12.658691l0 0c0 -3.3572998 -1.3006134 -6.5770874 -3.6157227 -8.95105c-2.315094 -2.3739624 -5.455063 -3.7076416 -8.729111 -3.7076416l0 0c-6.817871 0 -12.344849 5.6674805 -12.344849 12.658691l0 0c0 6.991211 5.5269775 12.658691 12.344849 12.658691z" fill-rule="evenodd"/><path fill="#fff2cc" d="m206.86627 393.85294l0 0c6.817871 0 12.344849 -5.6674805 12.344849 -12.658691l0 0c0 -3.3572998 -1.3006134 -6.5770874 -3.6157227 -8.95105c-2.3151093 -2.3739624 -5.455063 -3.7076416 -8.729126 -3.7076416l0 0c-6.817871 0 -12.344849 5.6674805 -12.344849 12.658691l0 0c0 6.991211 5.5269775 12.658691 12.344849 12.658691z" fill-rule="evenodd"/><path stroke="#000000" stroke-width="1.0" stroke-linejoin="round" stroke-linecap="butt" d="m206.86627 393.85294l0 0c6.817871 0 12.344849 -5.6674805 12.344849 -12.658691l0 0c0 -3.3572998 -1.3006134 -6.5770874 -3.6157227 -8.95105c-2.3151093 -2.3739624 -5.455063 -3.7076416 -8.729126 -3.7076416l0 0c-6.817871 0 -12.344849 5.6674805 -12.344849 12.658691l0 0c0 6.991211 5.5269775 12.658691 12.344849 12.658691z" fill-rule="evenodd"/><path fill="#fff2cc" d="m171.37697 393.85294l0 0c6.817871 0 12.344849 -5.6674805 12.344849 -12.658691l0 0c0 -3.3572998 -1.3006134 -6.5770874 -3.6157227 -8.95105c-2.3151093 -2.3739624 -5.455063 -3.7076416 -8.729126 -3.7076416l0 0c-6.817871 0 -12.344833 5.6674805 -12.344833 12.658691l0 0c0 6.991211 5.5269623 12.658691 12.344833 12.658691z" fill-rule="evenodd"/><path stroke="#000000" stroke-width="1.0" stroke-linejoin="round" stroke-linecap="butt" d="m171.37697 393.85294l0 0c6.817871 0 12.344849 -5.6674805 12.344849 -12.658691l0 0c0 -3.3572998 -1.3006134 -6.5770874 -3.6157227 -8.95105c-2.3151093 -2.3739624 -5.455063 -3.7076416 -8.729126 -3.7076416l0 0c-6.817871 0 -12.344833 5.6674805 -12.344833 12.658691l0 0c0 6.991211 5.5269623 12.658691 12.344833 12.658691z" fill-rule="evenodd"/><path fill="#000000" fill-opacity="0.0" d="m194.52142 381.19424l-10.775574 0" fill-rule="evenodd"/><path stroke="#000000" stroke-width="1.0" stroke-linejoin="round" stroke-linecap="butt" d="m194.52142 381.19424l-10.775574 0" fill-rule="evenodd"/><path fill="#000000" fill-opacity="0.0" d="m230.01073 381.19424l-10.775589 0" fill-rule="evenodd"/><path stroke="#000000" stroke-width="1.0" stroke-linejoin="round" stroke-linecap="butt" d="m230.01073 381.19424l-10.775589 0" fill-rule="evenodd"/><path fill="#cfe2f3" d="m177.78583 588.705l0 0c3.3804474 0 6.1208496 -2.7403564 6.1208496 -6.1208496l0 -24.482666l0 0c0 -1.623352 -0.64486694 -3.1802368 -1.7927551 -4.328125c-1.1478882 -1.1478882 -2.7047424 -1.7927246 -4.3280945 -1.7927246l-81.018135 0c-3.380455 0 -6.1208572 2.7403564 -6.1208572 6.1208496l0 24.482666c0 3.3804932 2.7404022 6.1208496 6.1208572 6.1208496z" fill-rule="evenodd"/><path stroke="#000000" stroke-width="1.0" stroke-linejoin="round" stroke-linecap="butt" d="m177.78583 588.705l0 0c3.3804474 0 6.1208496 -2.7403564 6.1208496 -6.1208496l0 -24.482666l0 0c0 -1.623352 -0.64486694 -3.1802368 -1.7927551 -4.328125c-1.1478882 -1.1478882 -2.7047424 -1.7927246 -4.3280945 -1.7927246l-81.018135 0c-3.380455 0 -6.1208572 2.7403564 -6.1208572 6.1208496l0 24.482666c0 3.3804932 2.7404022 6.1208496 6.1208572 6.1208496z" fill-rule="evenodd"/><path fill="#fff2cc" d="m107.650024 583.0209l0 0c6.818756 0 12.346458 -5.668701 12.346458 -12.661438l0 0c0 -3.3579712 -1.3007889 -6.578491 -3.6161957 -8.952942c-2.3154068 -2.3745117 -5.45578 -3.708435 -8.730263 -3.708435l0 0c-6.8187637 0 -12.346458 5.668701 -12.346458 12.661377l0 0c0 6.992737 5.5276947 12.661438 12.346458 12.661438z" fill-rule="evenodd"/><path stroke="#000000" stroke-width="1.0" stroke-linejoin="round" stroke-linecap="butt" d="m107.650024 583.0209l0 0c6.818756 0 12.346458 -5.668701 12.346458 -12.661438l0 0c0 -3.3579712 -1.3007889 -6.578491 -3.6161957 -8.952942c-2.3154068 -2.3745117 -5.45578 -3.708435 -8.730263 -3.708435l0 0c-6.8187637 0 -12.346458 5.668701 -12.346458 12.661377l0 0c0 6.992737 5.5276947 12.661438 12.346458 12.661438z" fill-rule="evenodd"/><g filter="url(#shadowFilter-p.3)"><use xlink:href="#p.3" transform="matrix(1.0 0.0 0.0 1.0 0.0 2.0)"/></g><defs><filter id="shadowFilter-p.3" filterUnits="userSpaceOnUse"><feGaussianBlur in="SourceAlpha" stdDeviation="2.0" result="blur"/><feComponentTransfer in="blur" color-interpolation-filters="sRGB"><feFuncR type="linear" slope="0" intercept="0.0"/><feFuncG type="linear" slope="0" intercept="0.0"/><feFuncB type="linear" slope="0" intercept="0.0"/><feFuncA type="linear" slope="0.5" intercept="0"/></feComponentTransfer></filter></defs><g id="p.3"><path fill="#000000" fill-opacity="0.0" d="m678.7301 570.93945l-567.3701 -0.7873535" fill-rule="evenodd"/><path stroke="#000000" stroke-width="2.0" stroke-linejoin="round" stroke-linecap="butt" d="m678.73004 570.93945l-555.37006 -0.77075195" fill-rule="evenodd"/><path fill="#000000" stroke="#000000" stroke-width="2.0" stroke-linecap="butt" d="m123.36457 566.86523l-9.080765 3.2908936l9.071594 3.31604z" fill-rule="evenodd"/></g><path fill="#fff2cc" d="m143.13863 583.0209l0 0c6.818756 0 12.346451 -5.668701 12.346451 -12.661438l0 0c0 -3.3579712 -1.3007812 -6.578491 -3.6161804 -8.952942c-2.3154144 -2.3745117 -5.45578 -3.708435 -8.73027 -3.708435l0 0c-6.818756 0 -12.346451 5.668701 -12.346451 12.661377l0 0c0 6.992737 5.5276947 12.661438 12.346451 12.661438z" fill-rule="evenodd"/><path stroke="#000000" stroke-width="1.0" stroke-linejoin="round" stroke-linecap="butt" d="m143.13863 583.0209l0 0c6.818756 0 12.346451 -5.668701 12.346451 -12.661438l0 0c0 -3.3579712 -1.3007812 -6.578491 -3.6161804 -8.952942c-2.3154144 -2.3745117 -5.45578 -3.708435 -8.73027 -3.708435l0 0c-6.818756 0 -12.346451 5.668701 -12.346451 12.661377l0 0c0 6.992737 5.5276947 12.661438 12.346451 12.661438z" fill-rule="evenodd"/><path fill="#fff2cc" d="m178.62723 583.0209l0 0c6.818756 0 12.346451 -5.668701 12.346451 -12.661438l0 0c0 -3.3579712 -1.3007812 -6.578491 -3.6161804 -8.952942c-2.3154144 -2.3745117 -5.45578 -3.708435 -8.73027 -3.708435l0 0c-6.818756 0 -12.346451 5.668701 -12.346451 12.661377l0 0c0 6.992737 5.5276947 12.661438 12.346451 12.661438z" fill-rule="evenodd"/><path stroke="#000000" stroke-width="1.0" stroke-linejoin="round" stroke-linecap="butt" d="m178.62723 583.0209l0 0c6.818756 0 12.346451 -5.668701 12.346451 -12.661438l0 0c0 -3.3579712 -1.3007812 -6.578491 -3.6161804 -8.952942c-2.3154144 -2.3745117 -5.45578 -3.708435 -8.73027 -3.708435l0 0c-6.818756 0 -12.346451 5.668701 -12.346451 12.661377l0 0c0 6.992737 5.5276947 12.661438 12.346451 12.661438z" fill-rule="evenodd"/><path fill="#f3f3f3" d="m557.0313 462.72l108.552 0l0 99.737946c-54.276 0 -54.276 38.001953 -108.552 16.409912z" fill-rule="evenodd"/><path stroke="#000000" stroke-width="1.0" stroke-linejoin="round" stroke-linecap="butt" d="m557.0313 462.72l108.552 0l0 99.737946c-54.276 0 -54.276 38.001953 -108.552 16.409912z" fill-rule="evenodd"/><path fill="#000000" d="m585.18713 512.509l-1.75 0l0 -13.265625l1.75 0l0 13.265625zm4.5270996 -9.859375l0.046875 1.234375q1.125 -1.40625 2.953125 -1.40625q3.125 0 3.15625 3.515625l0 6.515625l-1.6875 0l0 -6.515625q-0.015625 -1.078125 -0.5 -1.578125q-0.46875 -0.515625 -1.484375 -0.515625q-0.8125 0 -1.4375 0.4375q-0.609375 0.4375 -0.96875 1.15625l0 7.015625l-1.671875 0l0 -9.859375l1.59375 0zm11.950012 7.578125l2.4375 -7.578125l1.71875 0l-3.53125 9.859375l-1.28125 0l-3.578125 -9.859375l1.71875 0l2.515625 7.578125zm5.1967773 -2.734375q0 -1.453125 0.5625 -2.609375q0.578125 -1.15625 1.59375 -1.78125q1.015625 -0.625 2.3125 -0.625q2.015625 0 3.25 1.390625q1.25 1.390625 1.25 3.703125l0 0.125q0 1.4375 -0.546875 2.578125q-0.546875 1.140625 -1.578125 1.78125q-1.015625 0.640625 -2.359375 0.640625q-2.0 0 -3.25 -1.390625q-1.234375 -1.40625 -1.234375 -3.703125l0 -0.109375zm1.6875 0.203125q0 1.640625 0.765625 2.640625q0.765625 0.984375 2.03125 0.984375q1.296875 0 2.046875 -1.0q0.75 -1.015625 0.75 -2.828125q0 -1.625 -0.765625 -2.625q-0.765625 -1.015625 -2.046875 -1.015625q-1.25 0 -2.015625 1.0q-0.765625 0.984375 -0.765625 2.84375zm11.233643 4.8125l-1.6875 0l0 -9.859375l1.6875 0l0 9.859375zm-1.828125 -12.46875q0 -0.40625 0.25 -0.6875q0.25 -0.296875 0.734375 -0.296875q0.5 0 0.75 0.296875q0.265625 0.28125 0.265625 0.6875q0 0.40625 -0.265625 0.6875q-0.25 0.265625 -0.75 0.265625q-0.484375 0 -0.734375 -0.265625q-0.25 -0.28125 -0.25 -0.6875zm8.48053 11.28125q0.890625 0 1.5625 -0.546875q0.6875 -0.546875 0.75 -1.375l1.59375 0q-0.046875 0.84375 -0.578125 1.609375q-0.53125 0.765625 -1.4375 1.234375q-0.890625 0.453125 -1.890625 0.453125q-2.015625 0 -3.203125 -1.34375q-1.1875 -1.34375 -1.1875 -3.6875l0 -0.28125q0 -1.4375 0.515625 -2.546875q0.53125 -1.125 1.515625 -1.734375q1.0 -0.625 2.34375 -0.625q1.65625 0 2.75 1.0q1.109375 0.984375 1.171875 2.5625l-1.59375 0q-0.0625 -0.953125 -0.71875 -1.5625q-0.65625 -0.625 -1.609375 -0.625q-1.28125 0 -2.0 0.921875q-0.703125 0.921875 -0.703125 2.671875l0 0.328125q0 1.703125 0.703125 2.625q0.703125 0.921875 2.015625 0.921875zm9.890381 1.375q-2.0 0 -3.265625 -1.3125q-1.25 -1.328125 -1.25 -3.53125l0 -0.3125q0 -1.46875 0.5625 -2.609375q0.5625 -1.15625 1.5625 -1.796875q1.015625 -0.65625 2.1875 -0.65625q1.921875 0 2.984375 1.265625q1.0625 1.265625 1.0625 3.625l0 0.6875l-6.671875 0q0.03125 1.46875 0.84375 2.375q0.828125 0.890625 2.078125 0.890625q0.890625 0 1.515625 -0.359375q0.625 -0.375 1.078125 -0.96875l1.03125 0.796875q-1.234375 1.90625 -3.71875 1.90625zm-0.203125 -8.84375q-1.015625 0 -1.71875 0.75q-0.6875 0.734375 -0.84375 2.078125l4.9375 0l0 -0.125q-0.078125 -1.28125 -0.703125 -1.984375q-0.609375 -0.71875 -1.671875 -0.71875z" fill-rule="nonzero"/><path fill="#fce5cd" d="m550.46027 564.5455l0 0c-3.3608398 0 -6.085388 -2.7244873 -6.085388 -6.085327l0 -24.34076l0 0c0 -1.6138916 0.6411743 -3.1617432 1.7824097 -4.3029785c1.1411743 -1.1412354 2.6890259 -1.7823486 4.3029785 -1.7823486l76.54474 0c3.3609009 0 6.085388 2.7244873 6.085388 6.085327l0 24.34076c0 3.3608398 -2.7244873 6.085327 -6.085388 6.085327z" fill-rule="evenodd"/><path stroke="#000000" stroke-width="1.0" stroke-linejoin="round" stroke-linecap="butt" d="m550.46027 564.5455l0 0c-3.3608398 0 -6.085388 -2.7244873 -6.085388 -6.085327l0 -24.34076l0 0c0 -1.6138916 0.6411743 -3.1617432 1.7824097 -4.3029785c1.1411743 -1.1412354 2.6890259 -1.7823486 4.3029785 -1.7823486l76.54474 0c3.3609009 0 6.085388 2.7244873 6.085388 6.085327l0 24.34076c0 3.3608398 -2.7244873 6.085327 -6.085388 6.085327z" fill-rule="evenodd"/><path fill="#fff2cc" d="m549.2312 558.06165l0 0c-6.4856567 0 -11.743286 -5.2576294 -11.743286 -11.743286l0 0c0 -3.114502 1.2371826 -6.1014404 3.4395142 -8.303711c2.2022705 -2.2023315 5.189209 -3.4395752 8.303772 -3.4395752l0 0c6.4855957 0 11.743286 5.2576904 11.743286 11.743286l0 0c0 6.4856567 -5.2576904 11.743286 -11.743286 11.743286z" fill-rule="evenodd"/><path stroke="#000000" stroke-width="1.0" stroke-linejoin="round" stroke-linecap="butt" d="m549.2312 558.06165l0 0c-6.4856567 0 -11.743286 -5.2576294 -11.743286 -11.743286l0 0c0 -3.114502 1.2371826 -6.1014404 3.4395142 -8.303711c2.2022705 -2.2023315 5.189209 -3.4395752 8.303772 -3.4395752l0 0c6.4855957 0 11.743286 5.2576904 11.743286 11.743286l0 0c0 6.4856567 -5.2576904 11.743286 -11.743286 11.743286z" fill-rule="evenodd"/><path fill="#fff2cc" d="m582.9949 558.06165l0 0c-6.4855957 0 -11.743286 -5.2576294 -11.743286 -11.743286l0 0c0 -3.114502 1.2372437 -6.1014404 3.4395752 -8.303711c2.2022705 -2.2023315 5.189209 -3.4395752 8.303711 -3.4395752l0 0c6.4856567 0 11.743286 5.2576904 11.743286 11.743286l0 0c0 6.4856567 -5.2576294 11.743286 -11.743286 11.743286z" fill-rule="evenodd"/><path stroke="#000000" stroke-width="1.0" stroke-linejoin="round" stroke-linecap="butt" d="m582.9949 558.06165l0 0c-6.4855957 0 -11.743286 -5.2576294 -11.743286 -11.743286l0 0c0 -3.114502 1.2372437 -6.1014404 3.4395752 -8.303711c2.2022705 -2.2023315 5.189209 -3.4395752 8.303711 -3.4395752l0 0c6.4856567 0 11.743286 5.2576904 11.743286 11.743286l0 0c0 6.4856567 -5.2576294 11.743286 -11.743286 11.743286z" fill-rule="evenodd"/><path fill="#fff2cc" d="m616.7586 558.06165l0 0c-6.4856567 0 -11.743286 -5.2576294 -11.743286 -11.743286l0 0c0 -3.114502 1.2372437 -6.1014404 3.4395142 -8.303711c2.2023315 -2.2023315 5.18927 -3.4395752 8.303772 -3.4395752l0 0c6.4856567 0 11.743286 5.2576904 11.743286 11.743286l0 0c0 6.4856567 -5.2576294 11.743286 -11.743286 11.743286z" fill-rule="evenodd"/><path stroke="#000000" stroke-width="1.0" stroke-linejoin="round" stroke-linecap="butt" d="m616.7586 558.06165l0 0c-6.4856567 0 -11.743286 -5.2576294 -11.743286 -11.743286l0 0c0 -3.114502 1.2372437 -6.1014404 3.4395142 -8.303711c2.2023315 -2.2023315 5.18927 -3.4395752 8.303772 -3.4395752l0 0c6.4856567 0 11.743286 5.2576904 11.743286 11.743286l0 0c0 6.4856567 -5.2576294 11.743286 -11.743286 11.743286z" fill-rule="evenodd"/><path fill="#000000" fill-opacity="0.0" d="m594.73816 546.31836l10.252502 0" fill-rule="evenodd"/><path stroke="#000000" stroke-width="1.0" stroke-linejoin="round" stroke-linecap="butt" d="m594.73816 546.31836l10.252502 0" fill-rule="evenodd"/><path fill="#000000" fill-opacity="0.0" d="m560.9745 546.31836l10.252502 0" fill-rule="evenodd"/><path stroke="#000000" stroke-width="1.0" stroke-linejoin="round" stroke-linecap="butt" d="m560.9745 546.31836l10.252502 0" fill-rule="evenodd"/><path fill="#fce5cd" d="m613.42145 751.0574l0 0c-3.3601685 0 -6.0841064 -2.723938 -6.0841064 -6.0841064l0 -24.335693l0 0c0 -1.6135864 0.6409912 -3.1611328 1.7819824 -4.302124c1.1409912 -1.1409912 2.6885376 -1.7819824 4.302124 -1.7819824l76.55621 0c3.3601685 0 6.0841064 2.723938 6.0841064 6.0841064l0 24.335693c0 3.3601685 -2.723938 6.0841064 -6.0841064 6.0841064z" fill-rule="evenodd"/><path stroke="#000000" stroke-width="1.0" stroke-linejoin="round" stroke-linecap="butt" d="m613.42145 751.0574l0 0c-3.3601685 0 -6.0841064 -2.723938 -6.0841064 -6.0841064l0 -24.335693l0 0c0 -1.6135864 0.6409912 -3.1611328 1.7819824 -4.302124c1.1409912 -1.1409912 2.6885376 -1.7819824 4.302124 -1.7819824l76.55621 0c3.3601685 0 6.0841064 2.723938 6.0841064 6.0841064l0 24.335693c0 3.3601685 -2.723938 6.0841064 -6.0841064 6.0841064z" fill-rule="evenodd"/><path fill="#fff2cc" d="m679.67017 744.57367l0 0c-6.4882812 0 -11.748047 -5.2597656 -11.748047 -11.747986l0 0c0 -3.1157837 1.2377319 -6.103943 3.440918 -8.307129c2.203186 -2.203186 5.191345 -3.440918 8.307129 -3.440918l0 0c6.4882812 0 11.748047 5.2597656 11.748047 11.748047l0 0c0 6.48822 -5.2597656 11.747986 -11.748047 11.747986z" fill-rule="evenodd"/><path stroke="#000000" stroke-width="1.0" stroke-linejoin="round" stroke-linecap="butt" d="m679.67017 744.57367l0 0c-6.4882812 0 -11.748047 -5.2597656 -11.748047 -11.747986l0 0c0 -3.1157837 1.2377319 -6.103943 3.440918 -8.307129c2.203186 -2.203186 5.191345 -3.440918 8.307129 -3.440918l0 0c6.4882812 0 11.748047 5.2597656 11.748047 11.748047l0 0c0 6.48822 -5.2597656 11.747986 -11.748047 11.747986z" fill-rule="evenodd"/><g filter="url(#shadowFilter-p.4)"><use xlink:href="#p.4" transform="matrix(1.0 0.0 0.0 1.0 0.0 2.0)"/></g><defs><filter id="shadowFilter-p.4" filterUnits="userSpaceOnUse"><feGaussianBlur in="SourceAlpha" stdDeviation="2.0" result="blur"/><feComponentTransfer in="blur" color-interpolation-filters="sRGB"><feFuncR type="linear" slope="0" intercept="0.0"/><feFuncG type="linear" slope="0" intercept="0.0"/><feFuncB type="linear" slope="0" intercept="0.0"/><feFuncA type="linear" slope="0.5" intercept="0"/></feComponentTransfer></filter></defs><g id="p.4"><path fill="#000000" fill-opacity="0.0" d="m111.30542 732.7774l567.2126 0" fill-rule="evenodd"/><path stroke="#000000" stroke-width="2.0" stroke-linejoin="round" stroke-linecap="butt" d="m111.30543 732.7774l555.2126 0" fill-rule="evenodd"/><path fill="#000000" stroke="#000000" stroke-width="2.0" stroke-linecap="butt" d="m666.518 736.0809l9.076172 -3.3034668l-9.076172 -3.3034668z" fill-rule="evenodd"/></g><path fill="#fff2cc" d="m646.1891 744.57367l0 0c-6.48822 0 -11.747986 -5.2597656 -11.747986 -11.747986l0 0c0 -3.1157837 1.2377319 -6.103943 3.440918 -8.307129c2.203125 -2.203186 5.191284 -3.440918 8.307068 -3.440918l0 0c6.4882812 0 11.748047 5.2597656 11.748047 11.748047l0 0c0 6.48822 -5.2597656 11.747986 -11.748047 11.747986z" fill-rule="evenodd"/><path stroke="#000000" stroke-width="1.0" stroke-linejoin="round" stroke-linecap="butt" d="m646.1891 744.57367l0 0c-6.48822 0 -11.747986 -5.2597656 -11.747986 -11.747986l0 0c0 -3.1157837 1.2377319 -6.103943 3.440918 -8.307129c2.203125 -2.203186 5.191284 -3.440918 8.307068 -3.440918l0 0c6.4882812 0 11.748047 5.2597656 11.748047 11.748047l0 0c0 6.48822 -5.2597656 11.747986 -11.748047 11.747986z" fill-rule="evenodd"/><path fill="#fff2cc" d="m612.708 744.57367l0 0c-6.48822 0 -11.747986 -5.2597656 -11.747986 -11.747986l0 0c0 -3.1157837 1.2377319 -6.103943 3.440918 -8.307129c2.203186 -2.203186 5.191345 -3.440918 8.307068 -3.440918l0 0c6.4882812 0 11.748047 5.2597656 11.748047 11.748047l0 0c0 6.48822 -5.2597656 11.747986 -11.748047 11.747986z" fill-rule="evenodd"/><path stroke="#000000" stroke-width="1.0" stroke-linejoin="round" stroke-linecap="butt" d="m612.708 744.57367l0 0c-6.48822 0 -11.747986 -5.2597656 -11.747986 -11.747986l0 0c0 -3.1157837 1.2377319 -6.103943 3.440918 -8.307129c2.203186 -2.203186 5.191345 -3.440918 8.307068 -3.440918l0 0c6.4882812 0 11.748047 5.2597656 11.748047 11.748047l0 0c0 6.48822 -5.2597656 11.747986 -11.748047 11.747986z" fill-rule="evenodd"/><path fill="#fce5cd" d="m122.69314 701.6186l0 0c0 -24.50055 19.86164 -44.362183 44.362206 -44.362183l0 0c11.7655945 0 23.049286 4.673889 31.36882 12.993408c8.319519 8.319519 12.993393 19.60321 12.993393 31.368774l0 0c0 24.50061 -19.861649 44.362244 -44.362213 44.362244l0 0c-24.500565 0 -44.362206 -19.861633 -44.362206 -44.362244z" fill-rule="evenodd"/><path stroke="#000000" stroke-width="1.0" stroke-linejoin="round" stroke-linecap="butt" d="m122.69314 701.6186l0 0c0 -24.50055 19.86164 -44.362183 44.362206 -44.362183l0 0c11.7655945 0 23.049286 4.673889 31.36882 12.993408c8.319519 8.319519 12.993393 19.60321 12.993393 31.368774l0 0c0 24.50061 -19.861649 44.362244 -44.362213 44.362244l0 0c-24.500565 0 -44.362206 -19.861633 -44.362206 -44.362244z" fill-rule="evenodd"/><path fill="#202124" d="m165.10236 710.523l0 -1.984375l-2.296875 0l0 -13.3125l2.296875 0l0 -1.859375l1.1875 0l0 1.859375l0.3125 0q0.265625 0 0.5 0.015625q0.234375 0 0.484375 0.015625l0 -1.890625l1.1875 0l0 2.015625q1.4375 0.265625 2.15625 1.015625q0.734375 0.75 0.734375 2.125q0 1.171875 -0.65625 1.953125q-0.65625 0.765625 -1.875 1.0l0 0.078125q1.5625 0.28125 2.265625 1.09375q0.71875 0.8125 0.71875 2.09375q0 1.578125 -0.90625 2.515625q-0.890625 0.921875 -2.4375 1.1875l0 2.078125l-1.1875 0l0 -1.984375l-1.296875 0l0 1.984375l-1.1875 0zm-0.625 -8.234375l0 4.828125l2.6875 0q1.59375 0 2.375 -0.609375q0.78125 -0.609375 0.78125 -1.890625q0 -1.203125 -0.828125 -1.765625q-0.828125 -0.5625 -2.453125 -0.5625l-2.5625 0zm0 -1.40625l2.46875 0q1.59375 0 2.28125 -0.5q0.703125 -0.5 0.703125 -1.671875q0 -1.109375 -0.78125 -1.578125q-0.78125 -0.484375 -2.46875 -0.484375l-2.203125 0l0 4.234375z" fill-rule="nonzero"/><path fill="#000000" fill-opacity="0.0" d="m326.89343 194.75615l134.33072 0l0 25.322845l-134.33072 0z" fill-rule="evenodd"/><path fill="#000000" d="m370.8595 215.47302q0 1.921875 -0.609375 3.3125q-0.609375 1.390625 -1.71875 2.171875l2.375 1.859375l-1.203125 1.09375l-2.796875 -2.21875q-0.65625 0.171875 -1.375 0.171875q-1.578125 0 -2.796875 -0.765625q-1.203125 -0.78125 -1.875 -2.203125q-0.65625 -1.421875 -0.671875 -3.296875l0 -0.96875q0 -1.90625 0.65625 -3.375q0.671875 -1.46875 1.875 -2.25q1.21875 -0.78125 2.796875 -0.78125q1.59375 0 2.8125 0.78125q1.21875 0.78125 1.875 2.234375q0.65625 1.453125 0.65625 3.390625l0 0.84375zm-1.75 -0.859375q0 -2.34375 -0.9375 -3.609375q-0.9375 -1.265625 -2.65625 -1.265625q-1.65625 0 -2.609375 1.265625q-0.953125 1.25 -0.984375 3.5l0 0.96875q0 2.28125 0.953125 3.59375q0.953125 1.3125 2.640625 1.3125q1.703125 0 2.625 -1.234375q0.9375 -1.234375 0.96875 -3.546875l0 -0.984375zm9.310547 1.703125l-3.125 0l0 5.359375l-1.75 0l0 -13.265625l4.390625 0q2.234375 0 3.4375 1.03125q1.21875 1.015625 1.21875 2.953125q0 1.25 -0.671875 2.171875q-0.671875 0.921875 -1.859375 1.375l3.109375 5.625l0 0.109375l-1.875 0l-2.875 -5.359375zm-3.125 -1.4375l2.6875 0q1.3125 0 2.078125 -0.671875q0.765625 -0.671875 0.765625 -1.8125q0 -1.21875 -0.734375 -1.875q-0.734375 -0.65625 -2.109375 -0.671875l-2.6875 0l0 5.03125zm18.058716 5.609375q0.890625 0 1.5625 -0.546875q0.6875 -0.546875 0.75 -1.375l1.59375 0q-0.046875 0.84375 -0.578125 1.609375q-0.53125 0.765625 -1.4375 1.234375q-0.890625 0.453125 -1.890625 0.453125q-2.015625 0 -3.203125 -1.34375q-1.1875 -1.34375 -1.1875 -3.6875l0 -0.28125q0 -1.4375 0.515625 -2.546875q0.53125 -1.125 1.515625 -1.734375q1.0 -0.625 2.34375 -0.625q1.65625 0 2.75 1.0q1.109375 0.984375 1.171875 2.5625l-1.59375 0q-0.0625 -0.953125 -0.71875 -1.5625q-0.65625 -0.625 -1.609375 -0.625q-1.28125 0 -2.0 0.921875q-0.703125 0.921875 -0.703125 2.671875l0 0.328125q0 1.703125 0.703125 2.625q0.703125 0.921875 2.015625 0.921875zm5.359131 -3.828125q0 -1.453125 0.5625 -2.609375q0.578125 -1.15625 1.59375 -1.78125q1.015625 -0.625 2.3125 -0.625q2.015625 0 3.25 1.390625q1.25 1.390625 1.25 3.703125l0 0.125q0 1.4375 -0.546875 2.578125q-0.546875 1.140625 -1.578125 1.78125q-1.015625 0.640625 -2.359375 0.640625q-2.0 0 -3.25 -1.390625q-1.234375 -1.40625 -1.234375 -3.703125l0 -0.109375zm1.6875 0.203125q0 1.640625 0.765625 2.640625q0.765625 0.984375 2.03125 0.984375q1.296875 0 2.046875 -1.0q0.75 -1.015625 0.75 -2.828125q0 -1.625 -0.765625 -2.625q-0.765625 -1.015625 -2.046875 -1.015625q-1.25 0 -2.015625 1.0q-0.765625 0.984375 -0.765625 2.84375zm8.983643 -0.203125q0 -2.265625 1.078125 -3.640625q1.078125 -1.375 2.8125 -1.375q1.734375 0 2.75 1.171875l0 -5.140625l1.6875 0l0 14.0l-1.546875 0l-0.09375 -1.0625q-1.0 1.25 -2.8125 1.25q-1.703125 0 -2.796875 -1.40625q-1.078125 -1.40625 -1.078125 -3.65625l0 -0.140625zm1.6875 0.203125q0 1.671875 0.6875 2.625q0.703125 0.9375 1.921875 0.9375q1.609375 0 2.34375 -1.4375l0 -4.53125q-0.765625 -1.390625 -2.328125 -1.390625q-1.234375 0 -1.9375 0.953125q-0.6875 0.953125 -0.6875 2.84375zm13.333984 5.0q-2.0 0 -3.265625 -1.3125q-1.25 -1.328125 -1.25 -3.53125l0 -0.3125q0 -1.46875 0.5625 -2.609375q0.5625 -1.15625 1.5625 -1.796875q1.015625 -0.65625 2.1875 -0.65625q1.921875 0 2.984375 1.265625q1.0625 1.265625 1.0625 3.625l0 0.6875l-6.671875 0q0.03125 1.46875 0.84375 2.375q0.828125 0.890625 2.078125 0.890625q0.890625 0 1.515625 -0.359375q0.625 -0.375 1.078125 -0.96875l1.03125 0.796875q-1.234375 1.90625 -3.71875 1.90625zm-0.203125 -8.84375q-1.015625 0 -1.71875 0.75q-0.6875 0.734375 -0.84375 2.078125l4.9375 0l0 -0.125q-0.078125 -1.28125 -0.703125 -1.984375q-0.609375 -0.71875 -1.671875 -0.71875z" fill-rule="nonzero"/><path fill="#000000" fill-opacity="0.0" d="m303.82578 357.04495l180.47241 0l0 25.322845l-180.47241 0z" fill-rule="evenodd"/><path fill="#000000" d="m341.21002 377.76184q0 1.953125 -0.65625 3.40625q-0.640625 1.453125 -1.84375 2.21875q-1.203125 0.765625 -2.8125 0.765625q-1.5625 0 -2.78125 -0.765625q-1.203125 -0.78125 -1.875 -2.203125q-0.671875 -1.421875 -0.6875 -3.296875l0 -0.96875q0 -1.90625 0.65625 -3.375q0.671875 -1.46875 1.890625 -2.25q1.21875 -0.78125 2.78125 -0.78125q1.59375 0 2.8125 0.78125q1.21875 0.765625 1.859375 2.234375q0.65625 1.453125 0.65625 3.390625l0 0.84375zm-1.734375 -0.859375q0 -2.359375 -0.953125 -3.609375q-0.9375 -1.265625 -2.640625 -1.265625q-1.65625 0 -2.609375 1.265625q-0.953125 1.25 -0.984375 3.5l0 0.96875q0 2.28125 0.953125 3.59375q0.96875 1.3125 2.65625 1.3125q1.6875 0 2.609375 -1.234375q0.9375 -1.234375 0.96875 -3.546875l0 -0.984375zm5.701172 -2.796875l0.046875 1.234375q1.125 -1.40625 2.953125 -1.40625q3.125 0 3.15625 3.515625l0 6.515625l-1.6875 0l0 -6.515625q-0.015625 -1.078125 -0.5 -1.578125q-0.46875 -0.515625 -1.484375 -0.515625q-0.8125 0 -1.4375 0.4375q-0.609375 0.4375 -0.96875 1.15625l0 7.015625l-1.671875 0l0 -9.859375l1.59375 0zm10.528107 9.859375l-1.6875 0l0 -9.859375l1.6875 0l0 9.859375zm-1.828125 -12.46875q0 -0.40625 0.25 -0.6875q0.25 -0.296875 0.734375 -0.296875q0.5 0 0.75 0.296875q0.265625 0.28125 0.265625 0.6875q0 0.40625 -0.265625 0.6875q-0.25 0.265625 -0.75 0.265625q-0.484375 0 -0.734375 -0.265625q-0.25 -0.28125 -0.25 -0.6875zm4.0743103 7.453125q0 -1.453125 0.5625 -2.609375q0.578125 -1.15625 1.59375 -1.78125q1.015625 -0.625 2.3125 -0.625q2.015625 0 3.25 1.390625q1.25 1.390625 1.25 3.703125l0 0.125q0 1.4375 -0.546875 2.578125q-0.546875 1.140625 -1.578125 1.78125q-1.015625 0.640625 -2.359375 0.640625q-2.0 0 -3.25 -1.390625q-1.234375 -1.40625 -1.234375 -3.703125l0 -0.109375zm1.6875 0.203125q0 1.640625 0.765625 2.640625q0.765625 0.984375 2.03125 0.984375q1.296875 0 2.046875 -1.0q0.75 -1.015625 0.75 -2.828125q0 -1.625 -0.765625 -2.625q-0.765625 -1.015625 -2.046875 -1.015625q-1.25 0 -2.015625 1.0q-0.765625 0.984375 -0.765625 2.84375zm10.999268 -5.046875l0.046875 1.234375q1.125 -1.40625 2.953125 -1.40625q3.125 0 3.15625 3.515625l0 6.515625l-1.6875 0l0 -6.515625q-0.015625 -1.078125 -0.5 -1.578125q-0.46875 -0.515625 -1.484375 -0.515625q-0.8125 0 -1.4375 0.4375q-0.609375 0.4375 -0.96875 1.15625l0 7.015625l-1.671875 0l0 -9.859375l1.59375 0zm14.896606 0l0.046875 1.09375q1.078125 -1.265625 2.921875 -1.265625q2.0625 0 2.8125 1.578125q0.5 -0.71875 1.28125 -1.140625q0.796875 -0.4375 1.859375 -0.4375q3.25 0 3.296875 3.421875l0 6.609375l-1.671875 0l0 -6.5q0 -1.0625 -0.484375 -1.578125q-0.484375 -0.53125 -1.625 -0.53125q-0.9375 0 -1.5625 0.5625q-0.609375 0.5625 -0.71875 1.5l0 6.546875l-1.6875 0l0 -6.453125q0 -2.15625 -2.109375 -2.15625q-1.65625 0 -2.265625 1.40625l0 7.203125l-1.6875 0l0 -9.859375l1.59375 0zm18.851562 10.046875q-2.0 0 -3.265625 -1.3125q-1.25 -1.328125 -1.25 -3.53125l0 -0.3125q0 -1.46875 0.5625 -2.609375q0.5625 -1.15625 1.5625 -1.796875q1.015625 -0.65625 2.1875 -0.65625q1.921875 0 2.984375 1.265625q1.0625 1.265625 1.0625 3.625l0 0.6875l-6.671875 0q0.03125 1.46875 0.84375 2.375q0.828125 0.890625 2.078125 0.890625q0.890625 0 1.515625 -0.359375q0.625 -0.375 1.078125 -0.96875l1.03125 0.796875q-1.234375 1.90625 -3.71875 1.90625zm-0.203125 -8.84375q-1.015625 0 -1.71875 0.75q-0.6875 0.734375 -0.84375 2.078125l4.9375 0l0 -0.125q-0.078125 -1.28125 -0.703125 -1.984375q-0.609375 -0.71875 -1.671875 -0.71875zm11.743164 6.046875q0 -0.6875 -0.515625 -1.0625q-0.515625 -0.375 -1.796875 -0.640625q-1.28125 -0.28125 -2.03125 -0.65625q-0.75 -0.390625 -1.109375 -0.921875q-0.359375 -0.53125 -0.359375 -1.265625q0 -1.203125 1.015625 -2.03125q1.03125 -0.84375 2.625 -0.84375q1.671875 0 2.71875 0.859375q1.046875 0.859375 1.046875 2.21875l-1.6875 0q0 -0.703125 -0.59375 -1.203125q-0.59375 -0.5 -1.484375 -0.5q-0.921875 0 -1.4375 0.40625q-0.515625 0.390625 -0.515625 1.046875q0 0.609375 0.484375 0.921875q0.484375 0.3125 1.734375 0.59375q1.265625 0.28125 2.046875 0.671875q0.78125 0.390625 1.15625 0.9375q0.390625 0.546875 0.390625 1.34375q0 1.328125 -1.0625 2.125q-1.046875 0.796875 -2.734375 0.796875q-1.1875 0 -2.109375 -0.421875q-0.90625 -0.421875 -1.421875 -1.171875q-0.515625 -0.75 -0.515625 -1.625l1.6875 0q0.046875 0.84375 0.671875 1.34375q0.640625 0.5 1.6875 0.5q0.953125 0 1.53125 -0.390625q0.578125 -0.390625 0.578125 -1.03125zm9.619629 0q0 -0.6875 -0.515625 -1.0625q-0.515625 -0.375 -1.796875 -0.640625q-1.28125 -0.28125 -2.03125 -0.65625q-0.75 -0.390625 -1.109375 -0.921875q-0.359375 -0.53125 -0.359375 -1.265625q0 -1.203125 1.015625 -2.03125q1.03125 -0.84375 2.625 -0.84375q1.671875 0 2.71875 0.859375q1.046875 0.859375 1.046875 2.21875l-1.6875 0q0 -0.703125 -0.59375 -1.203125q-0.59375 -0.5 -1.484375 -0.5q-0.921875 0 -1.4375 0.40625q-0.515625 0.390625 -0.515625 1.046875q0 0.609375 0.484375 0.921875q0.484375 0.3125 1.734375 0.59375q1.265625 0.28125 2.046875 0.671875q0.78125 0.390625 1.15625 0.9375q0.390625 0.546875 0.390625 1.34375q0 1.328125 -1.0625 2.125q-1.046875 0.796875 -2.734375 0.796875q-1.1875 0 -2.109375 -0.421875q-0.90625 -0.421875 -1.421875 -1.171875q-0.515625 -0.75 -0.515625 -1.625l1.6875 0q0.046875 0.84375 0.671875 1.34375q0.640625 0.5 1.6875 0.5q0.953125 0 1.53125 -0.390625q0.578125 -0.390625 0.578125 -1.03125zm9.963379 2.609375q-0.140625 -0.296875 -0.234375 -1.03125q-1.171875 1.21875 -2.8125 1.21875q-1.453125 0 -2.390625 -0.828125q-0.921875 -0.828125 -0.921875 -2.09375q0 -1.53125 1.15625 -2.375q1.171875 -0.859375 3.296875 -0.859375l1.640625 0l0 -0.78125q0 -0.890625 -0.53125 -1.40625q-0.515625 -0.53125 -1.546875 -0.53125q-0.90625 0 -1.515625 0.46875q-0.609375 0.453125 -0.609375 1.09375l-1.703125 0q0 -0.734375 0.515625 -1.421875q0.53125 -0.6875 1.421875 -1.078125q0.90625 -0.40625 1.984375 -0.40625q1.703125 0 2.671875 0.859375q0.96875 0.84375 1.0 2.328125l0 4.53125q0 1.359375 0.34375 2.171875l0 0.140625l-1.765625 0zm-2.796875 -1.28125q0.796875 0 1.5 -0.40625q0.71875 -0.421875 1.03125 -1.078125l0 -2.015625l-1.3125 0q-3.109375 0 -3.109375 1.8125q0 0.796875 0.53125 1.25q0.53125 0.4375 1.359375 0.4375zm6.4604797 -3.734375q0 -2.296875 1.0625 -3.65625q1.0625 -1.359375 2.828125 -1.359375q1.796875 0 2.8125 1.265625l0.078125 -1.09375l1.546875 0l0 9.625q0 1.90625 -1.140625 3.0q-1.125 1.109375 -3.046875 1.109375q-1.0625 0 -2.09375 -0.453125q-1.015625 -0.453125 -1.546875 -1.25l0.875 -1.0q1.078125 1.328125 2.65625 1.328125q1.21875 0 1.90625 -0.6875q0.6875 -0.6875 0.6875 -1.953125l0 -0.84375q-1.0 1.171875 -2.75 1.171875q-1.734375 0 -2.8125 -1.390625q-1.0625 -1.40625 -1.0625 -3.8125zm1.6875 0.203125q0 1.65625 0.6875 2.609375q0.6875 0.953125 1.921875 0.953125q1.59375 0 2.328125 -1.453125l0 -4.5q-0.765625 -1.40625 -2.3125 -1.40625q-1.234375 0 -1.9375 0.953125q-0.6875 0.953125 -0.6875 2.84375zm13.263702 5.0q-2.0 0 -3.265625 -1.3125q-1.25 -1.328125 -1.25 -3.53125l0 -0.3125q0 -1.46875 0.5625 -2.609375q0.5625 -1.15625 1.5625 -1.796875q1.015625 -0.65625 2.1875 -0.65625q1.921875 0 2.984375 1.265625q1.0625 1.265625 1.0625 3.625l0 0.6875l-6.671875 0q0.03125 1.46875 0.84375 2.375q0.828125 0.890625 2.078125 0.890625q0.890625 0 1.515625 -0.359375q0.625 -0.375 1.078125 -0.96875l1.03125 0.796875q-1.234375 1.90625 -3.71875 1.90625zm-0.203125 -8.84375q-1.015625 0 -1.71875 0.75q-0.6875 0.734375 -0.84375 2.078125l4.9375 0l0 -0.125q-0.078125 -1.28125 -0.703125 -1.984375q-0.609375 -0.71875 -1.671875 -0.71875z" fill-rule="nonzero"/><path fill="#000000" fill-opacity="0.0" d="m303.68872 519.6675l180.47244 0l0 25.322815l-180.47244 0z" fill-rule="evenodd"/><path fill="#000000" d="m341.07297 540.38434q0 1.953125 -0.65625 3.40625q-0.640625 1.453125 -1.84375 2.21875q-1.203125 0.765625 -2.8125 0.765625q-1.5625 0 -2.78125 -0.765625q-1.203125 -0.78125 -1.875 -2.203125q-0.671875 -1.421875 -0.6875 -3.296875l0 -0.96875q0 -1.90625 0.65625 -3.375q0.671875 -1.46875 1.890625 -2.25q1.21875 -0.78125 2.78125 -0.78125q1.59375 0 2.8125 0.78125q1.21875 0.765625 1.859375 2.234375q0.65625 1.453125 0.65625 3.390625l0 0.84375zm-1.734375 -0.859375q0 -2.359375 -0.953125 -3.609375q-0.9375 -1.265625 -2.640625 -1.265625q-1.65625 0 -2.609375 1.265625q-0.953125 1.25 -0.984375 3.5l0 0.96875q0 2.28125 0.953125 3.59375q0.96875 1.3125 2.65625 1.3125q1.6875 0 2.609375 -1.234375q0.9375 -1.234375 0.96875 -3.546875l0 -0.984375zm5.701172 -2.796875l0.046875 1.234375q1.125 -1.40625 2.953125 -1.40625q3.125 0 3.15625 3.515625l0 6.515625l-1.6875 0l0 -6.515625q-0.015625 -1.078125 -0.5 -1.578125q-0.46875 -0.515625 -1.484375 -0.515625q-0.8125 0 -1.4375 0.4375q-0.609375 0.4375 -0.96875 1.15625l0 7.015625l-1.671875 0l0 -9.859375l1.59375 0zm10.528107 9.859375l-1.6875 0l0 -9.859375l1.6875 0l0 9.859375zm-1.828125 -12.46875q0 -0.40625 0.25 -0.6875q0.25 -0.296875 0.734375 -0.296875q0.5 0 0.75 0.296875q0.265625 0.28125 0.265625 0.6875q0 0.40625 -0.265625 0.6875q-0.25 0.265625 -0.75 0.265625q-0.484375 0 -0.734375 -0.265625q-0.25 -0.28125 -0.25 -0.6875zm4.0743103 7.453125q0 -1.453125 0.5625 -2.609375q0.578125 -1.15625 1.59375 -1.78125q1.015625 -0.625 2.3125 -0.625q2.015625 0 3.25 1.390625q1.25 1.390625 1.25 3.703125l0 0.125q0 1.4375 -0.546875 2.578125q-0.546875 1.140625 -1.578125 1.78125q-1.015625 0.640625 -2.359375 0.640625q-2.0 0 -3.25 -1.390625q-1.234375 -1.40625 -1.234375 -3.703125l0 -0.109375zm1.6875 0.203125q0 1.640625 0.765625 2.640625q0.765625 0.984375 2.03125 0.984375q1.296875 0 2.046875 -1.0q0.75 -1.015625 0.75 -2.828125q0 -1.625 -0.765625 -2.625q-0.765625 -1.015625 -2.046875 -1.015625q-1.25 0 -2.015625 1.0q-0.765625 0.984375 -0.765625 2.84375zm10.999268 -5.046875l0.046875 1.234375q1.125 -1.40625 2.953125 -1.40625q3.125 0 3.15625 3.515625l0 6.515625l-1.6875 0l0 -6.515625q-0.015625 -1.078125 -0.5 -1.578125q-0.46875 -0.515625 -1.484375 -0.515625q-0.8125 0 -1.4375 0.4375q-0.609375 0.4375 -0.96875 1.15625l0 7.015625l-1.671875 0l0 -9.859375l1.59375 0zm14.896606 0l0.046875 1.09375q1.078125 -1.265625 2.921875 -1.265625q2.0625 0 2.8125 1.578125q0.5 -0.71875 1.28125 -1.140625q0.796875 -0.4375 1.859375 -0.4375q3.25 0 3.296875 3.421875l0 6.609375l-1.671875 0l0 -6.5q0 -1.0625 -0.484375 -1.578125q-0.484375 -0.53125 -1.625 -0.53125q-0.9375 0 -1.5625 0.5625q-0.609375 0.5625 -0.71875 1.5l0 6.546875l-1.6875 0l0 -6.453125q0 -2.15625 -2.109375 -2.15625q-1.65625 0 -2.265625 1.40625l0 7.203125l-1.6875 0l0 -9.859375l1.59375 0zm18.851562 10.046875q-2.0 0 -3.265625 -1.3125q-1.25 -1.328125 -1.25 -3.53125l0 -0.3125q0 -1.46875 0.5625 -2.609375q0.5625 -1.15625 1.5625 -1.796875q1.015625 -0.65625 2.1875 -0.65625q1.921875 0 2.984375 1.265625q1.0625 1.265625 1.0625 3.625l0 0.6875l-6.671875 0q0.03125 1.46875 0.84375 2.375q0.828125 0.890625 2.078125 0.890625q0.890625 0 1.515625 -0.359375q0.625 -0.375 1.078125 -0.96875l1.03125 0.796875q-1.234375 1.90625 -3.71875 1.90625zm-0.203125 -8.84375q-1.015625 0 -1.71875 0.75q-0.6875 0.734375 -0.84375 2.078125l4.9375 0l0 -0.125q-0.078125 -1.28125 -0.703125 -1.984375q-0.609375 -0.71875 -1.671875 -0.71875zm11.743164 6.046875q0 -0.6875 -0.515625 -1.0625q-0.515625 -0.375 -1.796875 -0.640625q-1.28125 -0.28125 -2.03125 -0.65625q-0.75 -0.390625 -1.109375 -0.921875q-0.359375 -0.53125 -0.359375 -1.265625q0 -1.203125 1.015625 -2.03125q1.03125 -0.84375 2.625 -0.84375q1.671875 0 2.71875 0.859375q1.046875 0.859375 1.046875 2.21875l-1.6875 0q0 -0.703125 -0.59375 -1.203125q-0.59375 -0.5 -1.484375 -0.5q-0.921875 0 -1.4375 0.40625q-0.515625 0.390625 -0.515625 1.046875q0 0.609375 0.484375 0.921875q0.484375 0.3125 1.734375 0.59375q1.265625 0.28125 2.046875 0.671875q0.78125 0.390625 1.15625 0.9375q0.390625 0.546875 0.390625 1.34375q0 1.328125 -1.0625 2.125q-1.046875 0.796875 -2.734375 0.796875q-1.1875 0 -2.109375 -0.421875q-0.90625 -0.421875 -1.421875 -1.171875q-0.515625 -0.75 -0.515625 -1.625l1.6875 0q0.046875 0.84375 0.671875 1.34375q0.640625 0.5 1.6875 0.5q0.953125 0 1.53125 -0.390625q0.578125 -0.390625 0.578125 -1.03125zm9.619629 0q0 -0.6875 -0.515625 -1.0625q-0.515625 -0.375 -1.796875 -0.640625q-1.28125 -0.28125 -2.03125 -0.65625q-0.75 -0.390625 -1.109375 -0.921875q-0.359375 -0.53125 -0.359375 -1.265625q0 -1.203125 1.015625 -2.03125q1.03125 -0.84375 2.625 -0.84375q1.671875 0 2.71875 0.859375q1.046875 0.859375 1.046875 2.21875l-1.6875 0q0 -0.703125 -0.59375 -1.203125q-0.59375 -0.5 -1.484375 -0.5q-0.921875 0 -1.4375 0.40625q-0.515625 0.390625 -0.515625 1.046875q0 0.609375 0.484375 0.921875q0.484375 0.3125 1.734375 0.59375q1.265625 0.28125 2.046875 0.671875q0.78125 0.390625 1.15625 0.9375q0.390625 0.546875 0.390625 1.34375q0 1.328125 -1.0625 2.125q-1.046875 0.796875 -2.734375 0.796875q-1.1875 0 -2.109375 -0.421875q-0.90625 -0.421875 -1.421875 -1.171875q-0.515625 -0.75 -0.515625 -1.625l1.6875 0q0.046875 0.84375 0.671875 1.34375q0.640625 0.5 1.6875 0.5q0.953125 0 1.53125 -0.390625q0.578125 -0.390625 0.578125 -1.03125zm9.963379 2.609375q-0.140625 -0.296875 -0.234375 -1.03125q-1.171875 1.21875 -2.8125 1.21875q-1.453125 0 -2.390625 -0.828125q-0.921875 -0.828125 -0.921875 -2.09375q0 -1.53125 1.15625 -2.375q1.171875 -0.859375 3.296875 -0.859375l1.640625 0l0 -0.78125q0 -0.890625 -0.53125 -1.40625q-0.515625 -0.53125 -1.546875 -0.53125q-0.90625 0 -1.515625 0.46875q-0.609375 0.453125 -0.609375 1.09375l-1.703125 0q0 -0.734375 0.515625 -1.421875q0.53125 -0.6875 1.421875 -1.078125q0.90625 -0.40625 1.984375 -0.40625q1.703125 0 2.671875 0.859375q0.96875 0.84375 1.0 2.328125l0 4.53125q0 1.359375 0.34375 2.171875l0 0.140625l-1.765625 0zm-2.796875 -1.28125q0.796875 0 1.5 -0.40625q0.71875 -0.421875 1.03125 -1.078125l0 -2.015625l-1.3125 0q-3.109375 0 -3.109375 1.8125q0 0.796875 0.53125 1.25q0.53125 0.4375 1.359375 0.4375zm6.4604797 -3.734375q0 -2.296875 1.0625 -3.65625q1.0625 -1.359375 2.828125 -1.359375q1.796875 0 2.8125 1.265625l0.078125 -1.09375l1.546875 0l0 9.625q0 1.90625 -1.140625 3.0q-1.125 1.109375 -3.046875 1.109375q-1.0625 0 -2.09375 -0.453125q-1.015625 -0.453125 -1.546875 -1.25l0.875 -1.0q1.078125 1.328125 2.65625 1.328125q1.21875 0 1.90625 -0.6875q0.6875 -0.6875 0.6875 -1.953125l0 -0.84375q-1.0 1.171875 -2.75 1.171875q-1.734375 0 -2.8125 -1.390625q-1.0625 -1.40625 -1.0625 -3.8125zm1.6875 0.203125q0 1.65625 0.6875 2.609375q0.6875 0.953125 1.921875 0.953125q1.59375 0 2.328125 -1.453125l0 -4.5q-0.765625 -1.40625 -2.3125 -1.40625q-1.234375 0 -1.9375 0.953125q-0.6875 0.953125 -0.6875 2.84375zm13.263702 5.0q-2.0 0 -3.265625 -1.3125q-1.25 -1.328125 -1.25 -3.53125l0 -0.3125q0 -1.46875 0.5625 -2.609375q0.5625 -1.15625 1.5625 -1.796875q1.015625 -0.65625 2.1875 -0.65625q1.921875 0 2.984375 1.265625q1.0625 1.265625 1.0625 3.625l0 0.6875l-6.671875 0q0.03125 1.46875 0.84375 2.375q0.828125 0.890625 2.078125 0.890625q0.890625 0 1.515625 -0.359375q0.625 -0.375 1.078125 -0.96875l1.03125 0.796875q-1.234375 1.90625 -3.71875 1.90625zm-0.203125 -8.84375q-1.015625 0 -1.71875 0.75q-0.6875 0.734375 -0.84375 2.078125l4.9375 0l0 -0.125q-0.078125 -1.28125 -0.703125 -1.984375q-0.609375 -0.71875 -1.671875 -0.71875z" fill-rule="nonzero"/><path fill="#000000" fill-opacity="0.0" d="m303.68872 682.29l180.47244 0l0 25.322876l-180.47244 0z" fill-rule="evenodd"/><path fill="#000000" d="m343.09534 703.0069q0 1.953125 -0.65625 3.40625q-0.640625 1.453125 -1.84375 2.21875q-1.203125 0.765625 -2.8125 0.765625q-1.5625 0 -2.78125 -0.765625q-1.203125 -0.78125 -1.875 -2.203125q-0.671875 -1.421875 -0.6875 -3.296875l0 -0.96875q0 -1.90625 0.65625 -3.375q0.671875 -1.46875 1.890625 -2.25q1.21875 -0.78125 2.78125 -0.78125q1.59375 0 2.8125 0.78125q1.21875 0.765625 1.859375 2.234375q0.65625 1.453125 0.65625 3.390625l0 0.84375zm-1.734375 -0.859375q0 -2.359375 -0.953125 -3.609375q-0.9375 -1.265625 -2.640625 -1.265625q-1.65625 0 -2.609375 1.265625q-0.953125 1.25 -0.984375 3.5l0 0.96875q0 2.28125 0.953125 3.59375q0.96875 1.3125 2.65625 1.3125q1.6875 0 2.609375 -1.234375q0.9375 -1.234375 0.96875 -3.546875l0 -0.984375zm5.701172 -2.796875l0.046875 1.234375q1.125 -1.40625 2.953125 -1.40625q3.125 0 3.15625 3.515625l0 6.515625l-1.6875 0l0 -6.515625q-0.015625 -1.078125 -0.5 -1.578125q-0.46875 -0.515625 -1.484375 -0.515625q-0.8125 0 -1.4375 0.4375q-0.609375 0.4375 -0.96875 1.15625l0 7.015625l-1.671875 0l0 -9.859375l1.59375 0zm10.528107 9.859375l-1.6875 0l0 -9.859375l1.6875 0l0 9.859375zm-1.828125 -12.46875q0 -0.40625 0.25 -0.6875q0.25 -0.296875 0.734375 -0.296875q0.5 0 0.75 0.296875q0.265625 0.28125 0.265625 0.6875q0 0.40625 -0.265625 0.6875q-0.25 0.265625 -0.75 0.265625q-0.484375 0 -0.734375 -0.265625q-0.25 -0.28125 -0.25 -0.6875zm4.07428 7.453125q0 -1.453125 0.5625 -2.609375q0.578125 -1.15625 1.59375 -1.78125q1.015625 -0.625 2.3125 -0.625q2.015625 0 3.25 1.390625q1.25 1.390625 1.25 3.703125l0 0.125q0 1.4375 -0.546875 2.578125q-0.546875 1.140625 -1.578125 1.78125q-1.015625 0.640625 -2.359375 0.640625q-2.0 0 -3.25 -1.390625q-1.234375 -1.40625 -1.234375 -3.703125l0 -0.109375zm1.6875 0.203125q0 1.640625 0.765625 2.640625q0.765625 0.984375 2.03125 0.984375q1.296875 0 2.046875 -1.0q0.75 -1.015625 0.75 -2.828125q0 -1.625 -0.765625 -2.625q-0.765625 -1.015625 -2.046875 -1.015625q-1.25 0 -2.015625 1.0q-0.765625 0.984375 -0.765625 2.84375zm10.999268 -5.046875l0.046875 1.234375q1.125 -1.40625 2.953125 -1.40625q3.125 0 3.15625 3.515625l0 6.515625l-1.6875 0l0 -6.515625q-0.015625 -1.078125 -0.5 -1.578125q-0.46875 -0.515625 -1.484375 -0.515625q-0.8125 0 -1.4375 0.4375q-0.609375 0.4375 -0.96875 1.15625l0 7.015625l-1.671875 0l0 -9.859375l1.59375 0zm21.631012 5.046875q0 2.25 -1.03125 3.625q-1.015625 1.375 -2.78125 1.375q-1.796875 0 -2.828125 -1.140625l0 4.75l-1.671875 0l0 -13.65625l1.53125 0l0.078125 1.09375q1.03125 -1.265625 2.859375 -1.265625q1.78125 0 2.8125 1.34375q1.03125 1.328125 1.03125 3.71875l0 0.15625zm-1.671875 -0.203125q0 -1.65625 -0.71875 -2.625q-0.703125 -0.96875 -1.953125 -0.96875q-1.53125 0 -2.296875 1.359375l0 4.703125q0.765625 1.359375 2.328125 1.359375q1.203125 0 1.921875 -0.953125q0.71875 -0.96875 0.71875 -2.875zm9.904297 5.015625q-0.140625 -0.296875 -0.234375 -1.03125q-1.171875 1.21875 -2.8125 1.21875q-1.453125 0 -2.390625 -0.828125q-0.921875 -0.828125 -0.921875 -2.09375q0 -1.53125 1.15625 -2.375q1.171875 -0.859375 3.296875 -0.859375l1.640625 0l0 -0.78125q0 -0.890625 -0.53125 -1.40625q-0.515625 -0.53125 -1.546875 -0.53125q-0.90625 0 -1.515625 0.46875q-0.609375 0.453125 -0.609375 1.09375l-1.703125 0q0 -0.734375 0.515625 -1.421875q0.53125 -0.6875 1.421875 -1.078125q0.90625 -0.40625 1.984375 -0.40625q1.703125 0 2.671875 0.859375q0.96875 0.84375 1.0 2.328125l0 4.53125q0 1.359375 0.34375 2.171875l0 0.140625l-1.765625 0zm-2.796875 -1.28125q0.796875 0 1.5 -0.40625q0.71875 -0.421875 1.03125 -1.078125l0 -2.015625l-1.3125 0q-3.109375 0 -3.109375 1.8125q0 0.796875 0.53125 1.25q0.53125 0.4375 1.359375 0.4375zm9.948761 -1.1875l2.296875 -7.390625l1.796875 0l-3.953125 11.375q-0.921875 2.46875 -2.921875 2.46875l-0.328125 -0.03125l-0.625 -0.125l0 -1.359375l0.453125 0.03125q0.859375 0 1.328125 -0.34375q0.484375 -0.34375 0.796875 -1.265625l0.375 -1.0l-3.515625 -9.75l1.84375 0l2.453125 7.390625zm7.186493 -7.390625l0.046875 1.09375q1.078125 -1.265625 2.921875 -1.265625q2.0625 0 2.8125 1.578125q0.5 -0.71875 1.28125 -1.140625q0.796875 -0.4375 1.859375 -0.4375q3.25 0 3.296875 3.421875l0 6.609375l-1.671875 0l0 -6.5q0 -1.0625 -0.484375 -1.578125q-0.484375 -0.53125 -1.625 -0.53125q-0.9375 0 -1.5625 0.5625q-0.609375 0.5625 -0.71875 1.5l0 6.546875l-1.6875 0l0 -6.453125q0 -2.15625 -2.109375 -2.15625q-1.65625 0 -2.265625 1.40625l0 7.203125l-1.6875 0l0 -9.859375l1.59375 0zm18.851532 10.046875q-2.0 0 -3.265625 -1.3125q-1.25 -1.328125 -1.25 -3.53125l0 -0.3125q0 -1.46875 0.5625 -2.609375q0.5625 -1.15625 1.5625 -1.796875q1.015625 -0.65625 2.1875 -0.65625q1.921875 0 2.984375 1.265625q1.0625 1.265625 1.0625 3.625l0 0.6875l-6.671875 0q0.03125 1.46875 0.84375 2.375q0.828125 0.890625 2.078125 0.890625q0.890625 0 1.515625 -0.359375q0.625 -0.375 1.078125 -0.96875l1.03125 0.796875q-1.234375 1.90625 -3.71875 1.90625zm-0.203125 -8.84375q-1.015625 0 -1.71875 0.75q-0.6875 0.734375 -0.84375 2.078125l4.9375 0l0 -0.125q-0.078125 -1.28125 -0.703125 -1.984375q-0.609375 -0.71875 -1.671875 -0.71875zm7.6025696 -1.203125l0.046875 1.234375q1.125 -1.40625 2.953125 -1.40625q3.125 0 3.15625 3.515625l0 6.515625l-1.6875 0l0 -6.515625q-0.015625 -1.078125 -0.5 -1.578125q-0.46875 -0.515625 -1.484375 -0.515625q-0.8125 0 -1.4375 0.4375q-0.609375 0.4375 -0.96875 1.15625l0 7.015625l-1.671875 0l0 -9.859375l1.59375 0zm10.981232 -2.390625l0 2.390625l1.84375 0l0 1.3125l-1.84375 0l0 6.109375q0 0.59375 0.234375 0.890625q0.25 0.296875 0.84375 0.296875q0.296875 0 0.8125 -0.109375l0 1.359375q-0.671875 0.1875 -1.296875 0.1875q-1.125 0 -1.703125 -0.6875q-0.578125 -0.6875 -0.578125 -1.9375l0 -6.109375l-1.796875 0l0 -1.3125l1.796875 0l0 -2.390625l1.6875 0z" fill-rule="nonzero"/></g></svg>
