<svg fill="none" height="202" width="202" xmlns="http://www.w3.org/2000/svg" xmlns:xlink="http://www.w3.org/1999/xlink"><linearGradient id="a" gradientUnits="userSpaceOnUse" x1="126.2" x2="79.4" y1="186.688" y2="146.688"><stop offset="0" stop-color="#0d3bed"/><stop offset="1" stop-color="#711bf7"/></linearGradient><linearGradient id="b" gradientUnits="userSpaceOnUse" x1="-181.52" x2="-165.079" y1="-206.898" y2="-198.665"><stop offset="0" stop-color="#f7931a"/><stop offset="1" stop-color="#f7931a" stop-opacity="0"/></linearGradient><path d="m1 1h200m-200 33.333h200m-200 33.334h200m-200 33.333h200m-200 33.333h200m-200 33.334h200m-200 33.333h200m-200-200v200m33.333-200v200m33.334-200v200m33.333-200v200m33.333-200v200m33.334-200v200m33.333-200v200" opacity=".1" stroke="#000" stroke-width="1.333"/><path d="m100.5 101.999-67.272-33.864m1.001 66.363v-66.364m134.008 66.364v-66.364m-133.737 65.864 66.5 34m67.5-33.999-66 32.999m-1-134.5-67.5 35.636m67.5-35.636 67 35m-66 34 66-34.5m-67 34v66.5" stroke="#76f3cd" stroke-width="4"/><g fill="#0d3bed"><circle cx="168.5" cy="66.998" r="10.5"/><circle cx="34.5" cy="66.998" r="10.5"/><circle cx="34.5" cy="132.998" r="10.5"/><circle cx="168.5" cy="132.998" r="10.5"/><circle cx="101.5" cy="99.998" r="10.5"/><circle cx="101.5" cy="32.998" r="10.5"/></g><rect fill="url(#a)" height="40" rx="8.067" width="40" x="82" y="146.777"/><path d="m109.506 164.93h-5.072a.394.394 0 0 1 -.392-.487l2.78-10.868c.104-.425-.465-.672-.729-.317l-10.817 14.805c-.192.263 0 .618.337.618h5.072c.264 0 .456.24.392.488l-2.78 10.867c-.104.426.465.673.729.317l10.816-14.804c.193-.255 0-.619-.336-.619z" fill="#f7c00f"/><path d="m109.506 164.93h-5.072a.394.394 0 0 1 -.392-.487l2.78-10.868c.104-.425-.465-.672-.729-.317l-10.817 14.805c-.192.263 0 .618.337.618h5.072c.264 0 .456.24.392.488l-2.78 10.867c-.104.426.465.673.729.317l10.816-14.804c.193-.255 0-.619-.336-.619z" fill="url(#b)"/></svg>