<svg fill="none" height="202" width="202" xmlns="http://www.w3.org/2000/svg" xmlns:xlink="http://www.w3.org/1999/xlink"><linearGradient id="a" gradientUnits="userSpaceOnUse" x1="137.195" x2="68.165" y1="129.869" y2="70.869"><stop offset="0" stop-color="#0d3bed"/><stop offset="1" stop-color="#711bf7"/></linearGradient><linearGradient id="b" gradientUnits="userSpaceOnUse" x1="-316.692" x2="-292.441" y1="-450.672" y2="-438.528"><stop offset="0" stop-color="#f7931a"/><stop offset="1" stop-color="#f7931a" stop-opacity="0"/></linearGradient><path d="m1 1h200m-200 33.333h200m-200 33.334h200m-200 33.333h200m-200 33.333h200m-200 33.334h200m-200 33.333h200m-200-200v200m33.333-200v200m33.334-200v200m33.333-200v200m33.333-200v200m33.334-200v200m33.333-200v200" opacity=".1" stroke="#000" stroke-width="1.333"/><path d="m100.5 101.999-67.272-33.864m1.001 66.363v-66.364m134.008 66.364v-66.364m-133.737 65.864 66.5 34m67.5-33.999-66 32.999m-1-134.5-67.5 35.636m67.5-35.636 67 35m-66 34 66-34.5m-67 34v66.5" stroke="#76f3cd" stroke-width="4"/><g fill="#0d3bed"><circle cx="168.5" cy="66.998" r="10.5"/><circle cx="34.5" cy="66.998" r="10.5"/><circle cx="34.5" cy="132.998" r="10.5"/><circle cx="168.5" cy="132.998" r="10.5"/><circle cx="101.5" cy="167.5" r="10.5"/><circle cx="101.5" cy="32.998" r="10.5"/></g><rect fill="url(#a)" height="59" rx="11.898" width="59" x="72" y="71"/><path d="m112.571 97.775h-7.481a.582.582 0 0 1 -.579-.719l4.101-16.03c.154-.627-.686-.992-1.076-.467l-15.953 21.836c-.284.388 0 .913.496.913h7.48c.39 0 .674.354.58.719l-4.101 16.029c-.154.628.685.993 1.075.468l15.954-21.836c.284-.377 0-.913-.496-.913z" fill="#f7c00f"/><path d="m112.571 97.775h-7.481a.582.582 0 0 1 -.579-.719l4.101-16.03c.154-.627-.686-.992-1.076-.467l-15.953 21.836c-.284.388 0 .913.496.913h7.48c.39 0 .674.354.58.719l-4.101 16.029c-.154.628.685.993 1.075.468l15.954-21.836c.284-.377 0-.913-.496-.913z" fill="url(#b)"/></svg>