<svg width="202" height="202" fill="none" xmlns="http://www.w3.org/2000/svg"><g opacity=".1" stroke="#000" stroke-width="1.333"><path d="M1 1h200M1 34.333h200M1 67.667h200M1 101h200M1 134.333h200M1 167.667h200M1 201h200M1 1v200M34.333 1v200M67.667 1v200M101 1v200M134.333 1v200M167.667 1v200M201 1v200"/></g><path d="M100.5 101.777L33.228 35.413M100.5 101.777l68-67.5M100.5 101.777v67.5" stroke="#76F3CD" stroke-width="4"/><rect x="67" y="67.777" width="67.223" height="67.223" rx="8.067" fill="url(#paint0_linear)"/><path d="M113.225 98.284h-8.523c-.444 0-.767-.403-.66-.819l4.672-18.263c.176-.715-.78-1.13-1.225-.533l-18.177 24.88c-.323.442 0 1.04.565 1.04H98.4c.445 0 .768.403.66.819l-4.672 18.263c-.175.715.781 1.131 1.225.533l18.178-24.88c.323-.429 0-1.04-.566-1.04z" fill="#F7C00F"/><path d="M113.225 98.284h-8.523c-.444 0-.767-.403-.66-.819l4.672-18.263c.176-.715-.78-1.13-1.225-.533l-18.177 24.88c-.323.442 0 1.04.565 1.04H98.4c.445 0 .768.403.66.819l-4.672 18.263c-.175.715.781 1.131 1.225.533l18.178-24.88c.323-.429 0-1.04-.566-1.04z" fill="url(#paint1_linear)"/><circle cx="168.5" cy="34.277" r="10.5" fill="#0D3BED"/><circle cx="34.5" cy="34.277" r="10.5" fill="#0D3BED"/><circle cx="101.5" cy="167.277" r="10.5" fill="#0D3BED"/><defs><linearGradient id="paint0_linear" x1="141.281" y1="134.85" x2="62.63" y2="67.628" gradientUnits="userSpaceOnUse"><stop stop-color="#0D3BED"/><stop offset="1" stop-color="#711BF7"/></linearGradient><linearGradient id="paint1_linear" x1="-375.863" y1="-526.598" x2="-348.232" y2="-512.761" gradientUnits="userSpaceOnUse"><stop stop-color="#F7931A"/><stop offset="1" stop-color="#F7931A" stop-opacity="0"/></linearGradient></defs></svg>