<svg width="202" height="202" fill="none" xmlns="http://www.w3.org/2000/svg"><g opacity=".1" stroke="#000" stroke-width="1.333"><path d="M1 1h200M1 34.333h200M1 67.667h200M1 101h200M1 134.333h200M1 167.667h200M1 201h200M1 1v200M34.333 1v200M67.667 1v200M101 1v200M134.333 1v200M167.667 1v200M201 1v200"/></g><path fill-rule="evenodd" clip-rule="evenodd" d="M168.114 87.115v33.261h-.002c-.053 1.825-.991 3.626-2.81 4.652l-56.412 31.83a16.589 16.589 0 01-16.266.021l-56.771-31.844c-1.826-1.024-2.769-2.83-2.822-4.659H33v-33.26h.03c-.027-1.88.886-3.772 2.743-4.855l56.611-33.004a16.586 16.586 0 0116.745.022l56.253 32.99c1.85 1.084 2.758 2.971 2.732 4.846z" fill="url(#paint0_linear)"/><path d="M114.358 86.732l-8.086-4.367a.72.72 0 01-.202-1.121l13.869-15.08c.535-.595-.157-1.483-.887-1.138l-30.1 14.492c-.535.257-.537.995 0 1.284l8.085 4.367a.72.72 0 01.202 1.122L83.37 101.37c-.535.594.156 1.482.887 1.138l30.1-14.492c.528-.245.537-.995.001-1.285z" fill="#F7C00F"/><path d="M114.358 86.732l-8.086-4.367a.72.72 0 01-.202-1.121l13.869-15.08c.535-.595-.157-1.483-.887-1.138l-30.1 14.492c-.535.257-.537.995 0 1.284l8.085 4.367a.72.72 0 01.202 1.122L83.37 101.37c-.535.594.156 1.482.887 1.138l30.1-14.492c.528-.245.537-.995.001-1.285z" fill="url(#paint1_linear)"/><path d="M44.862 93.8l47.733 26.932a16.59 16.59 0 0016.372-.04L156.092 93.8" stroke="url(#paint2_linear)" stroke-width="5.529" stroke-linecap="round" stroke-linejoin="round"/><defs><linearGradient id="paint0_linear" x1="164.364" y1="103.523" x2="33" y2="84.682" gradientUnits="userSpaceOnUse"><stop stop-color="#0D3BED"/><stop offset="1" stop-color="#711BF7"/></linearGradient><linearGradient id="paint1_linear" x1="-26.733" y1="-761.726" x2="-7.484" y2="-734.463" gradientUnits="userSpaceOnUse"><stop stop-color="#F7931A"/><stop offset="1" stop-color="#F7931A" stop-opacity="0"/></linearGradient><linearGradient id="paint2_linear" x1="47" y1="95.5" x2="163" y2="95.5" gradientUnits="userSpaceOnUse"><stop stop-color="#0D3BED"/><stop offset="1" stop-color="#76F3CD"/></linearGradient></defs></svg>