<svg width="202" height="202" fill="none" xmlns="http://www.w3.org/2000/svg"><g opacity=".1" stroke="#000" stroke-width="1.333"><path d="M1 1h200M1 34.333h200M1 67.667h200M1 101h200M1 134.333h200M1 167.667h200M1 201h200M1 1v200M34.333 1v200M67.667 1v200M101 1v200M134.333 1v200M167.667 1v200M201 1v200"/></g><rect x="51" y="51" width="100.223" height="100.223" rx="12.027" fill="url(#paint0_linear)"/><path d="M119.917 96.483H107.21c-.662 0-1.144-.6-.984-1.22l6.966-27.23c.261-1.066-1.164-1.686-1.826-.794l-27.101 37.093c-.482.659 0 1.55.843 1.55h12.707c.663 0 1.145.601.984 1.221l-6.966 27.229c-.261 1.066 1.164 1.686 1.827.795l27.101-37.094c.481-.64 0-1.55-.844-1.55z" fill="#F7C00F"/><path d="M119.917 96.483H107.21c-.662 0-1.144-.6-.984-1.22l6.966-27.23c.261-1.066-1.164-1.686-1.826-.794l-27.101 37.093c-.482.659 0 1.55.843 1.55h12.707c.663 0 1.145.601.984 1.221l-6.966 27.229c-.261 1.066 1.164 1.686 1.827.795l27.101-37.094c.481-.64 0-1.55-.844-1.55z" fill="url(#paint1_linear)"/><defs><linearGradient id="paint0_linear" x1="161.746" y1="150.999" x2="44.486" y2="50.777" gradientUnits="userSpaceOnUse"><stop stop-color="#0D3BED"/><stop offset="1" stop-color="#711BF7"/></linearGradient><linearGradient id="paint1_linear" x1="-609.267" y1="-835.157" x2="-568.072" y2="-814.529" gradientUnits="userSpaceOnUse"><stop stop-color="#F7931A"/><stop offset="1" stop-color="#F7931A" stop-opacity="0"/></linearGradient></defs></svg>