<svg fill="none" height="216" width="214" xmlns="http://www.w3.org/2000/svg" xmlns:xlink="http://www.w3.org/1999/xlink"><linearGradient id="a"><stop offset="0" stop-color="#0d3bed"/><stop offset="1" stop-color="#711bf7"/></linearGradient><linearGradient id="b" gradientUnits="userSpaceOnUse" x1="45.05" x2="33.35" xlink:href="#a" y1="73.476" y2="63.476"/><linearGradient id="c" gradientUnits="userSpaceOnUse" x1="45.05" x2="33.35" xlink:href="#a" y1="139.476" y2="129.476"/><linearGradient id="d" gradientUnits="userSpaceOnUse" x1="179.05" x2="167.35" xlink:href="#a" y1="139.476" y2="129.476"/><linearGradient id="e" gradientUnits="userSpaceOnUse" x1="112.05" x2="100.35" xlink:href="#a" y1="173.978" y2="163.978"/><linearGradient id="f" gradientUnits="userSpaceOnUse" x1="112.05" x2="100.35" xlink:href="#a" y1="39.476" y2="29.476"/><linearGradient id="g" gradientUnits="userSpaceOnUse" x1="179.55" x2="167.85" xlink:href="#a" y1="72.978" y2="62.978"/><linearGradient id="h" gradientUnits="userSpaceOnUse" x1="128.385" x2="85.095" xlink:href="#a" y1="52.918" y2="15.918"/><linearGradient id="i"><stop offset="0" stop-color="#f7931a"/><stop offset="1" stop-color="#f7931a" stop-opacity="0"/></linearGradient><linearGradient id="j" gradientUnits="userSpaceOnUse" x1="-101.222" x2="-89.237" xlink:href="#i" y1="-237.421" y2="-231.419"/><linearGradient id="k" gradientUnits="userSpaceOnUse" x1="61.385" x2="18.095" xlink:href="#a" y1="86.918" y2="49.918"/><linearGradient id="l" gradientUnits="userSpaceOnUse" x1="-168.222" x2="-156.237" xlink:href="#i" y1="-203.421" y2="-197.419"/><linearGradient id="m" gradientUnits="userSpaceOnUse" x1="61.385" x2="18.095" xlink:href="#a" y1="150.918" y2="113.918"/><linearGradient id="n" gradientUnits="userSpaceOnUse" x1="-168.222" x2="-156.237" xlink:href="#i" y1="-139.421" y2="-133.419"/><linearGradient id="o" gradientUnits="userSpaceOnUse" x1="129.385" x2="86.095" xlink:href="#a" y1="187.918" y2="150.918"/><linearGradient id="p" gradientUnits="userSpaceOnUse" x1="-100.222" x2="-88.237" xlink:href="#i" y1="-102.421" y2="-96.419"/><linearGradient id="q" gradientUnits="userSpaceOnUse" x1="197.385" x2="154.095" xlink:href="#a" y1="153.918" y2="116.918"/><linearGradient id="r" gradientUnits="userSpaceOnUse" x1="-32.222" x2="-20.236" xlink:href="#i" y1="-136.421" y2="-130.419"/><linearGradient id="s" gradientUnits="userSpaceOnUse" x1="197.385" x2="154.095" xlink:href="#a" y1="80.918" y2="43.918"/><linearGradient id="t" gradientUnits="userSpaceOnUse" x1="-32.222" x2="-20.236" xlink:href="#i" y1="-209.421" y2="-203.419"/><linearGradient id="u" gradientUnits="userSpaceOnUse" x1="129.385" x2="86.095" xlink:href="#a" y1="119.918" y2="82.918"/><linearGradient id="v" gradientUnits="userSpaceOnUse" x1="-100.222" x2="-88.237" xlink:href="#i" y1="-170.421" y2="-164.419"/><filter id="w" color-interpolation-filters="sRGB" filterUnits="userSpaceOnUse" height="164.502" width="164.5" x="24" y="23.498"><feFlood flood-opacity="0" result="BackgroundImageFix"/><feColorMatrix in="SourceAlpha" values="0 0 0 0 0 0 0 0 0 0 0 0 0 0 0 0 0 0 127 0"/><feOffset dy="4"/><feGaussianBlur stdDeviation="5"/><feColorMatrix values="0 0 0 0 0 0 0 0 0 0 0 0 0 0 0 0 0 0 0.1 0"/><feBlend in2="BackgroundImageFix" result="effect1_dropShadow"/><feBlend in="SourceGraphic" in2="effect1_dropShadow" result="shape"/></filter><filter id="x" color-interpolation-filters="sRGB" filterUnits="userSpaceOnUse" height="77" width="77" x="67.5" y="4"><feFlood flood-opacity="0" result="BackgroundImageFix"/><feColorMatrix in="SourceAlpha" values="0 0 0 0 0 0 0 0 0 0 0 0 0 0 0 0 0 0 127 0"/><feOffset dy="8"/><feGaussianBlur stdDeviation="10"/><feColorMatrix values="0 0 0 0 0 0 0 0 0 0 0 0 0 0 0 0 0 0 0.1 0"/><feBlend in2="BackgroundImageFix" result="effect1_dropShadow"/><feBlend in="SourceGraphic" in2="effect1_dropShadow" result="shape"/></filter><filter id="y" color-interpolation-filters="sRGB" filterUnits="userSpaceOnUse" height="77" width="77" x=".5" y="38"><feFlood flood-opacity="0" result="BackgroundImageFix"/><feColorMatrix in="SourceAlpha" values="0 0 0 0 0 0 0 0 0 0 0 0 0 0 0 0 0 0 127 0"/><feOffset dy="8"/><feGaussianBlur stdDeviation="10"/><feColorMatrix values="0 0 0 0 0 0 0 0 0 0 0 0 0 0 0 0 0 0 0.1 0"/><feBlend in2="BackgroundImageFix" result="effect1_dropShadow"/><feBlend in="SourceGraphic" in2="effect1_dropShadow" result="shape"/></filter><filter id="z" color-interpolation-filters="sRGB" filterUnits="userSpaceOnUse" height="77" width="77" x=".5" y="102"><feFlood flood-opacity="0" result="BackgroundImageFix"/><feColorMatrix in="SourceAlpha" values="0 0 0 0 0 0 0 0 0 0 0 0 0 0 0 0 0 0 127 0"/><feOffset dy="8"/><feGaussianBlur stdDeviation="10"/><feColorMatrix values="0 0 0 0 0 0 0 0 0 0 0 0 0 0 0 0 0 0 0.1 0"/><feBlend in2="BackgroundImageFix" result="effect1_dropShadow"/><feBlend in="SourceGraphic" in2="effect1_dropShadow" result="shape"/></filter><filter id="A" color-interpolation-filters="sRGB" filterUnits="userSpaceOnUse" height="77" width="77" x="68.5" y="139"><feFlood flood-opacity="0" result="BackgroundImageFix"/><feColorMatrix in="SourceAlpha" values="0 0 0 0 0 0 0 0 0 0 0 0 0 0 0 0 0 0 127 0"/><feOffset dy="8"/><feGaussianBlur stdDeviation="10"/><feColorMatrix values="0 0 0 0 0 0 0 0 0 0 0 0 0 0 0 0 0 0 0.1 0"/><feBlend in2="BackgroundImageFix" result="effect1_dropShadow"/><feBlend in="SourceGraphic" in2="effect1_dropShadow" result="shape"/></filter><filter id="B" color-interpolation-filters="sRGB" filterUnits="userSpaceOnUse" height="77" width="77" x="136.5" y="105"><feFlood flood-opacity="0" result="BackgroundImageFix"/><feColorMatrix in="SourceAlpha" values="0 0 0 0 0 0 0 0 0 0 0 0 0 0 0 0 0 0 127 0"/><feOffset dy="8"/><feGaussianBlur stdDeviation="10"/><feColorMatrix values="0 0 0 0 0 0 0 0 0 0 0 0 0 0 0 0 0 0 0.1 0"/><feBlend in2="BackgroundImageFix" result="effect1_dropShadow"/><feBlend in="SourceGraphic" in2="effect1_dropShadow" result="shape"/></filter><filter id="C" color-interpolation-filters="sRGB" filterUnits="userSpaceOnUse" height="77" width="77" x="136.5" y="32"><feFlood flood-opacity="0" result="BackgroundImageFix"/><feColorMatrix in="SourceAlpha" values="0 0 0 0 0 0 0 0 0 0 0 0 0 0 0 0 0 0 127 0"/><feOffset dy="8"/><feGaussianBlur stdDeviation="10"/><feColorMatrix values="0 0 0 0 0 0 0 0 0 0 0 0 0 0 0 0 0 0 0.1 0"/><feBlend in2="BackgroundImageFix" result="effect1_dropShadow"/><feBlend in="SourceGraphic" in2="effect1_dropShadow" result="shape"/></filter><filter id="D" color-interpolation-filters="sRGB" filterUnits="userSpaceOnUse" height="77" width="77" x="68.5" y="71"><feFlood flood-opacity="0" result="BackgroundImageFix"/><feColorMatrix in="SourceAlpha" values="0 0 0 0 0 0 0 0 0 0 0 0 0 0 0 0 0 0 127 0"/><feOffset dy="8"/><feGaussianBlur stdDeviation="10"/><feColorMatrix values="0 0 0 0 0 0 0 0 0 0 0 0 0 0 0 0 0 0 0.1 0"/><feBlend in2="BackgroundImageFix" result="effect1_dropShadow"/><feBlend in="SourceGraphic" in2="effect1_dropShadow" result="shape"/></filter><path d="m6 1h200m-200 33.333h200m-200 33.334h200m-200 33.333h200m-200 33.333h200m-200 33.334h200m-200 33.333h200m-200-200v200m33.333-200v200m33.334-200v200m33.333-200v200m33.333-200v200m33.334-200v200m33.333-200v200" opacity=".1" stroke="#000" stroke-width="1.333"/><path d="m105.5 101.999-67.271-33.864m.999 66.363v-66.364m134.009 66.364v-66.364m-133.737 65.864 66.5 34m67.5-33.999-66 32.999m-1-134.5-67.5 35.636m67.5-35.636 67 35m-66 34 66-34.5m-67 34v66.5" stroke="#76f3cd" stroke-dasharray="3 5" stroke-linecap="round" stroke-linejoin="round" stroke-width="2"/><g filter="url(#w)"><circle cx="39" cy="68.498" fill="#0d3bed" r="5"/><circle cx="39" cy="68.498" fill="url(#b)" r="5"/><circle cx="39" cy="134.498" fill="#0d3bed" r="5"/><circle cx="39" cy="134.498" fill="url(#c)" r="5"/><circle cx="173" cy="134.498" fill="#0d3bed" r="5"/><circle cx="173" cy="134.498" fill="url(#d)" r="5"/><circle cx="106" cy="169" fill="#0d3bed" r="5"/><circle cx="106" cy="169" fill="url(#e)" r="5"/><circle cx="106" cy="34.498" fill="#0d3bed" r="5"/><circle cx="106" cy="34.498" fill="url(#f)" r="5"/><rect fill="#c4c4c4" height="10" rx="2" width="10" x="168.5" y="63"/><rect fill="url(#g)" height="10" rx="2" width="10" x="168.5" y="63"/></g><g filter="url(#x)"><rect fill="url(#h)" height="37" rx="8" width="37" x="87.5" y="16"/><path d="m110.928 33.633h-3.697a.288.288 0 0 1 -.286-.355l2.027-7.923c.076-.31-.339-.49-.532-.23l-7.884 10.791c-.14.192 0 .451.245.451h3.697c.193 0 .333.175.286.355l-2.026 7.923c-.076.31.338.49.531.23l7.885-10.791c.14-.186 0-.451-.246-.451z" fill="#f7c00f"/><path d="m110.928 33.633h-3.697a.288.288 0 0 1 -.286-.355l2.027-7.923c.076-.31-.339-.49-.532-.23l-7.884 10.791c-.14.192 0 .451.245.451h3.697c.193 0 .333.175.286.355l-2.026 7.923c-.076.31.338.49.531.23l7.885-10.791c.14-.186 0-.451-.246-.451z" fill="url(#j)"/></g><g filter="url(#y)"><rect fill="url(#k)" height="37" rx="8" width="37" x="20.5" y="50"/><path d="m43.928 67.633h-3.697a.288.288 0 0 1 -.286-.355l2.027-7.923c.076-.31-.339-.49-.532-.23l-7.884 10.791c-.14.192 0 .451.245.451h3.697c.193 0 .333.175.286.355l-2.026 7.923c-.076.31.338.49.531.23l7.885-10.791c.14-.186 0-.451-.245-.451z" fill="#f7c00f"/><path d="m43.928 67.633h-3.697a.288.288 0 0 1 -.286-.355l2.027-7.923c.076-.31-.339-.49-.532-.23l-7.884 10.791c-.14.192 0 .451.245.451h3.697c.193 0 .333.175.286.355l-2.026 7.923c-.076.31.338.49.531.23l7.885-10.791c.14-.186 0-.451-.245-.451z" fill="url(#l)"/></g><g filter="url(#z)"><rect fill="url(#m)" height="37" rx="8" width="37" x="20.5" y="114"/><path d="m43.928 131.633h-3.697a.288.288 0 0 1 -.286-.356l2.027-7.922c.076-.31-.339-.49-.532-.231l-7.884 10.792c-.14.192 0 .451.245.451h3.697c.193 0 .333.175.286.356l-2.026 7.922c-.076.31.338.49.531.231l7.885-10.792c.14-.186 0-.451-.245-.451z" fill="#f7c00f"/><path d="m43.928 131.633h-3.697a.288.288 0 0 1 -.286-.356l2.027-7.922c.076-.31-.339-.49-.532-.231l-7.884 10.792c-.14.192 0 .451.245.451h3.697c.193 0 .333.175.286.356l-2.026 7.922c-.076.31.338.49.531.231l7.885-10.792c.14-.186 0-.451-.245-.451z" fill="url(#n)"/></g><g filter="url(#A)"><rect fill="url(#o)" height="37" rx="8" width="37" x="88.5" y="151"/><path d="m111.928 168.633h-3.697a.289.289 0 0 1 -.286-.356l2.027-7.922c.076-.31-.339-.49-.532-.231l-7.884 10.792c-.14.192 0 .451.245.451h3.697c.193 0 .333.175.286.356l-2.026 7.922c-.076.31.338.49.531.231l7.885-10.792c.14-.186 0-.451-.246-.451z" fill="#f7c00f"/><path d="m111.928 168.633h-3.697a.289.289 0 0 1 -.286-.356l2.027-7.922c.076-.31-.339-.49-.532-.231l-7.884 10.792c-.14.192 0 .451.245.451h3.697c.193 0 .333.175.286.356l-2.026 7.922c-.076.31.338.49.531.231l7.885-10.792c.14-.186 0-.451-.246-.451z" fill="url(#p)"/></g><g filter="url(#B)"><rect fill="url(#q)" height="37" rx="8" width="37" x="156.5" y="117"/><path d="m179.928 134.633h-3.697a.289.289 0 0 1 -.286-.356l2.027-7.922c.076-.31-.339-.49-.532-.231l-7.884 10.792c-.14.192 0 .451.245.451h3.697c.193 0 .333.175.286.356l-2.026 7.922c-.076.31.338.49.531.231l7.885-10.792c.14-.186 0-.451-.246-.451z" fill="#f7c00f"/><path d="m179.928 134.633h-3.697a.289.289 0 0 1 -.286-.356l2.027-7.922c.076-.31-.339-.49-.532-.231l-7.884 10.792c-.14.192 0 .451.245.451h3.697c.193 0 .333.175.286.356l-2.026 7.922c-.076.31.338.49.531.231l7.885-10.792c.14-.186 0-.451-.246-.451z" fill="url(#r)"/></g><g filter="url(#C)"><rect fill="url(#s)" height="37" rx="8" width="37" x="156.5" y="44"/><path d="m179.928 61.633h-3.697a.288.288 0 0 1 -.286-.355l2.027-7.923c.076-.31-.339-.49-.532-.23l-7.884 10.791c-.14.192 0 .451.245.451h3.697c.193 0 .333.175.286.355l-2.026 7.923c-.076.31.338.49.531.23l7.885-10.791c.14-.186 0-.451-.246-.451z" fill="#f7c00f"/><path d="m179.928 61.633h-3.697a.288.288 0 0 1 -.286-.355l2.027-7.923c.076-.31-.339-.49-.532-.23l-7.884 10.791c-.14.192 0 .451.245.451h3.697c.193 0 .333.175.286.355l-2.026 7.923c-.076.31.338.49.531.23l7.885-10.791c.14-.186 0-.451-.246-.451z" fill="url(#t)"/></g><g filter="url(#D)"><rect fill="url(#u)" height="37" rx="8" width="37" x="88.5" y="83"/><path d="m111.928 100.633h-3.697a.289.289 0 0 1 -.286-.356l2.027-7.922c.076-.31-.339-.49-.532-.23l-7.884 10.791c-.14.192 0 .451.245.451h3.697c.193 0 .333.175.286.356l-2.026 7.922c-.076.31.338.49.531.231l7.885-10.792c.14-.186 0-.451-.246-.451z" fill="#f7c00f"/><path d="m111.928 100.633h-3.697a.289.289 0 0 1 -.286-.356l2.027-7.922c.076-.31-.339-.49-.532-.23l-7.884 10.791c-.14.192 0 .451.245.451h3.697c.193 0 .333.175.286.356l-2.026 7.922c-.076.31.338.49.531.231l7.885-10.792c.14-.186 0-.451-.246-.451z" fill="url(#v)"/></g></svg>