<svg fill="none" height="202" viewBox="0 0 209 202" width="209" xmlns="http://www.w3.org/2000/svg" xmlns:xlink="http://www.w3.org/1999/xlink"><filter id="a" color-interpolation-filters="sRGB" filterUnits="userSpaceOnUse" height="175.653" width="175.653" x=".130856" y="9.79687"><feFlood flood-opacity="0" result="BackgroundImageFix"/><feColorMatrix in="SourceAlpha" result="hardAlpha" type="matrix" values="0 0 0 0 0 0 0 0 0 0 0 0 0 0 0 0 0 0 127 0"/><feOffset dy="8"/><feGaussianBlur stdDeviation="20"/><feColorMatrix type="matrix" values="0 0 0 0 0 0 0 0 0 0 0 0 0 0 0 0 0 0 0.15 0"/><feBlend in2="BackgroundImageFix" mode="normal" result="effect1_dropShadow"/><feBlend in="SourceGraphic" in2="effect1_dropShadow" mode="normal" result="shape"/></filter><filter id="b" color-interpolation-filters="sRGB" filterUnits="userSpaceOnUse" height="121.325" width="121.325" x="87.5163" y="80.581"><feFlood flood-opacity="0" result="BackgroundImageFix"/><feColorMatrix in="SourceAlpha" result="hardAlpha" type="matrix" values="0 0 0 0 0 0 0 0 0 0 0 0 0 0 0 0 0 0 127 0"/><feOffset dy="6.06667"/><feGaussianBlur stdDeviation="15.1667"/><feColorMatrix type="matrix" values="0 0 0 0 0 0 0 0 0 0 0 0 0 0 0 0 0 0 0.15 0"/><feBlend in2="BackgroundImageFix" mode="normal" result="effect1_dropShadow"/><feBlend in="SourceGraphic" in2="effect1_dropShadow" mode="normal" result="shape"/></filter><linearGradient id="c"><stop offset="0" stop-color="#0f31f7"/><stop offset="1" stop-color="#76f3cd"/></linearGradient><linearGradient id="d" gradientUnits="userSpaceOnUse" x1="120.34" x2="5.3317" xlink:href="#c" y1="123.04" y2="49.3436"/><linearGradient id="e"><stop offset="0" stop-color="#fff200"/><stop offset="1" stop-color="#d6ce00"/></linearGradient><linearGradient id="f" gradientUnits="userSpaceOnUse" x1="76.5403" x2="98.9394" xlink:href="#e" y1="80.1172" y2="101.025"/><linearGradient id="g" gradientUnits="userSpaceOnUse" x1="197.334" x2="122.834" xlink:href="#e" y1="159.5" y2="116"/><linearGradient id="h" gradientUnits="userSpaceOnUse" x1="154.718" x2="127.551" xlink:href="#c" y1="139.651" y2="125.943"/><g stroke="#808080" stroke-opacity=".4" stroke-width="1.33333"><path d="m6 1h200"/><path d="m6 34.334h200"/><path d="m6 67.666h200"/><path d="m6 101h200"/><path d="m6 134.334h200"/><path d="m6 167.666h200"/><path d="m6 201h200"/><path d="m6 1v200"/><path d="m39.334 1v200"/><path d="m72.666 1v200"/><path d="m106 1v200"/><path d="m139.334 1v200"/><path d="m172.666 1v200"/><path d="m206 1v200"/></g><g filter="url(#a)"><path clip-rule="evenodd" d="m102.886 43.9989 2.212 13.9569c2.084 1.1267 4.031 2.4477 5.823 3.9343l13.772-3.164c2.371 2.8222 4.412 5.9091 6.08 9.1954l-8.304 11.4335c.666 2.2309 1.119 4.5397 1.339 6.8978l11.975 7.5007c-.158 1.8128-.422 3.6355-.794 5.4612-.373 1.8263-.844 3.6073-1.408 5.3393l-13.957 2.212c-1.126 2.083-2.447 4.03-3.933 5.821l3.164 13.772c-2.823 2.371-5.91 4.412-9.197 6.08l-11.4324-8.303c-2.2305.665-4.5389 1.118-6.8964 1.339l-7.5005 11.975c-1.8135-.159-3.6369-.423-5.4633-.795-1.8263-.372-3.607-.844-5.3377-1.408l-2.2123-13.955c-2.0828-1.127-4.0296-2.447-5.8213-3.934l-13.7715 3.164c-2.3709-2.822-4.4123-5.909-6.081-9.196l8.3039-11.4325c-.6659-2.2308-1.1188-4.5395-1.3398-6.8974l-11.9753-7.5009c.1588-1.8137.4222-3.6372.7947-5.4638.3723-1.8257.8437-3.6058 1.4074-5.336l13.9562-2.2124c1.1266-2.0834 2.4475-4.0306 3.934-5.8227l-3.164-13.7724c2.822-2.3705 5.9087-4.4116 9.1949-6.0801l11.4335 8.3045c2.2312-.6661 4.5403-1.1191 6.8987-1.34l7.5012-11.9758c1.813.1589 3.6358.4222 5.4617.7946 1.8261.3724 3.6063.8439 5.3373 1.4078z" fill="url(#d)" fill-rule="evenodd"/></g><circle cx="87.9579" cy="89.6226" fill="url(#f)" r="15" transform="matrix(.97983134 .19982627 -.19982627 .97983134 19.682943 -15.768732)"/><g filter="url(#b)"><path clip-rule="evenodd" d="m147.529 104.847 4.241 7.859c1.478.236 2.915.616 4.295 1.127l7.55-4.769c2.004 1.186 3.867 2.6 5.55 4.21l-2.558 8.556c.864 1.191 1.617 2.473 2.242 3.832l8.711 1.966c.285 1.114.509 2.256.669 3.423.161 1.167.252 2.328.278 3.478l-7.858 4.24c-.236 1.478-.616 2.916-1.127 4.295l4.769 7.55c-1.187 2.004-2.601 3.867-4.211 5.55l-8.555-2.558c-1.191.864-2.473 1.617-3.832 2.243l-1.966 8.709c-1.115.285-2.257.51-3.424.67s-2.327.252-3.477.278l-4.24-7.858c-1.478-.236-2.916-.616-4.296-1.127l-7.548 4.769c-2.005-1.187-3.868-2.601-5.551-4.211l2.558-8.555c-.864-1.191-1.617-2.472-2.243-3.832l-8.71-1.966c-.285-1.115-.509-2.257-.67-3.424-.16-1.167-.251-2.327-.277-3.477l7.858-4.24c.236-1.478.616-2.916 1.127-4.295l-4.769-7.55c1.186-2.004 2.599-3.867 4.21-5.55l8.556 2.558c1.19-.864 2.472-1.617 3.832-2.242l1.966-8.712c1.115-.285 2.257-.509 3.423-.669 1.167-.16 2.327-.252 3.477-.278z" fill="url(#g)" fill-rule="evenodd"/></g><circle cx="148.178" cy="135.177" fill="url(#h)" r="11.375" transform="matrix(.99070843 -.13600296 .13600296 .99070843 -17.007666 21.408652)"/></svg>