<svg width="209" height="202" fill="none" xmlns="http://www.w3.org/2000/svg"><g opacity=".1" stroke="#000" stroke-width="1.333"><path d="M6 1.07h200M6 34.402h200M6 67.736h200M6 101.069h200M6 134.402h200M6 167.736h200M6 201.069h200M6 1.07v199.999M39.333 1.07v199.999M72.667 1.07v199.999M106 1.07v199.999M139.333 1.07v199.999M172.667 1.07v199.999M206 1.07v199.999"/></g><g filter="url(#filter0_d)" fill-rule="evenodd" clip-rule="evenodd"><path d="M102.886 44.068l2.212 13.957a35.755 35.755 0 015.823 3.934l13.772-3.164a48.242 48.242 0 016.08 9.196l-8.304 11.433a35.858 35.858 0 011.339 6.898l11.975 7.5a48.625 48.625 0 01-2.203 10.801l-13.956 2.212a35.763 35.763 0 01-3.933 5.822l3.164 13.771a48.312 48.312 0 01-9.197 6.081l-11.433-8.304a35.768 35.768 0 01-6.896 1.339l-7.5 11.975a48.438 48.438 0 01-5.464-.795 48.4 48.4 0 01-5.337-1.408l-2.213-13.955a35.813 35.813 0 01-5.821-3.933l-13.772 3.164a48.302 48.302 0 01-6.08-9.197l8.303-11.432a35.769 35.769 0 01-1.34-6.897L40.13 85.564a48.54 48.54 0 012.202-10.8l13.956-2.213a35.776 35.776 0 013.934-5.822l-3.164-13.773a48.29 48.29 0 019.195-6.08l11.434 8.305a35.774 35.774 0 016.899-1.34l7.5-11.976a48.523 48.523 0 0110.8 2.202z" fill="#0F31F7"/><path d="M102.886 44.068l2.212 13.957a35.755 35.755 0 015.823 3.934l13.772-3.164a48.242 48.242 0 016.08 9.196l-8.304 11.433a35.858 35.858 0 011.339 6.898l11.975 7.5a48.625 48.625 0 01-2.203 10.801l-13.956 2.212a35.763 35.763 0 01-3.933 5.822l3.164 13.771a48.312 48.312 0 01-9.197 6.081l-11.433-8.304a35.768 35.768 0 01-6.896 1.339l-7.5 11.975a48.438 48.438 0 01-5.464-.795 48.4 48.4 0 01-5.337-1.408l-2.213-13.955a35.813 35.813 0 01-5.821-3.933l-13.772 3.164a48.302 48.302 0 01-6.08-9.197l8.303-11.432a35.769 35.769 0 01-1.34-6.897L40.13 85.564a48.54 48.54 0 012.202-10.8l13.956-2.213a35.776 35.776 0 013.934-5.822l-3.164-13.773a48.29 48.29 0 019.195-6.08l11.434 8.305a35.774 35.774 0 016.899-1.34l7.5-11.976a48.523 48.523 0 0110.8 2.202z" fill="url(#paint0_linear)"/></g><circle cx="87.957" cy="89.692" r="15" transform="rotate(11.527 87.957 89.692)" fill="#F7C00F"/><circle cx="87.957" cy="89.692" r="15" transform="rotate(11.527 87.957 89.692)" fill="url(#paint1_linear)"/><g filter="url(#filter1_d)" fill-rule="evenodd" clip-rule="evenodd"><path d="M147.528 104.917l4.241 7.86a22.65 22.65 0 014.295 1.127l7.55-4.77a30.482 30.482 0 015.55 4.21l-2.558 8.556a22.593 22.593 0 012.242 3.833l8.711 1.966c.285 1.114.509 2.256.669 3.422.161 1.167.252 2.328.278 3.478l-7.858 4.241a22.65 22.65 0 01-1.127 4.295l4.769 7.549a30.532 30.532 0 01-4.211 5.55l-8.555-2.558a22.627 22.627 0 01-3.832 2.243l-1.966 8.709a30.61 30.61 0 01-6.901.948l-4.24-7.858a22.66 22.66 0 01-4.296-1.127l-7.548 4.769a30.494 30.494 0 01-5.551-4.211l2.558-8.554a22.664 22.664 0 01-2.243-3.833l-8.71-1.966a30.793 30.793 0 01-.947-6.9l7.858-4.241a22.65 22.65 0 011.127-4.295l-4.769-7.55a30.47 30.47 0 014.21-5.55l8.556 2.559a22.588 22.588 0 013.832-2.243l1.966-8.711a30.637 30.637 0 016.9-.948z" fill="#F7C00F"/><path d="M147.528 104.917l4.241 7.86a22.65 22.65 0 014.295 1.127l7.55-4.77a30.482 30.482 0 015.55 4.21l-2.558 8.556a22.593 22.593 0 012.242 3.833l8.711 1.966c.285 1.114.509 2.256.669 3.422.161 1.167.252 2.328.278 3.478l-7.858 4.241a22.65 22.65 0 01-1.127 4.295l4.769 7.549a30.532 30.532 0 01-4.211 5.55l-8.555-2.558a22.627 22.627 0 01-3.832 2.243l-1.966 8.709a30.61 30.61 0 01-6.901.948l-4.24-7.858a22.66 22.66 0 01-4.296-1.127l-7.548 4.769a30.494 30.494 0 01-5.551-4.211l2.558-8.554a22.664 22.664 0 01-2.243-3.833l-8.71-1.966a30.793 30.793 0 01-.947-6.9l7.858-4.241a22.65 22.65 0 011.127-4.295l-4.769-7.55a30.47 30.47 0 014.21-5.55l8.556 2.559a22.588 22.588 0 013.832-2.243l1.966-8.711a30.637 30.637 0 016.9-.948z" fill="url(#paint2_linear)" fill-opacity=".5"/></g><circle cx="148.177" cy="135.246" r="11.375" transform="rotate(-7.817 148.177 135.246)" fill="#711BF7"/><defs><linearGradient id="paint0_linear" x1="59.63" y1="53.558" x2="109.554" y2="130.982" gradientUnits="userSpaceOnUse"><stop stop-color="#711BF7"/><stop offset="1" stop-color="#711BF7" stop-opacity="0"/></linearGradient><linearGradient id="paint1_linear" x1="76.539" y1="80.186" x2="98.938" y2="101.094" gradientUnits="userSpaceOnUse"><stop stop-color="#F7931A"/><stop offset="1" stop-color="#F7931A" stop-opacity="0"/></linearGradient><linearGradient id="paint2_linear" x1="166.672" y1="157.909" x2="126.404" y2="114.765" gradientUnits="userSpaceOnUse"><stop stop-color="#fff"/><stop offset="1" stop-color="#fff" stop-opacity="0"/></linearGradient><filter id="filter0_d" x=".13" y="9.866" width="175.653" height="175.653" filterUnits="userSpaceOnUse" color-interpolation-filters="sRGB"><feFlood flood-opacity="0" result="BackgroundImageFix"/><feColorMatrix in="SourceAlpha" values="0 0 0 0 0 0 0 0 0 0 0 0 0 0 0 0 0 0 127 0"/><feOffset dy="8"/><feGaussianBlur stdDeviation="20"/><feColorMatrix values="0 0 0 0 0 0 0 0 0 0 0 0 0 0 0 0 0 0 0.15 0"/><feBlend in2="BackgroundImageFix" result="effect1_dropShadow"/><feBlend in="SourceGraphic" in2="effect1_dropShadow" result="shape"/></filter><filter id="filter1_d" x="87.514" y="80.65" width="121.325" height="121.325" filterUnits="userSpaceOnUse" color-interpolation-filters="sRGB"><feFlood flood-opacity="0" result="BackgroundImageFix"/><feColorMatrix in="SourceAlpha" values="0 0 0 0 0 0 0 0 0 0 0 0 0 0 0 0 0 0 127 0"/><feOffset dy="6.067"/><feGaussianBlur stdDeviation="15.167"/><feColorMatrix values="0 0 0 0 0 0 0 0 0 0 0 0 0 0 0 0 0 0 0.15 0"/><feBlend in2="BackgroundImageFix" result="effect1_dropShadow"/><feBlend in="SourceGraphic" in2="effect1_dropShadow" result="shape"/></filter></defs></svg>