<svg fill="none" height="202" viewBox="0 0 212 202" width="212" xmlns="http://www.w3.org/2000/svg" xmlns:xlink="http://www.w3.org/1999/xlink"><filter id="a" color-interpolation-filters="sRGB" filterUnits="userSpaceOnUse" height="166.667" width="200" x=".666664" y="19.6673"><feFlood flood-opacity="0" result="BackgroundImageFix"/><feColorMatrix in="SourceAlpha" result="hardAlpha" type="matrix" values="0 0 0 0 0 0 0 0 0 0 0 0 0 0 0 0 0 0 127 0"/><feOffset dy="6.66667"/><feGaussianBlur stdDeviation="16.6667"/><feColorMatrix type="matrix" values="0 0 0 0 0 0 0 0 0 0 0 0 0 0 0 0 0 0 0.15 0"/><feBlend in2="BackgroundImageFix" mode="normal" result="effect1_dropShadow"/><feBlend in="SourceGraphic" in2="effect1_dropShadow" mode="normal" result="shape"/></filter><filter id="b" color-interpolation-filters="sRGB" filterUnits="userSpaceOnUse" height="146.667" width="106.667" x="104.667" y="51.6673"><feFlood flood-opacity="0" result="BackgroundImageFix"/><feColorMatrix in="SourceAlpha" result="hardAlpha" type="matrix" values="0 0 0 0 0 0 0 0 0 0 0 0 0 0 0 0 0 0 127 0"/><feOffset dy="6.66667"/><feGaussianBlur stdDeviation="16.6667"/><feColorMatrix type="matrix" values="0 0 0 0 0 0 0 0 0 0 0 0 0 0 0 0 0 0 0.15 0"/><feBlend in2="BackgroundImageFix" mode="normal" result="effect1_dropShadow"/><feBlend in="SourceGraphic" in2="effect1_dropShadow" mode="normal" result="shape"/></filter><linearGradient id="c" gradientUnits="userSpaceOnUse" x1="139" x2="23.5" y1="116" y2="56.5"><stop offset="0" stop-color="#0f31f7"/><stop offset="1" stop-color="#76f3cd"/></linearGradient><linearGradient id="d"><stop offset="0" stop-color="#fff200"/><stop offset="1" stop-color="#d6ce00"/></linearGradient><linearGradient id="e" gradientUnits="userSpaceOnUse" x1="80.3687" x2="103.436" xlink:href="#d" y1="80.4391" y2="114.888"/><linearGradient id="f" gradientUnits="userSpaceOnUse" x1="142.777" x2="188.667" xlink:href="#d" y1="92.9862" y2="114.404"/><g stroke="#808080" stroke-opacity=".4" stroke-width="1.33333"><path d="m6 1h200"/><path d="m6 34.334h200"/><path d="m6 67.666h200"/><path d="m6 101h200"/><path d="m6 134.334h200"/><path d="m6 167.666h200"/><path d="m6 201h200"/><path d="m6 1v200"/><path d="m39.334 1v200"/><path d="m72.666 1v200"/><path d="m106 1v200"/><path d="m139.334 1v200"/><path d="m172.666 1v200"/><path d="m206 1v200"/></g><g filter="url(#a)"><rect fill="url(#c)" height="100" rx="8" width="133.333" x="34" y="46.334"/></g><path d="m34 59.668h133.333" stroke="#fff" stroke-width="2.66667"/><path clip-rule="evenodd" d="m74 77.6673c0-1.8409 1.4924-3.3333 3.3333-3.3333h46.6667c1.841 0 3.333 1.4924 3.333 3.3333 0 1.841-1.492 3.3334-3.333 3.3334h-46.6667c-1.8409 0-3.3333-1.4924-3.3333-3.3334zm0 8.667c0-.7364.597-1.3333 1.3333-1.3333h50.6667c.736 0 1.333.5969 1.333 1.3333s-.597 1.3333-1.333 1.3333h-50.6667c-.7363 0-1.3333-.5969-1.3333-1.3333zm1.3333 5.3333c-.7363 0-1.3333.597-1.3333 1.3334s.597 1.3333 1.3333 1.3333h50.6667c.736 0 1.333-.5969 1.333-1.3333s-.597-1.3334-1.333-1.3334zm-1.3333 8c0-.7363.597-1.3333 1.3333-1.3333h50.6667c.736 0 1.333.597 1.333 1.3333 0 .7364-.597 1.3334-1.333 1.3334h-50.6667c-.7363 0-1.3333-.597-1.3333-1.3334zm1.3333 5.3334c-.7363 0-1.3333.597-1.3333 1.333 0 .737.597 1.334 1.3333 1.334h50.6667c.736 0 1.333-.597 1.333-1.334 0-.736-.597-1.333-1.333-1.333z" fill="url(#e)" fill-rule="evenodd"/><g filter="url(#b)"><rect fill="url(#f)" height="80" rx="8" width="40" x="138" y="78.334"/></g><rect fill="#fff" height="2.66667" rx="1.33333" width="21.3333" x="147.334" y="149"/><path clip-rule="evenodd" d="m146 96.3333c0-1.8409 1.492-3.3333 3.333-3.3333h17.334c1.841 0 3.333 1.4924 3.333 3.3333 0 1.841-1.492 3.3334-3.333 3.3334h-17.334c-1.841 0-3.333-1.4924-3.333-3.3334zm0 8.6667c0-.736.597-1.333 1.333-1.333h21.334c.736 0 1.333.597 1.333 1.333s-.597 1.333-1.333 1.333h-21.334c-.736 0-1.333-.597-1.333-1.333zm1.333 5.333c-.736 0-1.333.597-1.333 1.334 0 .736.597 1.333 1.333 1.333h21.334c.736 0 1.333-.597 1.333-1.333 0-.737-.597-1.334-1.333-1.334zm-1.333 8c0-.736.597-1.333 1.333-1.333h21.334c.736 0 1.333.597 1.333 1.333 0 .737-.597 1.334-1.333 1.334h-21.334c-.736 0-1.333-.597-1.333-1.334zm1.333 5.334c-.736 0-1.333.597-1.333 1.333s.597 1.333 1.333 1.333h21.334c.736 0 1.333-.597 1.333-1.333s-.597-1.333-1.333-1.333z" fill="#fff" fill-rule="evenodd"/></svg>