<svg width="212" height="202" fill="none" xmlns="http://www.w3.org/2000/svg"><g opacity=".1" stroke="#000" stroke-width="1.333"><path d="M6 1.07h200M6 34.402h200M6 67.736h200M6 101.069h200M6 134.402h200M6 167.736h200M6 201.069h200M6 1.07v199.999M39.333 1.07v199.999M72.667 1.07v199.999M106 1.07v199.999M139.333 1.07v199.999M172.667 1.07v199.999M206 1.07v199.999"/></g><g filter="url(#filter0_d)"><rect x="34" y="46.402" width="133.333" height="100" rx="8" fill="#fff"/><rect x="34" y="46.402" width="133.333" height="100" rx="8" fill="#0F31F7"/><rect x="34" y="46.402" width="133.333" height="100" rx="8" fill="url(#paint0_linear)"/></g><path d="M34 59.736h133.333" stroke="#fff" stroke-width="2.667"/><path fill-rule="evenodd" clip-rule="evenodd" d="M74 77.736a3.333 3.333 0 013.333-3.334H124a3.333 3.333 0 010 6.667H77.333A3.333 3.333 0 0174 77.736zm0 8.667c0-.737.597-1.334 1.333-1.334H126a1.333 1.333 0 010 2.667H75.333A1.333 1.333 0 0174 86.403zm1.333 5.333a1.333 1.333 0 000 2.667H126a1.333 1.333 0 000-2.667H75.333zm-1.333 8c0-.736.597-1.333 1.333-1.333H126a1.333 1.333 0 010 2.666H75.333A1.333 1.333 0 0174 99.736zm1.333 5.333a1.334 1.334 0 000 2.667H126a1.333 1.333 0 000-2.667H75.333z" fill="#F7C00F"/><path fill-rule="evenodd" clip-rule="evenodd" d="M74 77.736a3.333 3.333 0 013.333-3.334H124a3.333 3.333 0 010 6.667H77.333A3.333 3.333 0 0174 77.736zm0 8.667c0-.737.597-1.334 1.333-1.334H126a1.333 1.333 0 010 2.667H75.333A1.333 1.333 0 0174 86.403zm1.333 5.333a1.333 1.333 0 000 2.667H126a1.333 1.333 0 000-2.667H75.333zm-1.333 8c0-.736.597-1.333 1.333-1.333H126a1.333 1.333 0 010 2.666H75.333A1.333 1.333 0 0174 99.736zm1.333 5.333a1.334 1.334 0 000 2.667H126a1.333 1.333 0 000-2.667H75.333z" fill="url(#paint1_linear)"/><g filter="url(#filter1_d)"><rect x="138" y="78.402" width="40" height="80" rx="8" fill="#F7C00F"/></g><rect x="147.333" y="149.069" width="21.333" height="2.667" rx="1.333" fill="#fff"/><path fill-rule="evenodd" clip-rule="evenodd" d="M146 96.403a3.333 3.333 0 013.333-3.334h17.334a3.333 3.333 0 010 6.667h-17.334A3.333 3.333 0 01146 96.403zm0 8.666c0-.736.597-1.333 1.333-1.333h21.334a1.333 1.333 0 010 2.667h-21.334a1.333 1.333 0 01-1.333-1.334zm1.333 5.334a1.333 1.333 0 000 2.666h21.334a1.333 1.333 0 000-2.666h-21.334zm-1.333 8c0-.737.597-1.334 1.333-1.334h21.334a1.333 1.333 0 010 2.667h-21.334a1.333 1.333 0 01-1.333-1.333zm1.333 5.333a1.333 1.333 0 000 2.667h21.334a1.333 1.333 0 000-2.667h-21.334z" fill="#711BF7"/><defs><linearGradient id="paint0_linear" x1="65.759" y1="74.137" x2="111.732" y2="136.861" gradientUnits="userSpaceOnUse"><stop stop-color="#711BF7"/><stop offset="1" stop-color="#711BF7" stop-opacity="0"/></linearGradient><linearGradient id="paint1_linear" x1="80.369" y1="80.507" x2="103.436" y2="114.957" gradientUnits="userSpaceOnUse"><stop stop-color="#F7931A"/><stop offset="1" stop-color="#F7931A" stop-opacity="0"/></linearGradient><filter id="filter0_d" x=".667" y="19.736" width="200" height="166.667" filterUnits="userSpaceOnUse" color-interpolation-filters="sRGB"><feFlood flood-opacity="0" result="BackgroundImageFix"/><feColorMatrix in="SourceAlpha" values="0 0 0 0 0 0 0 0 0 0 0 0 0 0 0 0 0 0 127 0"/><feOffset dy="6.667"/><feGaussianBlur stdDeviation="16.667"/><feColorMatrix values="0 0 0 0 0 0 0 0 0 0 0 0 0 0 0 0 0 0 0.15 0"/><feBlend in2="BackgroundImageFix" result="effect1_dropShadow"/><feBlend in="SourceGraphic" in2="effect1_dropShadow" result="shape"/></filter><filter id="filter1_d" x="104.667" y="51.736" width="106.667" height="146.667" filterUnits="userSpaceOnUse" color-interpolation-filters="sRGB"><feFlood flood-opacity="0" result="BackgroundImageFix"/><feColorMatrix in="SourceAlpha" values="0 0 0 0 0 0 0 0 0 0 0 0 0 0 0 0 0 0 127 0"/><feOffset dy="6.667"/><feGaussianBlur stdDeviation="16.667"/><feColorMatrix values="0 0 0 0 0 0 0 0 0 0 0 0 0 0 0 0 0 0 0.15 0"/><feBlend in2="BackgroundImageFix" result="effect1_dropShadow"/><feBlend in="SourceGraphic" in2="effect1_dropShadow" result="shape"/></filter></defs></svg>