<svg width="202" height="215" fill="none" xmlns="http://www.w3.org/2000/svg"><g opacity=".1" stroke="#000" stroke-width="1.333"><path d="M1 1.07h200M1 34.402h200M1 67.736h200M1 101.069h200M1 134.402h200M1 167.736h200M1 201.069h200M1 1.07v199.999M34.333 1.07v199.999M67.667 1.07v199.999M101 1.07v199.999M134.333 1.07v199.999M167.667 1.07v199.999M201 1.07v199.999"/></g><g filter="url(#filter0_d)"><rect x="66.333" y="27.736" width="69.333" height="146.667" rx="8" fill="#fff"/><rect x="66.333" y="27.736" width="69.333" height="146.667" rx="8" fill="#0F31F7"/><rect x="66.333" y="27.736" width="69.333" height="146.667" rx="8" fill="url(#paint0_linear)"/></g><rect x="87.667" y="165.069" width="26.667" height="2.667" rx="1.333" fill="#0F31F7"/><path d="M119.24 96.008h-12.679c-.661 0-1.142-.6-.982-1.218l6.95-27.169c.261-1.063-1.161-1.682-1.822-.792l-27.04 37.01c-.481.658 0 1.547.84 1.547h12.68c.66 0 1.141.6.98 1.219l-6.95 27.168c-.26 1.063 1.162 1.682 1.823.793l27.041-37.011c.48-.638 0-1.547-.841-1.547z" fill="#F7C00F"/><path d="M119.24 96.008h-12.679c-.661 0-1.142-.6-.982-1.218l6.95-27.169c.261-1.063-1.161-1.682-1.822-.792l-27.04 37.01c-.481.658 0 1.547.84 1.547h12.68c.66 0 1.141.6.98 1.219l-6.95 27.168c-.26 1.063 1.162 1.682 1.823.793l27.041-37.011c.48-.638 0-1.547-.841-1.547z" fill="url(#paint1_linear)"/><defs><linearGradient id="paint0_linear" x1="82.848" y1="68.414" x2="138.283" y2="95.23" gradientUnits="userSpaceOnUse"><stop stop-color="#711BF7"/><stop offset="1" stop-color="#711BF7" stop-opacity="0"/></linearGradient><linearGradient id="paint1_linear" x1="87.869" y1="78.965" x2="128.973" y2="99.547" gradientUnits="userSpaceOnUse"><stop stop-color="#F7931A"/><stop offset="1" stop-color="#F7931A" stop-opacity="0"/></linearGradient><filter id="filter0_d" x="33" y="1.07" width="136" height="213.333" filterUnits="userSpaceOnUse" color-interpolation-filters="sRGB"><feFlood flood-opacity="0" result="BackgroundImageFix"/><feColorMatrix in="SourceAlpha" values="0 0 0 0 0 0 0 0 0 0 0 0 0 0 0 0 0 0 127 0"/><feOffset dy="6.667"/><feGaussianBlur stdDeviation="16.667"/><feColorMatrix values="0 0 0 0 0 0 0 0 0 0 0 0 0 0 0 0 0 0 0.15 0"/><feBlend in2="BackgroundImageFix" result="effect1_dropShadow"/><feBlend in="SourceGraphic" in2="effect1_dropShadow" result="shape"/></filter></defs></svg>