<svg fill="none" height="215" viewBox="0 0 202 215" width="202" xmlns="http://www.w3.org/2000/svg" xmlns:xlink="http://www.w3.org/1999/xlink"><filter id="a" color-interpolation-filters="sRGB" filterUnits="userSpaceOnUse" height="213.333" width="136" x="33.0006" y=".999347"><feFlood flood-opacity="0" result="BackgroundImageFix"/><feColorMatrix in="SourceAlpha" result="hardAlpha" type="matrix" values="0 0 0 0 0 0 0 0 0 0 0 0 0 0 0 0 0 0 127 0"/><feOffset dy="6.66667"/><feGaussianBlur stdDeviation="16.6667"/><feColorMatrix type="matrix" values="0 0 0 0 0 0 0 0 0 0 0 0 0 0 0 0 0 0 0.15 0"/><feBlend in2="BackgroundImageFix" mode="normal" result="effect1_dropShadow"/><feBlend in="SourceGraphic" in2="effect1_dropShadow" mode="normal" result="shape"/></filter><linearGradient id="b" gradientUnits="userSpaceOnUse" x1="139.168" x2="50.168" y1="154.5" y2="28"><stop offset="0" stop-color="#0f31f7"/><stop offset="1" stop-color="#76f3cd"/></linearGradient><linearGradient id="c" gradientUnits="userSpaceOnUse" x1="90.8523" x2="91.2751" y1="165.488" y2="169.435"><stop offset="0" stop-color="#fff200"/><stop offset="1" stop-color="#afe416"/></linearGradient><linearGradient id="d" gradientUnits="userSpaceOnUse" x1="87.8706" x2="128.974" y1="78.8944" y2="99.477"><stop offset="0" stop-color="#fff200"/><stop offset="1" stop-color="#d6ce00"/></linearGradient><g stroke="#808080" stroke-opacity=".4" stroke-width="1.33333"><path d="m1 1h200"/><path d="m1 34.334h200"/><path d="m1 67.666h200"/><path d="m1 101h200"/><path d="m1 134.334h200"/><path d="m1 167.666h200"/><path d="m1 201h200"/><path d="m1 1v200"/><path d="m34.334 1v200"/><path d="m67.666 1v200"/><path d="m101 1v200"/><path d="m134.334 1v200"/><path d="m167.666 1v200"/><path d="m201 1v200"/></g><g filter="url(#a)"><rect fill="url(#b)" height="146.667" rx="8" width="69.3333" x="66.334" y="27.666"/></g><rect fill="url(#c)" height="2.66667" rx="1.33333" width="26.6667" x="87.668" y="165"/><path d="m119.241 95.9376h-12.679c-.661 0-1.142-.5995-.982-1.2182l6.951-27.1684c.26-1.0636-1.162-1.6823-1.823-.7928l-27.0405 37.0108c-.4807.657 0 1.547.8413 1.547h12.679c.661 0 1.1417.599.9815 1.218l-6.9505 27.169c-.2603 1.063 1.1618 1.682 1.8228.792l27.0404-37.0105c.481-.6381 0-1.5469-.841-1.5469z" fill="url(#d)"/></svg>
