<svg width="1920" height="1255" fill="none" xmlns="http://www.w3.org/2000/svg"><path fill="#fff" d="M0 0h1920v1255H0z"/><path fill="#0F31F7" d="M153 686h366v85H153z"/><path fill="#0F31F7" d="M157.5 690.5h357v76h-357z"/><path d="m290.546 742-7.506-25.92h3.348l5.76 20.502 5.742-20.484 3.366-.018 5.76 20.502 5.742-20.502h3.366L308.618 742h-3.204l-5.832-20.322L293.75 742h-3.204Zm32.555.54c-1.452 0-2.67-.264-3.654-.792-.972-.54-1.71-1.248-2.214-2.124a5.781 5.781 0 0 1-.738-2.88c0-1.02.192-1.902.576-2.646a5.173 5.173 0 0 1 1.656-1.872c.708-.504 1.554-.9 2.538-1.188a29.029 29.029 0 0 1 3.096-.648c1.152-.192 2.316-.366 3.492-.522 1.176-.156 2.274-.306 3.294-.45l-1.152.666c.036-1.728-.312-3.006-1.044-3.834-.72-.828-1.968-1.242-3.744-1.242-1.176 0-2.208.27-3.096.81-.876.528-1.494 1.392-1.854 2.592l-3.042-.918c.468-1.704 1.374-3.042 2.718-4.014 1.344-.972 3.114-1.458 5.31-1.458 1.764 0 3.276.318 4.536.954 1.272.624 2.184 1.572 2.736 2.844.276.6.45 1.254.522 1.962.072.696.108 1.428.108 2.196V742h-2.844v-4.662l.666.432c-.732 1.572-1.758 2.76-3.078 3.564-1.308.804-2.904 1.206-4.788 1.206Zm.486-2.682c1.152 0 2.148-.204 2.988-.612.852-.42 1.536-.966 2.052-1.638a5.366 5.366 0 0 0 1.008-2.232c.18-.6.276-1.266.288-1.998.024-.744.036-1.314.036-1.71l1.116.486c-1.044.144-2.07.282-3.078.414a70.033 70.033 0 0 0-2.862.432c-.9.144-1.71.318-2.43.522a7.917 7.917 0 0 0-1.494.648 3.394 3.394 0 0 0-1.116 1.026c-.276.408-.414.918-.414 1.53 0 .528.132 1.032.396 1.512.276.48.696.87 1.26 1.17.576.3 1.326.45 2.25.45ZM338.185 742v-26.46h3.204V742h-3.204Zm8.965 0v-26.46h3.204V742h-3.204Zm17.028.54c-1.908 0-3.576-.42-5.004-1.26-1.416-.852-2.52-2.034-3.312-3.546-.792-1.524-1.188-3.3-1.188-5.328 0-2.124.39-3.96 1.17-5.508.78-1.56 1.866-2.76 3.258-3.6 1.404-.852 3.048-1.278 4.932-1.278 1.956 0 3.618.45 4.986 1.35 1.38.9 2.412 2.184 3.096 3.852.696 1.668.996 3.654.9 5.958h-3.24v-1.152c-.036-2.388-.522-4.17-1.458-5.346-.936-1.188-2.328-1.782-4.176-1.782-1.98 0-3.486.636-4.518 1.908-1.032 1.272-1.548 3.096-1.548 5.472 0 2.292.516 4.068 1.548 5.328 1.032 1.26 2.502 1.89 4.41 1.89 1.284 0 2.4-.294 3.348-.882.948-.588 1.692-1.434 2.232-2.538l3.078 1.062c-.756 1.716-1.896 3.048-3.42 3.996-1.512.936-3.21 1.404-5.094 1.404Zm-7.182-9.36v-2.574h14.364v2.574h-14.364Zm30.882 8.82a14.407 14.407 0 0 1-3.42.27c-1.116-.036-2.112-.258-2.988-.666a4.296 4.296 0 0 1-1.998-1.944c-.384-.768-.594-1.542-.63-2.322a89.412 89.412 0 0 1-.036-2.682V717.16h3.204v17.352c0 .792.006 1.47.018 2.034.024.564.15 1.05.378 1.458.432.768 1.116 1.218 2.052 1.35.948.132 2.088.096 3.42-.108V742Zm-13.014-16.794v-2.646h13.014v2.646h-13.014Z" fill="#fff"/><path stroke="#fff" stroke-width="3" stroke-dasharray="8 8" d="M157.5 690.5h357v76h-357z"/><path stroke="#0F31F7" stroke-width="6" d="M153 686h366v85H153z"/><path d="M1261 553h-84M656 553h84" stroke="#7E7E7E" stroke-width="5" stroke-linecap="round" stroke-linejoin="round" stroke-dasharray="10 10"/><path d="M1373 735h-112V429h106.5M553 740h103V428H552" stroke="#7E7E7E" stroke-width="5" stroke-linejoin="round" stroke-dasharray="10 10"/><path d="M257.5 389.5a2.5 2.5 0 1 1-5 0h5Zm-4.268-127.268a2.501 2.501 0 0 1 3.536 0l15.91 15.91a2.501 2.501 0 0 1-3.536 3.536L255 267.536l-14.142 14.142a2.501 2.501 0 0 1-3.536-3.536l15.91-15.91Zm-.732 122.039a2.5 2.5 0 1 1 5 0h-5Zm5-10.458a2.5 2.5 0 0 1-5-.001l5 .001Zm-5-10.459a2.5 2.5 0 1 1 5 0h-5Zm5-10.458a2.5 2.5 0 1 1-5 0h5Zm-5-10.458a2.5 2.5 0 1 1 5 0h-5Zm5-10.459a2.5 2.5 0 1 1-5 0h5Zm-5-10.458a2.5 2.5 0 1 1 5 0h-5Zm5-10.458a2.5 2.5 0 0 1-5-.001l5 .001Zm-5-10.459a2.5 2.5 0 1 1 5 0h-5Zm5-10.458a2.5 2.5 0 1 1-5 0h5Zm-5-10.459a2.5 2.5 0 0 1 5 0h-5Zm5-10.458a2.5 2.5 0 1 1-5 0h5Zm-5 120.271v-5.229h5v5.229h-5Zm0-15.688v-10.458h5v10.459l-5-.001Zm0-20.916v-10.458h5v10.458h-5Zm0-20.917v-10.458h5v10.458h-5Zm0-20.917v-10.458h5v10.459l-5-.001Zm0-20.916v-10.459h5v10.459h-5Zm0-20.917V264h5v5.229h-5ZM460.5 234.5a2.5 2.5 0 1 0-5 0h5Zm-4.268 128.268a2.501 2.501 0 0 0 3.536 0l15.91-15.91a2.501 2.501 0 0 0-3.536-3.536L458 357.464l-14.142-14.142a2.501 2.501 0 0 0-3.536 3.536l15.91 15.91Zm-.732-122.997a2.5 2.5 0 1 0 5 0h-5Zm5 10.541a2.5 2.5 0 1 0-5 .001l5-.001Zm-5 10.542a2.5 2.5 0 1 0 5 0h-5Zm5 10.542a2.5 2.5 0 1 0-5 0h5Zm-5 10.542a2.5 2.5 0 0 0 5 0h-5Zm5 10.541a2.5 2.5 0 1 0-5 0h5Zm-5 10.542a2.5 2.5 0 1 0 5 0h-5Zm5 10.541a2.5 2.5 0 1 0-5 .001l5-.001Zm-5 10.542a2.5 2.5 0 1 0 5 0h-5Zm5 10.542a2.5 2.5 0 1 0-5 0h5Zm-5 10.541a2.5 2.5 0 1 0 5 0h-5Zm5 10.542a2.5 2.5 0 1 0-5 0h5Zm-5-121.229v5.271h5V234.5h-5Zm0 15.813v10.541h5v-10.542l-5 .001Zm0 21.083v10.542h5v-10.542h-5Zm0 21.083v10.542h5v-10.542h-5Zm0 21.084v10.541h5v-10.542l-5 .001Zm0 21.083v10.541h5v-10.541h-5Zm0 21.083V361h5v-5.271h-5Z" fill="#7E7E7E"/><path d="M964 614v109" stroke="#7E7E7E" stroke-width="5" stroke-linecap="round" stroke-linejoin="round" stroke-dasharray="10 10"/><path d="M966.5 806a2.5 2.5 0 1 0-5 0h5Zm-4.268 108.768a2.501 2.501 0 0 0 3.536 0l15.91-15.91a2.501 2.501 0 0 0-3.536-3.536L964 909.464l-14.142-14.142a2.501 2.501 0 0 0-3.536 3.536l15.91 15.91ZM961.5 811.35a2.5 2.5 0 1 0 5 0h-5Zm5 10.7a2.5 2.5 0 1 0-5 0h5Zm-5 10.7a2.5 2.5 0 1 0 5 0h-5Zm5 10.7a2.5 2.5 0 1 0-5 0h5Zm-5 10.7a2.5 2.5 0 1 0 5 0h-5Zm5 10.7a2.5 2.5 0 1 0-5 0h5Zm-5 10.7a2.5 2.5 0 1 0 5 0h-5Zm5 10.7a2.5 2.5 0 1 0-5 0h5Zm-5 10.7a2.5 2.5 0 1 0 5 0h-5Zm5 10.7a2.5 2.5 0 1 0-5 0h5Zm-5-101.65v5.35h5V806h-5Zm0 16.05v10.7h5v-10.7h-5Zm0 21.4v10.7h5v-10.7h-5Zm0 21.4v10.7h5v-10.7h-5Zm0 21.4v10.7h5v-10.7h-5Zm0 21.4V913h5v-5.35h-5Z" fill="#7E7E7E"/><path fill="#0F31F7" d="M1399 714h339v79h-339z"/><path fill="#0F96F7" d="M1413 700h339v79h-339z"/><path fill="#0F31F7" d="M1425 685h339v79h-339z"/><path d="M1533.22 734.958v-8.676h11.02v-3.042h-11.02v-8.118h13.18v-3.042h-16.38V738h16.38v-3.042h-13.18Zm26.04 3.042 7.06-19.44h-3.26l-5.44 15.354-5.45-15.354h-3.24l7.05 19.44h3.28Zm26.87-8.82c.29-6.912-3.13-11.16-8.98-11.16-5.65 0-9.36 4.014-9.36 10.386 0 6.084 3.76 10.134 9.5 10.134 3.76 0 6.99-1.962 8.52-5.4l-3.08-1.062c-1.08 2.214-3.03 3.42-5.58 3.42-3.58 0-5.67-2.286-5.92-6.318h14.9Zm-8.87-8.28c3.29 0 5.14 1.89 5.54 5.706h-11.52c.45-3.69 2.48-5.706 5.98-5.706Zm21.69-2.844c-2.81 0-5.04 1.08-6.48 3.006v-2.502h-2.88V738h3.24v-10.242c0-4.5 2.13-6.66 5.35-6.66 4.1 0 5.27 3.51 5.27 7.164V738h3.24v-10.746c0-3.69-1.47-9.198-7.74-9.198Zm23.28 3.15v-2.646h-5.87v-5.4h-3.21v5.4h-3.94v2.646h3.94v9.45c0 2.016-.1 3.492.67 5.004 1.35 2.646 4.93 3.042 8.41 2.34v-2.754c-2.67.414-4.61.306-5.48-1.242-.46-.81-.39-1.89-.39-3.492v-9.306h5.87Zm20.78 24.57v-2.916h-4.19v-34.02h4.19v-2.916h-7.11v39.852h7.11Zm12.5-39.852h-7.11v2.916h4.19v34.02h-4.19v2.916h7.11v-39.852Z" fill="#fff"/><path d="M276.45 129.447a21.962 21.962 0 0 1-26.614 16.001c-11.756-2.935-18.923-14.844-15.993-26.598 2.929-11.757 14.828-18.936 26.577-16.004 11.785 2.893 18.954 14.839 16.03 26.603v-.002Z" stroke="#0F31F7" stroke-width="3"/><path d="m248.428 131.668 4.374-17.546m-3.761-.938 10.801 2.695c7.047 1.756 5.476 10.015-2.031 8.145 8.225 2.051 7.388 11.826-2.343 9.401-4.756-1.189-9.85-2.455-9.85-2.455m5.151-8.7 6.895 1.718m-3.609-9.553.938-3.759m-6.252 25.066.938-3.761m9.388-16.296.937-3.759m-6.249 25.066.938-3.761" stroke="#0F31F7" stroke-width="3" stroke-linecap="square" stroke-linejoin="round"/><path d="M222.264 168.489c-1.494 0-2.767.705-3.44 1.873-.61-1.189-1.778-1.873-3.314-1.873-1.357 0-2.515.579-3.23 1.504v-1.209h-1.673v11.362h1.883v-7.217c0-1.663.989-2.767 2.473-2.767 1.483 0 2.462 1.062 2.462 2.788l-.011 7.196h1.862l.011-7.217c0-1.915 1.209-2.767 2.482-2.767 1.431 0 2.441 1.02 2.441 2.714l-.01 7.27h1.872l.011-7.68c0-2.42-1.452-3.977-3.819-3.977Zm16.545 6.502c.168-4.04-1.83-6.523-5.249-6.523-3.304 0-5.471 2.346-5.471 6.07 0 3.556 2.199 5.923 5.555 5.923 2.198 0 4.082-1.147 4.976-3.156l-1.799-.621c-.631 1.294-1.768 1.999-3.261 1.999-2.094 0-3.314-1.336-3.462-3.692h8.711Zm-5.186-4.84c1.925 0 3.008 1.105 3.24 3.335h-6.733c.263-2.157 1.452-3.335 3.493-3.335Zm18.866-1.662c-1.494 0-2.767.705-3.44 1.873-.61-1.189-1.778-1.873-3.314-1.873-1.357 0-2.514.579-3.23 1.504v-1.209h-1.672v11.362h1.883v-7.217c0-1.663.989-2.767 2.472-2.767s2.462 1.062 2.462 2.788l-.011 7.196h1.862l.011-7.217c0-1.915 1.21-2.767 2.483-2.767 1.43 0 2.44 1.02 2.44 2.714l-.01 7.27h1.873l.01-7.68c0-2.42-1.452-3.977-3.819-3.977Zm11.788-.021c-1.547 0-2.735.589-3.567 1.589v-1.273h-1.672v16.411h1.883v-6.102c.81.863 1.936 1.368 3.345 1.368 3.177 0 5.092-2.598 5.092-6.007s-1.925-5.986-5.081-5.986Zm-.242 10.278c-2.294 0-3.325-1.799-3.325-4.292 0-2.514 1.053-4.271 3.272-4.271 2.315 0 3.388 1.872 3.388 4.271 0 2.42-1.094 4.292-3.335 4.292Zm12.469 1.715c3.377 0 5.481-2.441 5.481-6.007 0-3.514-2.073-5.986-5.481-5.986-3.335 0-5.471 2.42-5.471 5.986 0 3.524 2.073 6.007 5.471 6.007Zm0-1.778c-2.294 0-3.482-1.662-3.482-4.229 0-2.483 1.104-4.208 3.482-4.208 2.325 0 3.493 1.652 3.493 4.208 0 2.504-1.147 4.229-3.493 4.229Zm12.636 1.778c3.377 0 5.482-2.441 5.482-6.007 0-3.514-2.073-5.986-5.482-5.986-3.334 0-5.47 2.42-5.47 5.986 0 3.524 2.072 6.007 5.47 6.007Zm0-1.778c-2.293 0-3.482-1.662-3.482-4.229 0-2.483 1.105-4.208 3.482-4.208 2.325 0 3.493 1.652 3.493 4.208 0 2.504-1.147 4.229-3.493 4.229Zm9.881 1.463v-15.465h-1.873v15.465h1.873Z" fill="#0F31F7"/><path stroke="#0F31F7" stroke-width="4" stroke-linejoin="round" d="M180 62h150.29v150.29H180zM180 212.29h150.29l-15.029 23.295H195.029L180 212.29Z"/><path d="M336.302 148.793h46.59" stroke="#0F31F7" stroke-width="4.509" stroke-linecap="round" stroke-dasharray="9.02 9.02"/><path fill="#0F31F7" d="M388.903 62h150.29v150.29h-150.29z"/><path d="M438.532 137.129c1.052-.61 1.694-1.757 1.694-3.146 0-2.104-1.589-3.987-4.303-3.987h-5.902v15.15h6.428c2.777 0 4.503-1.684 4.503-4.335 0-1.683-.884-3.03-2.42-3.682Zm-2.63-5.365c1.42 0 2.399.915 2.399 2.219 0 1.421-1.063 2.336-2.399 2.336h-3.987v-4.555h3.987Zm-3.987 11.593v-5.271h4.387c1.609 0 2.725 1.189 2.725 2.715 0 1.599-1.263 2.556-2.936 2.556h-4.176Zm13.216 1.789v-15.465h-1.872v15.465h1.872Zm7.996.315c3.377 0 5.481-2.441 5.481-6.007 0-3.514-2.072-5.986-5.481-5.986-3.335 0-5.47 2.42-5.47 5.986 0 3.524 2.072 6.007 5.47 6.007Zm0-1.778c-2.293 0-3.482-1.662-3.482-4.229 0-2.483 1.105-4.208 3.482-4.208 2.325 0 3.493 1.652 3.493 4.208 0 2.504-1.147 4.229-3.493 4.229Zm12.584 1.778c2.346 0 4.061-1.147 4.861-3.272l-1.894-.494c-.515 1.294-1.494 1.988-2.967 1.988-2.262 0-3.408-1.683-3.429-4.218.021-2.462 1.094-4.219 3.429-4.219 1.378 0 2.525.768 3.009 2.083l1.852-.558c-.6-2.041-2.452-3.303-4.84-3.303-3.419 0-5.407 2.451-5.439 5.997.032 3.482 1.957 5.996 5.418 5.996Zm8.902-.315v-5.471l5.165 5.471h2.62l-5.608-5.681 5.018-5.681h-2.43l-4.765 5.47v-9.258h-1.894l-.011 15.15h1.905Zm18.504-11.657c-1.641 0-2.946.631-3.787 1.757v-1.462h-1.684v11.362h1.894v-5.987c0-2.63 1.241-3.892 3.125-3.892 2.398 0 3.082 2.051 3.082 4.187v5.692h1.894v-6.281c0-2.157-.863-5.376-4.524-5.376Z" fill="#fff"/><path d="M388.903 212.29h150.29l-15.029 23.295H403.932l-15.029-23.295Z" fill="#0F96F7"/><path d="M545.205 148.793h46.59" stroke="#0F31F7" stroke-width="4.509" stroke-linecap="round" stroke-dasharray="9.02 9.02"/><path fill="#0F31F7" d="M597.807 62h150.29v150.29h-150.29z"/><path d="M634.435 137.129c1.052-.61 1.694-1.757 1.694-3.146 0-2.104-1.588-3.987-4.303-3.987h-5.901v15.15h6.427c2.778 0 4.503-1.684 4.503-4.335 0-1.683-.884-3.03-2.42-3.682Zm-2.63-5.365c1.421 0 2.399.915 2.399 2.219 0 1.421-1.063 2.336-2.399 2.336h-3.987v-4.555h3.987Zm-3.987 11.593v-5.271h4.387c1.61 0 2.725 1.189 2.725 2.715 0 1.599-1.263 2.556-2.935 2.556h-4.177Zm13.217 1.789v-15.465h-1.873v15.465h1.873Zm7.996.315c3.377 0 5.481-2.441 5.481-6.007 0-3.514-2.073-5.986-5.481-5.986-3.335 0-5.471 2.42-5.471 5.986 0 3.524 2.072 6.007 5.471 6.007Zm0-1.778c-2.294 0-3.483-1.662-3.483-4.229 0-2.483 1.105-4.208 3.483-4.208 2.325 0 3.492 1.652 3.492 4.208 0 2.504-1.146 4.229-3.492 4.229Zm12.584 1.778c2.346 0 4.06-1.147 4.86-3.272l-1.894-.494c-.515 1.294-1.494 1.988-2.966 1.988-2.262 0-3.409-1.683-3.43-4.218.021-2.462 1.094-4.219 3.43-4.219 1.378 0 2.525.768 3.008 2.083l1.852-.558c-.6-2.041-2.451-3.303-4.839-3.303-3.419 0-5.408 2.451-5.439 5.997.031 3.482 1.956 5.996 5.418 5.996Zm8.901-.315v-5.471l5.165 5.471h2.62l-5.607-5.681 5.018-5.681h-2.43l-4.766 5.47v-9.258h-1.894l-.01 15.15h1.904Zm18.504-11.657c-1.641 0-2.945.631-3.787 1.757v-1.462h-1.683v11.362h1.893v-5.987c0-2.63 1.242-3.892 3.125-3.892 2.398 0 3.082 2.051 3.082 4.187v5.692h1.894v-6.281c0-2.157-.863-5.376-4.524-5.376Zm17.573 5.797v-1.547h-6.312v1.547h6.312Zm11.491 5.86v-15.15h-1.904l-2.851 1.705v2.093l2.851-1.725v13.077h1.904Z" fill="#fff"/><path d="M597.807 212.29h150.29l-15.029 23.295H612.836l-15.029-23.295Z" fill="#0F96F7"/><path d="M754.108 148.793h46.59" stroke="#0F31F7" stroke-width="4.509" stroke-linecap="round" stroke-dasharray="9.02 9.02"/><path fill="#0F31F7" d="M806.71 62H957v150.29H806.71z"/><path d="M841.839 137.129c1.052-.61 1.694-1.757 1.694-3.146 0-2.104-1.589-3.987-4.303-3.987h-5.902v15.15h6.428c2.777 0 4.502-1.684 4.502-4.335 0-1.683-.883-3.03-2.419-3.682Zm-2.63-5.365c1.42 0 2.398.915 2.398 2.219 0 1.421-1.062 2.336-2.398 2.336h-3.988v-4.555h3.988Zm-3.988 11.593v-5.271h4.387c1.61 0 2.725 1.189 2.725 2.715 0 1.599-1.262 2.556-2.935 2.556h-4.177Zm13.217 1.789v-15.465h-1.873v15.465h1.873Zm7.996.315c3.377 0 5.481-2.441 5.481-6.007 0-3.514-2.073-5.986-5.481-5.986-3.335 0-5.471 2.42-5.471 5.986 0 3.524 2.073 6.007 5.471 6.007Zm0-1.778c-2.294 0-3.482-1.662-3.482-4.229 0-2.483 1.104-4.208 3.482-4.208 2.325 0 3.493 1.652 3.493 4.208 0 2.504-1.147 4.229-3.493 4.229Zm12.584 1.778c2.346 0 4.061-1.147 4.86-3.272l-1.893-.494c-.516 1.294-1.494 1.988-2.967 1.988-2.262 0-3.409-1.683-3.43-4.218.021-2.462 1.094-4.219 3.43-4.219 1.378 0 2.525.768 3.009 2.083l1.851-.558c-.599-2.041-2.451-3.303-4.839-3.303-3.419 0-5.407 2.451-5.439 5.997.032 3.482 1.957 5.996 5.418 5.996Zm8.901-.315v-5.471l5.166 5.471h2.619l-5.607-5.681 5.018-5.681h-2.43l-4.766 5.47v-9.258h-1.894l-.01 15.15h1.904Zm18.505-11.657c-1.642 0-2.946.631-3.788 1.757v-1.462h-1.683v11.362h1.894v-5.987c0-2.63 1.241-3.892 3.124-3.892 2.399 0 3.083 2.051 3.083 4.187v5.692h1.893v-6.281c0-2.157-.862-5.376-4.523-5.376Zm17.572 5.797v-1.547h-6.312v1.547h6.312Zm14.289-.326c1.557-1.379 2.304-2.378 2.304-4.366 0-2.788-2.125-4.913-4.934-4.913-2.914 0-5.06 2.03-5.06 4.881h1.915c-.021-1.652 1.304-3.093 3.114-3.093 1.746 0 3.051 1.357 3.051 3.104 0 .957-.305 1.83-1.421 2.83l-6.722 6.049-.011 1.683h10.068v-1.788h-7.185l4.881-4.387Z" fill="#fff"/><path d="M806.71 212.29H957l-15.029 23.295H821.739L806.71 212.29Z" fill="#0F96F7"/><path d="M963.012 148.793h46.588" stroke="#0F31F7" stroke-width="4.509" stroke-linecap="round" stroke-dasharray="9.02 9.02"/><path fill="#0F31F7" d="M1015.61 62h150.29v150.29h-150.29z"/><path d="M1050.74 137.129c1.05-.61 1.7-1.757 1.7-3.146 0-2.104-1.59-3.987-4.31-3.987h-5.9v15.15h6.43c2.78 0 4.5-1.684 4.5-4.335 0-1.683-.88-3.03-2.42-3.682Zm-2.63-5.365c1.42 0 2.4.915 2.4 2.219 0 1.421-1.06 2.336-2.4 2.336h-3.99v-4.555h3.99Zm-3.99 11.593v-5.271h4.39c1.61 0 2.73 1.189 2.73 2.715 0 1.599-1.27 2.556-2.94 2.556h-4.18Zm13.22 1.789v-15.465h-1.87v15.465h1.87Zm8 .315c3.37 0 5.48-2.441 5.48-6.007 0-3.514-2.07-5.986-5.48-5.986-3.34 0-5.47 2.42-5.47 5.986 0 3.524 2.07 6.007 5.47 6.007Zm0-1.778c-2.3 0-3.49-1.662-3.49-4.229 0-2.483 1.11-4.208 3.49-4.208 2.32 0 3.49 1.652 3.49 4.208 0 2.504-1.15 4.229-3.49 4.229Zm12.58 1.778c2.35 0 4.06-1.147 4.86-3.272l-1.89-.494c-.52 1.294-1.5 1.988-2.97 1.988-2.26 0-3.41-1.683-3.43-4.218.02-2.462 1.1-4.219 3.43-4.219 1.38 0 2.53.768 3.01 2.083l1.85-.558c-.6-2.041-2.45-3.303-4.84-3.303-3.42 0-5.41 2.451-5.44 5.997.03 3.482 1.96 5.996 5.42 5.996Zm8.9-.315v-5.471l5.17 5.471h2.62l-5.61-5.681 5.02-5.681h-2.43l-4.77 5.47v-9.258h-1.89l-.01 15.15h1.9Zm18.51-11.657c-1.64 0-2.95.631-3.79 1.757v-1.462h-1.68v11.362h1.89v-5.987c0-2.63 1.24-3.892 3.12-3.892 2.4 0 3.09 2.051 3.09 4.187v5.692h1.89v-6.281c0-2.157-.86-5.376-4.52-5.376Zm17.57 5.797v-1.547h-6.31v1.547h6.31Zm15.85-7.491v-1.799h-8.94v1.789h6.61l-4.92 4.45.9 1.483c.48-.242 1.05-.4 1.57-.4 1.82 0 3.05 1.294 3.05 3.167 0 1.852-1.19 3.135-3.03 3.167-1.35.021-2.52-.726-2.98-2.136l-1.8.515c.65 2.105 2.54 3.409 4.79 3.409 2.81 0 4.95-2.051 4.95-4.955 0-2.651-1.69-4.618-4.3-4.766l4.1-3.924Z" fill="#fff"/><path d="M1015.61 212.29h150.29l-15.03 23.295h-120.23l-15.03-23.295Z" fill="#0F96F7"/><path d="M1192.96 155v-20.16h7.85c1.21 0 2.23.247 3.08.742.86.495 1.52 1.148 1.96 1.96.46.803.69 1.671.69 2.604 0 1.092-.28 2.049-.84 2.87a4.27 4.27 0 0 1-2.27 1.694l-.03-.686c1.3.345 2.31.98 3.03 1.904.72.924 1.08 2.025 1.08 3.304 0 1.176-.25 2.193-.73 3.052a4.979 4.979 0 0 1-2.07 2.002c-.9.476-1.96.714-3.2.714h-8.55Zm2.52-2.38h5.56c.74 0 1.41-.135 2-.406.59-.28 1.05-.672 1.39-1.176.34-.504.51-1.111.51-1.82 0-.681-.15-1.293-.46-1.834-.3-.541-.72-.971-1.27-1.288-.54-.327-1.17-.49-1.89-.49h-5.84v7.014Zm0-9.366h5.31c.59 0 1.13-.126 1.61-.378.48-.261.86-.625 1.14-1.092.29-.467.44-1.013.44-1.638 0-.868-.3-1.577-.88-2.128-.59-.551-1.36-.826-2.31-.826h-5.31v6.062Zm15.1-6.048v-2.576h2.49v2.576h-2.49Zm0 17.794v-15.12h2.49V155h-2.49Zm15.13 0c-.9.177-1.78.247-2.66.21-.87-.028-1.64-.201-2.32-.518a3.388 3.388 0 0 1-1.56-1.512 4.482 4.482 0 0 1-.49-1.806c-.02-.616-.03-1.311-.03-2.086V135.68h2.5v13.496c0 .616 0 1.143.01 1.582.02.439.12.817.29 1.134.34.597.87.947 1.6 1.05.74.103 1.62.075 2.66-.084V155Zm-10.12-13.062v-2.058h10.12v2.058h-10.12Zm18.93 13.482c-1.53 0-2.83-.341-3.9-1.022-1.07-.691-1.88-1.638-2.44-2.842-.56-1.204-.85-2.576-.87-4.116.02-1.577.31-2.963.88-4.158.58-1.204 1.41-2.142 2.48-2.814 1.07-.672 2.37-1.008 3.88-1.008 1.6 0 2.97.392 4.12 1.176 1.15.784 1.93 1.857 2.32 3.22l-2.46.742c-.32-.877-.84-1.559-1.56-2.044-.71-.485-1.52-.728-2.45-.728-1.03 0-1.89.243-2.56.728-.67.476-1.17 1.139-1.5 1.988-.33.84-.49 1.806-.5 2.898.02 1.68.4 3.038 1.16 4.074.76 1.027 1.9 1.54 3.4 1.54.99 0 1.81-.224 2.47-.672.65-.457 1.14-1.115 1.48-1.974l2.52.658c-.52 1.409-1.34 2.487-2.45 3.234-1.11.747-2.45 1.12-4.02 1.12Zm15.36 0c-1.51 0-2.8-.341-3.9-1.022-1.08-.681-1.91-1.624-2.5-2.828-.59-1.204-.88-2.585-.88-4.144 0-1.587.3-2.977.89-4.172.6-1.195 1.44-2.123 2.54-2.786 1.09-.672 2.37-1.008 3.85-1.008 1.51 0 2.81.341 3.9 1.022 1.09.672 1.93 1.61 2.51 2.814.59 1.195.88 2.571.88 4.13 0 1.577-.29 2.968-.88 4.172-.59 1.195-1.43 2.133-2.52 2.814-1.09.672-2.39 1.008-3.89 1.008Zm0-2.366c1.56 0 2.73-.523 3.5-1.568.76-1.045 1.14-2.399 1.14-4.06 0-1.708-.38-3.066-1.16-4.074-.77-1.017-1.93-1.526-3.48-1.526-1.06 0-1.93.238-2.61.714-.68.476-1.19 1.134-1.52 1.974-.34.84-.51 1.811-.51 2.912 0 1.699.39 3.061 1.18 4.088.78 1.027 1.94 1.54 3.46 1.54Zm10.65-15.848v-2.576h2.49v2.576h-2.49Zm0 17.794v-15.12h2.49V155h-2.49Zm17.46 0v-7.574c0-.719-.06-1.409-.19-2.072a5.55 5.55 0 0 0-.66-1.778 3.43 3.43 0 0 0-1.26-1.26c-.53-.308-1.19-.462-1.99-.462-.63 0-1.2.107-1.71.322-.5.205-.94.523-1.3.952-.36.429-.65.971-.85 1.624-.2.644-.3 1.405-.3 2.282l-1.64-.504c0-1.465.26-2.721.79-3.766.53-1.055 1.27-1.862 2.22-2.422.96-.569 2.09-.854 3.39-.854.98 0 1.82.154 2.51.462.69.308 1.26.719 1.72 1.232.46.504.82 1.073 1.08 1.708.26.625.44 1.265.54 1.918.12.644.17 1.255.17 1.834V155h-2.52Zm-10.78 0v-15.12h2.24v4.046h.28V155h-2.52Zm22.55 0v-20.16h2.52l10.51 15.75v-15.75h2.52V155h-2.52l-10.51-15.764V155h-2.52Zm26.02.42c-1.49 0-2.78-.327-3.89-.98-1.11-.663-1.96-1.582-2.58-2.758-.62-1.185-.92-2.567-.92-4.144 0-1.652.3-3.08.91-4.284.6-1.213 1.45-2.147 2.53-2.8 1.09-.663 2.37-.994 3.84-.994 1.52 0 2.81.35 3.87 1.05 1.08.7 1.88 1.699 2.41 2.996.54 1.297.78 2.842.7 4.634h-2.52v-.896c-.03-1.857-.4-3.243-1.13-4.158-.73-.924-1.81-1.386-3.25-1.386-1.54 0-2.71.495-3.51 1.484-.81.989-1.21 2.408-1.21 4.256 0 1.783.4 3.164 1.21 4.144.8.98 1.94 1.47 3.43 1.47.99 0 1.86-.229 2.6-.686.74-.457 1.32-1.115 1.74-1.974l2.39.826c-.59 1.335-1.48 2.371-2.66 3.108-1.18.728-2.5 1.092-3.96 1.092Zm-5.59-7.28v-2.002h11.17v2.002h-11.17Zm24.02 6.86c-.9.177-1.78.247-2.66.21-.87-.028-1.64-.201-2.32-.518a3.388 3.388 0 0 1-1.56-1.512 4.482 4.482 0 0 1-.49-1.806c-.02-.616-.03-1.311-.03-2.086V135.68h2.5v13.496c0 .616 0 1.143.01 1.582.02.439.12.817.29 1.134.34.597.87.947 1.6 1.05.74.103 1.62.075 2.66-.084V155Zm-10.12-13.062v-2.058h10.12v2.058h-10.12ZM1340.5 155l-4.62-15.134 2.48.014 3.37 11.06 3.4-11.06h2.2l3.39 11.06 3.39-11.06h2.46l-4.62 15.12h-2.07l-3.65-11.494-3.66 11.494h-2.07Zm24.49.42c-1.5 0-2.8-.341-3.89-1.022-1.08-.681-1.92-1.624-2.5-2.828-.59-1.204-.89-2.585-.89-4.144 0-1.587.3-2.977.9-4.172.6-1.195 1.44-2.123 2.53-2.786 1.1-.672 2.38-1.008 3.85-1.008 1.52 0 2.82.341 3.91 1.022 1.09.672 1.93 1.61 2.51 2.814.58 1.195.88 2.571.88 4.13 0 1.577-.3 2.968-.88 4.172-.59 1.195-1.43 2.133-2.52 2.814-1.1.672-2.39 1.008-3.9 1.008Zm0-2.366c1.57 0 2.74-.523 3.5-1.568.77-1.045 1.15-2.399 1.15-4.06 0-1.708-.39-3.066-1.16-4.074-.77-1.017-1.94-1.526-3.49-1.526-1.05 0-1.92.238-2.6.714-.68.476-1.19 1.134-1.53 1.974-.33.84-.5 1.811-.5 2.912 0 1.699.39 3.061 1.18 4.088.78 1.027 1.93 1.54 3.45 1.54Zm10.38 1.946v-15.12h2.23v3.654l-.37-.476c.18-.467.41-.896.69-1.288a4.4 4.4 0 0 1 .96-.966c.4-.317.84-.56 1.33-.728.5-.168 1-.266 1.52-.294.51-.037.99-.005 1.44.098v2.338c-.52-.14-1.1-.177-1.72-.112-.63.065-1.21.294-1.74.686-.49.345-.86.765-1.13 1.26a5.166 5.166 0 0 0-.55 1.61c-.1.569-.15 1.153-.15 1.75V155h-2.51Zm10.43 0 .02-20.16h2.52v12.32l6.34-7.28h3.23l-6.68 7.56 7.47 7.56h-3.49l-6.87-7.28V155h-2.54Z" fill="#000"/><mask id="a" maskUnits="userSpaceOnUse" x="868" y="927" width="192" height="237" fill="#000"><path fill="#fff" d="M868 927h192v237H868z"/><path fill-rule="evenodd" clip-rule="evenodd" d="M964 980.25c48.88 0 88.5-10.577 88.5-23.625S1012.88 933 964 933c-48.877 0-88.5 10.577-88.5 23.625s39.623 23.625 88.5 23.625Zm90-19.5c0 13.255-40.29 24-90 24-49.706 0-90-10.745-90-24v57h.39c4.254 12.2 42.75 21.75 89.61 21.75s85.36-9.55 89.61-21.75h.39v-57ZM964 1044c49.71 0 90-10.75 90-24v57h-.39c-4.25 12.2-42.75 21.75-89.61 21.75s-85.356-9.55-89.61-21.75H874v-56.95c.102 13.23 40.357 23.95 90 23.95Zm90 35.25c0 13.25-40.29 24-90 24-49.706 0-90-10.75-90-24v57h.39c4.254 12.2 42.75 21.75 89.61 21.75s85.36-9.55 89.61-21.75h.39v-57Z"/></mask><path fill-rule="evenodd" clip-rule="evenodd" d="M964 980.25c48.88 0 88.5-10.577 88.5-23.625S1012.88 933 964 933c-48.877 0-88.5 10.577-88.5 23.625s39.623 23.625 88.5 23.625Zm90-19.5c0 13.255-40.29 24-90 24-49.706 0-90-10.745-90-24v57h.39c4.254 12.2 42.75 21.75 89.61 21.75s85.36-9.55 89.61-21.75h.39v-57ZM964 1044c49.71 0 90-10.75 90-24v57h-.39c-4.25 12.2-42.75 21.75-89.61 21.75s-85.356-9.55-89.61-21.75H874v-56.95c.102 13.23 40.357 23.95 90 23.95Zm90 35.25c0 13.25-40.29 24-90 24-49.706 0-90-10.75-90-24v57h.39c4.254 12.2 42.75 21.75 89.61 21.75s85.36-9.55 89.61-21.75h.39v-57Z" fill="#0F31F7"/><path d="M1060 960.75c0-3.314-2.69-6-6-6s-6 2.686-6 6h12Zm-180 0a6 6 0 1 0-12 0h12Zm-6 57h-6c0 3.31 2.686 6 6 6v-6Zm.39 0 5.666-1.98a5.995 5.995 0 0 0-5.666-4.02v6Zm179.22 0v-6c-2.55 0-4.83 1.61-5.67 4.02l5.67 1.98Zm.39 0v6c3.31 0 6-2.69 6-6h-6Zm0 2.25 1.56-5.79c-1.8-.49-3.73-.11-5.21 1.03a5.987 5.987 0 0 0-2.35 4.76h6Zm0 0h6c0-2.71-1.82-5.09-4.44-5.79L1054 1020Zm0 57v6c3.31 0 6-2.69 6-6h-6Zm-.39 0v-6c-2.55 0-4.83 1.61-5.67 4.02l5.67 1.98Zm-179.22 0 5.666-1.98a5.995 5.995 0 0 0-5.666-4.02v6Zm-.39 0h-6c0 3.31 2.686 6 6 6v-6Zm0-56.95 6-.05a6.001 6.001 0 0 0-12 .05h6Zm186 59.2c0-3.31-2.69-6-6-6s-6 2.69-6 6h12Zm-180 0c0-3.31-2.686-6-6-6s-6 2.69-6 6h12Zm-6 57h-6c0 3.31 2.686 6 6 6v-6Zm.39 0 5.666-1.98a5.995 5.995 0 0 0-5.666-4.02v6Zm179.22 0v-6c-2.55 0-4.83 1.61-5.67 4.02l5.67 1.98Zm.39 0v6c3.31 0 6-2.69 6-6h-6Zm-7.5-179.625c0 .023-.11 1.566-4.16 4.122-3.75 2.367-9.57 4.722-17.31 6.786-15.38 4.106-36.959 6.717-61.03 6.717v12c24.806 0 47.48-2.678 64.13-7.123 8.28-2.21 15.41-4.947 20.62-8.232 4.9-3.097 9.75-7.769 9.75-14.27h-12ZM964 939c24.071 0 45.65 2.611 61.03 6.717 7.74 2.064 13.56 4.419 17.31 6.786 4.05 2.556 4.16 4.099 4.16 4.122h12c0-6.501-4.85-11.173-9.75-14.27-5.21-3.285-12.34-6.022-20.62-8.232C1011.48 929.678 988.806 927 964 927v12Zm-82.5 17.625c0-.023.107-1.566 4.157-4.122 3.751-2.367 9.578-4.722 17.312-6.786C918.348 941.611 939.929 939 964 939v-12c-24.806 0-47.476 2.678-64.126 7.123-8.282 2.21-15.416 4.947-20.622 8.232-4.907 3.097-9.752 7.769-9.752 14.27h12ZM964 974.25c-24.071 0-45.652-2.611-61.031-6.717-7.734-2.064-13.561-4.419-17.312-6.786-4.05-2.556-4.157-4.099-4.157-4.122h-12c0 6.501 4.845 11.173 9.752 14.27 5.206 3.285 12.34 6.022 20.622 8.232 16.65 4.445 39.32 7.123 64.126 7.123v-12Zm0 16.5c25.22 0 48.26-2.72 65.19-7.232 8.41-2.245 15.66-5.021 20.94-8.351 4.98-3.14 9.87-7.861 9.87-14.417h-12c0 .071-.15 1.664-4.27 4.266-3.83 2.413-9.77 4.809-17.64 6.907-15.65 4.174-37.604 6.827-62.09 6.827v12Zm-96-30c0 6.556 4.892 11.277 9.873 14.417 5.281 3.33 12.524 6.106 20.941 8.351 16.922 4.512 39.966 7.232 65.186 7.232v-12c-24.486 0-46.442-2.653-62.094-6.827-7.869-2.098-13.806-4.494-17.633-6.907-4.128-2.602-4.273-4.195-4.273-4.266h-12Zm12 54.75v-54.75h-12v54.75h12Zm0 2.25v-2.25h-12v2.25h12Zm-5.61-6H874v12h.39v-12ZM964 1033.5c-23.073 0-43.917-2.36-59.358-6.13-7.742-1.89-13.899-4.08-18.241-6.38-4.614-2.44-6.061-4.4-6.345-5.22l-11.331 3.96c1.842 5.28 6.802 9.09 12.068 11.87 5.536 2.93 12.729 5.41 21.001 7.43 16.585 4.05 38.419 6.47 62.206 6.47v-12Zm83.94-17.73c-.28.82-1.73 2.78-6.34 5.22-4.34 2.3-10.5 4.49-18.24 6.38-15.44 3.77-36.287 6.13-59.36 6.13v12c23.787 0 45.62-2.42 62.21-6.47 8.27-2.02 15.46-4.5 21-7.43 5.26-2.78 10.22-6.59 12.07-11.87l-11.34-3.96Zm6.06-4.02h-.39v12h.39v-12Zm-6 3.75v2.25h12v-2.25h-12Zm0-54.75v54.75h12v-54.75h-12Zm0 59.25c0 .07-.15 1.66-4.27 4.27-3.83 2.41-9.77 4.8-17.64 6.9-15.65 4.18-37.604 6.83-62.09 6.83v12c25.219 0 48.26-2.72 65.19-7.23 8.41-2.25 15.66-5.02 20.94-8.35 4.98-3.14 9.87-7.86 9.87-14.42h-12Zm7.56-5.79-3.12 11.58 3.12-11.58Zm4.44 60.54V1020h-12v54.75h12Zm0 2.25v-2.25h-12v2.25h12Zm-6.39 6h.39v-12h-.39v12ZM964 1104.75c23.787 0 45.62-2.42 62.21-6.47 8.27-2.02 15.46-4.5 21-7.43 5.26-2.78 10.22-6.59 12.07-11.87l-11.34-3.96c-.28.82-1.73 2.78-6.34 5.22-4.34 2.3-10.5 4.49-18.24 6.38-15.44 3.77-36.287 6.13-59.36 6.13v12Zm-95.275-25.77c1.842 5.28 6.802 9.09 12.068 11.87 5.536 2.93 12.729 5.41 21.001 7.43 16.585 4.05 38.419 6.47 62.206 6.47v-12c-23.073 0-43.917-2.36-59.358-6.13-7.742-1.89-13.899-4.08-18.241-6.38-4.614-2.44-6.061-4.4-6.345-5.22l-11.331 3.96ZM874 1083h.39v-12H874v12Zm-6-8.25v2.25h12v-2.25h-12Zm0-54.7v54.7h12v-54.7h-12Zm96 17.95c-24.455 0-46.386-2.65-62.034-6.81-7.868-2.09-13.811-4.49-17.651-6.9-4.142-2.6-4.315-4.2-4.315-4.29l-12 .1c.051 6.53 4.948 11.23 9.934 14.36 5.288 3.32 12.531 6.09 20.945 8.33 16.915 4.5 39.933 7.21 65.121 7.21v-12Zm0 71.25c25.22 0 48.26-2.72 65.19-7.23 8.41-2.25 15.66-5.02 20.94-8.35 4.98-3.14 9.87-7.86 9.87-14.42h-12c0 .07-.15 1.66-4.27 4.27-3.83 2.41-9.77 4.8-17.64 6.9-15.65 4.18-37.604 6.83-62.09 6.83v12Zm-96-30c0 6.56 4.892 11.28 9.873 14.42 5.281 3.33 12.524 6.1 20.941 8.35 16.922 4.51 39.966 7.23 65.186 7.23v-12c-24.486 0-46.442-2.65-62.094-6.83-7.869-2.1-13.806-4.49-17.633-6.9-4.128-2.61-4.273-4.2-4.273-4.27h-12Zm12 54.75v-54.75h-12V1134h12Zm0 2.25V1134h-12v2.25h12Zm-5.61-6H874v12h.39v-12ZM964 1152c-23.073 0-43.917-2.36-59.358-6.13-7.742-1.89-13.899-4.08-18.241-6.38-4.614-2.44-6.061-4.4-6.345-5.22l-11.331 3.96c1.842 5.28 6.802 9.09 12.068 11.87 5.536 2.93 12.729 5.41 21.001 7.43 16.585 4.05 38.419 6.47 62.206 6.47v-12Zm83.94-17.73c-.28.82-1.73 2.78-6.34 5.22-4.34 2.3-10.5 4.49-18.24 6.38-15.44 3.77-36.287 6.13-59.36 6.13v12c23.787 0 45.62-2.42 62.21-6.47 8.27-2.02 15.46-4.5 21-7.43 5.26-2.78 10.22-6.59 12.07-11.87l-11.34-3.96Zm6.06-4.02h-.39v12h.39v-12Zm-6 3.75v2.25h12V1134h-12Zm0-54.75V1134h12v-54.75h-12Z" fill="#fff" mask="url(#a)"/><path d="M887.547 1205c.378 0 1.61 0 2.548-.13 4.662-.61 7.084-4.8 7.084-9.95 0-5.14-2.422-9.34-7.084-9.95-.952-.13-2.156-.13-2.548-.13h-6.216V1205h6.216Zm-3.654-17.78h3.654c.672 0 1.68.03 2.338.15 3.262.59 4.648 3.74 4.648 7.55 0 3.74-1.344 6.94-4.648 7.55-.658.12-1.638.15-2.338.15h-3.654v-15.4Zm28.117 5.19c-.868-1.97-2.926-2.95-5.656-2.95-3.416 0-5.53 1.61-6.244 4.26l2.366.71c.546-1.85 2.016-2.65 3.85-2.65 2.618 0 3.654 1.15 3.724 3.56-2.24.31-4.9.63-6.79 1.13-2.296.68-3.71 2.06-3.71 4.44 0 2.44 1.75 4.51 5.138 4.51 2.52 0 4.396-.92 5.6-2.77v2.35h2.212v-9.35c0-1.19-.07-2.3-.49-3.24Zm-6.944 10.92c-2.156 0-3.038-1.19-3.038-2.43 0-1.42 1.106-2.1 2.352-2.49 1.47-.42 3.514-.66 5.642-.94-.014.68-.042 1.65-.252 2.38-.364 1.87-2.016 3.48-4.704 3.48Zm19.516-11.39v-2.06h-4.564v-4.2h-2.492v4.2h-3.066v2.06h3.066v7.35c0 1.57-.084 2.71.518 3.89 1.05 2.06 3.836 2.37 6.538 1.82v-2.14c-2.072.32-3.584.24-4.256-.97-.364-.63-.308-1.47-.308-2.71v-7.24h4.564Zm14.689.47c-.868-1.97-2.926-2.95-5.656-2.95-3.416 0-5.53 1.61-6.244 4.26l2.366.71c.546-1.85 2.016-2.65 3.85-2.65 2.618 0 3.654 1.15 3.724 3.56-2.24.31-4.9.63-6.79 1.13-2.296.68-3.71 2.06-3.71 4.44 0 2.44 1.75 4.51 5.138 4.51 2.52 0 4.396-.92 5.6-2.77v2.35h2.212v-9.35c0-1.19-.07-2.3-.49-3.24Zm-6.944 10.92c-2.156 0-3.038-1.19-3.038-2.43 0-1.42 1.106-2.1 2.352-2.49 1.47-.42 3.514-.66 5.642-.94-.014.68-.042 1.65-.252 2.38-.364 1.87-2.016 3.48-4.704 3.48Zm22.392 2.08c3.766 0 6.048-1.77 6.048-4.69 0-2.34-1.302-3.46-5.292-4.48-3.556-.9-4.326-1.38-4.326-2.48 0-1.29 1.344-2.13 3.304-2.07 2.058.05 3.458 1.05 3.71 2.66l2.548-.47c-.322-2.66-2.814-4.42-6.258-4.42-3.486 0-5.81 1.76-5.81 4.42 0 2.17 1.274 3.21 5.278 4.27 3.696 1 4.27 1.36 4.27 2.64 0 1.48-1.26 2.39-3.318 2.39-2.184 0-3.752-1.02-4.158-2.67l-2.548.4c.518 2.84 2.94 4.5 6.552 4.5Zm17.578-13.47v-2.06h-4.564v-4.2h-2.492v4.2h-3.066v2.06h3.066v7.35c0 1.57-.084 2.71.518 3.89 1.05 2.06 3.836 2.37 6.538 1.82v-2.14c-2.072.32-3.584.24-4.256-.97-.364-.63-.308-1.47-.308-2.71v-7.24h4.564Zm8.88 13.48c4.494 0 7.294-3.25 7.294-7.99 0-4.68-2.758-7.97-7.294-7.97-4.438 0-7.28 3.22-7.28 7.97 0 4.69 2.758 7.99 7.28 7.99Zm0-2.37c-3.052 0-4.634-2.21-4.634-5.62 0-3.31 1.47-5.6 4.634-5.6 3.094 0 4.648 2.19 4.648 5.6 0 3.33-1.526 5.62-4.648 5.62Zm13.891-12.25c-.504.37-.952.89-1.288 1.47v-2.39h-2.226V1205h2.506v-7.59c0-1.79.364-3.57 1.834-4.62 1.05-.77 2.408-.84 3.458-.57v-2.34c-1.344-.29-3.122-.01-4.284.92Zm18.062 1.61c-.87-1.97-2.93-2.95-5.66-2.95-3.42 0-5.53 1.61-6.24 4.26l2.36.71c.55-1.85 2.02-2.65 3.85-2.65 2.62 0 3.66 1.15 3.73 3.56-2.24.31-4.9.63-6.79 1.13-2.3.68-3.71 2.06-3.71 4.44 0 2.44 1.75 4.51 5.13 4.51 2.52 0 4.4-.92 5.6-2.77v2.35h2.22v-9.35c0-1.19-.07-2.3-.49-3.24Zm-6.95 10.92c-2.15 0-3.04-1.19-3.04-2.43 0-1.42 1.11-2.1 2.36-2.49 1.47-.42 3.51-.66 5.64-.94-.02.68-.04 1.65-.25 2.38-.37 1.87-2.02 3.48-4.71 3.48Zm21.74-11.76c-1.1-1.33-2.68-2.11-4.74-2.11-4.2 0-6.76 3.43-6.76 7.97 0 4.53 2.54 7.99 6.77 7.99 1.86 0 3.36-.67 4.44-1.81v1.46c.03 3.08-1.36 4.66-4.24 4.66-1.47 0-2.97-.63-3.71-2.11l-2.28 1.2c1.26 2.26 3.59 3.32 5.97 3.32 3.62 0 6-1.5 6.58-4.72.14-.74.19-1.48.19-2.32v-15.22h-2.22v1.69Zm-4.42 11.57c-2.98 0-4.44-2.49-4.44-5.71 0-3.2 1.43-5.69 4.51-5.69 2.95 0 4.35 2.34 4.35 5.69 0 3.31-1.37 5.71-4.42 5.71Zm23.97-5c.23-5.38-2.43-8.68-6.98-8.68-4.4 0-7.28 3.12-7.28 8.08 0 4.73 2.92 7.88 7.39 7.88 2.92 0 5.43-1.53 6.62-4.2l-2.39-.83c-.84 1.73-2.36 2.66-4.34 2.66-2.79 0-4.41-1.77-4.61-4.91h11.59Zm-6.9-6.44c2.56 0 4 1.47 4.31 4.44h-8.96c.35-2.87 1.93-4.44 4.65-4.44Z" fill="#000"/><path fill="#0F31F7" d="M741 473h447v160H741z"/><path fill-rule="evenodd" clip-rule="evenodd" d="m795.917 534.332 34.63 34.629v-69.259l-34.63 34.63ZM830.082 571.666l-34.629-34.629v69.259l34.629-34.63ZM832.787 544.787v24.176l24.176-24.176h-24.176ZM769.038 561.123l24.175-24.176v24.176h-24.175Z" fill="#fff"/><path d="M911.265 551v-6.342h-15.479v-29.61h-6.791V551h22.27Zm11.536 0v-35.952h-6.791V551h6.791Zm22.465.749c10.386 0 17.027-7.34 17.027-17.677 0-.149-.05-1.647-.1-2.097h-12.932v5.243h5.692c-1.099 5.693-4.594 8.239-9.238 8.139-6.841-.099-10.236-4.843-10.236-12.333s3.395-12.434 10.236-12.334c4.594.05 7.54 2.747 8.839 6.941l6.94-.999c-1.797-7.839-6.99-12.333-16.228-12.333-9.388 0-16.978 6.791-16.978 18.725 0 12.184 7.89 18.725 16.978 18.725Zm28.822-.749v-14.83h16.079V551h6.791v-35.952h-6.791v14.78h-16.079v-14.78h-6.791V551h6.791Zm45.012 0v-29.611h11.33v-6.341h-29.46v6.341h11.34V551h6.79Zm22.24-23.968L1056.96 551h6.9v-35.952h-6.9v23.968l-15.62-23.968h-6.9V551h6.9v-23.968ZM1078.11 551v-35.952h-6.79V551h6.79Zm14.38-23.968L1108.12 551h6.89v-35.952h-6.89v23.968l-15.63-23.968h-6.89V551h6.89v-23.968Zm44.47 24.717c10.38 0 17.02-7.34 17.02-17.677 0-.149-.05-1.647-.1-2.097h-12.93v5.243h5.69c-1.1 5.693-4.59 8.239-9.24 8.139-6.84-.099-10.23-4.843-10.23-12.333s3.39-12.434 10.23-12.334c4.6.05 7.54 2.747 8.84 6.941l6.94-.999c-1.79-7.839-6.99-12.333-16.22-12.333-9.39 0-16.98 6.791-16.98 18.725 0 12.184 7.89 18.725 16.98 18.725ZM899.206 594c.774 0 3.021 0 4.719-.25 8.064-1.123 12.034-8.513 12.034-17.726 0-9.188-3.97-16.603-12.034-17.727-1.723-.249-3.92-.249-4.719-.249h-10.711V594h10.711Zm-7.69-33.131h7.69c1.398 0 3.246.075 4.369.275 6.667 1.148 9.313 7.165 9.313 14.88 0 7.69-2.621 13.707-9.313 14.88-1.123.2-2.871.275-4.369.275h-7.69v-30.31Zm32.863 30.335v-13.907h16.354v-2.796h-16.354v-13.657h19.35v-2.796h-22.221V594h22.221v-2.796h-19.35ZM962.8 594l12.733-35.952h-3.046l-11.51 32.357-11.434-32.357h-3.046L959.23 594h3.57Zm29.361 0v-18.376L1010.71 594h3.85l-18.704-18.675 17.204-17.277h-3.8l-17.099 17.077v-17.077h-2.871V594h2.871Zm29.269 0v-35.952h-2.87V594h2.87Zm20.26 0v-33.156h12.89v-2.796h-28.64v2.796h12.88V594h2.87Z" fill="#fff"/><path d="M235.118 825v-18.186h7.042v-1.974h-16.142v1.974h7.042V825h2.058Zm13.359.42c4.48 0 7.168-3.234 7.168-7.994 0-4.676-2.632-7.966-7.168-7.966-4.424 0-7.154 3.206-7.154 7.966 0 4.69 2.646 7.994 7.154 7.994Zm0-1.974c-3.276 0-4.97-2.38-4.97-6.02 0-3.528 1.582-5.992 4.97-5.992 3.332 0 4.984 2.352 4.984 5.992 0 3.57-1.624 6.02-4.984 6.02Zm16.57 1.974c4.48 0 7.168-3.234 7.168-7.994 0-4.676-2.632-7.966-7.168-7.966-4.424 0-7.154 3.206-7.154 7.966 0 4.69 2.646 7.994 7.154 7.994Zm0-1.974c-3.276 0-4.97-2.38-4.97-6.02 0-3.528 1.582-5.992 4.97-5.992 3.332 0 4.984 2.352 4.984 5.992 0 3.57-1.624 6.02-4.984 6.02ZM277.642 825v-20.58h-2.058V825h2.058Zm6.535-17.99v-2.31h-2.058v2.31h2.058Zm0 17.99v-15.12h-2.058V825h2.058Zm11.127-15.498c-2.17 0-3.962.84-5.082 2.478v-2.1h-1.862V825h2.072v-8.064c0-3.416 1.568-5.474 4.48-5.474 3.164 0 4.382 2.492 4.382 5.824V825h2.072v-8.316c0-3.402-1.526-7.182-6.062-7.182Zm20.517 2.464c-1.106-1.568-2.8-2.506-5.04-2.506-4.144 0-6.622 3.458-6.622 7.966 0 4.536 2.464 7.994 6.706 7.994 2.044 0 3.626-.84 4.718-2.212v1.554c.014 3.556-1.302 5.376-4.578 5.376-1.596 0-3.276-.686-4.102-2.366l-1.862 1.036c1.288 2.352 3.64 3.332 5.964 3.332 3.696 0 5.936-1.568 6.482-4.942.126-.77.168-1.54.168-2.408v-14.91h-1.834v2.086Zm-4.746 11.536c-3.15 0-4.732-2.632-4.732-6.076 0-3.416 1.526-6.048 4.774-6.048 3.15 0 4.704 2.492 4.704 6.048 0 3.5-1.526 6.076-4.746 6.076Zm10.214 4.424c1.456.28 2.394-.644 2.394-2.366v-3.514h-2.394V825h1.274c.056 1.05-.042 1.974-1.148 1.904l-.126 1.022Zm18.965-2.52c3.71 0 5.964-1.736 5.964-4.592 0-2.338-1.302-3.416-5.474-4.48-3.57-.896-4.424-1.456-4.424-2.66 0-1.428 1.484-2.38 3.626-2.338 2.268.042 3.85 1.134 4.144 2.912l2.1-.378c-.308-2.632-2.8-4.41-6.216-4.41-3.416 0-5.74 1.736-5.74 4.312 0 2.114 1.26 3.108 5.362 4.214 3.836 1.036 4.48 1.456 4.48 2.856 0 1.652-1.414 2.688-3.71 2.688-2.352 0-4.06-1.092-4.494-2.814l-2.1.35c.518 2.73 2.94 4.34 6.482 4.34Zm11.407-18.396v-2.31h-2.058v2.31h2.058Zm0 17.99v-15.12h-2.058V825h2.058Zm15.019-13.034c-1.106-1.568-2.8-2.506-5.04-2.506-4.144 0-6.622 3.458-6.622 7.966 0 4.536 2.464 7.994 6.706 7.994 2.044 0 3.626-.84 4.718-2.212v1.554c.014 3.556-1.302 5.376-4.578 5.376-1.596 0-3.276-.686-4.102-2.366l-1.862 1.036c1.288 2.352 3.64 3.332 5.964 3.332 3.696 0 5.936-1.568 6.482-4.942.126-.77.168-1.54.168-2.408v-14.91h-1.834v2.086Zm-4.746 11.536c-3.15 0-4.732-2.632-4.732-6.076 0-3.416 1.526-6.048 4.774-6.048 3.15 0 4.704 2.492 4.704 6.048 0 3.5-1.526 6.076-4.746 6.076Zm17.425-14c-2.17 0-3.962.84-5.082 2.478v-2.1h-1.862V825h2.072v-8.064c0-3.416 1.568-5.474 4.48-5.474 3.164 0 4.382 2.492 4.382 5.824V825h2.072v-8.316c0-3.402-1.526-7.182-6.062-7.182Zm12.033-2.492v-2.31h-2.058v2.31h2.058Zm0 17.99v-15.12h-2.058V825h2.058Zm11.127-15.498c-2.17 0-3.962.84-5.082 2.478v-2.1h-1.862V825h2.072v-8.064c0-3.416 1.568-5.474 4.48-5.474 3.164 0 4.382 2.492 4.382 5.824V825h2.072v-8.316c0-3.402-1.526-7.182-6.062-7.182Zm20.517 2.464c-1.106-1.568-2.8-2.506-5.04-2.506-4.144 0-6.622 3.458-6.622 7.966 0 4.536 2.464 7.994 6.706 7.994 2.044 0 3.626-.84 4.718-2.212v1.554c.014 3.556-1.302 5.376-4.578 5.376-1.596 0-3.276-.686-4.102-2.366l-1.862 1.036c1.288 2.352 3.64 3.332 5.964 3.332 3.696 0 5.936-1.568 6.482-4.942.126-.77.168-1.54.168-2.408v-14.91h-1.834v2.086Zm-4.746 11.536c-3.15 0-4.732-2.632-4.732-6.076 0-3.416 1.526-6.048 4.774-6.048 3.15 0 4.704 2.492 4.704 6.048 0 3.5-1.526 6.076-4.746 6.076Zm10.214 4.424c1.456.28 2.394-.644 2.394-2.366v-3.514h-2.394V825h1.274c.056 1.05-.042 1.974-1.148 1.904l-.126 1.022Zm-163.717 25.088c.154-5.334-2.478-8.554-6.958-8.554-4.368 0-7.154 3.094-7.154 8.05 0 4.788 2.828 7.91 7.238 7.91 2.926 0 5.376-1.498 6.58-4.144l-1.918-.742c-.938 1.89-2.59 2.912-4.746 2.912-3.01 0-4.788-1.974-4.956-5.432h11.914Zm-6.902-6.664c2.814 0 4.424 1.68 4.746 4.942h-9.716c.322-3.178 2.058-4.942 4.97-4.942Zm16.528-1.848c-2.17 0-3.962.84-5.082 2.478v-2.1h-1.862V860h2.072v-8.064c0-3.416 1.568-5.474 4.48-5.474 3.164 0 4.382 2.492 4.382 5.824V860h2.072v-8.316c0-3.402-1.526-7.182-6.062-7.182Zm17.927 2.142v-1.764h-4.634v-4.2h-2.044v4.2h-3.234v1.764h3.234v7.882c0 1.484-.07 2.562.476 3.668.994 2.016 3.64 2.338 6.202 1.806v-1.806c-2.17.35-3.654.224-4.326-1.036-.364-.644-.308-1.442-.308-2.716v-7.798h4.634Zm6.003-.77a4.701 4.701 0 0 0-1.176 1.4v-2.394h-1.848V860h2.058v-7.546c0-1.806.252-3.766 1.764-4.956 1.092-.896 2.492-.952 3.612-.686v-1.932c-1.33-.336-3.22-.042-4.41.994Zm13.107 14.546c4.48 0 7.168-3.234 7.168-7.994 0-4.676-2.632-7.966-7.168-7.966-4.424 0-7.154 3.206-7.154 7.966 0 4.69 2.646 7.994 7.154 7.994Zm0-1.974c-3.276 0-4.97-2.38-4.97-6.02 0-3.528 1.582-5.992 4.97-5.992 3.332 0 4.984 2.352 4.984 5.992 0 3.57-1.624 6.02-4.984 6.02Zm17.13-13.986c-2.24 0-3.934.938-5.04 2.506v-2.086h-1.848v21.84h2.072v-8.526c1.092 1.386 2.688 2.226 4.732 2.226 4.242 0 6.706-3.458 6.706-7.994 0-4.508-2.478-7.966-6.622-7.966Zm-.294 14.042c-3.22 0-4.746-2.576-4.746-6.076 0-3.556 1.554-6.048 4.704-6.048 3.248 0 4.774 2.632 4.774 6.048 0 3.444-1.582 6.076-4.732 6.076Zm10.13-13.622h-2.184l6.146 15.092-2.492 6.748h2.058l8.12-21.84h-2.1l-4.592 12.432-4.956-12.432Zm11.557 18.046c1.456.28 2.394-.644 2.394-2.366v-3.514h-2.394V860h1.274c.056 1.05-.042 1.974-1.148 1.904l-.126 1.022Zm26.595-9.912c.154-5.334-2.478-8.554-6.958-8.554-4.368 0-7.154 3.094-7.154 8.05 0 4.788 2.828 7.91 7.238 7.91 2.926 0 5.376-1.498 6.58-4.144l-1.918-.742c-.938 1.89-2.59 2.912-4.746 2.912-3.01 0-4.788-1.974-4.956-5.432h11.914Zm-6.902-6.664c2.814 0 4.424 1.68 4.746 4.942h-9.716c.322-3.178 2.058-4.942 4.97-4.942Zm18.241.294v-1.764h-4.634v-4.2h-2.044v4.2h-3.234v1.764h3.234v7.882c0 1.484-.07 2.562.476 3.668.994 2.016 3.64 2.338 6.202 1.806v-1.806c-2.17.35-3.654.224-4.326-1.036-.364-.644-.308-1.442-.308-2.716v-7.798h4.634Zm8.704 13.776c2.996 0 5.208-1.442 6.342-4.13l-2.072-.616c-.756 1.82-2.226 2.772-4.27 2.772-3.248 0-4.886-2.38-4.928-6.006.042-3.528 1.582-6.006 4.928-6.006 1.974 0 3.612 1.05 4.326 2.856l2.016-.644c-.84-2.59-3.276-4.186-6.328-4.186-4.522 0-7.07 3.22-7.126 7.98.056 4.662 2.534 7.98 7.112 7.98Zm11.471-.42v-2.394h-2.394V860h2.394ZM191.926 511v-15.568L199.094 511h1.33l7.182-15.568v15.554h1.96V490.84h-1.918l-7.882 16.954-7.924-16.954h-1.89V511h1.974Zm27.883.42c4.48 0 7.168-3.234 7.168-7.994 0-4.676-2.632-7.966-7.168-7.966-4.424 0-7.154 3.206-7.154 7.966 0 4.69 2.646 7.994 7.154 7.994Zm0-1.974c-3.276 0-4.97-2.38-4.97-6.02 0-3.528 1.582-5.992 4.97-5.992 3.332 0 4.984 2.352 4.984 5.992 0 3.57-1.624 6.02-4.984 6.02Zm17.186-13.944c-2.17 0-3.962.84-5.082 2.478v-2.1h-1.862V511h2.072v-8.064c0-3.416 1.568-5.474 4.48-5.474 3.164 0 4.382 2.492 4.382 5.824V511h2.072v-8.316c0-3.402-1.526-7.182-6.062-7.182Zm12.033-2.492v-2.31h-2.058v2.31h2.058Zm0 17.99v-15.12h-2.058V511h2.058Zm12.43-13.356v-1.764h-4.634v-4.2h-2.044v4.2h-3.234v1.764h3.234v7.882c0 1.484-.07 2.562.476 3.668.994 2.016 3.64 2.338 6.202 1.806v-1.806c-2.17.35-3.654.224-4.326-1.036-.364-.644-.308-1.442-.308-2.716v-7.798h4.634Zm8.746 13.776c4.48 0 7.168-3.234 7.168-7.994 0-4.676-2.632-7.966-7.168-7.966-4.424 0-7.154 3.206-7.154 7.966 0 4.69 2.646 7.994 7.154 7.994Zm0-1.974c-3.276 0-4.97-2.38-4.97-6.02 0-3.528 1.582-5.992 4.97-5.992 3.332 0 4.984 2.352 4.984 5.992 0 3.57-1.624 6.02-4.984 6.02Zm13.28-12.572a4.701 4.701 0 0 0-1.176 1.4v-2.394h-1.848V511h2.058v-7.546c0-1.806.252-3.766 1.764-4.956 1.092-.896 2.492-.952 3.612-.686v-1.932c-1.33-.336-3.22-.042-4.41.994Zm9.404-3.864v-2.31h-2.058v2.31h2.058Zm0 17.99v-15.12h-2.058V511h2.058Zm11.127-15.498c-2.17 0-3.962.84-5.082 2.478v-2.1h-1.862V511h2.072v-8.064c0-3.416 1.568-5.474 4.48-5.474 3.164 0 4.382 2.492 4.382 5.824V511h2.072v-8.316c0-3.402-1.526-7.182-6.062-7.182Zm20.517 2.464c-1.106-1.568-2.8-2.506-5.04-2.506-4.144 0-6.622 3.458-6.622 7.966 0 4.536 2.464 7.994 6.706 7.994 2.044 0 3.626-.84 4.718-2.212v1.554c.014 3.556-1.302 5.376-4.578 5.376-1.596 0-3.276-.686-4.102-2.366l-1.862 1.036c1.288 2.352 3.64 3.332 5.964 3.332 3.696 0 5.936-1.568 6.482-4.942.126-.77.168-1.54.168-2.408v-14.91h-1.834v2.086Zm-4.746 11.536c-3.15 0-4.732-2.632-4.732-6.076 0-3.416 1.526-6.048 4.774-6.048 3.15 0 4.704 2.492 4.704 6.048 0 3.5-1.526 6.076-4.746 6.076Zm22.974-14.042c-2.1 0-3.71.826-4.816 2.198v-6.818h-2.072V511h1.848v-2.114c1.092 1.568 2.758 2.534 4.956 2.534 4.242 0 6.706-3.458 6.706-7.994 0-4.508-2.478-7.966-6.622-7.966Zm-.294 14.042c-3.22 0-4.746-2.576-4.746-6.076 0-3.556 1.554-6.048 4.704-6.048 3.248 0 4.774 2.632 4.774 6.048 0 3.444-1.582 6.076-4.732 6.076ZM354.794 511v-20.58h-2.058V511h2.058Zm10.511.42c4.48 0 7.168-3.234 7.168-7.994 0-4.676-2.632-7.966-7.168-7.966-4.424 0-7.154 3.206-7.154 7.966 0 4.69 2.646 7.994 7.154 7.994Zm0-1.974c-3.276 0-4.97-2.38-4.97-6.02 0-3.528 1.582-5.992 4.97-5.992 3.332 0 4.984 2.352 4.984 5.992 0 3.57-1.624 6.02-4.984 6.02Zm16.529 1.974c2.996 0 5.208-1.442 6.342-4.13l-2.072-.616c-.756 1.82-2.226 2.772-4.27 2.772-3.248 0-4.886-2.38-4.928-6.006.042-3.528 1.582-6.006 4.928-6.006 1.974 0 3.612 1.05 4.326 2.856l2.016-.644c-.84-2.59-3.276-4.186-6.328-4.186-4.522 0-7.07 3.22-7.126 7.98.056 4.662 2.534 7.98 7.112 7.98Zm11.303-.42v-7.28l7.42 7.28h2.996l-8.008-7.56 7.084-7.56h-2.744l-6.748 7.28v-12.32h-2.072l-.014 20.16h2.086Zm17.818.42c2.996 0 5.208-1.442 6.342-4.13l-2.072-.616c-.756 1.82-2.226 2.772-4.27 2.772-3.248 0-4.886-2.38-4.928-6.006.042-3.528 1.582-6.006 4.928-6.006 1.974 0 3.612 1.05 4.326 2.856l2.016-.644c-.84-2.59-3.276-4.186-6.328-4.186-4.522 0-7.07 3.22-7.126 7.98.056 4.662 2.534 7.98 7.112 7.98Zm16.162-15.918c-2.17 0-3.962.84-5.082 2.478v-7.14h-1.862V511h2.072v-8.064c0-3.416 1.568-5.474 4.48-5.474 3.164 0 4.382 2.492 4.382 5.824V511h2.072v-8.316c0-3.402-1.526-7.182-6.062-7.182Zm21.161 2.982c-.798-1.96-2.814-3.024-5.572-3.024-3.332 0-5.46 1.568-6.16 4.27l2.002.588c.574-2.016 2.058-2.912 4.13-2.912 2.87 0 4.004 1.316 4.032 4.046-2.016.28-4.844.602-6.888 1.092-2.254.602-3.85 1.918-3.85 4.396 0 2.408 1.736 4.48 5.166 4.48 2.576 0 4.578-1.008 5.754-2.926V511h1.834v-9.394c0-1.12-.084-2.24-.448-3.122Zm-6.902 11.158c-2.436 0-3.346-1.386-3.346-2.702 0-1.638 1.33-2.366 2.618-2.744 1.666-.462 4.046-.7 6.034-.938 0 .686-.028 1.666-.196 2.408-.392 2.282-2.226 3.976-5.11 3.976Zm13.332-16.632v-2.31h-2.058v2.31h2.058Zm0 17.99v-15.12h-2.058V511h2.058Zm11.127-15.498c-2.17 0-3.962.84-5.082 2.478v-2.1h-1.862V511h2.072v-8.064c0-3.416 1.568-5.474 4.48-5.474 3.164 0 4.382 2.492 4.382 5.824V511h2.072v-8.316c0-3.402-1.526-7.182-6.062-7.182Zm9.415 18.424c1.456.28 2.394-.644 2.394-2.366v-3.514h-2.394V511h1.274c.056 1.05-.042 1.974-1.148 1.904l-.126 1.022ZM257.475 530.46c-2.1 0-3.71.826-4.816 2.198v-6.818h-2.072V546h1.848v-2.114c1.092 1.568 2.758 2.534 4.956 2.534 4.242 0 6.706-3.458 6.706-7.994 0-4.508-2.478-7.966-6.622-7.966Zm-.294 14.042c-3.22 0-4.746-2.576-4.746-6.076 0-3.556 1.554-6.048 4.704-6.048 3.248 0 4.774 2.632 4.774 6.048 0 3.444-1.582 6.076-4.732 6.076Zm13.014-12.628a4.701 4.701 0 0 0-1.176 1.4v-2.394h-1.848V546h2.058v-7.546c0-1.806.252-3.766 1.764-4.956 1.092-.896 2.492-.952 3.612-.686v-1.932c-1.33-.336-3.22-.042-4.41.994Zm13.106 14.546c4.48 0 7.168-3.234 7.168-7.994 0-4.676-2.632-7.966-7.168-7.966-4.424 0-7.154 3.206-7.154 7.966 0 4.69 2.646 7.994 7.154 7.994Zm0-1.974c-3.276 0-4.97-2.38-4.97-6.02 0-3.528 1.582-5.992 4.97-5.992 3.332 0 4.984 2.352 4.984 5.992 0 3.57-1.624 6.02-4.984 6.02Zm21.723-10.962c-.798-1.96-2.814-3.024-5.572-3.024-3.332 0-5.46 1.568-6.16 4.27l2.002.588c.574-2.016 2.058-2.912 4.13-2.912 2.87 0 4.004 1.316 4.032 4.046-2.016.28-4.844.602-6.888 1.092-2.254.602-3.85 1.918-3.85 4.396 0 2.408 1.736 4.48 5.166 4.48 2.576 0 4.578-1.008 5.754-2.926V546h1.834v-9.394c0-1.12-.084-2.24-.448-3.122Zm-6.902 11.158c-2.436 0-3.346-1.386-3.346-2.702 0-1.638 1.33-2.366 2.618-2.744 1.666-.462 4.046-.7 6.034-.938 0 .686-.028 1.666-.196 2.408-.392 2.282-2.226 3.976-5.11 3.976Zm21.592-11.984c-1.106-1.372-2.716-2.198-4.816-2.198-4.144 0-6.622 3.458-6.622 7.966 0 4.536 2.464 7.994 6.706 7.994 2.198 0 3.864-.966 4.956-2.534V546h1.848v-20.16h-2.072v6.818Zm-4.522 11.844c-3.15 0-4.732-2.632-4.732-6.076 0-3.416 1.526-6.048 4.774-6.048 3.15 0 4.704 2.492 4.704 6.048 0 3.5-1.526 6.076-4.746 6.076Zm16.794 1.918c2.996 0 5.208-1.442 6.342-4.13l-2.072-.616c-.756 1.82-2.226 2.772-4.27 2.772-3.248 0-4.886-2.38-4.928-6.006.042-3.528 1.582-6.006 4.928-6.006 1.974 0 3.612 1.05 4.326 2.856l2.016-.644c-.84-2.59-3.276-4.186-6.328-4.186-4.522 0-7.07 3.22-7.126 7.98.056 4.662 2.534 7.98 7.112 7.98Zm20.588-12.936c-.798-1.96-2.814-3.024-5.572-3.024-3.332 0-5.46 1.568-6.16 4.27l2.002.588c.574-2.016 2.058-2.912 4.13-2.912 2.87 0 4.004 1.316 4.032 4.046-2.016.28-4.844.602-6.888 1.092-2.254.602-3.85 1.918-3.85 4.396 0 2.408 1.736 4.48 5.166 4.48 2.576 0 4.578-1.008 5.754-2.926V546h1.834v-9.394c0-1.12-.084-2.24-.448-3.122Zm-6.902 11.158c-2.436 0-3.346-1.386-3.346-2.702 0-1.638 1.33-2.366 2.618-2.744 1.666-.462 4.046-.7 6.034-.938 0 .686-.028 1.666-.196 2.408-.392 2.282-2.226 3.976-5.11 3.976Zm16.637 1.764c3.71 0 5.964-1.736 5.964-4.592 0-2.338-1.302-3.416-5.474-4.48-3.57-.896-4.424-1.456-4.424-2.66 0-1.428 1.484-2.38 3.626-2.338 2.268.042 3.85 1.134 4.144 2.912l2.1-.378c-.308-2.632-2.8-4.41-6.216-4.41-3.416 0-5.74 1.736-5.74 4.312 0 2.114 1.26 3.108 5.362 4.214 3.836 1.036 4.48 1.456 4.48 2.856 0 1.652-1.414 2.688-3.71 2.688-2.352 0-4.06-1.092-4.494-2.814l-2.1.35c.518 2.73 2.94 4.34 6.482 4.34Zm17.301-13.762v-1.764h-4.634v-4.2h-2.044v4.2h-3.234v1.764h3.234v7.882c0 1.484-.07 2.562.476 3.668.994 2.016 3.64 2.338 6.202 1.806v-1.806c-2.17.35-3.654.224-4.326-1.036-.364-.644-.308-1.442-.308-2.716v-7.798h4.634Zm5.317-4.634v-2.31h-2.058v2.31h2.058Zm0 17.99v-15.12h-2.058V546h2.058Zm11.127-15.498c-2.17 0-3.962.84-5.082 2.478v-2.1h-1.862V546h2.072v-8.064c0-3.416 1.568-5.474 4.48-5.474 3.164 0 4.382 2.492 4.382 5.824V546h2.072v-8.316c0-3.402-1.526-7.182-6.062-7.182Zm20.517 2.464c-1.106-1.568-2.8-2.506-5.04-2.506-4.144 0-6.622 3.458-6.622 7.966 0 4.536 2.464 7.994 6.706 7.994 2.044 0 3.626-.84 4.718-2.212v1.554c.014 3.556-1.302 5.376-4.578 5.376-1.596 0-3.276-.686-4.102-2.366l-1.862 1.036c1.288 2.352 3.64 3.332 5.964 3.332 3.696 0 5.936-1.568 6.482-4.942.126-.77.168-1.54.168-2.408v-14.91h-1.834v2.086Zm-4.746 11.536c-3.15 0-4.732-2.632-4.732-6.076 0-3.416 1.526-6.048 4.774-6.048 3.15 0 4.704 2.492 4.704 6.048 0 3.5-1.526 6.076-4.746 6.076Zm-180.391 23.142v-1.764H226.8v-4.2h-2.044v4.2h-3.234v1.764h3.234v7.882c0 1.484-.07 2.562.476 3.668.994 2.016 3.64 2.338 6.202 1.806v-1.806c-2.17.35-3.654.224-4.326-1.036-.364-.644-.308-1.442-.308-2.716v-7.798h4.634Zm6.003-.77a4.701 4.701 0 0 0-1.176 1.4v-2.394h-1.848V581h2.058v-7.546c0-1.806.252-3.766 1.764-4.956 1.092-.896 2.492-.952 3.612-.686v-1.932c-1.33-.336-3.22-.042-4.41.994Zm17.985 1.61c-.798-1.96-2.814-3.024-5.572-3.024-3.332 0-5.46 1.568-6.16 4.27l2.002.588c.574-2.016 2.058-2.912 4.13-2.912 2.87 0 4.004 1.316 4.032 4.046-2.016.28-4.844.602-6.888 1.092-2.254.602-3.85 1.918-3.85 4.396 0 2.408 1.736 4.48 5.166 4.48 2.576 0 4.578-1.008 5.754-2.926V581h1.834v-9.394c0-1.12-.084-2.24-.448-3.122Zm-6.902 11.158c-2.436 0-3.346-1.386-3.346-2.702 0-1.638 1.33-2.366 2.618-2.744 1.666-.462 4.046-.7 6.034-.938 0 .686-.028 1.666-.196 2.408-.392 2.282-2.226 3.976-5.11 3.976Zm17.925-14.14c-2.17 0-3.962.84-5.082 2.478v-2.1h-1.862V581h2.072v-8.064c0-3.416 1.568-5.474 4.48-5.474 3.164 0 4.382 2.492 4.382 5.824V581h2.072v-8.316c0-3.402-1.526-7.182-6.062-7.182Zm15.337 15.904c3.71 0 5.964-1.736 5.964-4.592 0-2.338-1.302-3.416-5.474-4.48-3.57-.896-4.424-1.456-4.424-2.66 0-1.428 1.484-2.38 3.626-2.338 2.268.042 3.85 1.134 4.144 2.912l2.1-.378c-.308-2.632-2.8-4.41-6.216-4.41-3.416 0-5.74 1.736-5.74 4.312 0 2.114 1.26 3.108 5.362 4.214 3.836 1.036 4.48 1.456 4.48 2.856 0 1.652-1.414 2.688-3.71 2.688-2.352 0-4.06-1.092-4.494-2.814l-2.1.35c.518 2.73 2.94 4.34 6.482 4.34Zm20.535-12.922c-.798-1.96-2.814-3.024-5.572-3.024-3.332 0-5.46 1.568-6.16 4.27l2.002.588c.574-2.016 2.058-2.912 4.13-2.912 2.87 0 4.004 1.316 4.032 4.046-2.016.28-4.844.602-6.888 1.092-2.254.602-3.85 1.918-3.85 4.396 0 2.408 1.736 4.48 5.166 4.48 2.576 0 4.578-1.008 5.754-2.926V581h1.834v-9.394c0-1.12-.084-2.24-.448-3.122Zm-6.902 11.158c-2.436 0-3.346-1.386-3.346-2.702 0-1.638 1.33-2.366 2.618-2.744 1.666-.462 4.046-.7 6.034-.938 0 .686-.028 1.666-.196 2.408-.392 2.282-2.226 3.976-5.11 3.976Zm17.266 1.778c2.996 0 5.208-1.442 6.342-4.13l-2.072-.616c-.756 1.82-2.226 2.772-4.27 2.772-3.248 0-4.886-2.38-4.928-6.006.042-3.528 1.582-6.006 4.928-6.006 1.974 0 3.612 1.05 4.326 2.856l2.016-.644c-.84-2.59-3.276-4.186-6.328-4.186-4.522 0-7.07 3.22-7.126 7.98.056 4.662 2.534 7.98 7.112 7.98Zm17.464-13.776v-1.764h-4.634v-4.2h-2.044v4.2h-3.234v1.764h3.234v7.882c0 1.484-.07 2.562.476 3.668.994 2.016 3.64 2.338 6.202 1.806v-1.806c-2.17.35-3.654.224-4.326-1.036-.364-.644-.308-1.442-.308-2.716v-7.798h4.634Zm5.317-4.634v-2.31h-2.058v2.31h2.058Zm0 17.99v-15.12h-2.058V581h2.058Zm10.511.42c4.48 0 7.168-3.234 7.168-7.994 0-4.676-2.632-7.966-7.168-7.966-4.424 0-7.154 3.206-7.154 7.966 0 4.69 2.646 7.994 7.154 7.994Zm0-1.974c-3.276 0-4.97-2.38-4.97-6.02 0-3.528 1.582-5.992 4.97-5.992 3.332 0 4.984 2.352 4.984 5.992 0 3.57-1.624 6.02-4.984 6.02Zm17.187-13.944c-2.17 0-3.962.84-5.082 2.478v-2.1h-1.862V581h2.072v-8.064c0-3.416 1.568-5.474 4.48-5.474 3.164 0 4.382 2.492 4.382 5.824V581h2.072v-8.316c0-3.402-1.526-7.182-6.062-7.182Zm15.337 15.904c3.71 0 5.964-1.736 5.964-4.592 0-2.338-1.302-3.416-5.474-4.48-3.57-.896-4.424-1.456-4.424-2.66 0-1.428 1.484-2.38 3.626-2.338 2.268.042 3.85 1.134 4.144 2.912l2.1-.378c-.308-2.632-2.8-4.41-6.216-4.41-3.416 0-5.74 1.736-5.74 4.312 0 2.114 1.26 3.108 5.362 4.214 3.836 1.036 4.48 1.456 4.48 2.856 0 1.652-1.414 2.688-3.71 2.688-2.352 0-4.06-1.092-4.494-2.814l-2.1.35c.518 2.73 2.94 4.34 6.482 4.34Zm8.788 2.52c1.456.28 2.394-.644 2.394-2.366v-3.514h-2.394V581h1.274c.056 1.05-.042 1.974-1.148 1.904l-.126 1.022Zm26.595-9.912c.154-5.334-2.478-8.554-6.958-8.554-4.368 0-7.154 3.094-7.154 8.05 0 4.788 2.828 7.91 7.238 7.91 2.926 0 5.376-1.498 6.58-4.144l-1.918-.742c-.938 1.89-2.59 2.912-4.746 2.912-3.01 0-4.788-1.974-4.956-5.432h11.914Zm-6.902-6.664c2.814 0 4.424 1.68 4.746 4.942h-9.716c.322-3.178 2.058-4.942 4.97-4.942Zm18.241.294v-1.764h-4.634v-4.2h-2.044v4.2h-3.234v1.764h3.234v7.882c0 1.484-.07 2.562.476 3.668.994 2.016 3.64 2.338 6.202 1.806v-1.806c-2.17.35-3.654.224-4.326-1.036-.364-.644-.308-1.442-.308-2.716v-7.798h4.634Zm8.704 13.776c2.996 0 5.208-1.442 6.342-4.13l-2.072-.616c-.756 1.82-2.226 2.772-4.27 2.772-3.248 0-4.886-2.38-4.928-6.006.042-3.528 1.582-6.006 4.928-6.006 1.974 0 3.612 1.05 4.326 2.856l2.016-.644c-.84-2.59-3.276-4.186-6.328-4.186-4.522 0-7.07 3.22-7.126 7.98.056 4.662 2.534 7.98 7.112 7.98Zm11.471-.42v-2.394H443V581h2.394ZM1442.95 498v-18.186h7.04v-1.974h-16.14v1.974h7.04V498h2.06Zm17.45.42c4.67 0 7.68-2.59 8.79-6.622l-2.1-.546c-.85 3.178-3.08 5.194-6.69 5.194-4.73 0-7.14-3.486-7.11-8.526.04-5.04 2.38-8.526 7.11-8.526 3.61 0 5.84 2.016 6.69 5.194l2.1-.546c-1.11-4.032-4.12-6.622-8.79-6.622-6.02 0-9.28 4.298-9.28 10.5s3.26 10.5 9.28 10.5Zm13.94-.42v-7.658h5.72c.38 0 .91-.028 1.42-.112 3.13-.476 4.91-2.996 4.91-6.132 0-3.15-1.76-5.656-4.91-6.146a9.076 9.076 0 0 0-1.42-.112h-7.78V498h2.06Zm0-18.186h5.67c.33 0 .82.028 1.24.112 2.07.448 3.03 2.296 3.03 4.172s-.96 3.724-3.03 4.158c-.42.098-.91.126-1.24.126h-5.67v-8.568Zm31.91 5.67c-.8-1.96-2.82-3.024-5.57-3.024-3.34 0-5.46 1.568-6.16 4.27l2 .588c.57-2.016 2.06-2.912 4.13-2.912 2.87 0 4 1.316 4.03 4.046-2.02.28-4.84.602-6.89 1.092-2.25.602-3.85 1.918-3.85 4.396 0 2.408 1.74 4.48 5.17 4.48 2.57 0 4.58-1.008 5.75-2.926V498h1.84v-9.394c0-1.12-.09-2.24-.45-3.122Zm-6.9 11.158c-2.44 0-3.35-1.386-3.35-2.702 0-1.638 1.33-2.366 2.62-2.744 1.66-.462 4.04-.7 6.03-.938 0 .686-.03 1.666-.19 2.408-.4 2.282-2.23 3.976-5.11 3.976Zm17.92-14.14c-2.17 0-3.96.84-5.08 2.478v-2.1h-1.86V498h2.07v-8.064c0-3.416 1.57-5.474 4.48-5.474 3.16 0 4.38 2.492 4.38 5.824V498h2.07v-8.316c0-3.402-1.52-7.182-6.06-7.182Zm20.18 2.156c-1.1-1.372-2.71-2.198-4.81-2.198-4.15 0-6.62 3.458-6.62 7.966 0 4.536 2.46 7.994 6.7 7.994 2.2 0 3.87-.966 4.96-2.534V498h1.85v-20.16h-2.08v6.818Zm-4.52 11.844c-3.15 0-4.73-2.632-4.73-6.076 0-3.416 1.53-6.048 4.77-6.048 3.15 0 4.71 2.492 4.71 6.048 0 3.5-1.53 6.076-4.75 6.076Zm23.06-14c-2.17 0-3.96.84-5.08 2.478v-2.1h-1.86V498h2.07v-8.064c0-3.416 1.57-5.474 4.48-5.474 3.16 0 4.38 2.492 4.38 5.824V498h2.07v-8.316c0-3.402-1.52-7.182-6.06-7.182Zm22.86 8.512c.15-5.334-2.48-8.554-6.96-8.554-4.37 0-7.15 3.094-7.15 8.05 0 4.788 2.82 7.91 7.23 7.91 2.93 0 5.38-1.498 6.58-4.144l-1.91-.742c-.94 1.89-2.59 2.912-4.75 2.912-3.01 0-4.79-1.974-4.96-5.432h11.92Zm-6.9-6.664c2.81 0 4.42 1.68 4.74 4.942h-9.71c.32-3.178 2.05-4.942 4.97-4.942Zm18.24.294v-1.764h-4.64v-4.2h-2.04v4.2h-3.24v1.764h3.24v7.882c0 1.484-.07 2.562.47 3.668 1 2.016 3.64 2.338 6.21 1.806v-1.806c-2.17.35-3.66.224-4.33-1.036-.36-.644-.31-1.442-.31-2.716v-7.798h4.64Zm7.99 13.356 3.76-12.04 3.78 12.04h1.8l4.62-15.12h-2.05l-3.61 11.746-3.6-11.746h-1.87l-3.6 11.746-3.59-11.746-2.05-.014 4.62 15.134h1.79Zm22.24.42c4.48 0 7.17-3.234 7.17-7.994 0-4.676-2.63-7.966-7.17-7.966-4.42 0-7.15 3.206-7.15 7.966 0 4.69 2.65 7.994 7.15 7.994Zm0-1.974c-3.27 0-4.97-2.38-4.97-6.02 0-3.528 1.59-5.992 4.97-5.992 3.34 0 4.99 2.352 4.99 5.992 0 3.57-1.63 6.02-4.99 6.02Zm13.28-12.572c-.43.336-.85.826-1.17 1.4v-2.394h-1.85V498h2.06v-7.546c0-1.806.25-3.766 1.76-4.956 1.09-.896 2.49-.952 3.61-.686v-1.932c-1.33-.336-3.22-.042-4.41.994Zm9.14 14.126v-7.28l7.42 7.28h3l-8.01-7.56 7.08-7.56h-2.74l-6.75 7.28v-12.32h-2.07l-.01 20.16h2.08Zm14.16-17.99v-2.31h-2.06v2.31h2.06Zm0 17.99v-15.12h-2.06V498h2.06Zm11.13-15.498c-2.17 0-3.97.84-5.09 2.478v-2.1h-1.86V498h2.07v-8.064c0-3.416 1.57-5.474 4.48-5.474 3.17 0 4.39 2.492 4.39 5.824V498h2.07v-8.316c0-3.402-1.53-7.182-6.06-7.182Zm20.51 2.464c-1.1-1.568-2.8-2.506-5.04-2.506-4.14 0-6.62 3.458-6.62 7.966 0 4.536 2.47 7.994 6.71 7.994 2.04 0 3.62-.84 4.72-2.212v1.554c.01 3.556-1.31 5.376-4.58 5.376-1.6 0-3.28-.686-4.1-2.366l-1.87 1.036c1.29 2.352 3.64 3.332 5.97 3.332 3.69 0 5.93-1.568 6.48-4.942.13-.77.17-1.54.17-2.408v-14.91h-1.84v2.086Zm-4.74 11.536c-3.15 0-4.73-2.632-4.73-6.076 0-3.416 1.52-6.048 4.77-6.048 3.15 0 4.7 2.492 4.7 6.048 0 3.5-1.52 6.076-4.74 6.076ZM1456.48 845v-1.974h-9.58V824.84h-2.06V845h11.64Zm8.5 0c.39 0 1.65 0 2.59-.126 4.59-.63 6.92-4.788 6.92-9.954 0-5.138-2.33-9.324-6.92-9.954-.96-.126-2.17-.126-2.59-.126h-6.12V845h6.12Zm-3.99-18.186h3.99c.73 0 1.74.042 2.38.168 3.5.616 4.94 3.864 4.94 7.938 0 4.018-1.41 7.322-4.94 7.938-.64.126-1.62.168-2.38.168h-3.99v-16.212ZM1479.73 845v-10.08l9.92 10.08h2.68l-10.16-10.43 9.39-9.73h-2.63l-9.2 9.52v-9.52h-2.05V845h2.05Zm32.9-6.986c.16-5.334-2.48-8.554-6.96-8.554-4.36 0-7.15 3.094-7.15 8.05 0 4.788 2.83 7.91 7.24 7.91 2.92 0 5.37-1.498 6.58-4.144l-1.92-.742c-.94 1.89-2.59 2.912-4.75 2.912-3.01 0-4.78-1.974-4.95-5.432h11.91Zm-6.9-6.664c2.81 0 4.42 1.68 4.75 4.942h-9.72c.32-3.178 2.06-4.942 4.97-4.942Zm24.68-1.876c-2.02 0-3.7.952-4.58 2.548-.81-1.652-2.42-2.548-4.41-2.548-1.79 0-3.32.77-4.26 2.002v-1.596h-1.84V845h2.07v-9.758c0-2.366 1.4-3.92 3.5-3.92 2.08 0 3.48 1.484 3.48 3.892l-.01 9.786h2.03l.01-9.758c0-2.814 1.81-3.92 3.53-3.92 1.99 0 3.45 1.414 3.45 3.752l-.02 9.926h2.06l.01-10.318c0-3.192-1.97-5.208-5.02-5.208Zm10.99-2.464v-2.31h-2.06v2.31h2.06Zm0 17.99v-15.12h-2.06V845h2.06Zm12.43-13.356v-1.764h-4.63v-4.2h-2.05v4.2h-3.23v1.764h3.23v7.882c0 1.484-.07 2.562.48 3.668.99 2.016 3.64 2.338 6.2 1.806v-1.806c-2.17.35-3.65.224-4.33-1.036-.36-.644-.3-1.442-.3-2.716v-7.798h4.63Zm8.62 13.762c3.71 0 5.97-1.736 5.97-4.592 0-2.338-1.31-3.416-5.48-4.48-3.57-.896-4.42-1.456-4.42-2.66 0-1.428 1.48-2.38 3.62-2.338 2.27.042 3.85 1.134 4.15 2.912l2.1-.378c-.31-2.632-2.8-4.41-6.22-4.41-3.41 0-5.74 1.736-5.74 4.312 0 2.114 1.26 3.108 5.36 4.214 3.84 1.036 4.48 1.456 4.48 2.856 0 1.652-1.41 2.688-3.71 2.688-2.35 0-4.06-1.092-4.49-2.814l-2.1.35c.52 2.73 2.94 4.34 6.48 4.34Zm27.95-7.392c.15-5.334-2.48-8.554-6.96-8.554-4.37 0-7.15 3.094-7.15 8.05 0 4.788 2.82 7.91 7.23 7.91 2.93 0 5.38-1.498 6.58-4.144l-1.91-.742c-.94 1.89-2.59 2.912-4.75 2.912-3.01 0-4.79-1.974-4.96-5.432h11.92Zm-6.9-6.664c2.81 0 4.42 1.68 4.74 4.942h-9.71c.32-3.178 2.05-4.942 4.97-4.942Zm15.67 13.65 5.49-15.12h-2.11l-4.44 12.432-4.47-12.432h-2.08l5.49 15.12h2.12Zm20.73-6.986c.16-5.334-2.48-8.554-6.96-8.554-4.36 0-7.15 3.094-7.15 8.05 0 4.788 2.83 7.91 7.24 7.91 2.92 0 5.37-1.498 6.58-4.144l-1.92-.742c-.94 1.89-2.59 2.912-4.75 2.912-3.01 0-4.78-1.974-4.95-5.432h11.91Zm-6.9-6.664c2.81 0 4.42 1.68 4.75 4.942h-9.72c.32-3.178 2.06-4.942 4.97-4.942Zm16.53-1.848c-2.17 0-3.96.84-5.08 2.478v-2.1h-1.87V845h2.08v-8.064c0-3.416 1.56-5.474 4.48-5.474 3.16 0 4.38 2.492 4.38 5.824V845h2.07v-8.316c0-3.402-1.53-7.182-6.06-7.182Zm17.93 2.142v-1.764h-4.64v-4.2h-2.04v4.2h-3.24v1.764h3.24v7.882c0 1.484-.07 2.562.47 3.668 1 2.016 3.64 2.338 6.21 1.806v-1.806c-2.17.35-3.66.224-4.33-1.036-.36-.644-.31-1.442-.31-2.716v-7.798h4.64Zm8.62 13.762c3.71 0 5.96-1.736 5.96-4.592 0-2.338-1.3-3.416-5.47-4.48-3.57-.896-4.43-1.456-4.43-2.66 0-1.428 1.49-2.38 3.63-2.338 2.27.042 3.85 1.134 4.14 2.912l2.1-.378c-.31-2.632-2.8-4.41-6.21-4.41-3.42 0-5.74 1.736-5.74 4.312 0 2.114 1.26 3.108 5.36 4.214 3.83 1.036 4.48 1.456 4.48 2.856 0 1.652-1.42 2.688-3.71 2.688-2.35 0-4.06-1.092-4.5-2.814l-2.1.35c.52 2.73 2.94 4.34 6.49 4.34Zm22.9-13.762v-1.764h-4.63v-4.2h-2.04v4.2h-3.24v1.764h3.24v7.882c0 1.484-.07 2.562.47 3.668 1 2.016 3.64 2.338 6.2 1.806v-1.806c-2.17.35-3.65.224-4.32-1.036-.37-.644-.31-1.442-.31-2.716v-7.798h4.63Zm9.91-2.142c-2.17 0-3.96.84-5.08 2.478v-7.14h-1.86V845h2.07v-8.064c0-3.416 1.57-5.474 4.48-5.474 3.16 0 4.38 2.492 4.38 5.824V845h2.07v-8.316c0-3.402-1.52-7.182-6.06-7.182Zm21.16 2.982c-.8-1.96-2.81-3.024-5.57-3.024-3.33 0-5.46 1.568-6.16 4.27l2 .588c.58-2.016 2.06-2.912 4.13-2.912 2.87 0 4.01 1.316 4.03 4.046-2.01.28-4.84.602-6.88 1.092-2.26.602-3.85 1.918-3.85 4.396 0 2.408 1.73 4.48 5.16 4.48 2.58 0 4.58-1.008 5.76-2.926V845h1.83v-9.394c0-1.12-.08-2.24-.45-3.122Zm-6.9 11.158c-2.44 0-3.35-1.386-3.35-2.702 0-1.638 1.33-2.366 2.62-2.744 1.67-.462 4.05-.7 6.04-.938 0 .686-.03 1.666-.2 2.408-.39 2.282-2.23 3.976-5.11 3.976Zm19.23-11.998v-1.764h-4.64v-4.2h-2.04v4.2h-3.23v1.764h3.23v7.882c0 1.484-.07 2.562.48 3.668.99 2.016 3.64 2.338 6.2 1.806v-1.806c-2.17.35-3.66.224-4.33-1.036-.36-.644-.31-1.442-.31-2.716v-7.798h4.64Zm-249.28 41.3c0 3.416-1.57 5.474-4.48 5.474-3.16 0-4.38-2.492-4.38-5.824v-7.714h-2.07v8.316c0 3.402 1.52 7.182 6.06 7.182 2.17 0 3.96-.84 5.08-2.478v2.1h1.85v-15.12h-2.06v8.064Zm11.61 7.462c3.71 0 5.97-1.736 5.97-4.592 0-2.338-1.3-3.416-5.48-4.48-3.57-.896-4.42-1.456-4.42-2.66 0-1.428 1.48-2.38 3.63-2.338 2.26.042 3.85 1.134 4.14 2.912l2.1-.378c-.31-2.632-2.8-4.41-6.22-4.41-3.41 0-5.74 1.736-5.74 4.312 0 2.114 1.26 3.108 5.37 4.214 3.83 1.036 4.48 1.456 4.48 2.856 0 1.652-1.42 2.688-3.71 2.688-2.36 0-4.06-1.092-4.5-2.814l-2.1.35c.52 2.73 2.94 4.34 6.48 4.34Zm22.34-7.392c.16-5.334-2.47-8.554-6.95-8.554-4.37 0-7.16 3.094-7.16 8.05 0 4.788 2.83 7.91 7.24 7.91 2.93 0 5.38-1.498 6.58-4.144l-1.92-.742c-.94 1.89-2.59 2.912-4.74 2.912-3.01 0-4.79-1.974-4.96-5.432h11.91Zm-6.9-6.664c2.82 0 4.43 1.68 4.75 4.942h-9.72c.32-3.178 2.06-4.942 4.97-4.942Zm13.04-.476c-.44.336-.86.826-1.18 1.4v-2.394h-1.85V880h2.06v-7.546c0-1.806.25-3.766 1.76-4.956 1.1-.896 2.5-.952 3.62-.686v-1.932c-1.33-.336-3.22-.042-4.41.994Zm12.16 14.532c3.71 0 5.96-1.736 5.96-4.592 0-2.338-1.3-3.416-5.47-4.48-3.57-.896-4.43-1.456-4.43-2.66 0-1.428 1.49-2.38 3.63-2.338 2.27.042 3.85 1.134 4.14 2.912l2.1-.378c-.31-2.632-2.8-4.41-6.21-4.41-3.42 0-5.74 1.736-5.74 4.312 0 2.114 1.26 3.108 5.36 4.214 3.83 1.036 4.48 1.456 4.48 2.856 0 1.652-1.42 2.688-3.71 2.688-2.35 0-4.06-1.092-4.5-2.814l-2.1.35c.52 2.73 2.94 4.34 6.49 4.34Zm20.94.014c3 0 5.21-1.442 6.34-4.13l-2.07-.616c-.75 1.82-2.22 2.772-4.27 2.772-3.25 0-4.88-2.38-4.93-6.006.05-3.528 1.59-6.006 4.93-6.006 1.98 0 3.61 1.05 4.33 2.856l2.01-.644c-.84-2.59-3.27-4.186-6.32-4.186-4.53 0-7.07 3.22-7.13 7.98.06 4.662 2.53 7.98 7.11 7.98Zm20.59-12.936c-.8-1.96-2.81-3.024-5.57-3.024-3.33 0-5.46 1.568-6.16 4.27l2 .588c.58-2.016 2.06-2.912 4.13-2.912 2.87 0 4.01 1.316 4.03 4.046-2.01.28-4.84.602-6.88 1.092-2.26.602-3.85 1.918-3.85 4.396 0 2.408 1.73 4.48 5.16 4.48 2.58 0 4.58-1.008 5.76-2.926V880h1.83v-9.394c0-1.12-.08-2.24-.45-3.122Zm-6.9 11.158c-2.44 0-3.35-1.386-3.35-2.702 0-1.638 1.33-2.366 2.62-2.744 1.67-.462 4.05-.7 6.04-.938 0 .686-.03 1.666-.2 2.408-.39 2.282-2.23 3.976-5.11 3.976Zm17.92-14.14c-2.17 0-3.96.84-5.08 2.478v-2.1h-1.86V880h2.07v-8.064c0-3.416 1.57-5.474 4.48-5.474 3.17 0 4.38 2.492 4.38 5.824V880h2.08v-8.316c0-3.402-1.53-7.182-6.07-7.182Zm26.77 2.982c-.8-1.96-2.81-3.024-5.57-3.024-3.33 0-5.46 1.568-6.16 4.27l2 .588c.57-2.016 2.06-2.912 4.13-2.912 2.87 0 4 1.316 4.03 4.046-2.01.28-4.84.602-6.89 1.092-2.25.602-3.85 1.918-3.85 4.396 0 2.408 1.74 4.48 5.17 4.48 2.58 0 4.58-1.008 5.75-2.926V880h1.84v-9.394c0-1.12-.09-2.24-.45-3.122Zm-6.9 11.158c-2.44 0-3.35-1.386-3.35-2.702 0-1.638 1.33-2.366 2.62-2.744 1.67-.462 4.05-.7 6.03-.938 0 .686-.02 1.666-.19 2.408-.39 2.282-2.23 3.976-5.11 3.976Zm17.26 1.778c3 0 5.21-1.442 6.35-4.13l-2.08-.616c-.75 1.82-2.22 2.772-4.27 2.772-3.24 0-4.88-2.38-4.92-6.006.04-3.528 1.58-6.006 4.92-6.006 1.98 0 3.62 1.05 4.33 2.856l2.02-.644c-.84-2.59-3.28-4.186-6.33-4.186-4.52 0-7.07 3.22-7.13 7.98.06 4.662 2.54 7.98 7.11 7.98Zm17.47-13.776v-1.764h-4.64v-4.2h-2.04v4.2h-3.23v1.764h3.23v7.882c0 1.484-.07 2.562.48 3.668.99 2.016 3.64 2.338 6.2 1.806v-1.806c-2.17.35-3.66.224-4.33-1.036-.36-.644-.31-1.442-.31-2.716v-7.798h4.64Zm19.24 6.3c0 3.416-1.57 5.474-4.48 5.474-3.17 0-4.38-2.492-4.38-5.824v-7.714h-2.08v8.316c0 3.402 1.53 7.182 6.07 7.182 2.17 0 3.96-.84 5.08-2.478v2.1h1.85v-15.12h-2.06v8.064Zm12.84-8.484c-2.24 0-3.93.938-5.04 2.506v-2.086h-1.85v21.84h2.08v-8.526c1.09 1.386 2.68 2.226 4.73 2.226 4.24 0 6.7-3.458 6.7-7.994 0-4.508-2.47-7.966-6.62-7.966Zm-.29 14.042c-3.22 0-4.75-2.576-4.75-6.076 0-3.556 1.56-6.048 4.71-6.048 3.24 0 4.77 2.632 4.77 6.048 0 3.444-1.58 6.076-4.73 6.076Zm16.3 1.918c4.48 0 7.17-3.234 7.17-7.994 0-4.676-2.63-7.966-7.17-7.966-4.42 0-7.15 3.206-7.15 7.966 0 4.69 2.64 7.994 7.15 7.994Zm0-1.974c-3.27 0-4.97-2.38-4.97-6.02 0-3.528 1.58-5.992 4.97-5.992 3.33 0 4.99 2.352 4.99 5.992 0 3.57-1.63 6.02-4.99 6.02Zm17.19-13.944c-2.17 0-3.96.84-5.08 2.478v-2.1h-1.87V880h2.08v-8.064c0-3.416 1.56-5.474 4.48-5.474 3.16 0 4.38 2.492 4.38 5.824V880h2.07v-8.316c0-3.402-1.53-7.182-6.06-7.182Z" fill="#000"/><path fill="#0F31F7" d="M153 384h366v85H153z"/><path fill="#0F31F7" d="M157.5 388.5h357v76h-357z"/><path d="M193.176 440.54c5.994 0 9.936-3.294 11.412-8.442l-3.258-.864c-1.062 3.852-3.78 6.246-8.154 6.246-5.796 0-8.748-4.23-8.712-10.44.036-6.21 2.916-10.44 8.712-10.44 4.374 0 7.092 2.394 8.154 6.246l3.258-.864c-1.476-5.148-5.418-8.442-11.412-8.442-7.758 0-12.096 5.508-12.096 13.5s4.338 13.5 12.096 13.5Zm24.702-20.484c-2.808 0-5.04 1.08-6.48 3.006v-8.982h-2.88V440h3.24v-10.242c0-4.5 2.124-6.66 5.346-6.66 4.104 0 5.274 3.51 5.274 7.164V440h3.24v-10.746c0-3.69-1.476-9.198-7.74-9.198Zm27.359 3.762c-1.116-2.538-3.762-3.798-7.272-3.798-4.392 0-7.11 2.07-8.028 5.472l3.042.918c.702-2.376 2.592-3.402 4.95-3.402 3.366 0 4.698 1.476 4.788 4.572-2.88.396-6.3.81-8.73 1.458-2.952.864-4.77 2.646-4.77 5.706 0 3.132 2.25 5.796 6.606 5.796 3.24 0 5.652-1.188 7.2-3.564V440h2.844v-12.024c0-1.53-.09-2.952-.63-4.158Zm-8.928 14.04c-2.772 0-3.906-1.53-3.906-3.132 0-1.818 1.422-2.7 3.024-3.204 1.89-.54 4.518-.846 7.254-1.206-.018.882-.054 2.124-.324 3.06-.468 2.412-2.592 4.482-6.048 4.482Zm17.802-20.736v-3.312h-3.204v3.312h3.204Zm0 22.878v-19.44h-3.204V440h3.204Zm14.743-19.944c-2.808 0-5.04 1.08-6.48 3.006v-2.502h-2.88V440h3.24v-10.242c0-4.5 2.124-6.66 5.346-6.66 4.104 0 5.274 3.51 5.274 7.164V440h3.24v-10.746c0-3.69-1.476-9.198-7.74-9.198ZM292.045 440v-25.92h-3.204V440h3.204Zm14.743-19.944c-2.808 0-5.04 1.08-6.48 3.006v-2.502h-2.88V440h3.24v-10.242c0-4.5 2.124-6.66 5.346-6.66 4.104 0 5.274 3.51 5.274 7.164V440h3.24v-10.746c0-3.69-1.476-9.198-7.74-9.198Zm23.274 3.15v-2.646h-5.868v-5.4h-3.204v5.4h-3.942v2.646h3.942v9.45c0 2.016-.108 3.492.666 5.004 1.35 2.646 4.932 3.042 8.406 2.34v-2.754c-2.664.414-4.608.306-5.472-1.242-.468-.81-.396-1.89-.396-3.492v-9.306h5.868Zm20.4 7.974c.288-6.912-3.132-11.16-8.982-11.16-5.652 0-9.36 4.014-9.36 10.386 0 6.084 3.762 10.134 9.504 10.134 3.762 0 6.984-1.962 8.514-5.4l-3.078-1.062c-1.08 2.214-3.024 3.42-5.58 3.42-3.582 0-5.67-2.286-5.922-6.318h14.904Zm-8.874-8.28c3.294 0 5.148 1.89 5.544 5.706h-11.52c.45-3.69 2.484-5.706 5.976-5.706Zm17.399-1.152c-.648.468-1.224 1.134-1.656 1.89v-3.078h-2.862V440h3.222v-9.756c0-2.304.468-4.59 2.358-5.94 1.35-.99 3.096-1.08 4.446-.738v-3.006c-1.728-.378-4.014-.018-5.508 1.188Zm23.219 2.07c-1.116-2.538-3.762-3.798-7.272-3.798-4.392 0-7.11 2.07-8.028 5.472l3.042.918c.702-2.376 2.592-3.402 4.95-3.402 3.366 0 4.698 1.476 4.788 4.572-2.88.396-6.3.81-8.73 1.458-2.952.864-4.77 2.646-4.77 5.706 0 3.132 2.25 5.796 6.606 5.796 3.24 0 5.652-1.188 7.2-3.564V440h2.844v-12.024c0-1.53-.09-2.952-.63-4.158Zm-8.928 14.04c-2.772 0-3.906-1.53-3.906-3.132 0-1.818 1.422-2.7 3.024-3.204 1.89-.54 4.518-.846 7.254-1.206-.018.882-.054 2.124-.324 3.06-.468 2.412-2.592 4.482-6.048 4.482Zm22.428 2.682c4.014 0 6.948-1.962 8.316-5.598l-3.24-.846c-.882 2.214-2.556 3.402-5.076 3.402-3.87 0-5.832-2.88-5.868-7.218.036-4.212 1.872-7.218 5.868-7.218 2.358 0 4.32 1.314 5.148 3.564l3.168-.954c-1.026-3.492-4.194-5.652-8.28-5.652-5.85 0-9.252 4.194-9.306 10.26.054 5.958 3.348 10.26 9.27 10.26Zm22.844-17.334v-2.646h-5.868v-5.4h-3.204v5.4h-3.942v2.646h3.942v9.45c0 2.016-.108 3.492.666 5.004 1.35 2.646 4.932 3.042 8.406 2.34v-2.754c-2.664.414-4.608.306-5.472-1.242-.468-.81-.396-1.89-.396-3.492v-9.306h5.868Zm7.511-6.084v-3.312h-3.204v3.312h3.204Zm0 22.878v-19.44h-3.204V440h3.204Zm13.68.54c5.778 0 9.378-4.176 9.378-10.278 0-6.012-3.546-10.242-9.378-10.242-5.706 0-9.36 4.14-9.36 10.242 0 6.03 3.546 10.278 9.36 10.278Zm0-3.042c-3.924 0-5.958-2.844-5.958-7.236 0-4.248 1.89-7.2 5.958-7.2 3.978 0 5.976 2.826 5.976 7.2 0 4.284-1.962 7.236-5.976 7.236Zm22.684-17.442c-2.808 0-5.04 1.08-6.48 3.006v-2.502h-2.88V440h3.24v-10.242c0-4.5 2.124-6.66 5.346-6.66 4.104 0 5.274 3.51 5.274 7.164V440h3.24v-10.746c0-3.69-1.476-9.198-7.74-9.198Zm19.763 20.466c4.842 0 7.776-2.268 7.776-6.03 0-3.006-1.674-4.446-6.804-5.76-4.572-1.152-5.562-1.764-5.562-3.186 0-1.656 1.728-2.736 4.248-2.664 2.646.072 4.446 1.35 4.77 3.42l3.276-.594c-.414-3.42-3.618-5.688-8.046-5.688-4.482 0-7.47 2.268-7.47 5.688 0 2.79 1.638 4.122 6.786 5.49 4.752 1.278 5.49 1.746 5.49 3.384 0 1.908-1.62 3.078-4.266 3.078-2.808 0-4.824-1.314-5.346-3.438l-3.276.522c.666 3.654 3.78 5.778 8.424 5.778Z" fill="#fff"/><path stroke="#fff" stroke-width="3" stroke-dasharray="8 8" d="M157.5 388.5h357v76h-357z"/><path stroke="#0F31F7" stroke-width="6" d="M153 384h366v85H153z"/><path fill="#0F31F7" d="M781 741h366v85H781z"/><path fill="#0F31F7" d="M785.5 745.5h357v76h-357z"/><path d="M869.224 797v-9.576h7.038c.486 0 1.242-.036 1.908-.144 4.176-.648 6.408-3.906 6.408-8.028s-2.214-7.38-6.408-8.028a12.74 12.74 0 0 0-1.908-.144H866.02V797h3.204Zm0-22.878h6.93c.45 0 1.08.036 1.62.162 2.484.558 3.528 2.808 3.528 4.968s-1.044 4.41-3.528 4.968c-.54.126-1.17.162-1.62.162h-6.93v-10.26Zm36.031 14.058c.288-6.912-3.132-11.16-8.982-11.16-5.652 0-9.36 4.014-9.36 10.386 0 6.084 3.762 10.134 9.504 10.134 3.762 0 6.984-1.962 8.514-5.4l-3.078-1.062c-1.08 2.214-3.024 3.42-5.58 3.42-3.582 0-5.67-2.286-5.922-6.318h14.904Zm-8.874-8.28c3.294 0 5.148 1.89 5.544 5.706h-11.52c.45-3.69 2.484-5.706 5.976-5.706Zm17.399-1.152c-.648.468-1.224 1.134-1.656 1.89v-3.078h-2.862V797h3.222v-9.756c0-2.304.468-4.59 2.358-5.94 1.35-.99 3.096-1.08 4.446-.738v-3.006c-1.728-.378-4.014-.018-5.508 1.188Zm15.553 18.774c4.842 0 7.776-2.268 7.776-6.03 0-3.006-1.674-4.446-6.804-5.76-4.572-1.152-5.562-1.764-5.562-3.186 0-1.656 1.728-2.736 4.248-2.664 2.646.072 4.446 1.35 4.77 3.42l3.276-.594c-.414-3.42-3.618-5.688-8.046-5.688-4.482 0-7.47 2.268-7.47 5.688 0 2.79 1.638 4.122 6.786 5.49 4.752 1.278 5.49 1.746 5.49 3.384 0 1.908-1.62 3.078-4.266 3.078-2.808 0-4.824-1.314-5.346-3.438l-3.276.522c.666 3.654 3.78 5.778 8.424 5.778Zm15.31-23.4v-3.312h-3.204v3.312h3.204Zm0 22.878v-19.44h-3.204V797h3.204Zm12.744.522c4.842 0 7.776-2.268 7.776-6.03 0-3.006-1.674-4.446-6.804-5.76-4.572-1.152-5.562-1.764-5.562-3.186 0-1.656 1.728-2.736 4.248-2.664 2.646.072 4.446 1.35 4.77 3.42l3.276-.594c-.414-3.42-3.618-5.688-8.046-5.688-4.482 0-7.47 2.268-7.47 5.688 0 2.79 1.638 4.122 6.786 5.49 4.752 1.278 5.49 1.746 5.49 3.384 0 1.908-1.62 3.078-4.266 3.078-2.808 0-4.824-1.314-5.346-3.438l-3.276.522c.666 3.654 3.78 5.778 8.424 5.778Zm22.6-17.316v-2.646h-5.868v-5.4h-3.204v5.4h-3.942v2.646h3.942v9.45c0 2.016-.108 3.492.666 5.004 1.35 2.646 4.932 3.042 8.406 2.34v-2.754c-2.664.414-4.608.306-5.472-1.242-.468-.81-.396-1.89-.396-3.492v-9.306h5.868Zm20.403 7.974c.29-6.912-3.135-11.16-8.985-11.16-5.652 0-9.36 4.014-9.36 10.386 0 6.084 3.762 10.134 9.504 10.134 3.762 0 6.984-1.962 8.511-5.4l-3.075-1.062c-1.08 2.214-3.024 3.42-5.58 3.42-3.582 0-5.67-2.286-5.922-6.318h14.907Zm-8.877-8.28c3.294 0 5.148 1.89 5.544 5.706h-11.52c.45-3.69 2.484-5.706 5.976-5.706Zm21.697-2.844c-2.81 0-5.04 1.08-6.48 3.006v-2.502h-2.88V797h3.24v-10.242c0-4.5 2.12-6.66 5.35-6.66 4.1 0 5.27 3.51 5.27 7.164V797h3.24v-10.746c0-3.69-1.48-9.198-7.74-9.198Zm20.43 20.484c4.02 0 6.95-1.962 8.32-5.598l-3.24-.846c-.88 2.214-2.56 3.402-5.08 3.402-3.87 0-5.83-2.88-5.86-7.218.03-4.212 1.87-7.218 5.86-7.218 2.36 0 4.32 1.314 5.15 3.564l3.17-.954c-1.03-3.492-4.19-5.652-8.28-5.652-5.85 0-9.25 4.194-9.31 10.26.06 5.958 3.35 10.26 9.27 10.26Zm28.73-9.36c.29-6.912-3.13-11.16-8.98-11.16-5.66 0-9.36 4.014-9.36 10.386 0 6.084 3.76 10.134 9.5 10.134 3.76 0 6.98-1.962 8.51-5.4l-3.07-1.062c-1.08 2.214-3.03 3.42-5.58 3.42-3.59 0-5.67-2.286-5.93-6.318h14.91Zm-8.88-8.28c3.3 0 5.15 1.89 5.55 5.706h-11.52c.45-3.69 2.48-5.706 5.97-5.706Z" fill="#fff"/><path stroke="#fff" stroke-width="3" stroke-dasharray="8 8" d="M785.5 745.5h357v76h-357z"/><path stroke="#0F31F7" stroke-width="6" d="M781 741h366v85H781z"/><path fill="#0F31F7" d="M1396 384h345v85h-345z"/><path fill="#0F31F7" d="M1400.5 388.5h336v76h-336z"/><path d="M1474.76 419.732 1488.28 440h3.24v-25.92h-3.24v20.25l-13.52-20.25h-3.24V440h3.24v-20.268Zm39.05 11.448c.29-6.912-3.13-11.16-8.98-11.16-5.65 0-9.36 4.014-9.36 10.386 0 6.084 3.76 10.134 9.51 10.134 3.76 0 6.98-1.962 8.51-5.4l-3.08-1.062c-1.08 2.214-3.02 3.42-5.58 3.42-3.58 0-5.67-2.286-5.92-6.318h14.9Zm-8.87-8.28c3.29 0 5.15 1.89 5.54 5.706h-11.52c.45-3.69 2.49-5.706 5.98-5.706Zm23.73.306v-2.646h-5.86v-5.4h-3.21v5.4h-3.94v2.646h3.94v9.45c0 2.016-.11 3.492.67 5.004 1.35 2.646 4.93 3.042 8.4 2.34v-2.754c-2.66.414-4.6.306-5.47-1.242-.47-.81-.39-1.89-.39-3.492v-9.306h5.86ZM1539.43 440l4.69-14.778 4.7 14.778h2.67l5.94-19.44h-3.17l-4.36 14.22-4.35-14.22h-2.83l-4.37 14.22-4.34-14.22-3.19-.018 5.94 19.458h2.67Zm28.82.54c5.78 0 9.38-4.176 9.38-10.278 0-6.012-3.54-10.242-9.38-10.242-5.7 0-9.36 4.14-9.36 10.242 0 6.03 3.55 10.278 9.36 10.278Zm0-3.042c-3.92 0-5.95-2.844-5.95-7.236 0-4.248 1.89-7.2 5.95-7.2 3.98 0 5.98 2.826 5.98 7.2 0 4.284-1.96 7.236-5.98 7.236Zm17.86-15.75c-.65.468-1.22 1.134-1.65 1.89v-3.078h-2.87V440h3.23v-9.756c0-2.304.46-4.59 2.35-5.94 1.35-.99 3.1-1.08 4.45-.738v-3.006c-1.73-.378-4.01-.018-5.51 1.188ZM1598.26 440v-9.36l8.84 9.36h4.48l-9.59-9.72 8.59-9.72h-4.16l-8.16 9.36v-15.84h-3.24l-.01 25.92h3.25Zm25.89 0v-25.92h-3.21V440h3.21Zm5.04 0h3.26l6.91-25.92h-3.26l-6.91 25.92Zm25.5.54c7.76 0 12.09-5.508 12.09-13.5s-4.33-13.5-12.09-13.5-12.1 5.508-12.1 13.5 4.34 13.5 12.1 13.5Zm0-3.06c-5.8-.036-8.73-4.23-8.7-10.44.04-6.21 2.9-10.476 8.7-10.44 5.79.036 8.69 4.23 8.69 10.44 0 6.21-2.9 10.476-8.69 10.44Z" fill="#fff"/><path stroke="#fff" stroke-width="3" stroke-dasharray="8 8" d="M1400.5 388.5h336v76h-336z"/><path stroke="#0F31F7" stroke-width="6" d="M1396 384h345v85h-345z"/></svg>