<svg width="130" height="130" viewBox="0 0 56 56" fill="none" xmlns="http://www.w3.org/2000/svg">
<rect width="56" height="56" fill="black" style="fill:black;fill:black;fill-opacity:1;"/>
<path d="M28.049 18.0913C27.3995 18.0913 26.8475 17.8924 26.3929 17.4947C25.9384 17.0969 25.7111 16.6139 25.7111 16.0457C25.7111 15.4774 25.9384 14.9944 26.3929 14.5967C26.8475 14.1989 27.3995 14 28.049 14C28.6984 14 29.2504 14.1989 29.705 14.5967C30.1596 14.9944 30.3869 15.4774 30.3869 16.0457C30.3869 16.6139 30.1596 17.0969 29.705 17.4947C29.2504 17.8924 28.6984 18.0913 28.049 18.0913ZM24.1525 26.0609C23.503 26.0609 22.951 25.862 22.4964 25.4643C22.0419 25.0665 21.8146 24.5835 21.8146 24.0153C21.8146 23.447 22.0419 22.9639 22.4964 22.5662C22.951 22.1684 23.503 21.9696 24.1525 21.9696C24.8019 21.9696 25.3539 22.1684 25.8085 22.5662C26.2631 22.9639 26.4904 23.447 26.4904 24.0153C26.4904 24.5835 26.2631 25.0665 25.8085 25.4643C25.3539 25.862 24.8019 26.0609 24.1525 26.0609ZM31.8968 26.0609C31.2473 26.0609 30.6953 25.862 30.2407 25.4643C29.7862 25.0665 29.5589 24.5835 29.5589 24.0153C29.5589 23.447 29.7862 22.9639 30.2407 22.5662C30.6953 22.1684 31.2473 21.9696 31.8968 21.9696C32.5462 21.9696 33.0982 22.1684 33.5528 22.5662C34.0074 22.9639 34.2347 23.447 34.2347 24.0153C34.2347 24.5835 34.0074 25.0665 33.5528 25.4643C33.0982 25.862 32.5462 26.0609 31.8968 26.0609ZM20.256 34.0304C19.6066 34.0304 19.0546 33.8315 18.6 33.4337C18.1454 33.0361 17.9181 32.5531 17.9181 31.9848C17.9181 31.4165 18.1454 30.9335 18.6 30.5358C19.0546 30.138 19.6066 29.9391 20.256 29.9391C20.9054 29.9391 21.4574 30.138 21.912 30.5358C22.3666 30.9335 22.5939 31.4165 22.5939 31.9848C22.5939 32.5531 22.3666 33.0361 21.912 33.4337C21.4574 33.8315 20.9054 34.0304 20.256 34.0304ZM35.7445 34.0304C35.0951 34.0304 34.5431 33.8315 34.0885 33.4337C33.6339 33.0361 33.4066 32.5531 33.4066 31.9848C33.4066 31.4165 33.6339 30.9335 34.0885 30.5358C34.5431 30.138 35.0951 29.9391 35.7445 29.9391C36.394 29.9391 36.946 30.138 37.4006 30.5358C37.8552 30.9335 38.0824 31.4165 38.0824 31.9848C38.0824 32.5531 37.8552 33.0361 37.4006 33.4337C36.946 33.8315 36.394 34.0304 35.7445 34.0304ZM28.049 38.0365C27.3995 38.0365 26.8475 37.8376 26.3929 37.4399C25.9384 37.0421 25.7111 36.5591 25.7111 35.9909C25.7111 35.4226 25.9384 34.9396 26.3929 34.5419C26.8475 34.1441 27.3995 33.9452 28.049 33.9452C28.6984 33.9452 29.2504 34.1441 29.705 34.5419C30.1596 34.9396 30.3869 35.4226 30.3869 35.9909C30.3869 36.5591 30.1596 37.0421 29.705 37.4399C29.2504 37.8376 28.6984 38.0365 28.049 38.0365ZM16.4082 42C15.7588 42 15.2068 41.8011 14.7522 41.4033C14.2976 41.0056 14.0703 40.5226 14.0703 39.9543C14.0703 39.3861 14.2976 38.9031 14.7522 38.5053C15.2068 38.1076 15.7588 37.9087 16.4082 37.9087C17.0576 37.9087 17.6096 38.1076 18.0642 38.5053C18.5188 38.9031 18.7461 39.3861 18.7461 39.9543C18.7461 40.5226 18.5188 41.0056 18.0642 41.4033C17.6096 41.8011 17.0576 42 16.4082 42ZM39.5923 42C38.9429 42 38.3909 41.8011 37.9363 41.4033C37.4817 41.0056 37.2544 40.5226 37.2544 39.9543C37.2544 39.3861 37.4817 38.9031 37.9363 38.5053C38.3909 38.1076 38.9429 37.9087 39.5923 37.9087C40.2418 37.9087 40.7938 38.1076 41.2484 38.5053C41.7029 38.9031 41.9302 39.3861 41.9302 39.9543C41.9302 40.5226 41.7029 41.0056 41.2484 41.4033C40.7938 41.8011 40.2418 42 39.5923 42Z" fill="white" style="fill:white;fill:white;fill-opacity:1;"/>
</svg>
