<svg fill="none" height="50" viewBox="0 0 113 50" width="113" xmlns="http://www.w3.org/2000/svg" xmlns:xlink="http://www.w3.org/1999/xlink"><linearGradient id="a" gradientUnits="userSpaceOnUse" x1="37.8127" x2="-14.1533" y1="62.7212" y2="2.19614"><stop offset="0" stop-color="#76f3cd" stop-opacity="0"/><stop offset="1" stop-color="#76f3cd"/></linearGradient><path d="m0 4c0-2.20914 1.79086-4 4-4h104.185c2.209 0 4 1.79086 4 4v42c0 2.2091-1.791 4-4 4h-104.185c-2.20914 0-4-1.7909-4-4z" fill="#0d3bed"/><path d="m0 4c0-2.20914 1.79086-4 4-4h104.185c2.209 0 4 1.79086 4 4v42c0 2.2091-1.791 4-4 4h-104.185c-2.20914 0-4-1.7909-4-4z" fill="url(#a)" fill-opacity=".5"/><g fill="#fff"><path clip-rule="evenodd" d="m25 11c-7.7321 0-14 6.2679-14 14s6.2679 14 14 14 14-6.2679 14-14-6.2679-14-14-14zm1.359 6.4279c.23-.6096.4566-1.2102.6832-1.7984h-.4969l-8.4462 9.2593v.6614h6.9557v.6614l-3.4778 7.4404c0 .1654 0 .3307.1656.4961l9.9367-11.0781c-.1656-.1653-.1656-.3307-.1656-.3307h-6.7901c-.3312 0-.3312-.3307-.3312-.3307.7217-1.6813 1.3561-3.3627 1.9666-4.9807z" fill-rule="evenodd"/><path d="m49.0533 35.3047h11.4472v-3.2596h-7.9566v-15.2202h-3.4906zm13.6293 0h5.9802c.1455 0 .4449-.0043.8984-.0128.4534-.0086.8897-.0385 1.309-.0899 1.4886-.1796 2.7505-.6972 3.7858-1.5528 1.0352-.8555 1.8223-1.9421 2.3613-3.2596.539-1.3176.8085-2.7592.8085-4.3248 0-1.5657-.2695-3.0073-.8085-4.3248-.539-1.3176-1.3261-2.4041-2.3613-3.2596-1.0353-.8556-2.2972-1.3732-3.7858-1.5529-.4193-.0513-.8556-.0812-1.309-.0898-.4535-.0085-.7529-.0128-.8984-.0128h-5.9802zm3.5419-3.2853v-11.9092h2.4383c.231 0 .5433.0043.9369.0128.3935.0086.7486.0471 1.0651.1155.7786.154 1.4245.5176 1.9378 1.0908.5134.5732.8941 1.2748 1.1422 2.1047.2567.8299.385 1.7068.385 2.6308 0 .8812-.1241 1.7367-.3722 2.5666-.2395.8299-.616 1.54-1.1293 2.1303-.5048.5904-1.1593.9668-1.9635 1.1294-.3165.0598-.6716.0983-1.0651.1155-.3936.0085-.7059.0128-.9369.0128zm14.6802 3.2853h3.4907v-8.4186l7.3662 8.4186h4.4146l-8.2132-9.3683 7.7256-9.1115h-4.2607l-7.0325 8.5212v-8.5212h-3.4907z"/></g></svg>