<svg width="98" height="46" fill="none" xmlns="http://www.w3.org/2000/svg"><path d="M0 4.54a4 4 0 014-4h89.28a4 4 0 014 4V41.46a4 4 0 01-4 4H4a4 4 0 01-4-4V4.54z" fill="#0D3BED"/><path d="M0 4.54a4 4 0 014-4h89.28a4 4 0 014 4V41.46a4 4 0 01-4 4H4a4 4 0 01-4-4V4.54z" fill="url(#paint0_linear)" fill-opacity=".5"/><path fill-rule="evenodd" clip-rule="evenodd" d="M22.461 11.54C16.131 11.54 11 16.67 11 23c0 6.33 5.131 11.461 11.461 11.461s11.461-5.13 11.461-11.46c0-6.33-5.131-11.462-11.46-11.462zm1.113 5.262c.188-.5.373-.99.559-1.472h-.407l-6.914 7.58v.541h5.694v.542l-2.847 6.09c0 .136 0 .272.135.407l8.135-9.07c-.135-.135-.135-.27-.135-.27h-5.56c-.27 0-.27-.27-.27-.27.59-1.377 1.11-2.754 1.61-4.078z" fill="#fff"/><path d="M43.603 31.246h9.371v-2.668H46.46v-12.46h-2.857v15.128zm11.157 0h4.896c.12 0 .364-.003.736-.01.37-.007.728-.032 1.071-.074 1.219-.147 2.252-.57 3.1-1.271.847-.7 1.491-1.59 1.933-2.669.44-1.078.661-2.259.661-3.54 0-1.282-.22-2.462-.661-3.54-.442-1.08-1.086-1.969-1.933-2.67-.848-.7-1.881-1.123-3.1-1.27-.343-.042-.7-.067-1.071-.074-.372-.007-.617-.01-.736-.01h-4.895v15.128zm2.9-2.69v-9.749h1.996c.19 0 .445.004.767.01.322.008.613.04.872.095a2.8 2.8 0 011.587.893c.42.47.731 1.044.935 1.723.21.68.315 1.397.315 2.154 0 .721-.102 1.422-.305 2.101a4.531 4.531 0 01-.924 1.744c-.414.483-.95.791-1.608.924-.259.05-.55.081-.872.095-.322.007-.578.01-.767.01H57.66zm12.018 2.69h2.858v-6.892l6.03 6.892h3.614l-6.724-7.67 6.325-7.458h-3.488l-5.757 6.976v-6.976h-2.858v15.128z" fill="#fff"/><defs><linearGradient id="paint0_linear" x1="32.789" y1="56.891" x2="-14.122" y2="4.157" gradientUnits="userSpaceOnUse"><stop stop-color="#76F3CD" stop-opacity="0"/><stop offset="1" stop-color="#76F3CD"/></linearGradient></defs></svg>