<svg fill="none" height="200" viewBox="0 0 200 200" width="200" xmlns="http://www.w3.org/2000/svg" xmlns:xlink="http://www.w3.org/1999/xlink"><linearGradient id="a" gradientUnits="userSpaceOnUse" x1="200" x2="9" y1="200" y2=".000006"><stop offset=".473958" stop-color="#76f3cd" stop-opacity="0"/><stop offset="1" stop-color="#76f3cd"/></linearGradient><path d="m0 4c0-2.20914 1.79086-4 4-4h192c2.209 0 4 1.79086 4 4v192c0 2.209-1.791 4-4 4h-192c-2.20914 0-4-1.791-4-4z" fill="#0f31f7"/><path d="m0 4c0-2.20914 1.79086-4 4-4h192c2.209 0 4 1.79086 4 4v192c0 2.209-1.791 4-4 4h-192c-2.20914 0-4-1.791-4-4z" fill="url(#a)" fill-opacity=".5"/><g fill="#fff"><path d="m22.24 155h12.488v-3.556h-8.68v-16.604h-3.808zm15.1484 0h3.808v-20.16h-3.808zm16.4052.42c1.9413 0 3.626-.42 5.054-1.26 1.428-.849 2.534-2.021 3.318-3.514s1.176-3.206 1.176-5.138c0-.047-.0047-.224-.014-.532s-.0233-.523-.042-.644h-7.252v2.94h3.192c-.308 1.596-.924 2.763-1.848 3.5-.9147.737-2.0253 1.092-3.332 1.064-1.9133-.028-3.3507-.663-4.312-1.904-.952-1.241-1.428-2.912-1.428-5.012s.476-3.785 1.428-5.054c.9613-1.269 2.3987-1.89 4.312-1.862 1.288.009 2.3427.369 3.164 1.078.8307.7 1.428 1.638 1.792 2.814l3.892-.56c-.504-2.203-1.498-3.906-2.982-5.11s-3.5233-1.806-6.118-1.806c-1.7547 0-3.3553.411-4.802 1.232-1.4373.821-2.5853 2.016-3.444 3.584-.8493 1.559-1.274 3.453-1.274 5.684 0 1.708.252 3.215.756 4.522.5133 1.307 1.2087 2.403 2.086 3.29.8867.887 1.904 1.559 3.052 2.016 1.148.448 2.3567.672 3.626.672zm12.3539-.42h3.808v-8.316h9.016v8.316h3.808v-20.16h-3.808v8.288h-9.016v-8.288h-3.808zm25.2385 0h3.808v-16.604h6.356v-3.556h-16.52v3.556h6.356zm12.414 0h3.864v-13.44l8.764 13.44h3.864v-20.16h-3.864v13.44l-8.764-13.44h-3.864zm20.678 0h3.808v-20.16h-3.808zm8.005 0h3.864v-13.44l8.764 13.44h3.864v-20.16h-3.864v13.44l-8.764-13.44h-3.864zm28.799.42c1.941 0 3.626-.42 5.054-1.26 1.428-.849 2.534-2.021 3.318-3.514s1.176-3.206 1.176-5.138c0-.047-.005-.224-.014-.532s-.023-.523-.042-.644h-7.252v2.94h3.192c-.308 1.596-.924 2.763-1.848 3.5-.915.737-2.025 1.092-3.332 1.064-1.913-.028-3.351-.663-4.312-1.904-.952-1.241-1.428-2.912-1.428-5.012s.476-3.785 1.428-5.054c.961-1.269 2.399-1.89 4.312-1.862 1.288.009 2.343.369 3.164 1.078.831.7 1.428 1.638 1.792 2.814l3.892-.56c-.504-2.203-1.498-3.906-2.982-5.11s-3.523-1.806-6.118-1.806c-1.755 0-3.355.411-4.802 1.232-1.437.821-2.585 2.016-3.444 3.584-.849 1.559-1.274 3.453-1.274 5.684 0 1.708.252 3.215.756 4.522.513 1.307 1.209 2.403 2.086 3.29.887.887 1.904 1.559 3.052 2.016 1.148.448 2.357.672 3.626.672zm-139.322 23.58h6.524c.1587 0 .4853-.005.98-.014s.9707-.042 1.428-.098c1.624-.196 3.0007-.761 4.13-1.694s1.988-2.119 2.576-3.556.882-3.01.882-4.718-.294-3.281-.882-4.718-1.4467-2.623-2.576-3.556-2.506-1.498-4.13-1.694c-.4573-.056-.9333-.089-1.428-.098s-.8213-.014-.98-.014h-6.524zm3.864-3.584v-12.992h2.66c.252 0 .5927.005 1.022.014s.8167.051 1.162.126c.8493.168 1.554.565 2.114 1.19s.9753 1.391 1.246 2.296c.28.905.42 1.862.42 2.87 0 .961-.1353 1.895-.406 2.8-.2613.905-.672 1.68-1.232 2.324-.5507.644-1.2647 1.055-2.142 1.232-.3453.065-.7327.107-1.162.126-.4293.009-.77.014-1.022.014zm16.0149 3.584h13.16v-3.556h-9.352v-5.18h7.672v-3.556h-7.672v-4.312h9.352v-3.556h-13.16zm20.8556 0h5.684l6.16-20.16h-3.92l-5.124 16.576-5.04-16.576h-3.92zm19.5585 0h3.808v-9.184l8.036 9.184h4.816l-8.96-10.22 8.428-9.94h-4.648l-7.672 9.296v-9.296h-3.808zm18.901 0h3.808v-20.16h-3.808zm12.681 0h3.808v-16.604h6.356v-3.556h-16.52v3.556h6.356z"/><path clip-rule="evenodd" d="m60 20c-22.0917 0-40 17.9083-40 40s17.9083 40 40 40 40-17.9083 40-40-17.9083-40-40-40zm4.2338 18.5123c.6624-1.7556 1.315-3.4853 1.9676-5.1793h-1.4309l-24.3252 26.6667v1.9047h20.0325v1.9048l-10.0162 21.4285c0 .4762 0 .9524.4769 1.4286l28.6179-31.9047c-.477-.4762-.477-.9524-.477-.9524h-19.5555c-.9539 0-.9539-.9524-.9539-.9524 2.0786-4.8423 3.9056-9.6847 5.6638-14.3445z" fill-rule="evenodd"/></g></svg>