<svg fill="none" height="200" width="200" xmlns="http://www.w3.org/2000/svg" xmlns:xlink="http://www.w3.org/1999/xlink"><linearGradient id="a" gradientUnits="userSpaceOnUse" x1="200" x2="9" y1="200" y2="0"><stop offset=".474" stop-color="#76f3cd" stop-opacity="0"/><stop offset="1" stop-color="#76f3cd"/></linearGradient><path d="m0 4a4 4 0 0 1 4-4h192a4 4 0 0 1 4 4v192a4 4 0 0 1 -4 4h-192a4 4 0 0 1 -4-4z" fill="#0f31f7"/><path d="m0 4a4 4 0 0 1 4-4h192a4 4 0 0 1 4 4v192a4 4 0 0 1 -4 4h-192a4 4 0 0 1 -4-4z" fill="url(#a)" fill-opacity=".5"/><g fill="#fff"><path d="m22.24 155h12.488v-3.556h-8.68v-16.604h-3.808zm15.148 0h3.808v-20.16h-3.808zm16.406.42c1.94 0 3.626-.42 5.054-1.26a8.723 8.723 0 0 0 3.318-3.514c.784-1.493 1.176-3.206 1.176-5.138 0-.047-.005-.224-.014-.532a6.146 6.146 0 0 0 -.042-.644h-7.252v2.94h3.192c-.308 1.596-.924 2.763-1.848 3.5-.915.737-2.026 1.092-3.332 1.064-1.914-.028-3.351-.663-4.312-1.904-.952-1.241-1.428-2.912-1.428-5.012s.476-3.785 1.428-5.054c.96-1.269 2.398-1.89 4.312-1.862 1.288.009 2.342.369 3.164 1.078.83.7 1.428 1.638 1.792 2.814l3.892-.56c-.504-2.203-1.498-3.906-2.982-5.11s-3.524-1.806-6.118-1.806c-1.755 0-3.356.411-4.802 1.232-1.438.821-2.586 2.016-3.444 3.584-.85 1.559-1.274 3.453-1.274 5.684 0 1.708.252 3.215.756 4.522.513 1.307 1.208 2.403 2.086 3.29a8.964 8.964 0 0 0 3.052 2.016 9.885 9.885 0 0 0 3.626.672zm12.353-.42h3.808v-8.316h9.017v8.316h3.808v-20.16h-3.808v8.288h-9.016v-8.288h-3.809zm25.239 0h3.808v-16.604h6.356v-3.556h-16.52v3.556h6.356zm12.414 0h3.864v-13.44l8.764 13.44h3.864v-20.16h-3.864v13.44l-8.764-13.44h-3.864zm20.678 0h3.808v-20.16h-3.808zm8.005 0h3.864v-13.44l8.764 13.44h3.864v-20.16h-3.864v13.44l-8.764-13.44h-3.864zm28.799.42c1.941 0 3.626-.42 5.054-1.26a8.723 8.723 0 0 0 3.318-3.514c.784-1.493 1.176-3.206 1.176-5.138 0-.047-.005-.224-.014-.532a5.98 5.98 0 0 0 -.042-.644h-7.252v2.94h3.192c-.308 1.596-.924 2.763-1.848 3.5-.915.737-2.025 1.092-3.332 1.064-1.913-.028-3.351-.663-4.312-1.904-.952-1.241-1.428-2.912-1.428-5.012s.476-3.785 1.428-5.054c.961-1.269 2.399-1.89 4.312-1.862 1.288.009 2.343.369 3.164 1.078.831.7 1.428 1.638 1.792 2.814l3.892-.56c-.504-2.203-1.498-3.906-2.982-5.11s-3.523-1.806-6.118-1.806c-1.755 0-3.355.411-4.802 1.232-1.437.821-2.585 2.016-3.444 3.584-.849 1.559-1.274 3.453-1.274 5.684 0 1.708.252 3.215.756 4.522.513 1.307 1.209 2.403 2.086 3.29a8.966 8.966 0 0 0 3.052 2.016 9.887 9.887 0 0 0 3.626.672zm-139.322 23.58h6.524c.159 0 .485-.005.98-.014s.97-.042 1.428-.098c1.624-.196 3-.761 4.13-1.694s1.988-2.119 2.576-3.556.882-3.01.882-4.718-.294-3.281-.882-4.718-1.447-2.623-2.576-3.556c-1.13-.933-2.506-1.498-4.13-1.694a13.815 13.815 0 0 0 -1.428-.098 71.203 71.203 0 0 0 -.98-.014h-6.524zm3.864-3.584v-12.992h2.66c.252 0 .593.005 1.022.014.43.009.817.051 1.162.126.85.168 1.554.565 2.114 1.19s.975 1.391 1.246 2.296c.28.905.42 1.862.42 2.87 0 .961-.135 1.895-.406 2.8-.261.905-.672 1.68-1.232 2.324-.55.644-1.265 1.055-2.142 1.232a8.3 8.3 0 0 1 -1.162.126 52.1 52.1 0 0 1 -1.022.014zm16.015 3.584h13.16v-3.556h-9.352v-5.18h7.672v-3.556h-7.672v-4.312h9.352v-3.556h-13.16zm20.855 0h5.684l6.16-20.16h-3.92l-5.123 16.576-5.04-16.576h-3.92l6.16 20.16zm19.559 0h3.808v-9.184l8.036 9.184h4.816l-8.96-10.22 8.428-9.94h-4.648l-7.672 9.296v-9.296h-3.808zm18.901 0h3.808v-20.16h-3.808zm12.681 0h3.808v-16.604h6.356v-3.556h-16.52v3.556h6.356z"/><path clip-rule="evenodd" d="m60 20c-22.092 0-40 17.908-40 40s17.908 40 40 40 40-17.908 40-40-17.908-40-40-40zm4.234 18.512c.662-1.755 1.315-3.485 1.967-5.179h-1.43l-24.327 26.667v1.904h20.033v1.905l-10.015 21.429c0 .476 0 .952.476 1.428l28.618-31.904c-.477-.477-.477-.953-.477-.953h-19.555c-.954 0-.954-.952-.954-.952 2.079-4.843 3.906-9.685 5.664-14.345z" fill-rule="evenodd"/></g></svg>